<svg height="460.994" viewBox="0 0 461 460.994" width="461" xmlns="http://www.w3.org/2000/svg" xmlns:xlink="http://www.w3.org/1999/xlink"><linearGradient id="a" gradientUnits="objectBoundingBox" x1=".5" x2=".5" y2="1"><stop offset="0" stop-color="#c099fb"/><stop offset="1" stop-color="#f3f6f8"/></linearGradient><path d="m307.612 153.4a130.4 130.4 0 0 1 115.7 35.555 133.788 133.788 0 0 1 -2.75 188.922l-83.147 83.123-34.9-34.9 83.125-83.125a82.319 82.319 0 1 0 -116.34-116.367l-83.125 83.125-34.9-34.9 83.125-83.125a83.6 83.6 0 0 0 1.7-118.075 83.6 83.6 0 0 0 -118.065 1.712l-83.135 83.125-34.9-34.899 83.125-83.125a133.778 133.778 0 0 1 188.912-2.76 130.454 130.454 0 0 1 35.563 115.714m-116.474.1-83.126 83.13a83.6 83.6 0 0 0 -1.712 118.085 83.6 83.6 0 0 0 118.075-1.722l83.125-83.125 34.9 34.9-83.125 83.125a133.778 133.778 0 0 1 -188.912 2.76 133.788 133.788 0 0 1 2.76-188.922l83.127-83.131z" fill="url(#a)" transform="translate(0 -.002)"/></svg>