<svg height="45.771" viewBox="0 0 186.718 45.771" width="186.718" xmlns="http://www.w3.org/2000/svg" xmlns:xlink="http://www.w3.org/1999/xlink"><clipPath id="a"><path d="m0 0h186.718v45.771h-186.718z"/></clipPath><g clip-path="url(#a)"><g fill="#fff"><path d="m346 77.482a10.2 10.2 0 0 0 -10.19 10.19v8.839h3.821v-8.839a6.369 6.369 0 1 1 12.738 0v8.839h3.821v-8.839a10.2 10.2 0 0 0 -10.19-10.19" transform="translate(-277.91 -64.122)"/><path d="m786.974 46.127h-5.706v-6.533h-3.821v25.79h9.528a9.629 9.629 0 1 0 0-19.257m0 15.437h-5.706v-11.616h5.706a5.807 5.807 0 1 1 0 11.614" transform="translate(-643.397 -32.767)"/><path d="m561.768 77.478a10.182 10.182 0 0 0 -8.28 4.261 10.185 10.185 0 0 0 -18.47 5.93v8.839h3.821v-8.84a6.369 6.369 0 0 1 12.738 0v8.839h3.823v-8.839a6.369 6.369 0 1 1 12.738 0v8.839h3.821v-8.839a10.2 10.2 0 0 0 -10.19-10.19" transform="translate(-442.769 -64.118)"/><path d="m0 0h3.821v19.006h-3.821z" transform="translate(83.386 13.382)"/><path d="m0 0h3.821v25.608h-3.821z" transform="translate(157.689 6.781)"/><path d="m981.262 80.915v8.839a6.369 6.369 0 1 1 -12.738 0v-8.839h-3.824v8.839a10.206 10.206 0 0 0 8.28 10.008v6.1h3.82v-6.1a10.206 10.206 0 0 0 8.28-10.008v-8.839z" transform="translate(-798.366 -66.963)"/></g><path d="m30.541 15.232a12.947 12.947 0 0 1 11.487 3.53 13.283 13.283 0 0 1 -.273 18.757l-8.255 8.252-3.465-3.465 8.253-8.253a8.173 8.173 0 1 0 -11.551-11.553l-8.253 8.253-3.465-3.465 8.253-8.253a8.3 8.3 0 0 0 .169-11.723 8.3 8.3 0 0 0 -11.722.17l-8.254 8.253-3.465-3.465 8.253-8.253a13.282 13.282 0 0 1 18.756-.274 12.952 12.952 0 0 1 3.531 11.489m-11.564.01-8.253 8.258a8.3 8.3 0 0 0 -.17 11.724 8.3 8.3 0 0 0 11.723-.171l8.253-8.253 3.465 3.465-8.253 8.253a13.282 13.282 0 0 1 -18.756.274 13.283 13.283 0 0 1 .274-18.762l8.253-8.253z" fill="#c099fb"/></g></svg>