<svg enable-background="new 0 0 338.65961 96" viewBox="0 0 338.65961 96" xmlns="http://www.w3.org/2000/svg"><g fill="#213343"><path d="m36.67725 54.33219h-24.86807v26.1964h-11.80918v-64.63776h11.80918v27.0802h24.86807v-27.0802h11.80653v64.63776h-11.80653z"/><path d="m86.26936 59.63634c0 5.38344-4.38531 9.76375-9.76755 9.76375-5.38368 0-9.76616-4.38031-9.76616-9.76375v-27.6849h-11.18226v27.6849c0 11.55025 9.39764 20.94558 20.94842 20.94558 11.54842 0 20.94605-9.39533 20.94605-20.94558v-27.6849h-11.1785z"/><path d="m169.24556 34.8019c0-5.67621 3.75699-7.47615 7.87025-7.47615 3.31201 0 7.69472 2.52069 10.55424 5.58361l7.33325-8.6444c-3.66451-4.9512-11.08791-8.37413-17.17075-8.37413-12.16731 0-20.93385 7.11424-20.93385 18.91106 0 21.88046 26.7482 14.94479 26.7482 27.19404 0 3.77753-3.66638 7.11236-7.86934 7.11236-6.6217 0-8.76961-3.24174-11.80986-6.664l-8.14182 8.46272c5.19122 6.39373 11.63008 9.63736 19.32365 9.63736 11.53949 0 20.84325-7.20405 20.84325-18.46149.00002-24.3114-26.74722-16.74661-26.74722-27.28098z"/><path d="m334.72049 70.20278c-6.61697 0-8.49506-2.86096-8.49506-7.24598v-19.41022h10.28482v-9.83892h-10.28482v-12.97251l-11.35779 5.09826v39.53931c0 10.1093 6.97464 15.2092 16.54266 15.2092 1.43121 0 3.40121-.09248 4.47568-.35766l2.77362-10.19706c-1.25185.08637-2.68258.17558-3.93911.17558z"/><path d="m128.89323 32.27533c-5.54673 0-9.41829 1.61002-13.15736 5.28003v-21.27851h-11.21809v39.43546c0 14.7604 10.67161 24.86963 22.66236 24.86963 13.32906 0 25.00777-10.28899 25.00777-24.15232 0-13.68771-10.76922-24.15429-23.29468-24.15429zm-.06973 37.0164c-7.02754 0-12.72374-5.69642-12.72374-12.72353 0-7.02689 5.6962-12.72353 12.72374-12.72353 7.02667 0 12.72331 5.69664 12.72331 12.72353 0 7.0271-5.69664 12.72353-12.72331 12.72353z"/><path d="m250.68346 55.84724c0-13.86333-11.67873-24.15232-25.00778-24.15232-11.99075 0-22.66235 10.10922-22.66235 24.86963v39.43545h11.21809v-21.27851c3.73906 3.67001 7.61063 5.28003 13.15735 5.28003 12.52545 0 23.29469-10.46658 23.29469-24.15428zm-10.64112-.13859c0 7.02689-5.69664 12.72353-12.72331 12.72353-7.02754 0-12.72374-5.69664-12.72374-12.72353 0-7.0271 5.6962-12.72353 12.72374-12.72353 7.02667.00001 12.72331 5.69643 12.72331 12.72353z"/></g><path d="m286.93246 31.15154v-11.26842c2.94116-1.38951 5.00201-4.36508 5.00201-7.8185v-.26038c0-4.76557-3.89944-8.6648-8.66483-8.6648h-.26016c-4.76578 0-8.66522 3.89923-8.66522 8.6648v.26038c0 3.45341 2.06128 6.42942 5.00241 7.81872v11.26842c-4.37924.67656-8.38065 2.48269-11.68219 5.14079l-30.93887-24.06756c.20351-.78377.34645-1.59129.34732-2.43868.00697-5.39791-4.36313-9.77933-9.76125-9.78631-5.39813-.00675-9.77956 4.36356-9.78653 9.76147-.00653 5.39791 4.36356 9.77933 9.76169 9.78609 1.75928.00218 3.38739-.49745 4.81461-1.30911l30.43465 23.67579c-2.58859 3.90685-4.10425 8.5868-4.10425 13.62452 0 5.27458 1.66602 10.15281 4.48209 14.16577l-9.25574 9.25574c-.73169-.21942-1.49127-.37304-2.29486-.37304-4.43547 0-8.0316 3.59592-8.0316 8.0316s3.59613 8.0316 8.0316 8.0316c4.4359 0 8.03159-3.59592 8.03159-8.0316 0-.80316-.15338-1.56296-.37302-2.29465l9.15549-9.15528c4.1557 3.17255 9.33069 5.07803 14.96283 5.07803 13.64545 0 24.70752-11.06229 24.70752-24.70817 0-12.35289-9.07489-22.55843-20.91529-24.38722zm-3.79223 37.05474c-6.99615 0-12.6684-5.67137-12.6684-12.66753 0-6.99594 5.67224-12.66753 12.6684-12.66753 6.9953 0 12.66754 5.67158 12.66754 12.66753 0 6.99617-5.67224 12.66753-12.66754 12.66753z" fill="#ff5c35"/></svg>