<svg viewBox="0 0 512.001 512.001" xmlns="http://www.w3.org/2000/svg"><path d="m229.99 62.392-4.96 25.135c-9.823-3.893-18.633-9.726-25.955-17.048-7.332-7.322-13.166-16.131-17.059-25.965l25.135-4.949h.011c1.057 5.467 3.709 10.664 7.936 14.891 4.228 4.226 9.436 6.868 14.892 7.936z" fill="#f2f2f2"/><path d="m235.608 33.946-5.618 28.446c-5.456-1.068-10.664-3.709-14.891-7.936s-6.88-9.424-7.936-14.891z" fill="#f95428"/><path d="m225.03 87.527v.011l-97.834 97.845-16.304 16.304-.733-.733c-7.548-7.548-16.627-12.659-26.235-15.323l115.151-115.152c7.322 7.322 16.132 13.155 25.955 17.048z" fill="#999"/><path d="m199.075 70.479-115.151 115.152c-20.1-5.586-42.539-.485-58.347 15.323l156.44-156.44c3.892 9.833 9.726 18.643 17.058 25.965z" fill="#ccc"/><path d="m272.378 181.177.011 37.805h-.011l-27.982-.808v-.13-36.058z" fill="#ccc"/><path d="m244.396 218.044v.13l-120.521-3.505-12.983-12.982 16.304-16.304 117.2-3.397z" fill="#f95428"/><path d="m396.081 199.228 9.608-4.637s-46.874 79.525-133.3 24.391l-.011-37.805 9.36-5.877c19.593-12.303 45.332-7.634 59.35 10.761 8.691 11.398 21.976 17.609 35.584 17.609 6.556.001 13.187-1.444 19.409-4.442z" fill="#f7b239"/><path d="m355.613 425.918h26.472v52.136h-26.472z" fill="#2197d8"/><path d="m365.371 285.535 21.383-21.383 21.393-21.393 21.393-21.383 26.979-26.979 47.391 47.391-184.13 184.131-34.624 34.624c11.678-11.678 17.522-26.979 17.522-42.291s-5.844-30.613-17.522-42.291l-5.1-5.111 21.145-21.145 21.393-21.383 21.383-21.393z" fill="#f7b239"/><path d="m431.007 425.919c14.395 0 26.063 11.667 26.063 26.073 0 7.192-2.911 13.716-7.634 18.428-4.712 4.723-11.236 7.634-18.428 7.634h-22.461v-52.136z" fill="#2ba5f7"/><path d="m382.086 425.918h26.462v52.136h-26.462z" fill="#2197d8"/><path d="m355.612 425.919v52.136h-109.911v-.054-.011c14.341-.679 28.499-6.491 39.455-17.447l34.624-34.624z" fill="#2ba5f7"/><path d="m285.156 375.962c11.678 11.678 17.522 26.979 17.522 42.291s-5.844 30.613-17.522 42.291c-10.956 10.956-25.114 16.768-39.455 17.447-16.239.766-32.726-5.046-45.127-17.447l-174.997-175.009c-11.678-11.678-17.512-26.979-17.512-42.291s5.834-30.613 17.512-42.291c15.808-15.808 38.247-20.908 58.347-15.323 9.608 2.663 18.687 7.775 26.235 15.323l.733.733 12.983 12.983 156.181 156.181z" fill="#f95428"/><g fill="#333"><path d="m271.817 447.197c7.722-7.723 11.975-18.003 11.975-28.949 0-10.945-4.253-21.226-11.975-28.948-3.159-3.158-8.279-3.158-11.438 0-3.158 3.158-3.158 8.278 0 11.436 4.668 4.668 7.239 10.887 7.239 17.512s-2.571 12.845-7.238 17.512c-4.679 4.678-10.897 7.254-17.512 7.254-6.616 0-12.835-2.576-17.512-7.254l-134.212-134.213c-3.159-3.157-8.279-3.158-11.438 0-3.158 3.158-3.158 8.278 0 11.436l134.213 134.214c7.732 7.732 18.013 11.992 28.95 11.992 10.933 0 21.214-4.259 28.948-11.992z"/><path d="m67.866 218.481c6.616 0 12.835 2.576 17.512 7.254l131.362 131.363c1.58 1.58 3.65 2.369 5.719 2.369s4.14-.789 5.719-2.369c3.158-3.158 3.158-8.278 0-11.436l-131.363-131.364c-7.732-7.732-18.013-11.992-28.95-11.992-10.935 0-21.216 4.258-28.949 11.992-7.722 7.723-11.975 18.003-11.975 28.948s4.253 21.226 11.975 28.948c3.159 3.158 8.279 3.158 11.438 0 3.158-3.158 3.158-8.278 0-11.436-4.668-4.668-7.239-10.887-7.239-17.512s2.571-12.844 7.238-17.512c4.679-4.676 10.898-7.253 17.513-7.253z"/><path d="m512.001 241.789c0-2.145-.852-4.202-2.368-5.718l-47.397-47.397c-3.16-3.159-8.28-3.158-11.438 0l-170.742 170.741-136.07-136.07 125.993 3.655c20.966 12.998 41.43 19.55 61.1 19.55 6.867 0 13.639-.797 20.3-2.393 39.697-9.511 60.415-44 61.278-45.463 1.809-3.07 1.396-6.962-1.016-9.583-2.412-2.62-6.257-3.357-9.466-1.806l-9.608 4.639c-15.603 7.533-34.549 2.997-45.05-10.785-16.663-21.873-46.792-27.337-70.076-12.712l-7.491 4.706-122.646 3.554 83.449-83.45c1.134-1.134 1.905-2.58 2.216-4.154l10.574-53.594c.521-2.646-.309-5.377-2.216-7.284-1.909-1.906-4.635-2.737-7.285-2.216l-53.593 10.573c-1.573.311-3.02 1.082-4.155 2.216l-156.44 156.438c-26.472 26.473-26.472 69.548 0 96.022l175.003 175.002c13.236 13.236 30.624 19.855 48.01 19.855.604 0 188.139.029 188.139.029 16.047 0 29.537-11.127 33.179-26.068h7.985c4.467 0 8.087-3.621 8.087-8.087s-3.62-8.087-8.087-8.087h-7.985c-3.642-14.941-17.132-26.068-33.179-26.068h-91.701l170.326-170.326c1.518-1.517 2.37-3.575 2.37-5.719zm-177.351-50.828c10.906 14.314 28.12 21.711 45.323 20.666-8.218 6.904-19.059 13.615-32.364 16.802-20.803 4.985-43.374.283-67.137-13.961l-.005-28.821 5.576-3.502c16.151-10.146 37.048-6.356 48.607 8.816zm-70.354 19.694-11.815-.343v-20.47l11.812-.342zm-27.989-20.346v19.532l-108.986-3.163-4.996-4.996 8.314-8.314zm-26.927-130.138c3.285 3.285 7.105 5.89 11.284 7.725l-1.541 7.81c-10.49-6.041-19.24-14.791-25.281-25.281l7.81-1.541c1.836 4.18 4.442 8.002 7.728 11.287zm-10.009 21.446c3.719 3.072 7.707 5.824 11.915 8.231l-100.658 100.658c-3.844-3.122-7.958-5.744-12.248-7.899zm24.569-30.325c-1.111-.748-2.161-1.596-3.123-2.559-.963-.963-1.812-2.013-2.56-3.124l7.079-1.396zm-44.238 6.972c2.408 4.209 5.159 8.196 8.232 11.915l-106.561 106.559c-6.267-1.263-12.677-1.631-19.029-1.117zm-148.409 221.556c-20.166-20.166-20.166-52.98-.001-73.147 10.085-10.084 23.328-15.125 36.575-15.125 13.243 0 26.491 5.043 36.573 15.124l175.002 175.003c9.771 9.769 15.15 22.758 15.15 36.574 0 13.815-5.38 26.804-15.15 36.574-9.769 9.769-22.756 15.149-36.573 15.149s-26.803-5.381-36.573-15.149zm342.702 190.149h-10.293v-35.961h10.293zm16.175-35.961h10.293v35.961h-10.293zm58.817 17.98c0 9.915-8.066 17.981-17.981 17.981h-14.368v-35.961h14.368c9.915 0 17.981 8.065 17.981 17.98zm-101.46-17.98v35.961h-60.699c1.385-1.179 2.742-2.402 4.05-3.709l32.252-32.252zm-37.033-10.239c1.529-18.908-4.808-38.328-19.017-52.901l9.724-9.724 8.136 8.136c1.58 1.58 3.65 2.369 5.719 2.369s4.14-.789 5.719-2.369c3.158-3.158 3.158-8.279 0-11.438l-8.136-8.136 9.952-9.952 8.136 8.136c1.58 1.58 3.65 2.369 5.719 2.369s4.14-.789 5.719-2.369c3.158-3.158 3.158-8.279 0-11.438l-8.136-8.136 9.952-9.952 8.136 8.136c1.58 1.58 3.65 2.369 5.719 2.369s4.14-.789 5.719-2.369c3.158-3.158 3.158-8.279 0-11.438l-8.136-8.136 9.952-9.952 8.136 8.136c1.58 1.58 3.65 2.369 5.719 2.369s4.14-.789 5.719-2.369c3.158-3.158 3.158-8.279 0-11.438l-8.136-8.136 9.952-9.952 8.136 8.136c1.58 1.58 3.65 2.369 5.719 2.369s4.14-.789 5.719-2.369c3.158-3.158 3.158-8.279 0-11.438l-8.136-8.136 9.952-9.952 8.136 8.136c1.58 1.58 3.65 2.369 5.719 2.369s4.14-.789 5.719-2.369c3.158-3.158 3.158-8.279 0-11.438l-8.136-8.136 9.952-9.952 8.136 8.136c1.58 1.58 3.65 2.369 5.719 2.369s4.14-.789 5.719-2.369c3.158-3.158 3.158-8.279 0-11.438l-8.136-8.136 15.543-15.543 35.96 35.959z"/></g></svg>