<svg viewBox="0 0 847.38 445.2" xmlns="http://www.w3.org/2000/svg"><g fill="#57c4c4"><path d="m176.31 101.44c0-17.86 14.88-31.9 32.32-31.9a32 32 0 0 1 32.32 31.9 32.32 32.32 0 0 1 -64.64 0z"/><path d="m540.23 101.44c0-17.86 14.88-31.9 32.32-31.9a32 32 0 0 1 32.32 31.9 32.32 32.32 0 0 1 -64.64 0z"/><path d="m181.84 154.95h54.01v205.4h-54.01z"/><path d="m545.76 154.95h54.01v205.4h-54.01z"/><path d="m630.07 257.44c0-58.26 40.82-107.59 108.44-107.59 68 0 108.87 49.33 108.87 107.59 0 58.69-40.83 108-108.87 108-67.61.02-108.44-49.31-108.44-108zm161.18 0c0-31.9-19.14-59.54-52.73-59.54s-52.31 27.64-52.31 59.54c0 32.32 18.71 60 52.31 60s52.73-27.68 52.73-60z"/><path d="m0 430.74s70.59 17 70.59-63.37v-210.93h54v210.93c0 46.78-23.81 77.82-73.15 77.82-25.92.01-36.56-4.25-51.44-14.45z"/><path d="m96.83 0s-53.29 33.05-53.29 75.9c0 21.17 12.71 39.38 30.52 48a29.92 29.92 0 0 1 -7.45-19.68c0-16.72 30.78-42.22 30.78-42.22s29.61 25.5 29.61 42.2a30.07 30.07 0 0 1 -7.4 19.8 53.21 53.21 0 0 0 30.52-48.1c0-42.85-53.29-75.9-53.29-75.9z"/></g><path d="m127 104.2c0-16.7-29.61-42.2-29.61-42.2s-30.78 25.5-30.78 42.2a29.85 29.85 0 0 0 7 19.09 31.46 31.46 0 0 0 46.38.27 30 30 0 0 0 7.01-19.36z" fill="#fff"/><path d="m434.28 360.35v-123.91c0-28.44-15.3-38.2-38.92-38.2-21.86 0-38.92 11.88-48.1 24.19v137.92h-55.53v-205h55.53v26.74c13.56-15.7 39.36-31.83 73.9-31.83 46.35 0 68.65 25.46 68.65 65.35v144.74z" fill="#57c4c4"/><text fill="#fff" font-family="ProximaNova-Regular, Proxima Nova" font-size="52.51" transform="matrix(1.04 0 0 1 169.55 430.84)"><tspan letter-spacing="-.04em">Y</tspan><tspan x="30.77" y="0">OUR WISHES, DELIVERE</tspan><tspan letter-spacing="-.03em" x="598.74" y="0">D</tspan><tspan x="634.08" y="0">.</tspan></text></svg>