<svg height="512" width="512" xmlns="http://www.w3.org/2000/svg"><path d="m112 504s-10.30188-90.311127 78.440002-100.386658h37.973328v-17.493347s26.71167 11.473328 53.76001 1.279999c0 0 .853332 16.213348.853332 16.213348h44.373322s77.273468 7.714264 72.600006 100.386658z" fill="#fff"/><g fill="#3b434f"><path d="m399.261932 505.58667h-284.516388-5.517883s1.37735-23.529816 1.37735-23.529816c2.689301-45.94223 38.886871-81.003509 80.309998-81.003509h31.524993v4.693329h-29.010284c-39.92337 0-74.810394 33.748413-77.402344 77.970336 0 0-.956726 16.322999-.956726 16.322999h283.439514s-.530059-16.322999-.530059-16.322999c-2.59195-44.221923-37.478974-77.970336-77.402375-77.970336h-38.831054v-4.693329h41.092743c41.423126 0 77.620697 35.061279 80.309997 81.003509 0 0 1.37735 23.529816 1.37735 23.529816z"/><path d="m232.679993 384.146088v26.315094c0 13.655487 11.079467 24.725494 24.746673 24.725494s24.746674-11.070007 24.746674-24.725494v-25.772187c1.436157-.437133 2.858795-.911926 4.266662-1.424865v27.376159c0 16.148621-13.085205 29.239716-29.226654 29.239716s-29.226684-13.091095-29.226684-29.239716v-28.186615c1.545837.611237 3.111542 1.173432 4.693329 1.692414z"/><path d="m227.773346 434.76001c1.531647 0 2.773315 1.241638 2.773315 2.773315v41.813324c0 1.531677-1.241668 2.773346-2.773315 2.773346-1.531677 0-2.773346-1.241669-2.773346-2.773346v-41.813324c0-1.531677 1.241669-2.773315 2.773346-2.773315z"/><path d="m286.013336 434.333344c1.649475 0 2.986664 1.337158 2.986664 2.986663v26.026642c0 1.649506-1.337189 2.986695-2.986664 2.986695-1.649505 0-2.986664-1.337189-2.986664-2.986695v-26.026642c0-1.649505 1.337159-2.986663 2.986664-2.986663z"/><path d="m227.773346 479.133331c.824737 0 1.493317.668579 1.493317 1.493347v10.666657c0 .824738-.66858 1.493317-1.493317 1.493317-.824768 0-1.493347-.668579-1.493347-1.493317v-10.666657c0-.824768.668579-1.493347 1.493347-1.493347z"/><path d="m286.226654 463.346649c.824768 0 1.493347.66861 1.493347 1.493347v10.666657c0 .824768-.668579 1.493347-1.493347 1.493347-.824737 0-1.493317-.668579-1.493317-1.493347v-10.666657c0-.824737.66858-1.493347 1.493317-1.493347z"/></g><path d="m211.765503 373.646149s-27.023651 6.20523-27.023651 6.20523-33.093018 7.496033-11.076203 29.799561c22.016846 22.303528 78.641022 26.242401 78.641022 26.242401s-14.971374-7.091247-21.333343-17.066681c0 0-2.133332-35.839996-2.133332-35.839996s-17.074493-9.340515-17.074493-9.340515z" fill="#f5f3ef"/><path d="m253.160004 438.026672c-1.676758 2.122254-48.82663.663025-81.493348-27.733337-23.652618-20.560669 11.946686-32.426666 11.946686-32.426666s26.026673-5.973328 26.026673-5.973328 22.613311 11.519989 22.613311 11.519989 1.706665 34.559998 1.706665 34.559998c9.519471 14.926361 21.899353 16.636779 19.200013 20.053344zm-23.466675-18.346679s-2.559998-36.266663-2.559998-36.266663-13.65332-7.679993-13.65332-7.679993-26.026672 6.399994-26.026672 6.399994-31.524933 6.464539-11.52002 25.17334c21.589325 20.19046 61.528259 25.608917 65.706696 25.17334 4.330749-.451508-2.427216 2.126373-11.946686-12.800018z" fill="#3b434f" fill-rule="evenodd"/><path d="m303.059265 374.651398s27.039673 6.223816 27.039673 6.223816 33.11261 7.518463 11.082764 29.888794c-22.029908 22.37033-78.687653 26.320983-78.687653 26.320983s14.980286-7.112457 21.345978-17.117767c0 0 2.134613-35.947327 2.134613-35.947327s17.084625-9.368499 17.084625-9.368499z" fill="#f5f3ef"/><path d="m261.640228 438.798035c1.677735 2.128631 48.855561.665039 81.541626-27.816376 23.666657-20.622253-11.953735-32.523773-11.953735-32.523773s-26.042114-5.991211-26.042114-5.991211-22.626709 11.554474-22.626709 11.554474-1.707703 34.663513-1.707703 34.663513c-9.525085 14.971069-21.912292 16.686584-19.211365 20.113373zm23.480561-18.401612s2.561523-36.375274 2.561523-36.375274 13.661438-7.702973 13.661438-7.702973 26.042084 6.419159 26.042084 6.419159 31.54364 6.483887 11.526825 25.248718c-21.602112 20.250947-61.564728 25.685608-65.745606 25.248719-4.333343-.452851 2.42865 2.132721 11.953736-12.838349z" fill="#3b434f" fill-rule="evenodd"/><path d="m259.214661 116.466644c53.077881 0 94.97229 49.601227 93.610077 109.198304 0 0-1.447815 63.341156-1.447815 63.341156-1.283326 56.146362-42.531495 100.527221-92.162262 100.527221-49.630768 0-90.878937-44.380859-92.162262-100.527221 0 0-1.447815-63.341156-1.447815-63.341156-1.362183-59.597077 40.532196-109.198304 93.610077-109.198304z" fill="#fff"/><path d="m357.089386 223.701141s-1.517059 65.914368-1.517059 65.914368c-1.344696 58.427307-44.56604 104.611145-96.570923 104.611145-52.004914 0-95.226227-46.183838-96.570954-104.611145 0 0-1.517089-65.914368-1.517089-65.914368-1.427338-62.018219 42.47113-113.634491 98.088043-113.634491s99.51535 51.616272 98.087982 113.634491zm-98.301086-106.80783c-52.352265 0-93.67392 49.213714-92.330384 108.345184 0 0 1.42804 62.846313 1.42804 62.846313 1.265777 55.707703 41.950073 99.741852 90.902344 99.741852 48.95227 0 89.636535-44.034149 90.902313-99.741852 0 0 1.428009-62.846313 1.428009-62.846313 1.343597-59.13147-39.978058-108.345184-92.330322-108.345184z" fill="#3b434f" fill-rule="evenodd"/><path d="m348.524475 326.924896c-1.262207 5.969483-17.846954 60.097962-14.846283 36.667176 3.000641-23.430787-28.819305 21.290618-28.819305 21.290618-5.879853 6.041596-29.692627 20.107819-29.692627 20.107819v-5.914062s-17.466248 7.096893-17.466248 7.096893-7.859802-7.096893-7.859802-7.096893-.873322 7.096893-.873322 7.096893c-2.338806-3.465271-49.778778-35.484375-49.778778-35.484375s8.143647 14.493133 1.746643 7.096863c-.228393-.264069-.462768-.546967-.702331-.847016-6.470978-8.104309-16.763947-28.723297-16.763947-28.723297s-1.746612 14.193756-1.746612 14.193756c-15.434418-30.002807-14.846283-67.420318-14.846283-67.420318s-2.595581-78.141297-2.595581-78.141297h6.986511s2.595551 55.667847 2.595551 55.667847 11.353057 18.924988 11.353057 18.924988c7.341278 10.732177 27.072663 5.914062 27.072663 5.914062 57.02185 39.565094 93.444427-2.3656 93.444427-2.3656s24.702423 5.481598 32.312531 2.3656c7.610077-3.115967 8.70874-80.616913 8.70874-80.616913h6.11319s-3.079987 104.217743-4.342194 110.187256zm-40.951263 6.001496c-1.253388-15.041626-10.406403-13.766175-10.406403-13.766175-16.271912 4.744629-29.044983 7.380432-39.024048 8.720032v-.098328c-9.909149-1.328674-22.592773-3.94284-38.750671-8.64859 0 0-9.088928-1.265014-10.333527 13.653351 0 0-3.649719 11.533325 8.611267 17.919983 0 0 15.500275 8.533356 15.500275 8.533356s10.592529 3.32666 10.333527-9.386688c0 0-1.078125-1.801667 5.166748-3.413331h9.472381v.280762h9.539215c6.28891 1.625 5.203217 3.505036 5.203217 3.505036-.260834 12.81842 10.406372 9.464233 10.406372 9.464233s15.609619-8.667328 15.609619-8.667328c12.347443-6.439453 8.672028-18.096313 8.672028-18.096313z" fill="#3b434f" fill-rule="evenodd"/><path d="m305.079987 327.325928c-7.755219 6.733825-25.271973 13.140716-45.65329 13.140716-20.381348 0-37.898102-6.406891-45.653351-13.140716 0 0-.793457-2.183289.370697-3.347443 1.185699-1.185699 3.042633-.927643 3.042633-.927643 7.747101 6.738404 21.850891 12.295838 42.240021 12.295838 20.389099 0 34.492889-5.557434 42.23999-12.295838 0 0 1.89502-.703949 2.815582.216614 1.773041 1.773041.597718 4.058472.597718 4.058472z" fill="#3b434f"/><path d="m245.34668 350.706665h27.306671v4.266663h-27.306671z" fill="#3b434f"/><path d="m160.80722 233.313141c-.011779.000671-1.047607-.826538-3.003601-1.442383-.9776-.307251-2.192596-.559998-3.577453-.622314-.345856-.015564-.701813-.019257-1.06604-.008912-.364228.010346-.736756.034699-1.115418.075135-.757232.080902-1.539306.226288-2.326294.452667-3.151153.905579-6.365722 3.10733-8.253631 7.651764-.947693 2.272339-1.572876 5.130615-1.738159 8.706818-.041352.894073-.053986 1.833007-.035859 2.818878.018158.98587.067109 2.018676.148865 3.100494.163422 2.163544.458527 4.523163.898224 7.094391-.009613-.002533-.410095 7.769989 2.368591 16.701141 2.612244 8.731964 8.885071 19.458405 20.466889 22.52359-1.332032-22.179382-1.373413-44.774505-2.766114-67.051269z" fill="#fff"/><path d="m162.127869 234.207275s-20.176392-6.251678-19.466339 14.490815c0 0 3.003906 30.07727 4.308349 32.849273 0 0 7.923828 17.512024 21.000977 18.288117 12.781006.758514 0 0 0 0s.158722 5.644531.158722 5.644531-22.98465-2.946991-27.423981-29.434601c0 0-3.503876-24.062713-3.503876-24.062713s-2.720611-31.844635 23.669464-23.747895c25.70929 7.887879 0 0 0 0s1.256684 5.972473 1.256684 5.972473" fill="#3b434f"/><path d="m155.468323 275.994812s-1.129151.853333-2.099152.853333-2.085388-.853333-2.085388-.853333-2.082214-20.982788-2.082214-20.982788 2.872924-10.333466 15.063812-4.872528c0 0 .288177 5.999725.288177 5.999725s-10.695648-3.793213-10.474487.930206c.212891 4.54654 1.389252 18.925385 1.389252 18.925385z" fill="#3b434f"/><path d="m356.813416 233.362122c.01184.000671 1.052215-.825959 3.016754-1.441407.981903-.307037 2.202209-.5596 3.593139-.621887.347351-.015533.704865-.019226 1.07071-.00888.365814.010314.739959.034667 1.1203.075073.760528.080841 1.546051.226135 2.336487.452362 3.164947.904968 6.393585 3.105224 8.289764 7.646576.951843 2.270782 1.579773 5.127105 1.745758 8.700897.041535.893463.05423 1.831757.036041 2.816956-.018249.985198-.067413 2.017303-.149536 3.098388-.164123 2.162079-.460541 4.520111-.90216 7.089569.009674-.002533.411895 7.76474-2.378968 16.68982-2.623657 8.726043-8.92398 19.44519-20.556518 22.5083 1.33786-22.164337 1.379425-44.74411 2.778229-67.005767z" fill="#fff"/><path d="m355.482605 234.255676s20.26477-6.247436 19.551605 14.480957c0 0-3.017059 30.056855-4.32724 32.826966 0 0-7.958526 17.500152-21.092926 18.275726-12.837005.757996 0 0 0 0s-.159424 5.640686-.159424 5.640686 23.085297-2.944977 27.544068-29.414612c0 0 3.519226-24.046387 3.519226-24.046387s2.732544-31.823028-23.773133-23.731781c-25.821868 7.882538 0 0 0 0s-1.262176 5.968445-1.262176 5.968445" fill="#3b434f"/><path d="m362.171326 276.014832s1.134094.852752 2.108337.852752 2.094513-.852752 2.094513-.852752 2.091339-20.968537 2.091339-20.968537-2.885498-10.326446-15.129791-4.869232c0 0-.289429 5.995666-.289429 5.995666s10.742493-3.790649 10.520355.929566c-.213806 4.543457-1.395324 18.912537-1.395324 18.912537z" fill="#3b434f"/><path d="m266.893341 274.333344h1.493317c3.087463 4.192962 4.343567 10.636413 5.973327 16.213317.505066 1.728302.015076 4.751313-.426666 5.973328-1.617767 4.475525-6.697632 4.395203-10.879974 6.399994-1.12323.538452-1.958741 1.467834-3.41333 1.706695-.948304-.835327-2.093293-.999389-2.560028-2.346679-1.152314-1.586731.332824-2.577606 1.493347-3.200012 2.106231-1.129578 8.608154-2.24289 9.386657-4.266663.963227-1.095734.322754-4.390167 0-5.546661-.826599-2.962159-1.223358-5.43512-2.346649-8.106659-.746154-1.774506-2.056183-3.645508-1.279998-5.76001.643188-.276184 2.033294-.59021 2.559997-1.06665z" fill="#3b434f" fill-rule="evenodd"/><path d="m207.799988 241.480011h5.973358c3.298981 0 5.973328 2.674347 5.973328 5.973328 0 3.29898-2.674347 5.973327-5.973328 5.973327h-5.973358c-3.298981 0-5.973328-2.674347-5.973328-5.973327 0-3.298981 2.674347-5.973328 5.973328-5.973328z" fill="#3b434f"/><path d="m305.079987 241.480011h5.973358c3.29898 0 5.973327 2.674347 5.973327 5.973328 0 3.29898-2.674347 5.973327-5.973327 5.973327h-5.973358c-3.298981 0-5.973328-2.674347-5.973328-5.973327 0-3.298981 2.674347-5.973328 5.973328-5.973328z" fill="#3b434f"/><path d="m310.626678 269.640015c5.891022 0 10.666657 4.775634 10.666657 10.666656s-4.775635 10.666657-10.666657 10.666657c-5.891052 0-10.666656-4.775635-10.666656-10.666657s4.775604-10.666656 10.666656-10.666656z" fill="#edf1f1"/><path d="m207.373352 269.640015c5.891022 0 10.666657 4.775634 10.666657 10.666656s-4.775635 10.666657-10.666657 10.666657c-5.891052 0-10.666656-4.775635-10.666656-10.666657s4.775604-10.666656 10.666656-10.666656z" fill="#edf1f1"/><path d="m351.939911 228.879608c-.577179 4.929901-1.084259 10.962647-2.150238 16.356262-3.187592 16.12851-17.046295 31.071473-40.710083 32.774079-23.663757 1.702606-43.803803-10.210358-44.984039-26.608368-.200104-2.780304-.735413-5.90033-1.14621-8.933685-3.348847-1.856598-6.800446-1.86084-10.354767-.012635-.4151 3.10202-.970581 6.304108-1.175446 9.15091-1.183929 16.452362-21.387481 28.404815-45.125885 26.696563-23.738403-1.708252-37.640808-16.700714-40.83847-32.88269-1.069336-5.411499-1.578003-11.464233-2.157013-16.410492 0 0-3.488312-.251038-3.488312-.251038s.48999-6.809051.48999-6.809051.851136.061249.851136.061249 21.588531 1.553558 21.588531 1.553558 18.223084 1.311371 18.223084 1.311371 18.256958 1.313782 18.256958 1.313782 28.436676 2.046356 28.436676 2.046356c1.961181.248047 3.265259 1.089142 4.105072 2.344757 4.083893 1.787689 8.05011 1.79483 11.89862.021118.832215-1.336395 2.153839-2.236114 4.1875-2.493286 0 0 28.34729-2.039581 28.34729-2.039581s18.199585-1.309449 18.199585-1.309449 18.165802-1.307037 18.165802-1.307037 21.520661-1.548431 21.520661-1.548431.848449-.061036.848449-.061036.488465 6.786561.488465 6.786561-3.477356.250213-3.477356.250213zm-111.920044 7.357666s-55.731567-4.010528-55.731567-4.010528c-7.289246-.628418-9.872956 7.562774-10.322205 13.805786-.947144 13.161865 13.71817 24.942291 32.75589 26.312286 19.03772 1.369965 35.238678-8.189239 36.185821-21.351135.44925-6.242981 2.488404-10.098572-2.887939-14.756409zm101.285248 9.60907c-.447846-6.222382-3.023438-14.386536-10.289765-13.760193 0 0-55.556366 3.997284-55.556366 3.997284-5.359436 4.642487-3.32669 8.485291-2.878875 14.707672.944183 13.118408 17.094207 22.646057 36.072082 21.280579 18.977875-1.365448 33.597107-13.106964 32.652924-26.225342z" fill="#3b444f" fill-rule="evenodd"/><path d="m166.016968 261.106659s11.869629-51.995911 22.198425-66.218659c10.328796-14.222747 19.266876-17.624572 23.906006-18.059631 4.63913-.435028 41.171814 10.364288 91.355041-2.006653 0 0 19.78714-.789703 28.174927 19.062989 0 0 17.684357 31.637664 20.490845 63.208709h3.415131s7.237182-55.342895 4.268981-88.291565c-2.968292-32.948639-46.104461-49.162323-46.104461-49.162323s9.391632-7.023224 9.391632-7.023224-21.926605-6.778228-30.736267-3.009887c0 0 6.830261-14.046417 6.830261-14.046417s-44.250092.088195-69.156616 20.066253c0 0 .85379-10.033142.85379-10.033142s-87.789825 13.462464-69.156616 153.506928c0 0 4.268921 2.006622 4.268921 2.006622z" fill="#3b434f"/></svg>