<svg height="512" width="512" xmlns="http://www.w3.org/2000/svg"><path d="m322.573334 306.333344s-46.360016-55.886689 3.41333 2.559997c49.773346 58.446655 89.600006 23.039978 89.600006 23.039978s0-114.633331 0-198.82666-52.053345-87.040009-52.053345-87.040009 16.213349-4.266662 16.213349-4.266662c-64.475464-26.635224-86.599762 19.975647-91.739472 34.368713-.893707 2.502716-1.273865 4.031311-1.273865 4.031311s-4.617492 20.968323 3.839997 29.013306" fill="#3b444f"/><path d="m256.866669 94.706665c59.145996 0 107.093322 47.947327 107.093322 107.093323v22.186676c0 59.145996-47.947326 107.093323-107.093322 107.093323s-107.093323-47.947327-107.093323-107.093323v-22.186676c0-59.145996 47.947327-107.093323 107.093323-107.093323z" fill="#3b444f"/><path d="m114.359985 502s-6.61499-89.98822 78.080017-98.386658h37.973328v-17.493347s26.71167 11.473328 53.76001 1.279999c0 0 .853332 16.213348.853332 16.213348h44.373322s75.985412 2.984253 72.533325 99.239991c0 0-287.573334-.853333-287.573334-.853333z" fill="#fff"/><path d="m401.261932 505.58667h-284.516388-5.517883s1.37735-23.529816 1.37735-23.529816c2.689301-45.94223 38.886871-81.003509 80.309998-81.003509h28.483642c-1.847839 1.52832-3.201996 3.113556-4.175873 4.693329h-21.79306c-39.92337 0-74.810394 33.748413-77.402344 77.970336 0 0-.956726 16.322999-.956726 16.322999h283.439514s-.530059-16.322999-.530059-16.322999c-2.59195-44.221923-37.478974-77.970336-77.402375-77.970336h-21.811615c-.834106-1.568146-2.020172-3.15326-3.676086-4.693329h27.74939c41.423126 0 77.620697 35.061279 80.309997 81.003509 0 0 1.37735 23.529816 1.37735 23.529816zm-112.611511-99.839996h-1.490417v-4.693329h1.656006c-.099 1.219787-.162629 2.757232-.165589 4.693329zm-60.011139-4.693329h1.774048v4.693329h-1.533264c-.022919-1.993134-.114258-3.522614-.240784-4.693329z" fill="#3b434f" fill-rule="evenodd"/><path d="m272.226654 466.333344c1.649506 0 2.986694 1.337158 2.986694 2.986663 0 1.649475-1.337188 2.986664-2.986694 2.986664-1.649475 0-2.986664-1.337189-2.986664-2.986664 0-1.649505 1.337189-2.986663 2.986664-2.986663z" fill="#3b434f"/><path d="m272.226654 485.959991c1.649506 0 2.986694 1.337189 2.986694 2.986664 0 1.649506-1.337188 2.986664-2.986694 2.986664-1.649475 0-2.986664-1.337158-2.986664-2.986664 0-1.649475 1.337189-2.986664 2.986664-2.986664z" fill="#3b434f"/><path d="m306.786652 426.226685s-21.75998 32.426666-21.75998 32.426666c-5.919433-18.34729-23.040008-11.52002-23.040008-11.52002v54.188172c0 1.413025-1.337189 2.558502-2.986664 2.558502s-2.986664-1.145477-2.986664-2.558502v-54.189453c-.138519-.054932-17.122864-6.75113-23.011749 11.521301 0 0-21.736359-32.426666-21.736359-32.426666s-8.408081-21.376709 17.048126-30.720002c0-9.322631 0-9.813354 0-9.813354h4.813599v30.883728c.617981 5.316284 4.278351 20.464233 25.873047 25.436279 21.618164-4.972046 25.282532-20.119995 25.901184-25.436279 0-13.059906 0-30.883728 0-30.883728h4.818817v9.813354c25.483856 9.343293 17.066651 30.720002 17.066651 30.720002zm-74.037384 2.870513c-1.160248-1.313934-2.831391-4.577209-2.831391-4.577209s-1.604523-5.339966-1.604523-7.679993c0-2.906341 0-6.721344 0-10.822265-.362884-4.880951-1.278594-4.964386-1.278594-4.964386-18.993775 9.355224-10.655091 23.89331-10.655091 23.89331s15.769531 24.746674 15.769531 24.746674c6.158112-10.434479 12.786103-8.533325 12.786103-8.533325-5.851959-2.982575-9.689881-7.611512-12.186035-12.062806zm58.250732-28.043853s-.916718.083435-1.279999 4.964386v10.822265c0 2.340027-1.606262 7.679993-1.606262 7.679993s-1.672974 3.263275-2.834473 4.577209c-2.49887 4.451294-6.340973 9.080231-12.199279 12.062806 0 0 6.635192-1.901154 12.800018 8.533325 0 0 15.786651-24.746674 15.786651-24.746674s8.347748-14.538086-10.666656-23.89331z" fill="#3b434f" fill-rule="evenodd"/><path d="m259.214661 116.466644c53.077881 0 94.97229 49.601227 93.610077 109.198304 0 0-1.447815 63.341156-1.447815 63.341156-1.283326 56.146362-42.531495 100.527221-92.162262 100.527221-49.630768 0-90.878937-44.380859-92.162262-100.527221 0 0-1.447815-63.341156-1.447815-63.341156-1.362183-59.597077 40.532196-109.198304 93.610077-109.198304z" fill="#fff"/><path d="m357.089386 223.701141s-1.517059 65.914368-1.517059 65.914368c-1.344696 58.427307-44.56604 104.611145-96.570923 104.611145-52.004914 0-95.226227-46.183838-96.570954-104.611145 0 0-1.517089-65.914368-1.517089-65.914368-1.427338-62.018219 42.47113-113.634491 98.088043-113.634491s99.51535 51.616272 98.087982 113.634491zm-98.301086-106.80783c-52.352265 0-93.67392 49.213714-92.330384 108.345184 0 0 1.42804 62.846313 1.42804 62.846313 1.265777 55.707703 41.950073 99.741852 90.902344 99.741852 48.95227 0 89.636535-44.034149 90.902313-99.741852 0 0 1.428009-62.846313 1.428009-62.846313 1.343597-59.13147-39.978058-108.345184-92.330322-108.345184z" fill="#3b434f" fill-rule="evenodd"/><path d="m305.079987 327.325928c-7.755219 6.733825-25.271973 13.140716-45.65329 13.140716-20.381348 0-37.898102-6.406891-45.653351-13.140716 0 0-.793457-2.183289.370697-3.347443 1.185699-1.185699 3.042633-.927643 3.042633-.927643 7.747101 6.738404 21.850891 12.295838 42.240021 12.295838 20.389099 0 34.492889-5.557434 42.23999-12.295838 0 0 1.89502-.703949 2.815582.216614 1.773041 1.773041.597718 4.058472.597718 4.058472z" fill="#3b434f"/><path d="m245.34668 350.706665h27.306671v4.266663h-27.306671z" fill="#3b434f"/><path d="m160.80722 233.313141c-.011779.000671-1.047607-.826538-3.003601-1.442383-.9776-.307251-2.192596-.559998-3.577453-.622314-.345856-.015564-.701813-.019257-1.06604-.008912-.364228.010346-.736756.034699-1.115418.075135-.757232.080902-1.539306.226288-2.326294.452667-3.151153.905579-6.365722 3.10733-8.253631 7.651764-.947693 2.272339-1.572876 5.130615-1.738159 8.706818-.041352.894073-.053986 1.833007-.035859 2.818878.018158.98587.067109 2.018676.148865 3.100494.163422 2.163544.458527 4.523163.898224 7.094391-.009613-.002533-.410095 7.769989 2.368591 16.701141 2.612244 8.731964 8.885071 19.458405 20.466889 22.52359-1.332032-22.179382-1.373413-44.774505-2.766114-67.051269z" fill="#fff"/><path d="m162.127869 234.207275s-20.176392-6.251678-19.466339 14.490815c0 0 3.003906 30.07727 4.308349 32.849273 0 0 7.923828 17.512024 21.000977 18.288117 12.781006.758514 0 0 0 0s.158722 5.644531.158722 5.644531-22.98465-2.946991-27.423981-29.434601c0 0-3.503876-24.062713-3.503876-24.062713s-2.720611-31.844635 23.669464-23.747895c25.70929 7.887879 0 0 0 0s1.256684 5.972473 1.256684 5.972473" fill="#3b434f"/><path d="m155.468323 275.994812s-1.129151.853333-2.099152.853333-2.085388-.853333-2.085388-.853333-2.082214-20.982788-2.082214-20.982788 2.872924-10.333466 15.063812-4.872528c0 0 .288177 5.999725.288177 5.999725s-10.695648-3.793213-10.474487.930206c.212891 4.54654 1.389252 18.925385 1.389252 18.925385z" fill="#3b434f"/><path d="m357.813416 233.362122c.01184.000671 1.052215-.825959 3.016754-1.441407.981903-.307037 2.202209-.5596 3.593139-.621887.347351-.015533.704865-.019226 1.07071-.00888.365814.010314.739959.034667 1.1203.075073.760528.080841 1.546051.226135 2.336487.452362 3.164947.904968 6.393585 3.105224 8.289764 7.646576.951843 2.270782 1.579773 5.127105 1.745758 8.700897.041535.893463.05423 1.831757.036041 2.816956-.018249.985198-.067413 2.017303-.149536 3.098388-.164123 2.162079-.460541 4.520111-.90216 7.089569.009674-.002533.411895 7.76474-2.378968 16.68982-2.623657 8.726043-8.92398 19.44519-20.556518 22.5083 1.33786-22.164337 1.379425-44.74411 2.778229-67.005767z" fill="#fff"/><g fill="#3b434f"><path d="m355.482605 234.255676s20.26477-6.247436 19.551605 14.480957c0 0-3.017059 30.056855-4.32724 32.826966 0 0-7.958526 17.500152-21.092926 18.275726-12.837005.757996 0 0 0 0s-.159424 5.640686-.159424 5.640686 23.085297-2.944977 27.544068-29.414612c0 0 3.519226-24.046387 3.519226-24.046387s2.732544-31.823028-23.773133-23.731781c-25.821868 7.882538 0 0 0 0s-1.262176 5.968445-1.262176 5.968445"/><path d="m362.171326 276.014832s1.134094.852752 2.108337.852752 2.094513-.852752 2.094513-.852752 2.091339-20.968537 2.091339-20.968537-2.885498-10.326446-15.129791-4.869232c0 0-.289429 5.995666-.289429 5.995666s10.742493-3.790649 10.520355.929566c-.213806 4.543457-1.395324 18.912537-1.395324 18.912537z"/><path d="m266.893341 274.333344h1.493317c3.087463 4.192962 4.343567 10.636413 5.973327 16.213317.505066 1.728302.015076 4.751313-.426666 5.973328-1.617767 4.475525-6.697632 4.395203-10.879974 6.399994-1.12323.538452-1.958741 1.467834-3.41333 1.706695-.948304-.835327-2.093293-.999389-2.560028-2.346679-1.152314-1.586731.332824-2.577606 1.493347-3.200012 2.106231-1.129578 8.608154-2.24289 9.386657-4.266663.963227-1.095734.322754-4.390167 0-5.546661-.826599-2.962159-1.223358-5.43512-2.346649-8.106659-.746154-1.774506-2.056183-3.645508-1.279998-5.76001.643188-.276184 2.033294-.59021 2.559997-1.06665z" fill-rule="evenodd"/><path d="m207.799988 241.480011h5.973358c3.298981 0 5.973328 2.674347 5.973328 5.973328 0 3.29898-2.674347 5.973327-5.973328 5.973327h-5.973358c-3.298981 0-5.973328-2.674347-5.973328-5.973327 0-3.298981 2.674347-5.973328 5.973328-5.973328z"/><path d="m305.079987 241.480011h5.973358c3.29898 0 5.973327 2.674347 5.973327 5.973328 0 3.29898-2.674347 5.973327-5.973327 5.973327h-5.973358c-3.298981 0-5.973328-2.674347-5.973328-5.973327 0-3.298981 2.674347-5.973328 5.973328-5.973328z"/></g><path d="m310.626678 269.640015c5.891022 0 10.666657 4.775634 10.666657 10.666656s-4.775635 10.666657-10.666657 10.666657c-5.891052 0-10.666656-4.775635-10.666656-10.666657s4.775604-10.666656 10.666656-10.666656z" fill="#edf1f1"/><path d="m207.373352 269.640015c5.891022 0 10.666657 4.775634 10.666657 10.666656s-4.775635 10.666657-10.666657 10.666657c-5.891052 0-10.666656-4.775635-10.666656-10.666657s4.775604-10.666656 10.666656-10.666656z" fill="#edf1f1"/><path d="m282 222.610168s2.471436 3.139161 2.471436 3.139161 1.533386 1.945587 1.533386 1.945587 27.150329-14.992035 45.995178 2.305084c0 0 2.009155.984924 2.009155.984924s-4.642456-25.076324-45.281463-10.408508c-2.144135.581604-4.381287 1.252838-6.727692 2.033752z" fill="#3b434f"/><path d="m235 222.627625s-2.471436 3.132629-2.471436 3.132629-1.533386 1.941528-1.533386 1.941528-27.150329-14.960846-45.995178 2.300293c0 0-2.009155.98288-2.009155.98288s4.642456-25.024201 45.281463-10.386872c2.144135.580414 4.381287 1.250245 6.727692 2.029542z" fill="#3b434f"/><path d="m259 167.009369v-94.478577c.28479-.002197.568024-.010803.853333-.010803 59.852935 0 108.373321 48.520416 108.373321 108.373352v34.829987c-.021759 1.213775-.022858 2.40509 0 3.570007 0 0-100.648743-27.21994-109.226654-52.283966zm-109.226654 52.283966c.022858-1.164917.021759-2.356232 0-3.570007v-34.829987c0-59.852936 48.520386-108.373352 108.373321-108.373352.285309 0 .568543.008606.853333.010803v94.478577c-8.577911 25.064026-109.226654 52.283966-109.226654 52.283966z" fill="#3b434f" fill-rule="evenodd"/></svg>