<svg height="512" width="512" xmlns="http://www.w3.org/2000/svg"><path d="m111 504s-10.30188-90.311127 78.440002-100.386658h37.973328v-17.493347s26.71167 11.473328 53.76001 1.279999c0 0 .853332 16.213348.853332 16.213348h44.373322s77.273468 7.714264 72.600006 100.386658z" fill="#fff"/><g fill="#3b434f"><path d="m243 451s12-13 12-13 13 13 13 13-7 7-7 7 11 45 11 45h-34s12-45 12-45-7-7-7-7z"/><path d="m398.261932 505.58667h-284.516388-5.517883s1.37735-23.529816 1.37735-23.529816c2.689301-45.94223 38.886871-81.003509 80.309998-81.003509h37.498321v4.693329h-34.983612c-39.92337 0-74.810394 33.748413-77.402344 77.970336 0 0-.956726 16.322999-.956726 16.322999h283.439514s-.530059-16.322999-.530059-16.322999c-2.59195-44.221923-37.478974-77.970336-77.402375-77.970336h-35.417724v-4.693329h37.679413c41.423126 0 77.620697 35.061279 80.309997 81.003509 0 0 1.37735 23.529816 1.37735 23.529816z"/><path d="m230.399994 384.146088v26.315094c0 13.655487 11.079468 24.725494 24.746673 24.725494 13.667206 0 24.746674-11.070007 24.746674-24.725494v-25.772187c1.436157-.437133 2.858795-.911926 4.266663-1.424865v27.376159c0 16.148621-13.085205 29.239716-29.226654 29.239716s-29.226685-13.091095-29.226685-29.239716v-28.186615c1.545837.611237 3.111542 1.173432 4.693329 1.692414z"/><path d="m331.71994 457.489349s-12.085357 25.20691-12.085357 25.20691c-.611237 1.274902-2.140259 1.812896-3.415131 1.20166-1.274902-.611237-1.812897-2.140259-1.20166-3.415161 0 0 11.672027-24.344758 11.672027-24.344758s-9.120178-15.7966-9.120178-15.7966c-.706909-1.224426-.287414-2.7901.937012-3.497009 1.224457-.70694 2.7901-.287415 3.49704.937012 0 0 9.813324 16.997192 9.813324 16.997192.505706.875885.432373 1.924896-.097077 2.710754z"/><path d="m178.362396 457.513947s12.150208 25.284515 12.150208 25.284515c.614502 1.278839 2.151733 1.818481 3.433441 1.205353 1.281738-.613129 1.822632-2.146851 1.208099-3.425659 0 0-11.734619-24.419709-11.734619-24.419709s9.169098-15.845245 9.169098-15.845245c.710693-1.22818.28894-2.798676-.942047-3.507782-1.231018-.709107-2.805054-.2883-3.515778.939911 0 0-9.865966 17.04953-9.865966 17.04953-.508423.87857-.434723 1.930816.097564 2.719086z"/><path d="m225.706665 400.200012h4.693329v103.679993h-4.693329z"/><path d="m279.893341 401.053345h4.693329v103.679992h-4.693329z"/><path d="m270.69928 503.689667s-12.093964-45.135254-12.093964-45.135254 2.514679-.754425 2.514679-.754425 1.667389-1.771576 1.667389-1.771576 12.791229 47.737488 12.791229 47.737488-4.879333-.076233-4.879333-.076233zm-34.114289-.53302s12.62613-46.909027 12.62613-46.909027.815551.699035.815551.699035 2.559998 1.706665 2.559998 1.706665.844055.084412.844055.084412-11.976318 44.494995-11.976318 44.494995-4.869416-.07608-4.869416-.07608z" fill-rule="evenodd"/><path d="m284.145569 463.78775s-3.318695 3.318695-3.318695 3.318695-12.913269-12.913269-12.913269-12.913269c-2.491913 3.957825-6.891175 6.593476-11.913605 6.593476-5.225372 0-9.775848-2.852692-12.204926-7.079926 0 0-13.479705 13.479736-13.479705 13.479736s-3.327607-3.327606-3.327607-3.327606 26.538849-26.538849 26.538849-26.538849 2.075592-1.924438 2.075592-1.924438 2.075592 1.924438 2.075592 1.924438 26.467774 26.467743 26.467774 26.467743zm-37.740021-12.691498c1.701477 3.464417 5.26062 5.850403 9.381104 5.850403 4.027832 0 7.514221-2.283203 9.258911-5.621521 0 0-9.434448-9.434448-9.434448-9.434448s-9.205567 9.205566-9.205567 9.205566z" fill-rule="evenodd"/></g><path d="m256.006958 125.426636c54.029358 0 95.130432 47.383697 92.931213 101.603332 0 0-2.984497 73.579621-2.984497 73.579621-8.455139 49.955017-42.895111 86.02066-89.569671 91.057098-45.529358-4.784698-80.644928-41.114929-90.323792-91.057098 0 0-2.984497-73.579621-2.984497-73.579621-2.199219-54.219635 38.901886-101.603332 92.931244-101.603332z" fill="#fff"/><path d="m354.906677 223.909088s-3.176391 76.881287-3.176391 76.881287c-8.99878 52.196563-45.653107 89.880554-95.328675 95.142975-48.456756-4.99939-85.830139-42.959839-96.131317-95.142975 0 0-3.176391-76.881287-3.176391-76.881287-2.340607-56.652557 41.403167-106.162445 98.906402-106.162445 57.503266 0 101.246979 49.509888 98.906372 106.162445zm-98.899719-100.189117c-54.029358 0-95.130463 47.383697-92.931244 101.603332 0 0 2.984497 73.579621 2.984497 73.579621 9.678864 49.942169 44.794434 86.272399 90.323792 91.057098 46.67456-5.036438 81.114532-41.102081 89.569671-91.057098 0 0 2.984497-73.579621 2.984497-73.579621 2.199219-54.219635-38.901855-101.603332-92.931213-101.603332z" fill="#3b434f" fill-rule="evenodd"/><path d="m302.079987 327.325928c-7.755219 6.733825-25.271973 13.140716-45.65329 13.140716-20.381348 0-37.898102-6.406891-45.653351-13.140716 0 0-.793457-2.183289.370697-3.347443 1.185699-1.185699 3.042633-.927643 3.042633-.927643 7.747101 6.738404 21.850891 12.295838 42.240021 12.295838 20.389099 0 34.492889-5.557434 42.23999-12.295838 0 0 1.89502-.703949 2.815582.216614 1.773041 1.773041.597718 4.058472.597718 4.058472z" fill="#3b434f"/><path d="m242.34668 350.706665h27.306671v4.266663h-27.306671z" fill="#3b434f"/><path d="m157.80722 233.313141c-.011779.000671-1.047607-.826538-3.003601-1.442383-.9776-.307251-2.192596-.559998-3.577453-.622314-.345856-.015564-.701813-.019257-1.06604-.008912-.364228.010346-.736756.034699-1.115418.075135-.757232.080902-1.539306.226288-2.326294.452667-3.151153.905579-6.365722 3.10733-8.253631 7.651764-.947693 2.272339-1.572876 5.130615-1.738159 8.706818-.041352.894073-.053986 1.833007-.035859 2.818878.018158.98587.067109 2.018676.148865 3.100494.163422 2.163544.458527 4.523163.898224 7.094391-.009613-.002533-.410095 7.769989 2.368591 16.701141 2.612244 8.731964 8.885071 19.458405 20.466889 22.52359-1.332032-22.179382-1.373413-44.774505-2.766114-67.051269z" fill="#fff"/><path d="m159.127869 234.207275s-20.176392-6.251678-19.466339 14.490815c0 0 3.003906 30.07727 4.308349 32.849273 0 0 7.923828 17.512024 21.000977 18.288117 12.781006.758514 0 0 0 0s.158722 5.644531.158722 5.644531-22.98465-2.946991-27.423981-29.434601c0 0-3.503876-24.062713-3.503876-24.062713s-2.720611-31.844635 23.669464-23.747895c25.70929 7.887879 0 0 0 0s1.256684 5.972473 1.256684 5.972473" fill="#3b434f"/><path d="m152.468323 275.994812s-1.129151.853333-2.099152.853333-2.085388-.853333-2.085388-.853333-2.082214-20.982788-2.082214-20.982788 2.872924-10.333466 15.063812-4.872528c0 0 .288177 5.999725.288177 5.999725s-10.695648-3.793213-10.474487.930206c.212891 4.54654 1.389252 18.925385 1.389252 18.925385z" fill="#3b434f"/><path d="m353.813416 233.362122c.01184.000671 1.052215-.825959 3.016754-1.441407.981903-.307037 2.202209-.5596 3.593139-.621887.347351-.015533.704865-.019226 1.07071-.00888.365814.010314.739959.034667 1.1203.075073.760528.080841 1.546051.226135 2.336487.452362 3.164947.904968 6.393585 3.105224 8.289764 7.646576.951843 2.270782 1.579773 5.127105 1.745758 8.700897.041535.893463.05423 1.831757.036041 2.816956-.018249.985198-.067413 2.017303-.149536 3.098388-.164123 2.162079-.460541 4.520111-.90216 7.089569.009674-.002533.411895 7.76474-2.378968 16.68982-2.623657 8.726043-8.92398 19.44519-20.556518 22.5083 1.33786-22.164337 1.379425-44.74411 2.778229-67.005767z" fill="#fff"/><path d="m352.482605 234.255676s20.26477-6.247436 19.551605 14.480957c0 0-3.017059 30.056855-4.32724 32.826966 0 0-7.958526 17.500152-21.092926 18.275726-12.837005.757996 0 0 0 0s-.159424 5.640686-.159424 5.640686 23.085297-2.944977 27.544068-29.414612c0 0 3.519226-24.046387 3.519226-24.046387s2.732544-31.823028-23.773133-23.731781c-25.821868 7.882538 0 0 0 0s-1.262176 5.968445-1.262176 5.968445" fill="#3b434f"/><path d="m359.171326 276.014832s1.134094.852752 2.108337.852752 2.094513-.852752 2.094513-.852752 2.091339-20.968537 2.091339-20.968537-2.885498-10.326446-15.129791-4.869232c0 0-.289429 5.995666-.289429 5.995666s10.742493-3.790649 10.520355.929566c-.213806 4.543457-1.395324 18.912537-1.395324 18.912537z" fill="#3b434f"/><path d="m263.893341 274.333344h1.493317c3.087463 4.192962 4.343567 10.636413 5.973327 16.213317.505066 1.728302.015076 4.751313-.426666 5.973328-1.617767 4.475525-6.697632 4.395203-10.879974 6.399994-1.12323.538452-1.958741 1.467834-3.41333 1.706695-.948304-.835327-2.093293-.999389-2.560028-2.346679-1.152314-1.586731.332824-2.577606 1.493347-3.200012 2.106231-1.129578 8.608154-2.24289 9.386657-4.266663.963227-1.095734.322754-4.390167 0-5.546661-.826599-2.962159-1.223358-5.43512-2.346649-8.106659-.746154-1.774506-2.056183-3.645508-1.279998-5.76001.643188-.276184 2.033294-.59021 2.559997-1.06665z" fill="#3b434f" fill-rule="evenodd"/><path d="m204.799988 241.480011h5.973358c3.298981 0 5.973328 2.674347 5.973328 5.973328 0 3.29898-2.674347 5.973327-5.973328 5.973327h-5.973358c-3.298981 0-5.973328-2.674347-5.973328-5.973327 0-3.298981 2.674347-5.973328 5.973328-5.973328z" fill="#3b434f"/><path d="m302.079987 241.480011h5.973358c3.29898 0 5.973327 2.674347 5.973327 5.973328 0 3.29898-2.674347 5.973327-5.973327 5.973327h-5.973358c-3.298981 0-5.973328-2.674347-5.973328-5.973327 0-3.298981 2.674347-5.973328 5.973328-5.973328z" fill="#3b434f"/><path d="m208.640015 269.640015c8.247436 0 14.933319.473205 14.933319 9.813324 0 9.633911-6.685883 9.813324-14.933319 9.813324-8.247467 0-14.933319-1.754517-14.933319-9.813324 0-9.413697 6.685852-9.813324 14.933319-9.813324z" fill="#f5f3ef"/><path d="m307.626678 269.640015c8.247437 0 14.93332.473205 14.93332 9.813324 0 9.633911-6.685883 9.813324-14.93332 9.813324-8.247467 0-14.933319-1.754517-14.933319-9.813324 0-9.413697 6.685852-9.813324 14.933319-9.813324z" fill="#f5f3ef"/><path d="m283.326904 226.440948s25.544617-14.604797 43.792877 1.486084c0 0 4.826874.748169 4.826874.748169s-6.182464-22.497345-51.199981-7.868835c0 0 1.253326 4.193634 1.253326 4.193634m1 0s25.987244-14.9263 43.119781 3.927032c0 0 8.826874-.251831 8.826874-.251831s-11.008636-24.032013-56.199981-8.868835c0 0 4.253326 6.193634 4.253326 6.193634" fill="#3b434f"/><path d="m228.438354 226.525543s-25.45935-14.475555-43.646728 1.472931c0 0-4.810761.741547-4.810761.741547s6.161835-22.298249 51.029114-7.799195c0 0-1.249145 4.156525-1.249145 4.156525m-.996643 0s-25.900544-14.79422-42.975891 3.892273c0 0-8.797425-.249603-8.797425-.249603s10.971894-23.819336 56.012451-8.790344c0 0-4.239135 6.138824-4.239135 6.138824" fill="#3b434f"/><path d="m165.637238 217.564209s28.0932-14.243317 24.988098-63.22226c0 0 44.940521 49.241395 153.268005 34.231385 0 0 5.119995 46.079986 5.119995 46.079986s63.681885-117.999878-50.34668-145.06665c-111.591369-26.488281-112.877746 43.396423-112.877746 43.396423s-34.221588-5.1138-37.079102 28.193695c-2.857483 33.307495 7.450196 68.356537 7.450196 68.356537s8.533325 6.82666 8.533325 6.82666.943909-18.795776.943909-18.795776z" fill="#3b434f"/></svg>