<svg fill="none" height="36" viewBox="0 0 36 36" width="36" xmlns="http://www.w3.org/2000/svg"><path d="m33.2473 2.75288c.3061-.05713.6216-.03919.9193.0523s.5688.25379.79.47299c.3641.37587.5643.88075.5566 1.40397-.0076.52322-.2224 1.02207-.5972 1.38718l-1.2284 1.22806-.5156-.51561 1.2281-1.2281c.119-.11144.2145-.24569.2806-.39476.0661-.14908.1016-.30993.1043-.47299s-.0274-.325-.0886-.47619c-.0611-.15118-.152-.28852-.2673-.40385-.1154-.11533-.2527-.2063-.4038-.26748-.1512-.06119-.3131-.09134-.4762-.08867-.1631.00266-.3239.0381-.473.10419-.1491.0661-.2834.1615-.3948.28054l-1.2281 1.22809-.5156-.51561 1.228-1.22809c.2343-.2282.3686-.54001.3733-.86704.0047-.32702-.1205-.64257-.3481-.87741-.2349-.22757-.5504-.3527-.8774-.34796s-.6388.13897-.8669.37325l-1.2283 1.2281-.5156-.51561 1.2281-1.22809c.3651-.374861.8639-.589663 1.3871-.597307.5232-.007643 1.028.192494 1.4039.556527.2192.2213.3815.49242.473.79015.0915.29774.1095.61322.0524.91942m-1.7208.00148-1.2281 1.22817c-.2343.22817-.3686.54-.3734.86706-.0047.32707.1205.64266.3481.87753.2349.22759.5505.35273.8775.34796s.6388-.13905.867-.3734l1.228-1.22809.5157.51561-1.2281 1.2281c-.3651.37486-.8639.58966-1.3871.5973-.5232.00765-1.028-.19249-1.4039-.55653-.364-.37588-.5642-.88078-.5565-1.404.0076-.52322.2224-1.02206.5973-1.38714l1.2281-1.22819z" fill="#000"/><path d="m4.37838.722973c-2.01883 0-3.655407 1.636577-3.655407 3.655407v27.24322c0 2.0188 1.636577 3.6554 3.655407 3.6554h27.24322c2.0188 0 3.6554-1.6366 3.6554-3.6554v-22.61484h.473v22.61484c0 2.2801-1.8483 4.1284-4.1284 4.1284h-27.24322c-2.28004 0-4.12838-1.8483-4.12838-4.1284v-27.24322c0-2.28004 1.84834-4.12838 4.12838-4.12838h22.61482v.472973z" stroke="#000" stroke-width=".5"/><g fill="#000"><path d="m16 8.71429c0-.94822-.6384-1.71429-1.4286-1.71429h-7.14283c-.79018 0-1.42857.76607-1.42857 1.71429 0 .94821.63839 1.71431 1.42857 1.71431h7.14283c.7902 0 1.4286-.7661 1.4286-1.71431zm0 13.71431c0-.9482-.6384-1.7143-1.4286-1.7143h-7.14283c-.79018 0-1.42857.7661-1.42857 1.7143s.63839 1.7143 1.42857 1.7143h7.14283c.7902 0 1.4286-.7661 1.4286-1.7143zm-10-6.8572c0 .9482.63839 1.7143 1.42857 1.7143h7.14283c.7902 0 1.4286-.7661 1.4286-1.7143s-.6384-1.7143-1.4286-1.7143h-7.14283c-.79018 0-1.42857.7661-1.42857 1.7143zm10 13.7143c0-.9482-.6384-1.7143-1.4286-1.7143h-7.14283c-.79018 0-1.42857.7661-1.42857 1.7143s.63839 1.7143 1.42857 1.7143h7.14283c.7902 0 1.4286-.7661 1.4286-1.7143z"/><path d="m30 8.71429c0-.94822-.7022-1.71429-1.5714-1.71429h-6.8572c-.8692 0-1.5714.76607-1.5714 1.71429 0 .94821.7022 1.71431 1.5714 1.71431h6.8572c.8692 0 1.5714-.7661 1.5714-1.71431zm-10 6.85711c0 .9482.7022 1.7143 1.5714 1.7143h6.8572c.8692 0 1.5714-.7661 1.5714-1.7143s-.7022-1.7143-1.5714-1.7143h-6.8572c-.8692 0-1.5714.7661-1.5714 1.7143z"/><path d="m25 31c-2.7617 0-5-2.2383-5-5s2.2383-5 5-5 5 2.2383 5 5-2.2383 5-5 5zm-.4688-7.6562v2.6562c0 .1562.0782.3027.209.3906l1.875 1.25c.2149.1446.5059.086.6504-.1308.1446-.2168.086-.5059-.1308-.6504l-1.666-1.1094v-2.4062c0-.2598-.209-.4688-.4688-.4688s-.4688.209-.4688.4688z"/></g></svg>