<svg fill="none" height="36" viewBox="0 0 36 36" width="36" xmlns="http://www.w3.org/2000/svg"><path d="m33.2473 2.75288c.3061-.05713.6216-.03919.9193.0523s.5688.25379.79.47299c.3641.37587.5643.88075.5566 1.40397-.0076.52322-.2224 1.02207-.5972 1.38718l-1.2284 1.22806-.5156-.51561 1.2281-1.2281c.119-.11144.2145-.24569.2806-.39476.0661-.14908.1016-.30993.1043-.47299s-.0274-.325-.0886-.47619c-.0611-.15118-.152-.28852-.2673-.40385-.1154-.11533-.2527-.2063-.4038-.26748-.1512-.06119-.3131-.09134-.4762-.08867-.1631.00266-.3239.0381-.473.10419-.1491.0661-.2834.1615-.3948.28054l-1.2281 1.22809-.5156-.51561 1.228-1.22809c.2343-.2282.3686-.54001.3733-.86704.0047-.32702-.1205-.64257-.3481-.87741-.2349-.22757-.5504-.3527-.8774-.34796s-.6388.13897-.8669.37325l-1.2283 1.2281-.5156-.51561 1.2281-1.22809c.3651-.374861.8639-.589663 1.3871-.597307.5232-.007643 1.028.192494 1.4039.556527.2192.2213.3815.49242.473.79015.0915.29774.1095.61322.0524.91942m-1.7208.00148-1.2281 1.22817c-.2343.22817-.3686.54-.3734.86706-.0047.32707.1205.64266.3481.87753.2349.22759.5505.35273.8775.34796s.6388-.13905.867-.3734l1.228-1.22809.5157.51561-1.2281 1.2281c-.3651.37486-.8639.58966-1.3871.5973-.5232.00765-1.028-.19249-1.4039-.55653-.364-.37588-.5642-.88078-.5565-1.404.0076-.52322.2224-1.02206.5973-1.38714l1.2281-1.22819z" fill="#000"/><path d="m4.37838.722973c-2.01883 0-3.655407 1.636577-3.655407 3.655407v27.24322c0 2.0188 1.636577 3.6554 3.655407 3.6554h27.24322c2.0188 0 3.6554-1.6366 3.6554-3.6554v-22.61484h.473v22.61484c0 2.2801-1.8483 4.1284-4.1284 4.1284h-27.24322c-2.28004 0-4.12838-1.8483-4.12838-4.1284v-27.24322c0-2.28004 1.84834-4.12838 4.12838-4.12838h22.61482v.472973z" stroke="#000" stroke-width=".5"/><path d="m6 9.88889c0-1.5934 1.29549-2.88889 2.88889-2.88889h7.22221v5.7778c0 .7989.6455 1.4444 1.4445 1.4444h5.7777v1.7424c-3.3357.9434-5.7777 4.0083-5.7777 7.6465 0 2.6677 1.3135 5.024 3.3267 6.4684-.1445.0226-.2889.0316-.4379.0316h-11.55551c-1.5934 0-2.88889-1.2955-2.88889-2.8889zm17.3333 2.88891h-5.7777v-5.7778zm2.1667 17.3333c-3.5885 0-6.5-2.9114-6.5-6.5 0-3.5885 2.9115-6.5 6.5-6.5s6.5 2.9115 6.5 6.5c0 3.5886-2.9115 6.5-6.5 6.5zm0-2.1667c.6003 0 1.0833-.4829 1.0833-1.0833 0-.6003-.483-1.0833-1.0833-1.0833s-1.0833.483-1.0833 1.0833c0 .6004.483 1.0833 1.0833 1.0833zm-2.8889-6.4277v.2889c0 .3972.325.7222.7222.7222.3973 0 .7223-.325.7223-.7222v-.2889c0-.2393.1941-.4334.4333-.4334h1.8281c.3476 0 .6274.2799.6274.6275 0 .2347-.1309.4468-.334.5552l-1.4444.7583c-.2393.1264-.3882.3701-.3882.641v.668c0 .3973.325.7223.7222.7223s.7222-.325.7222-.7223v-.2302l1.0608-.5552c.6816-.3566 1.1059-1.0653 1.1059-1.8326 0-1.1466-.9299-2.0719-2.0719-2.0719h-1.8281c-1.0382 0-1.8778.8396-1.8778 1.8778z" fill="#000"/></svg>