<svg fill="none" height="36" viewBox="0 0 36 36" width="36" xmlns="http://www.w3.org/2000/svg"><path d="m33.2473 2.75288c.3061-.05713.6216-.03919.9193.0523s.5688.25379.79.47299c.3641.37587.5643.88075.5566 1.40397-.0076.52322-.2224 1.02207-.5972 1.38718l-1.2284 1.22806-.5156-.51561 1.2281-1.2281c.119-.11144.2145-.24569.2806-.39476.0661-.14908.1016-.30993.1043-.47299s-.0274-.325-.0886-.47619c-.0611-.15118-.152-.28852-.2673-.40385-.1154-.11533-.2527-.2063-.4038-.26748-.1512-.06119-.3131-.09134-.4762-.08867-.1631.00266-.3239.0381-.473.10419-.1491.0661-.2834.1615-.3948.28054l-1.2281 1.22809-.5156-.51561 1.228-1.22809c.2343-.2282.3686-.54001.3733-.86704.0047-.32702-.1205-.64257-.3481-.87741-.2349-.22757-.5504-.3527-.8774-.34796s-.6388.13897-.8669.37325l-1.2283 1.2281-.5156-.51561 1.2281-1.22809c.3651-.374861.8639-.589663 1.3871-.597307.5232-.007643 1.028.192494 1.4039.556527.2192.2213.3815.49242.473.79015.0915.29774.1095.61322.0524.91942m-1.7208.00148-1.2281 1.22817c-.2343.22817-.3686.54-.3734.86706-.0047.32707.1205.64266.3481.87753.2349.22759.5505.35273.8775.34796s.6388-.13905.867-.3734l1.228-1.22809.5157.51561-1.2281 1.2281c-.3651.37486-.8639.58966-1.3871.5973-.5232.00765-1.028-.19249-1.4039-.55653-.364-.37588-.5642-.88078-.5565-1.404.0076-.52322.2224-1.02206.5973-1.38714l1.2281-1.22819z" fill="#000"/><path d="m4.37838.722973c-2.01883 0-3.655407 1.636577-3.655407 3.655407v27.24322c0 2.0188 1.636577 3.6554 3.655407 3.6554h27.24322c2.0188 0 3.6554-1.6366 3.6554-3.6554v-22.61484h.473v22.61484c0 2.2801-1.8483 4.1284-4.1284 4.1284h-27.24322c-2.28004 0-4.12838-1.8483-4.12838-4.1284v-27.24322c0-2.28004 1.84834-4.12838 4.12838-4.12838h22.61482v.472973z" stroke="#000" stroke-width=".5"/><path d="m29.177 18.6201c2.4307-2.4307 2.4307-6.3672 0-8.79792-2.1511-2.15107-5.5412-2.43071-8.0149-.66253l-.0689.04732c-.6195.44312-.7614 1.30353-.3183 1.91873s1.3035.7615 1.9187.3184l.0689-.0473c1.381-.9852 3.2696-.8303 4.4656.3699 1.3552 1.3552 1.3552 3.5493 0 4.9045l-4.827 4.8356c-1.3552 1.3552-3.5493 1.3552-4.9045 0-1.2002-1.2003-1.3551-3.0889-.3699-4.4656l.0473-.0689c.4431-.6195.2968-1.4799-.3184-1.9187s-1.4799-.2969-1.9187.3183l-.0473.0689c-1.7725 2.4694-1.4929 5.8595.6582 8.0106 2.4307 2.4307 6.3671 2.4307 8.7979 0zm-22.35397-1.0067c-2.43071 2.4307-2.43071 6.3671 0 8.7978 2.15107 2.1511 5.54117 2.4308 8.01487.6626l.0689-.0473c.6195-.4432.7614-1.3036.3183-1.9188s-1.3035-.7615-1.9187-.3184l-.0689.0474c-1.381.9852-3.2696.8303-4.4656-.37-1.35517-1.3595-1.35517-3.5536 0-4.9088l4.827-4.8313c1.3552-1.3552 3.5493-1.3552 4.9045 0 1.2002 1.2003 1.3551 3.089.3699 4.47l-.0473.0688c-.4431.6195-.2968 1.4799.3184 1.9187.6152.4389 1.4799.2969 1.9187-.3183l.0473-.0689c1.7725-2.4737 1.4929-5.8638-.6582-8.0148-2.4307-2.4308-6.3671-2.4308-8.7979 0z" fill="#000"/></svg>