<?xml version="1.0" standalone="no"?>
<!DOCTYPE svg PUBLIC "-//W3C//DTD SVG 20010904//EN"
 "http://www.w3.org/TR/2001/REC-SVG-20010904/DTD/svg10.dtd">
<svg version="1.0" xmlns="http://www.w3.org/2000/svg"
 width="50.000000pt" height="50.000000pt" viewBox="0 0 50.000000 50.000000"
 preserveAspectRatio="xMidYMid meet">

<g transform="translate(0.000000,50.000000) scale(0.100000,-0.100000)"
fill="#000000" stroke="none">
<path d="M72 432 l-32 -27 0 -182 0 -183 210 0 210 0 0 184 0 184 -34 26 c-34
25 -39 26 -178 26 -141 -1 -143 -1 -176 -28z m168 -7 c0 -12 -16 -15 -82 -15
-74 0 -80 1 -62 15 27 21 144 21 144 0z m164 0 c18 -14 12 -15 -62 -15 -66 0
-82 3 -82 15 0 21 117 21 144 0z m36 -200 l0 -165 -190 0 -190 0 0 165 0 165
190 0 190 0 0 -165z"/>
<path d="M194 335 c-10 -26 10 -36 62 -33 41 3 49 6 49 23 0 17 -8 20 -53 23
-41 2 -54 0 -58 -13z m79 -12 c-13 -2 -33 -2 -45 0 -13 2 -3 4 22 4 25 0 35
-2 23 -4z"/>
<path d="M290 175 c-9 -10 -9 -15 -1 -15 6 0 11 -9 11 -20 0 -11 5 -20 10 -20
6 0 10 9 10 20 0 11 5 20 11 20 8 0 8 5 -1 15 -7 8 -16 15 -20 15 -4 0 -13 -7
-20 -15z"/>
<path d="M360 175 c-9 -10 -9 -15 -1 -15 6 0 11 -9 11 -20 0 -11 5 -20 10 -20
6 0 10 9 10 20 0 11 5 20 11 20 8 0 8 5 -1 15 -7 8 -16 15 -20 15 -4 0 -13 -7
-20 -15z"/>
<path d="M280 100 c0 -6 28 -10 65 -10 37 0 65 4 65 10 0 6 -28 10 -65 10 -37
0 -65 -4 -65 -10z"/>
</g>
</svg>
