<?xml version="1.0" encoding="UTF-8"?>
<svg width="33px" height="33px" viewBox="0 0 33 33" version="1.1" xmlns="http://www.w3.org/2000/svg" xmlns:xlink="http://www.w3.org/1999/xlink">
    <!-- Generator: Sketch 45.1 (43504) - http://www.bohemiancoding.com/sketch -->
    <title>Untitled 4</title>
    <desc>Created with Sketch.</desc>
    <defs></defs>
    <g id="Page-1" stroke="none" stroke-width="1" fill="none" fill-rule="evenodd">
        <g id="high-search" fill-rule="nonzero" fill="#3F5D75">
            <path d="M32.29,30.07 L22.57,20.35 C24.196,18.26 25.177,15.598 25.177,12.707 C25.177,5.798 19.576,0.197 12.667,0.197 C5.758,0.197 0.157,5.798 0.157,12.707 C0.157,19.616 5.758,25.217 12.667,25.217 C15.558,25.217 18.22,24.236 20.339,22.589 L20.311,22.61 L30.001,32.33 C30.284,32.587 30.661,32.744 31.075,32.744 C31.959,32.744 32.675,32.028 32.675,31.144 C32.675,30.73 32.518,30.352 32.259,30.068 L32.26,30.069 L32.29,30.07 Z M12.71,22 C7.599,21.989 3.46,17.843 3.46,12.73 C3.46,7.61 7.61,3.46 12.73,3.46 C17.85,3.46 22,7.61 22,12.73 C22,12.741 22,12.751 22,12.762 L22,12.76 C21.977,17.868 17.831,22 12.72,22 C12.716,22 12.713,22 12.709,22 L12.71,22 Z" id="Shape"></path>
        </g>
    </g>
</svg>