<svg fill="none" height="36" viewBox="0 0 36 36" width="36" xmlns="http://www.w3.org/2000/svg"><path d="m33.2473 2.75288c.3061-.05713.6216-.03919.9193.0523s.5688.25379.79.47299c.3641.37587.5643.88075.5566 1.40397-.0076.52322-.2224 1.02207-.5972 1.38718l-1.2284 1.22806-.5156-.51561 1.2281-1.2281c.119-.11144.2145-.24569.2806-.39476.0661-.14908.1016-.30993.1043-.47299s-.0274-.325-.0886-.47619c-.0611-.15118-.152-.28852-.2673-.40385-.1154-.11533-.2527-.2063-.4038-.26748-.1512-.06119-.3131-.09134-.4762-.08867-.1631.00266-.3239.0381-.473.10419-.1491.0661-.2834.1615-.3948.28054l-1.2281 1.22809-.5156-.51561 1.228-1.22809c.2343-.2282.3686-.54001.3733-.86704.0047-.32702-.1205-.64257-.3481-.87741-.2349-.22757-.5504-.3527-.8774-.34796s-.6388.13897-.8669.37325l-1.2283 1.2281-.5156-.51561 1.2281-1.22809c.3651-.374861.8639-.589663 1.3871-.597307.5232-.007643 1.028.192494 1.4039.556527.2192.2213.3815.49242.473.79015.0915.29774.1095.61322.0524.91942m-1.7208.00148-1.2281 1.22817c-.2343.22817-.3686.54-.3734.86706-.0047.32707.1205.64266.3481.87753.2349.22759.5505.35273.8775.34796s.6388-.13905.867-.3734l1.228-1.22809.5157.51561-1.2281 1.2281c-.3651.37486-.8639.58966-1.3871.5973-.5232.00765-1.028-.19249-1.4039-.55653-.364-.37588-.5642-.88078-.5565-1.404.0076-.52322.2224-1.02206.5973-1.38714l1.2281-1.22819z" fill="#000"/><path d="m4.37838.722973c-2.01883 0-3.655407 1.636577-3.655407 3.655407v27.24322c0 2.0188 1.636577 3.6554 3.655407 3.6554h27.24322c2.0188 0 3.6554-1.6366 3.6554-3.6554v-22.61484h.473v22.61484c0 2.2801-1.8483 4.1284-4.1284 4.1284h-27.24322c-2.28004 0-4.12838-1.8483-4.12838-4.1284v-27.24322c0-2.28004 1.84834-4.12838 4.12838-4.12838h22.61482v.472973z" stroke="#000" stroke-width=".5"/><path d="m20.9148 6.04773c1.3204.26407 2.1786 1.54883 1.9145 2.86914l-.1168.57891c-.2691 1.35582-.7668 2.64572-1.4625 3.81872h7.3125c1.3457 0 2.4375 1.0918 2.4375 2.4375 0 1.2848-.9902 2.336-2.2496 2.4325.391.4316.6246 1.0054.6246 1.63 0 1.1883-.8531 2.1785-1.9754 2.3918.2234.3657.3504.8024.3504 1.2645 0 1.0816-.7059 2.0008-1.6809 2.3156.0356.1676.0559.3453.0559.5281 0 1.3457-1.0918 2.4375-2.4375 2.4375h-3.7324c-.9649 0-1.9043-.2843-2.7067-.8175l-1.955-1.3051c-1.3559-.9039-2.1684-2.4274-2.1684-4.0574v-1.945-2.4375-1.2644c0-1.4828.6754-2.8793 1.8281-3.8086l.3758-.2996c1.3457-1.0766 2.2649-2.5899 2.6-4.27581l.1168-.5789c.2641-1.32032 1.5488-2.17852 2.8691-1.91446zm-14.2898 8.07927h3.25c.8988 0 1.625.7262 1.625 1.625v11.375c0 .8989-.7262 1.625-1.625 1.625h-3.25c-.89883 0-1.625-.7261-1.625-1.625v-11.375c0-.8988.72617-1.625 1.625-1.625z" fill="#000"/></svg>