<svg fill="none" height="36" viewBox="0 0 36 36" width="36" xmlns="http://www.w3.org/2000/svg"><path d="m33.2473 2.75288c.3061-.05713.6216-.03919.9193.0523s.5688.25379.79.47299c.3641.37587.5643.88075.5566 1.40397-.0076.52322-.2224 1.02207-.5972 1.38718l-1.2284 1.22806-.5156-.51561 1.2281-1.2281c.119-.11144.2145-.24569.2806-.39476.0661-.14908.1016-.30993.1043-.47299s-.0274-.325-.0886-.47619c-.0611-.15118-.152-.28852-.2673-.40385-.1154-.11533-.2527-.2063-.4038-.26748-.1512-.06119-.3131-.09134-.4762-.08867-.1631.00266-.3239.0381-.473.10419-.1491.0661-.2834.1615-.3948.28054l-1.2281 1.22809-.5156-.51561 1.228-1.22809c.2343-.2282.3686-.54001.3733-.86704.0047-.32702-.1205-.64257-.3481-.87741-.2349-.22757-.5504-.3527-.8774-.34796s-.6388.13897-.8669.37325l-1.2283 1.2281-.5156-.51561 1.2281-1.22809c.3651-.374861.8639-.589663 1.3871-.597307.5232-.007643 1.028.192494 1.4039.556527.2192.2213.3815.49242.473.79015.0915.29774.1095.61322.0524.91942m-1.7208.00148-1.2281 1.22817c-.2343.22817-.3686.54-.3734.86706-.0047.32707.1205.64266.3481.87753.2349.22759.5505.35273.8775.34796s.6388-.13905.867-.3734l1.228-1.22809.5157.51561-1.2281 1.2281c-.3651.37486-.8639.58966-1.3871.5973-.5232.00765-1.028-.19249-1.4039-.55653-.364-.37588-.5642-.88078-.5565-1.404.0076-.52322.2224-1.02206.5973-1.38714l1.2281-1.22819z" fill="#000"/><path d="m4.37838.722973c-2.01883 0-3.655407 1.636577-3.655407 3.655407v27.24322c0 2.0188 1.636577 3.6554 3.655407 3.6554h27.24322c2.0188 0 3.6554-1.6366 3.6554-3.6554v-22.61484h.473v22.61484c0 2.2801-1.8483 4.1284-4.1284 4.1284h-27.24322c-2.28004 0-4.12838-1.8483-4.12838-4.1284v-27.24322c0-2.28004 1.84834-4.12838 4.12838-4.12838h22.61482v.472973z" stroke="#000" stroke-width=".5"/><path d="m15.75 10.3219c0-.46721-.2945-.87854-.6703-1.15784-.5891-.44179-.9547-1.05117-.9547-1.72656 0-1.3457 1.4574-2.4375 3.25-2.4375s3.25 1.0918 3.25 2.4375c0 .67539-.3656 1.28477-.9547 1.72656-.3758.2793-.6703.69063-.6703 1.15784 0 .65.5281 1.1781 1.1781 1.1781h2.8844c1.3457 0 2.4375 1.0918 2.4375 2.4375v2.8844c0 .65.5281 1.1781 1.1781 1.1781.4672 0 .8785-.2945 1.1578-.6703.4418-.5891 1.0512-.9547 1.7266-.9547 1.3457 0 2.4375 1.4574 2.4375 3.25s-1.0918 3.25-2.4375 3.25c-.6754 0-1.2848-.3656-1.7266-.9547-.2793-.3758-.6906-.6703-1.1578-.6703-.65 0-1.1781.5281-1.1781 1.1781v6.1344c0 1.3457-1.0918 2.4375-2.4375 2.4375h-2.8844c-.65 0-1.1781-.5281-1.1781-1.1781 0-.4672.2945-.8785.6703-1.1578.5891-.4418.9547-1.0512.9547-1.7266 0-1.3457-1.4574-2.4375-3.25-2.4375s-3.25 1.0918-3.25 2.4375c0 .6754.3656 1.2848.9547 1.7266.3758.2793.6703.6906.6703 1.1578 0 .65-.5281 1.1781-1.1781 1.1781h-6.1344c-1.3457 0-2.4375-1.0918-2.4375-2.4375v-6.1344c0-.65.52813-1.1781 1.17813-1.1781.46718 0 .87851.2945 1.15781.6703.44179.5891 1.05117.9547 1.72656.9547 1.3457 0 2.4375-1.4574 2.4375-3.25s-1.0918-3.25-2.4375-3.25c-.67539 0-1.28477.3656-1.72656.9547-.2793.3758-.69063.6703-1.15781.6703-.65 0-1.17813-.5281-1.17813-1.1781v-2.8844c0-1.3457 1.0918-2.4375 2.4375-2.4375h6.1344c.65 0 1.1781-.5281 1.1781-1.1781z" fill="#000"/></svg>