<svg height="13" viewBox="0 0 13 13" width="13" xmlns="http://www.w3.org/2000/svg"><g fill-rule="evenodd"><path d="m4.285 5.02c-.079-.085-.18-.127-.304-.127-.123 0-.222.042-.295.126l-1.02 1.012c-.08.08-.119.177-.119.296 0 .118.04.22.118.303l3.435 3.442c.067.067.151.107.253.118.011.006.028.008.05.008.113 0 .217-.042.312-.126l6.158-6.158c.08-.084.119-.186.119-.304s-.04-.22-.119-.303l-1.013-1.013c-.084-.084-.185-.126-.304-.126-.118 0-.219.042-.303.126l-4.843 4.85z"/><path d="m12.493 5.39-5.223 5.222c-.219.23-.497.346-.835.346h-.235l-.05-.034c-.209-.05-.397-.155-.566-.312l-3.424-3.442c-.236-.236-.354-.517-.354-.843 0-.332.118-.61.354-.835l1.012-1.022c.23-.23.511-.346.843-.346.32 0 .6.118.835.354l1.586 1.586 3.357-3.364-2.235-2.236c-.298-.298-.658-.447-1.08-.447s-.781.149-1.08.447l-4.949 4.951c-.301.299-.449.658-.449 1.08s.15.782.447 1.08l4.953 4.951c.298.299.659.447 1.084.447.424 0 .783-.148 1.075-.447l4.952-4.951c.298-.298.447-.658.447-1.08s-.15-.782-.447-1.08l-.017-.025z"/></g></svg>