<svg height="800" viewBox="0 0 1024 1024" width="800" xmlns="http://www.w3.org/2000/svg"><path d="m878.3 192.9h-732.6c-16.5 0-30 13.5-30 30v483.1c0 16.5 13.5 30 30 30h732.6c16.5 0 30-13.5 30-30v-483.1c0-16.5-13.5-30-30-30z" fill="#fff"/><path d="m145.7 736h732.6c16.5 0 30-13.5 30-30v-22.1h-792.6v22.1c0 16.6 13.5 30 30 30z" fill="#e6e6e6"/><path d="m878.3 152.9h-732.6c-38.6 0-70 31.4-70 70v483.1c0 38.6 31.4 70 70 70h732.6c38.6 0 70-31.4 70-70v-483.1c0-38.6-31.4-70-70-70zm30 531v22.1c0 16.5-13.5 30-30 30h-732.6c-16.5 0-30-13.5-30-30v-483.1c0-16.5 13.5-30 30-30h732.6c16.5 0 30 13.5 30 30zm-230.3 187.2h-332c-11 0-20-9-20-20s9-20 20-20h332c11 0 20 9 20 20s-9 20-20 20z" fill="#005bff"/><path d="m127.1 662.7c-2.7 0-5.4-1.1-7.3-3.2-3.7-4.1-3.5-10.4.6-14.1l236.5-219.6 106.1 116.1 258.9-290.7 183.7 196.3c3.8 4 3.6 10.4-.4 14.1-4 3.8-10.3 3.6-14.1-.4l-168.8-180.4-259 290.9-107.6-117.7-221.8 206c-2 1.8-4.4 2.7-6.8 2.7z" fill="#06f3ff"/><path d="m156.4 541.9a82.7 82.8 0 1 0 165.4 0 82.7 82.8 0 1 0 -165.4 0z" fill="#d7e7ff"/><path d="m179.8 541.9a59.3 59.3 0 1 0 118.6 0 59.3 59.3 0 1 0 -118.6 0z" fill="#b5cff4"/><path d="m208.9 541.9a30.2 30.3 0 1 0 60.4 0 30.2 30.3 0 1 0 -60.4 0z" fill="#005bff"/><path d="m580.9 329.9a82.7 82.8 0 1 0 165.4 0 82.7 82.8 0 1 0 -165.4 0z" fill="#d7e7ff"/><path d="m604.3 329.9a59.3 59.3 0 1 0 118.6 0 59.3 59.3 0 1 0 -118.6 0z" fill="#b5cff4"/><path d="m633.4 329.9a30.2 30.3 0 1 0 60.4 0 30.2 30.3 0 1 0 -60.4 0z" fill="#005bff"/><path d="m719.3 539.6a46.3 46.4 0 1 0 92.6 0 46.3 46.4 0 1 0 -92.6 0z" fill="#d7e7ff"/><path d="m732.4 539.6a33.2 33.2 0 1 0 66.4 0 33.2 33.2 0 1 0 -66.4 0z" fill="#b5cff4"/><path d="m748.7 539.6a16.9 17 0 1 0 33.8 0 16.9 17 0 1 0 -33.8 0z" fill="#005bff"/><path d="m436.8 720.1h-161.6c-5 0-9-4-9-9s4-9 9-9h161.6c5 0 9 4 9 9 0 4.9-4.1 9-9 9zm-216.2 0h-26.5c-5 0-9-4-9-9s4-9 9-9h26.5c5 0 9 4 9 9 0 4.9-4.1 9-9 9z" fill="#fff"/></svg>