<svg fill="none" height="40" viewBox="0 0 40 40" width="40" xmlns="http://www.w3.org/2000/svg" xmlns:xlink="http://www.w3.org/1999/xlink"><clipPath id="a"><path d="m0 0h40v40h-40z"/></clipPath><g clip-path="url(#a)"><path d="m38.75 37.5v-28.75h-37.5v28.75c0 .69.56 1.25 1.25 1.25h35c.69 0 1.25-.56 1.25-1.25z" fill="#f9ebb2"/><path d="m1.25 2.5v5h37.5v-5c0-.69-.56-1.25-1.25-1.25h-35c-.69 0-1.25.56-1.25 1.25z" fill="#b4ccb9"/><g fill="#394240"><path d="m37.5 0h-35c-1.38187 0-2.5 1.11813-2.5 2.5v35c0 1.3819 1.11813 2.5 2.5 2.5h35c1.3819 0 2.5-1.1181 2.5-2.5v-35c0-1.38187-1.1181-2.5-2.5-2.5zm1.25 37.5c0 .69-.56 1.25-1.25 1.25h-35c-.69 0-1.25-.56-1.25-1.25v-28.75h37.5zm0-30h-37.5v-5c0-.69.56-1.25 1.25-1.25h35c.69 0 1.25.56 1.25 1.25z"/><path d="m4.375 2.5c-1.03562 0-1.875.83938-1.875 1.875s.83938 1.875 1.875 1.875 1.875-.83938 1.875-1.875-.83938-1.875-1.875-1.875zm0 2.5c-.34562 0-.625-.27938-.625-.625s.27938-.625.625-.625.625.27938.625.625-.27938.625-.625.625z"/><path d="m20.625 2.5h-11.25c-1.03562 0-1.875.83938-1.875 1.875s.83938 1.875 1.875 1.875h11.25c1.0356 0 1.875-.83938 1.875-1.875s-.8394-1.875-1.875-1.875zm0 2.5h-11.25c-.34562 0-.625-.27938-.625-.625s.27938-.625.625-.625h11.25c.3456 0 .625.27938.625.625s-.2794.625-.625.625z"/><path d="m6.875 15h11.25c.3456 0 .625-.2794.625-.625s-.2794-.625-.625-.625h-11.25c-.34562 0-.625.2794-.625.625s.27938.625.625.625z"/><path d="m6.875 18.75h11.25c.3456 0 .625-.2794.625-.625s-.2794-.625-.625-.625h-11.25c-.34562 0-.625.2794-.625.625s.27938.625.625.625z"/><path d="m6.875 22.5h11.25c.3456 0 .625-.2794.625-.625s-.2794-.625-.625-.625h-11.25c-.34562 0-.625.2794-.625.625s.27938.625.625.625z"/><path d="m6.875 26.25h11.25c.3456 0 .625-.2794.625-.625s-.2794-.625-.625-.625h-11.25c-.34562 0-.625.2794-.625.625s.27938.625.625.625z"/><path d="m6.875 30h26.25c.3456 0 .625-.2794.625-.625s-.2794-.625-.625-.625h-26.25c-.34562 0-.625.2794-.625.625s.27938.625.625.625z"/><path d="m6.875 33.75h26.25c.3456 0 .625-.2794.625-.625s-.2794-.625-.625-.625h-26.25c-.34562 0-.625.2794-.625.625s.27938.625.625.625z"/><path d="m21.875 26.25h11.25c.3456 0 .625-.2794.625-.625v-11.25c0-.3456-.2794-.625-.625-.625h-11.25c-.3456 0-.625.2794-.625.625v11.25c0 .3456.2794.625.625.625zm.625-11.25h10v10h-10z"/></g><path d="m32.5 15h-10v10h10z" fill="#f76d57"/><path d="m20.625 3.75h-11.25c-.34562 0-.625.27938-.625.625s.27938.625.625.625h11.25c.3456 0 .625-.27938.625-.625s-.2794-.625-.625-.625z" fill="#506c7f"/><path d="m4.375 5c.34518 0 .625-.27982.625-.625s-.27982-.625-.625-.625-.625.27982-.625.625.27982.625.625.625z" fill="#506c7f"/></g></svg>