<svg fill="none" height="40" viewBox="0 0 40 40" width="40" xmlns="http://www.w3.org/2000/svg" xmlns:xlink="http://www.w3.org/1999/xlink"><clipPath id="a"><path d="m0 0h40v40h-40z"/></clipPath><g clip-path="url(#a)"><path d="m31.25 1.25c-.3456 0-.625.27938-.625.625v.625 1.25 2.5c0 .34562.2794.625.625.625s.625-.27938.625-.625v-2.5-1.25-.625c0-.34562-.2794-.625-.625-.625z" fill="#506c7f"/><path d="m8.75 1.25c-.34562 0-.625.27938-.625.625v.625 1.25 2.5c0 .34562.27938.625.625.625s.625-.27938.625-.625v-2.5-1.25-.625c0-.34562-.27938-.625-.625-.625z" fill="#506c7f"/><path d="m38.75 37.5c0 .69-.56 1.25-1.25 1.25h-35c-.69 0-1.25-.56-1.25-1.25v-26.875h37.5z" fill="#f9ebb2"/><path d="m38.75 9.375h-37.5v-4.375c0-.69.56-1.25 1.25-1.25h4.375v2.5c0 1.03562.83938 1.875 1.875 1.875s1.875-.83938 1.875-1.875v-2.5h18.75v2.5c0 1.03562.8394 1.875 1.875 1.875s1.875-.83938 1.875-1.875v-2.5h4.375c.69 0 1.25.56 1.25 1.25z" fill="#f76d57"/><g fill="#394240"><path d="m6.875 33.75h3.75c.3456 0 .625-.2794.625-.625v-3.125c0-.3456-.2794-.625-.625-.625h-3.75c-.34562 0-.625.2794-.625.625v3.125c0 .3456.27938.625.625.625zm.625-3.125h2.5v1.875h-2.5z"/><path d="m14.375 33.75h3.75c.3456 0 .625-.2794.625-.625v-3.125c0-.3456-.2794-.625-.625-.625h-3.75c-.3456 0-.625.2794-.625.625v3.125c0 .3456.2794.625.625.625zm.625-3.125h2.5v1.875h-2.5z"/><path d="m21.875 33.75h3.75c.3456 0 .625-.2794.625-.625v-3.125c0-.3456-.2794-.625-.625-.625h-3.75c-.3456 0-.625.2794-.625.625v3.125c0 .3456.2794.625.625.625zm.625-3.125h2.5v1.875h-2.5z"/><path d="m6.875 26.875h3.75c.3456 0 .625-.2794.625-.625v-3.125c0-.3456-.2794-.625-.625-.625h-3.75c-.34562 0-.625.2794-.625.625v3.125c0 .3456.27938.625.625.625zm.625-3.125h2.5v1.875h-2.5z"/><path d="m14.375 26.875h3.75c.3456 0 .625-.2794.625-.625v-3.125c0-.3456-.2794-.625-.625-.625h-3.75c-.3456 0-.625.2794-.625.625v3.125c0 .3456.2794.625.625.625zm.625-3.125h2.5v1.875h-2.5z"/><path d="m21.875 26.875h3.75c.3456 0 .625-.2794.625-.625v-3.125c0-.3456-.2794-.625-.625-.625h-3.75c-.3456 0-.625.2794-.625.625v3.125c0 .3456.2794.625.625.625zm.625-3.125h2.5v1.875h-2.5z"/><path d="m29.375 26.875h3.75c.3456 0 .625-.2794.625-.625v-3.125c0-.3456-.2794-.625-.625-.625h-3.75c-.3456 0-.625.2794-.625.625v3.125c0 .3456.2794.625.625.625zm.625-3.125h2.5v1.875h-2.5z"/><path d="m6.875 20h3.75c.3456 0 .625-.2794.625-.625v-3.125c0-.3456-.2794-.625-.625-.625h-3.75c-.34562 0-.625.2794-.625.625v3.125c0 .3456.27938.625.625.625zm.625-3.125h2.5v1.875h-2.5z"/><path d="m14.375 20h3.75c.3456 0 .625-.2794.625-.625v-3.125c0-.3456-.2794-.625-.625-.625h-3.75c-.3456 0-.625.2794-.625.625v3.125c0 .3456.2794.625.625.625zm.625-3.125h2.5v1.875h-2.5z"/><path d="m21.875 20h3.75c.3456 0 .625-.2794.625-.625v-3.125c0-.3456-.2794-.625-.625-.625h-3.75c-.3456 0-.625.2794-.625.625v3.125c0 .3456.2794.625.625.625zm.625-3.125h2.5v1.875h-2.5z"/><path d="m29.375 20h3.75c.3456 0 .625-.2794.625-.625v-3.125c0-.3456-.2794-.625-.625-.625h-3.75c-.3456 0-.625.2794-.625.625v3.125c0 .3456.2794.625.625.625zm.625-3.125h2.5v1.875h-2.5z"/><path d="m37.5 2.5h-4.375v-.625c0-1.035625-.8394-1.875-1.875-1.875s-1.875.839375-1.875 1.875v.625h-18.75v-.625c0-1.035625-.83938-1.875-1.875-1.875s-1.875.839375-1.875 1.875v.625h-4.375c-1.38187 0-2.5 1.11813-2.5 2.5v32.5c0 1.3819 1.11813 2.5 2.5 2.5h35c1.3819 0 2.5-1.1181 2.5-2.5v-32.5c0-1.38187-1.1181-2.5-2.5-2.5zm-6.875-.625c0-.34562.2794-.625.625-.625s.625.27938.625.625v4.375c0 .34562-.2794.625-.625.625s-.625-.27938-.625-.625zm-22.5 0c0-.34562.27938-.625.625-.625s.625.27938.625.625v4.375c0 .34562-.27938.625-.625.625s-.625-.27938-.625-.625zm30.625 35.625c0 .69-.56 1.25-1.25 1.25h-35c-.69 0-1.25-.56-1.25-1.25v-26.875h37.5zm0-28.125h-37.5v-4.375c0-.69.56-1.25 1.25-1.25h4.375v2.5c0 1.03562.83938 1.875 1.875 1.875s1.875-.83938 1.875-1.875v-2.5h18.75v2.5c0 1.03562.8394 1.875 1.875 1.875s1.875-.83938 1.875-1.875v-2.5h4.375c.69 0 1.25.56 1.25 1.25z"/></g><path d="m10 16.875h-2.5v1.875h2.5z" fill="#b4ccb9"/><path d="m17.5 16.875h-2.5v1.875h2.5z" fill="#b4ccb9"/><path d="m25 16.875h-2.5v1.875h2.5z" fill="#b4ccb9"/><path d="m32.5 16.875h-2.5v1.875h2.5z" fill="#b4ccb9"/><path d="m10 23.75h-2.5v1.875h2.5z" fill="#b4ccb9"/><path d="m17.5 23.75h-2.5v1.875h2.5z" fill="#b4ccb9"/><path d="m25 23.75h-2.5v1.875h2.5z" fill="#b4ccb9"/><path d="m32.5 23.75h-2.5v1.875h2.5z" fill="#b4ccb9"/><path d="m10 30.625h-2.5v1.875h2.5z" fill="#b4ccb9"/><path d="m17.5 30.625h-2.5v1.875h2.5z" fill="#b4ccb9"/><path d="m25 30.625h-2.5v1.875h2.5z" fill="#b4ccb9"/></g></svg>