<svg fill="none" height="40" viewBox="0 0 40 40" width="40" xmlns="http://www.w3.org/2000/svg" xmlns:xlink="http://www.w3.org/1999/xlink"><clipPath id="a"><path d="m0 0h40v40h-40z"/></clipPath><g clip-path="url(#a)"><path d="m38.75 37.5c0 .69-.56 1.25-1.25 1.25h-35c-.69 0-1.25-.56-1.25-1.25v-35c0-.69.56-1.25 1.25-1.25h35c.69 0 1.25.56 1.25 1.25z" fill="#f9ebb2"/><g fill="#394240"><path d="m37.5 0h-35c-1.38187 0-2.5 1.11813-2.5 2.5v35c0 1.3819 1.11813 2.5 2.5 2.5h35c1.3819 0 2.5-1.1181 2.5-2.5v-35c0-1.38187-1.1181-2.5-2.5-2.5zm1.25 37.5c0 .69-.56 1.25-1.25 1.25h-35c-.69 0-1.25-.56-1.25-1.25v-35c0-.69.56-1.25 1.25-1.25h35c.69 0 1.25.56 1.25 1.25z"/><path d="m21.875 5h-3.75c-.3456 0-.625.27938-.625.625v29.375h5v-29.375c0-.34562-.2794-.625-.625-.625zm-.625 28.75h-2.5v-8.75h2.5zm0-10h-2.5v-17.5h2.5z"/><path d="m15.625 10h-3.75c-.3456 0-.625.2794-.625.625v24.375h5v-24.375c0-.3456-.2794-.625-.625-.625zm-.625 23.75h-2.5v-6.25h2.5zm0-7.5h-2.5v-15h2.5z"/><path d="m34.375 15h-3.75c-.3456 0-.625.2794-.625.625v19.375h5v-19.375c0-.3456-.2794-.625-.625-.625zm-.625 18.75h-2.5v-6.25h2.5zm0-7.5h-2.5v-10h2.5z"/><path d="m28.125 20h-3.75c-.3456 0-.625.2794-.625.625v14.375h5v-14.375c0-.3456-.2794-.625-.625-.625zm-.625 13.75h-2.5v-3.75h2.5zm0-5h-2.5v-7.5h2.5z"/><path d="m9.375 15h-3.75c-.34562 0-.625.2794-.625.625v19.375h5v-19.375c0-.3456-.27938-.625-.625-.625zm-.625 18.75h-2.5v-3.75h2.5zm0-5h-2.5v-12.5h2.5z"/></g><path d="m8.75 16.25h-2.5v12.5h2.5z" fill="#b4ccb9"/><path d="m15 11.25h-2.5v15h2.5z" fill="#45aab8"/><path d="m27.5 21.25h-2.5v7.5h2.5z" fill="#f76d57"/><path d="m21.25 25h-2.5v8.75h2.5z" fill="#45aab8"/><path d="m33.75 16.25h-2.5v10h2.5z" fill="#b4ccb9"/><path d="m21.25 6.25h-2.5v17.5h2.5z" fill="#45aab8"/><path d="m8.75 30h-2.5v3.75h2.5z" fill="#b4ccb9"/><path d="m27.5 30h-2.5v3.75h2.5z" fill="#f76d57"/><path d="m33.75 27.5h-2.5v6.25h2.5z" fill="#b4ccb9"/><path d="m15 27.5h-2.5v6.25h2.5z" fill="#45aab8"/><g fill="#000" opacity=".2"><path d="m21.25 25h-2.5v8.75h2.5z"/><path d="m8.75 30h-2.5v3.75h2.5z"/><path d="m27.5 30h-2.5v3.75h2.5z"/><path d="m33.75 27.5h-2.5v6.25h2.5z"/><path d="m15 27.5h-2.5v6.25h2.5z"/></g></g></svg>