<svg fill="none" height="40" viewBox="0 0 40 40" width="40" xmlns="http://www.w3.org/2000/svg"><g fill="#394240"><path d="m21.25 19.375h18.125c.3456 0 .625-.2794.625-.625 0-10.355-8.395-18.75-18.75-18.75-.3456 0-.625.279375-.625.625v18.125c0 .345.2794.625.625.625zm.625-18.10937c9.1669.3225 16.5369 7.69187 16.8594 16.85937h-16.8594z"/><path d="m39.375 20.625h-16.875c-.0275 0-.0512.0119-.0781.015-.0525.0069-.105.0119-.155.0312-.0488.0194-.0894.0525-.1307.0832-.0225.0168-.0493.0256-.07.045-.0012.0012-.0018.0037-.0031.005-.0537.0525-.095.1156-.1269.1843-.0025.0057-.0087.01-.0112.0157-.01.0237-.0094.0525-.0162.0781-.0144.0525-.0319.1056-.0326.16l-.0012.0075c0 .0331.0137.0625.0194.095.0075.0462.01.0925.0275.1369.0219.055.0575.1.0931.1456.0131.0175.0194.0394.0356.0556l.0063.0063s.0012.0018.0025.0025l12.4487 12.8162c3.3938-3.3931 5.4919-8.0806 5.4919-13.2581 0-.3456-.2794-.625-.625-.625zm-4.9213 12.1031-10.4812-10.8531h14.7612c-.1456 4.1475-1.7337 7.9262-4.28 10.8531z"/><path d="m19.7594 21.4319c-.3769-.3775-.3844-1.0538-.3844-1.0538v-17.2531c0-.34562-.2794-.625-.625-.625-10.355 0-18.75 8.395-18.75 18.75s8.395 18.75 18.75 18.75c5.1775 0 9.865-2.0981 13.2581-5.4919l-.8344-.8344c-.0125-.0168-10.8012-11.6293-11.4143-12.2418zm-1.0094 17.3181c-9.665 0-17.5-7.835-17.5-17.5 0-9.4556 7.5-17.155 16.875-17.48438v16.85938c0 .5669.2144 1.1313.635 1.5513s11.4575 12.2862 11.4575 12.2862c-3.0713 2.6687-7.0794 4.2875-11.4675 4.2875z"/></g><path d="m18.75 38.75c-9.665 0-17.5-7.835-17.5-17.5 0-9.4556 7.5-17.155 16.875-17.48438v16.85938c0 .5669.2144 1.1313.635 1.5513s11.4575 12.2862 11.4575 12.2862c-3.0713 2.6688-7.0794 4.2875-11.4675 4.2875z" fill="#45aab8"/><path d="m21.875 1.26562c9.1669.3225 16.5369 7.69188 16.8594 16.85938h-16.8594z" fill="#f76d57"/><path d="m34.4537 32.7281-10.4813-10.8531h14.7613c-.1457 4.1475-1.7338 7.9262-4.28 10.8531z" fill="#f9ebb2"/></svg>