<svg fill="none" height="40" viewBox="0 0 40 40" width="40" xmlns="http://www.w3.org/2000/svg" xmlns:xlink="http://www.w3.org/1999/xlink"><clipPath id="a"><path d="m0 0h40v40h-40z"/></clipPath><g clip-path="url(#a)"><path d="m20 1.24902c-10.355 0-18.75 8.395-18.75 18.74998 0 10.355 8.395 18.75 18.75 18.75s18.75-8.395 18.75-18.75c0-10.35498-8.395-18.74998-18.75-18.74998zm0 36.24998c-9.665 0-17.5-7.835-17.5-17.5s7.835-17.49998 17.5-17.49998 17.5 7.83498 17.5 17.49998-7.835 17.5-17.5 17.5z" fill="#506c7f"/><path d="m20 36.249c8.9746 0 16.25-7.2754 16.25-16.25s-7.2754-16.24998-16.25-16.24998-16.25 7.27538-16.25 16.24998 7.2754 16.25 16.25 16.25z" fill="#45aab8"/><path d="m22.6463 22.6453-8.9969 3.7044 3.7044-8.9969 8.9969-3.7044z" fill="#f9ebb2"/><g fill="#394240"><path d="m20 0c-11.04563 0-20 8.95437-20 20 0 11.0456 8.95437 20 20 20 11.0456 0 20-8.9544 20-20 0-11.04563-8.9544-20-20-20zm0 38.7494c-10.355 0-18.75-8.395-18.75-18.75 0-10.35503 8.395-18.75003 18.75-18.75003s18.75 8.395 18.75 18.75003c0 10.355-8.395 18.75-18.75 18.75z"/><path d="m20 2.49902c-9.665 0-17.5 7.83498-17.5 17.49998s7.835 17.5 17.5 17.5 17.5-7.835 17.5-17.5-7.835-17.49998-17.5-17.49998zm11.9219 28.53808-.8731-.8731c-.2444-.2444-.6394-.2444-.8838 0s-.245.6394 0 .8838l.8731.8731c-2.7556 2.5525-6.3975 4.16-10.4131 4.3125v-3.1094c0-.3456-.2794-.625-.625-.625s-.625.2794-.625.625v3.1094c-4.0156-.1519-7.6575-1.7594-10.41313-4.3119l.87313-.8731c.2444-.2444.2444-.6394 0-.8838-.24437-.2443-.63938-.245-.88375 0l-.87312.8732c-2.5525-2.7557-4.16-6.3975-4.31188-10.4132h3.10875c.34562 0 .625-.2793.625-.625 0-.3456-.27938-.625-.625-.625h-3.10937c.15187-4.0156 1.75937-7.6575 4.31187-10.41308l.87313.87313c.24437.24435.63937.24435.88374 0 .24433-.24438.24503-.63938 0-.88375l-.87312-.87313c2.75625-2.55312 6.39815-4.16062 10.41375-4.31312v3.10937c0 .34563.2794.625.625.625s.625-.27937.625-.625v-3.10937c4.0156.15187 7.6575 1.75937 10.4131 4.31187l-.8731.87313c-.2444.24437-.2444.63937 0 .88375.2444.2444.6394.245.8838 0l.8731-.87313c2.5525 2.75563 4.16 6.39753 4.3118 10.41313h-3.1087c-.3456 0-.625.2794-.625.625s.2794.625.625.625h3.1094c-.1525 4.0162-1.76 7.6581-4.3125 10.4137z"/><path d="m27.2618 11.9215-10.625 4.375c-.1538.0637-.2763.1862-.34.34l-4.375 10.625c-.0957.2331-.0419.5019.1362.68.1194.1194.2794.1831.4419.1831.08 0 .1612-.015.2381-.0469l10.625-4.375c.1538-.0637.2763-.1862.34-.34l4.375-10.625c.0956-.2331.0419-.5018-.1362-.68-.1782-.1781-.4469-.2312-.68-.1362zm-4.6157 10.7244-8.9968 3.7043 3.7043-8.9975 8.9975-3.7043z"/><path d="m20 21.874c1.035 0 1.875-.84 1.875-1.875s-.84-1.875-1.875-1.875-1.875.84-1.875 1.875.84 1.875 1.875 1.875zm0-2.5c.3456 0 .625.2794.625.625s-.2794.625-.625.625-.625-.2794-.625-.625.2794-.625.625-.625z"/></g><path d="m20 20.624c.3452 0 .625-.2798.625-.625s-.2798-.625-.625-.625-.625.2798-.625.625.2798.625.625.625z" fill="#f76d57"/></g></svg>