<svg fill="none" height="40" viewBox="0 0 40 40" width="40" xmlns="http://www.w3.org/2000/svg" xmlns:xlink="http://www.w3.org/1999/xlink"><clipPath id="a"><path d="m0 0h40v40h-40z"/></clipPath><g clip-path="url(#a)"><path d="m38.75 37.5c0 .69-.56 1.25-1.25 1.25h-35c-.69 0-1.25-.56-1.25-1.25v-35c0-.69.56-1.25 1.25-1.25h35c.69 0 1.25.56 1.25 1.25z" fill="#f9ebb2"/><g fill="#394240"><path d="m37.5 0h-35c-1.38187 0-2.5 1.11813-2.5 2.5v35c0 1.3819 1.11813 2.5 2.5 2.5h35c1.3819 0 2.5-1.1181 2.5-2.5v-35c0-1.38187-1.1181-2.5-2.5-2.5zm1.25 37.5c0 .69-.56 1.25-1.25 1.25h-35c-.69 0-1.25-.56-1.25-1.25v-35c0-.69.56-1.25 1.25-1.25h35c.69 0 1.25.56 1.25 1.25z"/><path d="m33.125 8.125h-18.4919c-.7418-1.83187-2.5356-3.125-4.6331-3.125-2.76125 0-5 2.23875-5 5 0 2.7613 2.23875 5 5 5 2.0969 0 3.8906-1.2925 4.6325-3.1237h18.4925v-.0013c1.0356 0 1.875-.84 1.875-1.875s-.8394-1.875-1.875-1.875zm-23.125 5.625c-2.07062 0-3.75-1.6794-3.75-3.75 0-2.07062 1.67938-3.75 3.75-3.75 2.0706 0 3.75 1.67938 3.75 3.75 0 2.0706-1.6794 3.75-3.75 3.75zm23.125-3.125v.0013h-18.1681c.0256-.2063.0431-.4138.0431-.6263s-.0175-.42-.0431-.625h18.1681c.3456 0 .625.27938.625.625 0 .3456-.2794.625-.625.625z"/><path d="m30 25c-2.0975 0-3.8912 1.2931-4.6331 3.125h-18.4919c-1.03562 0-1.875.84-1.875 1.875s.83938 1.875 1.875 1.875v.0012h18.4925c.7419 1.8313 2.5356 3.1238 4.6325 3.1238 2.7613 0 5-2.2387 5-5s-2.2387-5-5-5zm-4.9569 5.6262h-18.1681v-.0012c-.34562 0-.625-.2794-.625-.625s.27938-.625.625-.625h18.1681c-.0256.205-.0431.4125-.0431.625s.0175.42.0431.6262zm4.9569 3.1238c-2.0706 0-3.75-1.6794-3.75-3.75s1.6794-3.75 3.75-3.75 3.75 1.6794 3.75 3.75-1.6794 3.75-3.75 3.75z"/><path d="m33.125 18.125h-8.4919c-.7425-1.8319-2.5356-3.125-4.6331-3.125s-3.8913 1.2931-4.6331 3.125h-8.4919c-1.03562 0-1.875.84-1.875 1.875s.83938 1.875 1.875 1.875v.0012h8.4925c.7419 1.8313 2.5356 3.1238 4.6325 3.1238s3.8906-1.2925 4.6325-3.1238h8.4925v-.0012c1.0356 0 1.875-.84 1.875-1.875s-.8394-1.875-1.875-1.875zm-18.0819 2.5012h-8.1681v-.0012c-.34562 0-.625-.2794-.625-.625s.27938-.625.625-.625h8.1681c-.0256.205-.0431.4125-.0431.625s.0175.42.0431.6262zm4.9569 3.1238c-2.0706 0-3.75-1.6794-3.75-3.75s1.6794-3.75 3.75-3.75 3.75 1.6794 3.75 3.75-1.6794 3.75-3.75 3.75zm13.125-3.125v.0012h-8.1681c.0256-.2062.0431-.4137.0431-.6262s-.0175-.42-.0431-.625h8.1681c.3456 0 .625.2794.625.625s-.2794.625-.625.625z"/></g><path d="m15.0431 20.6262h-8.1681v-.0012c-.34562 0-.625-.2794-.625-.625s.27938-.625.625-.625h8.1681c-.0256.205-.0431.4125-.0431.625s.0175.42.0431.6262z" fill="#506c7f"/><path d="m20 23.75c2.0711 0 3.75-1.6789 3.75-3.75s-1.6789-3.75-3.75-3.75-3.75 1.6789-3.75 3.75 1.6789 3.75 3.75 3.75z" fill="#b4ccb9"/><path d="m30 33.75c2.0711 0 3.75-1.6789 3.75-3.75s-1.6789-3.75-3.75-3.75-3.75 1.6789-3.75 3.75 1.6789 3.75 3.75 3.75z" fill="#45aab8"/><path d="m10 13.75c2.0711 0 3.75-1.6789 3.75-3.75 0-2.07107-1.6789-3.75-3.75-3.75-2.07107 0-3.75 1.67893-3.75 3.75 0 2.0711 1.67893 3.75 3.75 3.75z" fill="#f76d57"/><path d="m33.1249 20.625v.0012h-8.1681c.0256-.2062.0431-.4137.0431-.6262s-.0175-.42-.0431-.625h8.1681c.3456 0 .625.2794.625.625s-.2794.625-.625.625z" fill="#506c7f"/><path d="m25.0431 30.6262h-18.1681v-.0012c-.34562 0-.625-.2794-.625-.625s.27938-.625.625-.625h18.1681c-.0256.205-.0431.4125-.0431.625s.0175.42.0431.6262z" fill="#506c7f"/><path d="m33.1249 10.625v.0013h-18.1681c.0256-.2063.0431-.4138.0431-.6263s-.0175-.42-.0431-.625h18.1681c.3456 0 .625.27938.625.625 0 .3456-.2794.625-.625.625z" fill="#506c7f"/></g></svg>