<svg fill="none" height="40" viewBox="0 0 40 40" width="40" xmlns="http://www.w3.org/2000/svg" xmlns:xlink="http://www.w3.org/1999/xlink"><clipPath id="a"><path d="m0 0h40v40h-40z"/></clipPath><g clip-path="url(#a)"><path d="m37.5 0h-35c-1.38187 0-2.5 1.11813-2.5 2.5v35c0 1.3819 1.11813 2.5 2.5 2.5h35c1.3819 0 2.5-1.1181 2.5-2.5v-35c0-1.38187-1.1181-2.5-2.5-2.5zm-5 1.25v18.125h-25v-18.125zm-31.25 1.25c0-.69.56-1.25 1.25-1.25h3.75v5.625h-5zm0 5.625h5v5h-5zm0 6.25h5v5h-5zm0 6.25h5v5h-5zm0 6.25h5v5h-5zm1.25 11.875c-.69 0-1.25-.56-1.25-1.25v-4.375h5v5.625zm5 0v-18.125h25v18.125zm31.25-1.25c0 .69-.56 1.25-1.25 1.25h-3.75v-5.625h5zm0-5.625h-5v-5h5zm0-6.25h-5v-5h5zm0-6.25h-5v-5h5zm0-6.25h-5v-5h5zm0-6.25h-5v-5.625h3.75c.69 0 1.25.56 1.25 1.25z" fill="#394240"/><g fill="#f9ebb2"><path d="m1.25 2.5v4.375h5v-5.625h-3.75c-.69 0-1.25.56-1.25 1.25z"/><path d="m6.25 8.125h-5v5h5z"/><path d="m6.25 14.375h-5v5h5z"/><path d="m6.25 20.625h-5v5h5z"/><path d="m6.25 26.875h-5v5h5z"/><path d="m1.25 37.5c0 .69.56 1.25 1.25 1.25h3.75v-5.625h-5z"/><path d="m33.75 38.75h3.75c.69 0 1.25-.56 1.25-1.25v-4.375h-5z"/><path d="m38.75 26.875h-5v5h5z"/><path d="m38.75 20.625h-5v5h5z"/><path d="m38.75 14.375h-5v5h5z"/><path d="m38.75 8.125h-5v5h5z"/><path d="m37.5 1.25h-3.75v5.625h5v-4.375c0-.69-.56-1.25-1.25-1.25z"/></g><path d="m32.5 1.25h-25v18.125h25z" fill="#506c7f"/><path d="m32.5 20.625h-25v18.125h25z" fill="#506c7f"/></g></svg>