<svg fill="none" height="40" viewBox="0 0 40 40" width="40" xmlns="http://www.w3.org/2000/svg" xmlns:xlink="http://www.w3.org/1999/xlink"><clipPath id="a"><path d="m0 0h40v40h-40z"/></clipPath><g clip-path="url(#a)"><path d="m35 37.5001c0 .69-.56 1.25-1.25 1.25h-10v-9.375c0-.3456-.2794-.625-.625-.625h-6.25c-.3456 0-.625.2794-.625.625v9.375h-10c-.69 0-1.25-.56-1.25-1.25v-17.8681l15.0056-15.00505 14.9944 14.99435z" fill="#f9ebb2"/><path d="m8.75 3.75h2.5v4.12562l-2.5 2.49498z" fill="#f76d57"/><path d="m22.5 30h-5v8.75h5z" fill="#f9ebb2"/><path d="m38.125 20.625c-.1725 0-.3763-.0225-.4888-.1356l-17.1887-17.18877c-.1219-.12188-.2819-.18313-.4419-.18313s-.32.06125-.4418.18313l-17.19443 17.19497c-.11312.1131-.32187.1294-.49437.1294-.34562 0-.625-.2794-.625-.625 0-.1725.01-.3887.12313-.5019l18.02377-17.99185s.2331-.25625.6087-.25625.6138.24875.6138.24875l18.0037 18.00315c.1132.1131.1269.3256.1269.4981 0 .345-.2794.625-.625.625z" fill="#f76d57"/><g fill="#394240"><path d="m39.5069 18.6181-17.9832-17.983725s-.5856-.634375-1.5187-.634375-1.485.619375-1.485.619375l-6.02 6.008125v-3.5025c0-.34562-.2794-.625-.625-.625h-3.75c-.34562 0-.625.27938-.625.625v8.4931l-7.010625 6.9963c-.339375.3394-.489375.8681-.489375 1.3856 0 1.035.839375 1.875 1.875 1.875.5175 0 1.03875-.1569 1.37812-.4962l.49688-.4969v16.6181c0 1.3819 1.11813 2.5 2.5 2.5h27.5c1.3819 0 2.5-1.1181 2.5-2.5v-16.6287l.5025.5025c.3394.3381.855.5012 1.3725.5012 1.0356 0 1.875-.8394 1.875-1.875 0-.5181-.1538-1.0425-.4931-1.3819zm-30.7569-14.8681h2.5v4.12562l-2.5 2.49498zm13.75 35h-5v-8.75h5zm12.5-1.25c0 .69-.56 1.25-1.25 1.25h-10v-9.375c0-.3456-.2794-.625-.625-.625h-6.25c-.3456 0-.625.2794-.625.625v9.375h-10c-.69 0-1.25-.56-1.25-1.25v-17.8681l15.0056-15.00503 14.9944 14.99433zm3.125-16.875c-.1725 0-.3763-.0225-.4888-.1356l-17.1887-17.18877c-.1219-.12188-.2819-.18313-.4419-.18313s-.32.06125-.4418.18313l-17.19443 17.19497c-.11312.1131-.32187.1294-.49437.1294-.34562 0-.625-.2794-.625-.625 0-.1725.01-.3887.12313-.5019l18.02377-17.99185s.2331-.25625.6087-.25625.6138.24875.6138.24875l18.0037 18.00315c.1132.1131.1269.3256.1269.4981 0 .345-.2794.625-.625.625z"/><path d="m14.375 20h-5c-.34562 0-.625.2794-.625.625v5c0 .3456.27938.625.625.625h5c.3456 0 .625-.2794.625-.625v-5c0-.3456-.2794-.625-.625-.625zm-.625 5h-3.75v-3.75h3.75z"/><path d="m25.625 26.25h5c.3456 0 .625-.2794.625-.625v-5c0-.3456-.2794-.625-.625-.625h-5c-.3456 0-.625.2794-.625.625v5c0 .3456.2794.625.625.625zm.625-5h3.75v3.75h-3.75z"/></g><path d="m22.5 30h-5v8.75h5z" fill="#506c7f"/><path d="m13.75 21.25h-3.75v3.75h3.75z" fill="#45aab8"/><path d="m30 21.25h-3.75v3.75h3.75z" fill="#45aab8"/></g></svg>