<svg fill="none" height="40" viewBox="0 0 40 40" width="40" xmlns="http://www.w3.org/2000/svg" xmlns:xlink="http://www.w3.org/1999/xlink"><clipPath id="a"><path d="m0 0h40v40h-40z"/></clipPath><g clip-path="url(#a)"><path d="m20 1.25c-.3456 0-.625.27938-.625.625v.625h1.25v-.625c0-.34562-.2794-.625-.625-.625z" fill="#506c7f"/><path d="m12.5844 37.8125c-.1731.2994-.0706.6813.2282.8531.2993.1732.6812.0706.8537-.2281l4.15-7.1875h-1.4431z" fill="#506c7f"/><path d="m27.4157 37.8125-3.7887-6.5625h-1.4432l4.15 7.1875c.1725.2994.555.4019.8538.2288.2987-.1732.4019-.5544.2281-.8538z" fill="#506c7f"/><path d="m38.75 28.75c0 .69-.56 1.25-1.25 1.25h-35c-.69 0-1.25-.56-1.25-1.25v-23.75c0-.69.56-1.25 1.25-1.25h35c.69 0 1.25.56 1.25 1.25z" fill="#f9ebb2"/><g fill="#394240"><path d="m37.5 2.5h-15.625v-.625c0-1.035625-.8394-1.875-1.875-1.875s-1.875.839375-1.875 1.875v.625h-15.625c-1.38187 0-2.5 1.11813-2.5 2.5v23.75c0 1.3819 1.11813 2.5 2.5 2.5h12.43l-3.4281 5.9375c-.5182.8969-.2113 2.0437.6862 2.5612s2.0438.2107 2.5613-.6862l4.5093-7.8125h1.4813l4.5106 7.8125c.5182.8975 1.6644 1.2044 2.5619.6862.8975-.5175 1.2037-1.6637.6862-2.5612l-3.4287-5.9375h12.43c1.3819 0 2.5-1.1181 2.5-2.5v-23.75c0-1.38187-1.1181-2.5-2.5-2.5zm-18.125-.625c0-.34562.2794-.625.625-.625s.625.27938.625.625v.625h-1.25zm-5.7088 36.5625c-.1725.2994-.555.4019-.8537.2281-.2994-.1718-.4019-.5544-.2281-.8531l3.7887-6.5625h1.4432zm13.7494-.625c.1732.2994.0706.6813-.2281.8538s-.6813.0699-.8538-.2288l-4.15-7.1875h1.4432zm11.3344-9.0625c0 .69-.56 1.25-1.25 1.25h-35c-.69 0-1.25-.56-1.25-1.25v-23.75c0-.69.56-1.25 1.25-1.25h35c.69 0 1.25.56 1.25 1.25z"/><path d="m21.875 11.25h-3.75c-.3456 0-.625.2794-.625.625v15.625h5v-15.625c0-.3456-.2794-.625-.625-.625zm-.625 15h-2.5v-5h2.5zm0-6.25h-2.5v-7.5h2.5z"/><path d="m29.375 6.25h-3.75c-.3456 0-.625.27938-.625.625v20.625h5v-20.625c0-.34562-.2794-.625-.625-.625zm-.625 20h-2.5v-6.25h2.5zm0-7.5h-2.5v-11.25h2.5z"/><path d="m14.375 16.25h-3.75c-.3456 0-.625.2794-.625.625v10.625h5v-10.625c0-.3456-.2794-.625-.625-.625zm-.625 10h-2.5v-3.75h2.5zm0-5h-2.5v-3.75h2.5z"/></g><path d="m13.75 17.5h-2.5v3.75h2.5z" fill="#f76d57"/><path d="m28.75 20h-2.5v6.25h2.5z" fill="#45aab8"/><path d="m21.25 12.5h-2.5v7.5h2.5z" fill="#b4ccb9"/><path d="m28.75 7.5h-2.5v11.25h2.5z" fill="#45aab8"/><path d="m13.75 22.5h-2.5v3.75h2.5z" fill="#f76d57"/><path d="m21.25 21.25h-2.5v5h2.5z" fill="#b4ccb9"/><g fill="#231f20" opacity=".2"><path d="m28.75 20h-2.5v6.25h2.5z"/><path d="m13.75 22.5h-2.5v3.75h2.5z"/><path d="m21.25 21.25h-2.5v5h2.5z"/></g></g></svg>