<svg height="800" viewBox="0 0 1024 1024" width="800" xmlns="http://www.w3.org/2000/svg"><path d="m854.7 828.1h-684.8c-38.9 0-70.5-31.6-70.5-70.5v-499c0-38.9 31.6-70.5 70.5-70.5h684.7c38.9 0 70.5 31.6 70.5 70.5v499c.1 38.9-31.5 70.5-70.4 70.5z" fill="#fff"/><path d="m885.2 258.1c0-16.5-13.5-30-30-30h-685.8c-16.5 0-30 13.5-30 30v120.1h745.7v-120.1zm-649.7 96.1c-28.2 0-51.2-23-51.2-51.2s23-51.2 51.2-51.2 51.2 23 51.2 51.2-22.9 51.2-51.2 51.2zm281.8-6.8h-142.6c-24.1 0-43.7-19.6-43.7-43.7s19.6-43.7 43.7-43.7h142.6c24.1 0 43.7 19.6 43.7 43.7s-19.6 43.7-43.7 43.7z" fill="#e6e6e6"/><path d="m213.3 752.8h298.8c5.5 0 10-4.5 10-10s-4.5-10-10-10h-298.8c-8.5 0-15.4-6.9-15.4-15.4v-192.8c0-5.5-4.5-10-10-10s-10 4.5-10 10v192.9c.1 19.4 15.9 35.3 35.4 35.3z" fill="#06f3ff"/><path d="m235.5 271.8c-17.2 0-31.2 14-31.2 31.2s14 31.2 31.2 31.2 31.2-14 31.2-31.2-14-31.2-31.2-31.2z" fill="#fff"/><path d="m235.5 251.8c-28.2 0-51.2 23-51.2 51.2s23 51.2 51.2 51.2 51.2-23 51.2-51.2-22.9-51.2-51.2-51.2zm0 82.4c-17.2 0-31.2-14-31.2-31.2s14-31.2 31.2-31.2 31.2 14 31.2 31.2-14 31.2-31.2 31.2z" fill="#005bff"/><path d="m517.3 280.1h-142.6c-13 0-23.7 10.6-23.7 23.7s10.6 23.7 23.7 23.7h142.6c13 0 23.7-10.6 23.7-23.7s-10.7-23.7-23.7-23.7z" fill="#fff"/><g fill="#005bff"><path d="m517.3 260.1h-142.6c-24.1 0-43.7 19.6-43.7 43.7s19.6 43.7 43.7 43.7h142.6c24.1 0 43.7-19.6 43.7-43.7s-19.6-43.7-43.7-43.7zm0 67.3h-142.6c-13 0-23.7-10.6-23.7-23.7s10.6-23.7 23.7-23.7h142.6c13 0 23.7 10.6 23.7 23.7s-10.7 23.7-23.7 23.7z"/><path d="m855.2 188.1h-685.8c-38.6 0-70 31.4-70 70v500c0 38.6 31.4 70 70 70h685.7c38.6 0 70-31.4 70-70v-500c.1-38.6-31.3-70-69.9-70zm30 570c0 16.5-13.5 30-30 30h-685.8c-16.5 0-30-13.5-30-30v-359.9h745.7v359.9zm0-379.9h-745.7v-120.1c0-16.5 13.5-30 30-30h685.7c16.5 0 30 13.5 30 30z"/><path d="m459.9 624.6-114.3-45.3 114.3-43.7v-46.5l-163.8 70.9v39.5l163.8 71.2zm108.8-169.8h-34.4l-59.2 247.2h33.8zm179.2 105.5-164-70.9v45.8l114.4 44.5-114.4 45v46.2l164-71.4z"/></g></svg>