<svg height="800" viewBox="0 0 1024 1024" width="800" xmlns="http://www.w3.org/2000/svg"><path d="m509.8 139.7 190.5 109.6.2 196.5 173.2 99.7.2 219.8-190.2 110.1-172.4-99.2-171.5 99.2-190.5-109.6-.2-219.9 170.7-98.8-.3-197.3z" fill="#fff"/><path d="m520 527.5v-162.5l-10 5.8-10-5.8v162.2l10.3 5.9zm-180.5 139.4-10-5.7v162.1l10.3 5.9 9.7-5.6v-162.4zm353.9 156.7v-162.4l-2 1.1c-1.6.9-3.3 1.3-5 1.3-3.5 0-6.8-1.8-8.7-5-2.5-4.3-1.4-9.6 2.2-12.7-3.8 1.4-6.6 5.1-6.6 9.4v167.9l10.3 5.9z" fill="#06f3ff"/><g fill="#005bff"><path d="m825.1 563.7 8.4 4.8c-1.9-3.1-5.1-4.8-8.4-4.8zm8.6 5.2v9.5c1.6-2.9 1.7-6.5 0-9.5zm-177 59.6-8.7-5c-4.8-2.8-10.9-1.1-13.7 3.7s-1.1 10.9 3.7 13.7l8.7 5c1.6.9 3.3 1.3 5 1.3 3.5 0 6.8-1.8 8.7-5 2.7-4.8 1.1-10.9-3.7-13.7zm-43.4-24.9-8.7-5c-4.8-2.8-10.9-1.1-13.7 3.7s-1.1 10.9 3.7 13.7l8.7 5c1.6.9 3.3 1.3 5 1.3 3.5 0 6.8-1.8 8.7-5 2.8-4.8 1.1-10.9-3.7-13.7z"/><path d="m833.6 568.7c0-.1-.1-.1-.1-.2l-8.4-4.8c-1.8 0-3.5.4-5.2 1.3l-8.7 5c-4.8 2.8-6.4 8.9-3.7 13.7 1.9 3.2 5.2 5 8.7 5 1.7 0 3.4-.4 5-1.3l8.7-5c1.7-1 2.9-2.3 3.8-3.9v-9.5c0-.2-.1-.3-.1-.3zm-143.6 71.3-8.7 5c-.5.3-1 .6-1.4 1-3.7 3.1-4.7 8.4-2.2 12.7 1.9 3.2 5.2 5 8.7 5 1.7 0 3.4-.4 5-1.3l2-1.1 6.7-3.9c4.8-2.8 6.4-8.9 3.7-13.7-2.9-4.8-9-6.5-13.8-3.7zm-120-61.3-8.7-5c-4.8-2.8-10.9-1.1-13.7 3.7s-1.1 10.9 3.7 13.7l8.7 5c1.6.9 3.3 1.3 5 1.3 3.5 0 6.8-1.8 8.7-5 2.7-4.8 1-11-3.7-13.7zm206.6 11.3-8.7 5c-4.8 2.8-6.4 8.9-3.7 13.7 1.9 3.2 5.2 5 8.7 5 1.7 0 3.4-.4 5-1.3l8.7-5c4.8-2.8 6.4-8.9 3.7-13.7-2.8-4.8-8.9-6.5-13.7-3.7zm-43.3 25-8.7 5c-4.8 2.8-6.4 8.9-3.7 13.7 1.9 3.2 5.2 5 8.7 5 1.7 0 3.4-.4 5-1.3l8.7-5c4.8-2.8 6.4-8.9 3.7-13.7-2.8-4.8-8.9-6.5-13.7-3.7z"/><path d="m873.7 545.5-173.2-99.7-.2-196.5-190.5-109.6-190.3 110.1.2 197.3-170.7 98.9.3 219.8 190.5 109.7 171.4-99.3 172.4 99.3 190.2-110.1zm-363.9-359.6 140.4 80.8-140.3 81-140.4-80.7zm-170.5 296.1 140.4 80.8-140.3 81-140.4-80.7zm10.2 341.6-9.7 5.6-10.3-5.9-140.2-80.7-.2-162.1 140.4 80.7 10 5.8 10-5.8 140.4-81 .2 162.1zm160.8-290.5-10.3-5.9-140.2-80.7-.2-162.1 140.4 80.6 10 5.8 10-5.8 140.4-81 .2 162.1-140.6 81.4zm323.6 209.1-140.6 81.4-9.7 5.6-10.3-5.9-140.2-80.7-.1-173.6 150.3-87 141.9 81.7c3.3.1 6.6 1.8 8.4 4.8l.2.1v.3c1.7 3.1 1.6 6.7 0 9.5z"/></g></svg>