<svg fill="none" height="2500" viewBox="0 0 2500 2500" width="2500" xmlns="http://www.w3.org/2000/svg" xmlns:xlink="http://www.w3.org/1999/xlink"><linearGradient id="a"><stop offset="0" stop-color="#5d6c94"/><stop offset="1" stop-color="#8f89c2"/></linearGradient><linearGradient id="b" gradientUnits="userSpaceOnUse" x1="1176.36" x2="1176.36" xlink:href="#a" y1="1664.33" y2="1784.19"/><linearGradient id="c" gradientUnits="userSpaceOnUse" x1="1176.33" x2="1176.33" xlink:href="#a" y1="1718.01" y2="1837.87"/><linearGradient id="d" gradientUnits="userSpaceOnUse" x1="1176.4" x2="1176.4" xlink:href="#a" y1="1771.69" y2="1891.55"/><linearGradient id="e" gradientUnits="userSpaceOnUse" x1="797.921" x2="902.973" y1="1238.82" y2="1041.22"><stop offset="0" stop-color="#f68c3d"/><stop offset="1" stop-color="#f05140"/></linearGradient><linearGradient id="f" gradientUnits="userSpaceOnUse" x1="829.592" x2="875.87" y1="1175.86" y2="1088.81"><stop offset="0" stop-color="#fff"/><stop offset="1" stop-color="#fff"/></linearGradient><path d="m1846.06 709.196c-137.22-164.365-376.25-273.196-648.2-273.196-409.675 0-744.648 246.973-769.311 558.743-165.106 109.247-269.766 271.467-269.766 452.607 0 328.96 345.109 595.63 770.827 595.63 217.9 0 414.65-69.88 554.85-182.2 33.71 3.48 68.09 5.31 103.03 5.31 425.72 0 770.83-266.68 770.83-595.64 0-258.87-213.74-479.128-512.26-561.254z" fill="#e0cfe0"/><path d="m2136.34 886.534c-.08-.008-.17-.032-.27-.039-.44-.053-.91-.088-1.37-.088h-12.23-6.42c0 .009.02.016.02.034 0 7.091-4.53 12.933-10.38 13.725v53.366c0 18.004-6.83 33.289-16.39 39.097-1.18 3.043-2.6 5.706-4.16 7.901h19.85c5.93 0 11.24-4.82 14.69-12.341 9.54-4.927 16.39-17.886 16.39-33.159v-45.249c5.83-.675 10.37-5.623 10.37-11.648-.01-5.906-4.38-10.794-10.1-11.599z" fill="#60938f"/><path d="m2105.69 953.532v-53.366c5.85-.791 10.38-6.633 10.38-13.725 0-.017-.02-.025-.02-.033h-67.81-12.24c-.45 0-.92.033-1.36.087-.83.094-1.66.291-2.42.554-4.62 1.575-7.94 5.945-7.94 11.084 0 6.025 4.53 10.973 10.36 11.648v45.249c0 15.274 6.85 28.232 16.39 33.159 3.46 7.52 8.75 12.341 14.69 12.341h19.42c1.56-2.195 2.98-4.858 4.16-7.901 9.56-5.808 16.39-21.094 16.39-39.097z" fill="#74afab"/><path d="m2199.43 701.959c-9.41-17.089-25.09-32.065-44.85-42.894-9.89-5.415-20.78-9.527-32.42-12.291-11.61-2.763-24-4.172-36.81-4.031-12.82.14-25.18 1.807-36.81 4.793-11.62 2.974-22.53 7.25-32.4 12.729-19.76 10.936-35.46 25.871-44.86 42.926-6.26 11.366-9.73 23.83-9.73 36.768 0 9.717 1.95 19.211 5.58 28.6 3.61 9.377 8.89 18.982 15.56 28.579 4.45 6.397 9.52 13.198 15.12 20.905 2.81 4.626 5.74 9.749 8.8 15.3 3.06 5.56 6.24 11.668 9.53 18.346 3.3 7.194 6.71 14.635 10.21 22.624 1.91 4.261 3.87 8.536 5.87 12.736.77-.262 1.59-.46 2.43-.554.44-.053.91-.087 1.35-.087h12.24 74.23 12.23c.46 0 .93.033 1.37.087.1.008.19.031.27.04 2.74-5.841 5.41-11.674 8.01-17.164 3.52-7.211 6.93-13.954 10.23-20.306 3.28-6.347 6.47-12.258 9.53-17.775 3.06-5.525 5.99-10.658 8.77-15.343 5.62-8.232 10.68-15.274 15.12-21.846 4.45-6.269 8.29-12.516 11.43-18.46 6.26-11.892 9.72-24.101 9.72-36.954-.01-12.846-3.46-25.334-9.72-36.728z" fill="#ffca43"/><g fill="#e78529"><path d="m2104.94 760.392h-4.14v59.367h4.14z"/><path d="m2067.77 760.392h-4.15v59.367h4.15z"/><path d="m2091.46 792.561h-4.15v23.59h4.15z"/><path d="m2081.23 792.561h-4.15v23.59h4.15z"/><path d="m2084.28 847.585c-13.88 0-27.93-3.654-27.93-10.624 0-6.971 14.05-10.625 27.93-10.625 13.86 0 27.91 3.654 27.91 10.625 0 6.97-14.05 10.624-27.91 10.624zm0-17.1c-15.39 0-23.79 4.279-23.79 6.476 0 2.196 8.4 6.483 23.79 6.483s23.78-4.286 23.78-6.483c0-2.198-8.39-6.476-23.78-6.476z"/><path d="m2084.28 836.319c-13.88 0-27.93-3.641-27.93-10.622 0-6.962 14.05-10.615 27.93-10.615 13.86 0 27.91 3.653 27.91 10.615 0 6.981-14.05 10.622-27.91 10.622zm0-17.096c-15.39 0-23.79 4.287-23.79 6.474 0 2.206 8.4 6.485 23.79 6.485s23.78-4.279 23.78-6.485c0-2.187-8.39-6.474-23.78-6.474z"/><path d="m2084.56 796.795c-6.7 0-13.49-1.802-13.49-5.821 0-4.032 6.79-5.834 13.49-5.834 6.72 0 13.49 1.802 13.49 5.834.01 4.019-6.77 5.821-13.49 5.821zm-9.03-5.821c1.13.704 4.26 1.683 9.03 1.683s7.92-.979 9.05-1.683c-1.13-.72-4.28-1.697-9.05-1.697-4.77.001-7.9.977-9.03 1.697z"/><path d="m2099.4 756.494c-1.56 0-2.9-1.055-3.77-1.873-.56-.514-1.08-1.197-1.6-1.906-.92-1.188-2.16-2.826-2.98-2.576-.52.144-1.22 1.147-1.8 1.943-.7.992-1.43 2.01-2.47 2.726-1.84 1.266-3.49 1.766-5.01 1.462-2.11-.394-3.29-2.079-4.21-3.437-1.27-1.889-1.53-1.907-2.22-1.712-.41.122-1.02.822-1.55 1.445-1.27 1.441-3 3.397-6.02 3.397-.04 0-.08 0-.13 0-2.7-.033-5.12-2.727-5.79-3.55-.79-.955-2.57-3.435-2.12-5.799l4.06.752c-.03.311.36 1.406 1.44 2.645 1.11 1.266 2.18 1.803 2.49 1.811 1.12-.008 1.82-.709 2.95-1.99.91-1.045 1.95-2.226 3.51-2.677 3.76-1.122 5.68 1.675 6.81 3.344.49.724 1.11 1.626 1.54 1.708.28.043.92-.136 1.91-.811.43-.299.94-1.018 1.44-1.719.99-1.395 2.13-2.978 4.04-3.525 3.55-1.028 5.97 2.164 7.4 4.073.39.53.82 1.092 1.12 1.358.4.388.68.575.85.675.21-.22.51-.604.76-.915.54-.726 1.24-1.64 2.22-2.486 2.24-1.942 6.69-2.74 9.95-.618l-2.24 3.482c-1.52-.981-3.93-.666-5.01.266-.65.565-1.16 1.233-1.64 1.873-.89 1.154-1.88 2.472-3.62 2.616-.11.01-.21.018-.31.018z"/><path d="m2104.94 843.546h-4.14v42.861h4.14z"/><path d="m2067.77 843.546h-4.15v42.861h4.15z"/></g><path d="m1412.33 1688.98h-500.883v28.77h500.883z" fill="#758698"/><path d="m1730.27 1539.58c0 30.68-24.9 55.56-55.57 55.56h-1051.16c-30.683 0-55.573-24.88-55.573-55.56v-699.241c0-30.689 24.89-55.57 55.573-55.57h1051.16c30.67 0 55.57 24.881 55.57 55.57z" fill="#a2acbe"/><path d="m593.389 1427.69v96.6c0 29.35 23.781 53.14 53.121 53.14h1005.18c29.38 0 53.16-23.79 53.16-53.14v-96.6z" fill="#6e8ca4"/><path d="m1704.85 855.628c0-29.352-23.78-53.142-53.16-53.142h-1005.18c-29.34 0-53.121 23.79-53.121 53.142v572.062h1111.461z" fill="#a2b8db"/><path d="m674.38 1462.01h-21.003v81.93h21.003z" fill="#fff"/><path d="m706.522 1462.01h-21.044v81.93h21.044z" fill="#fff"/><path d="m807.274 1462.01h-10.495v81.93h10.495z" fill="#fff"/><path d="m753.104 1463.6v77.92l48.918-38.96z" fill="#fff"/><path d="m1704.85 1408.89h-1111.461v18.8h1111.461z" fill="#fff"/><path d="m1193.62 1408.89h-600.231v18.8h600.231z" fill="#f26a54"/><path d="m1213.54 1418.29c0 13.14-10.66 23.8-23.81 23.8-13.14 0-23.8-10.66-23.8-23.8 0-13.15 10.66-23.79 23.8-23.79 13.15 0 23.81 10.64 23.81 23.79z" fill="#f26a54"/><path d="m1258.55 1595.14h-193.35v89.34l193.35-73.55z" fill="#627080"/><path d="m1065.2 1684.48v4.49h193.35v-78.04z" fill="#758698"/><path d="m1651.69 1579.44h-1005.18c-30.402 0-55.135-24.74-55.135-55.15v-668.662c0-30.416 24.733-55.159 55.135-55.159h1005.18c30.42 0 55.17 24.743 55.17 55.159v668.662c0 30.41-24.75 55.15-55.17 55.15zm-1005.18-774.94c-28.178 0-51.105 22.936-51.105 51.128v668.662c0 28.19 22.927 51.12 51.105 51.12h1005.18c28.2 0 51.14-22.93 51.14-51.12v-668.662c0-28.192-22.94-51.128-51.14-51.128z" fill="#316782"/><path d="m1662.07 1532h-228.39v-72h228.39zm-224.36-4.03h220.33v-63.94h-220.33z" fill="#fff"/><path d="m1044.16 1210.54c0 29.33-23.8 53.15-53.143 53.15h-252.424c-29.336 0-53.115-23.82-53.115-53.15v-223.054c0-29.339 23.779-53.133 53.115-53.133h252.424c29.343 0 53.143 23.794 53.143 53.133z" fill="#fff"/><path d="m1761.86 1718.01h-1170.997v53.68h1170.997z" fill="url(#b)"/><path d="m1803.24 1771.69h-1253.811v53.68h1253.811z" fill="url(#c)"/><path d="m1848.03 1825.37h-1343.269v53.69h1343.269z" fill="url(#d)"/><path d="m2400 1879.06h-2172.28v26.84h2172.28z" fill="#49555d"/><path d="m689.229 887.845c0 83.675-67.832 151.495-151.495 151.495-83.667 0-151.502-67.82-151.502-151.495 0-83.668 67.835-151.493 151.502-151.493 83.663 0 151.495 67.825 151.495 151.493z" fill="#febe10"/><path d="m537.734 1031.7c-79.306 0-143.856-64.54-143.856-143.855 0-79.318 64.55-143.844 143.856-143.844 79.325 0 143.854 64.526 143.854 143.844 0 79.315-64.529 143.855-143.854 143.855zm0-278.519c-74.263 0-134.657 60.417-134.657 134.664 0 74.257 60.394 134.675 134.657 134.675 74.254 0 134.678-60.418 134.678-134.675 0-74.246-60.424-134.664-134.678-134.664z" fill="#fff"/><path d="m600.908 911.977c0 12.889-5.413 23.95-16.242 33.188-10.845 9.225-25.214 14.454-43.133 15.669v41.546h-19.911v-40.859c-8.551-.077-18.427-1.104-29.643-3.083-11.212-1.986-19.974-4.466-26.312-7.444v-33.411h5.149c7.004 3.822 15.081 6.876 24.19 9.151 9.134 2.296 18.172 3.781 27.175 4.47v-31.353l-11.085-2.525c-7.018-1.6-13.487-3.456-19.395-5.606-5.91-2.126-11.02-4.948-15.271-8.462-4.283-3.501-7.606-7.839-9.968-12.985-2.362-5.144-3.546-11.501-3.546-19.052 0-11.363 5.18-21.096 15.576-29.184 10.354-8.071 24.747-12.961 43.13-14.648v-26.656h19.91v26.432c7.022.313 15.231 1.298 24.64 2.975 9.427 1.676 16.84 3.629 22.273 5.844v32.946h-5.043c-5.416-3.124-11.715-5.72-18.863-7.773-7.174-2.062-14.862-3.364-23.007-3.899v29.063l9.149 1.837c17.235 3.352 29.926 8.44 38.043 15.272 8.121 6.829 12.184 16.344 12.184 28.547zm-77.463-48.17v-26.548c-5.02.385-9.559 1.662-13.555 3.835-4.015 2.166-6.01 5.252-6.01 9.214 0 3.587 1.286 6.369 3.884 8.353 2.604 1.978 7.819 3.696 15.681 5.146zm35.944 52.639c0-4.425-2.066-7.733-6.125-9.904-4.111-2.167-8.149-3.565-12.184-4.178v28.387c5.027-.684 9.326-2.161 12.907-4.413 3.592-2.243 5.402-5.554 5.402-9.892z" fill="#fff"/><path d="m2110.45 1191.86c-4.99-77.21-71.62-135.75-148.82-130.76-12.44.81-24.4 3.23-35.69 7.03-26.54-41.81-74.47-68.244-127.39-64.82-71.37 4.61-126.76 61.93-130.76 131.57-53.57 28.77-87.04 73.32-83.95 121.14 1.01 15.52 5.79 30.2 13.72 43.69h472.34c27.35-27.49 43.26-66.11 40.55-107.85z" fill="#9c83b8"/><path d="m348.91 1981.43c55.733 0 100.913-8.13 100.913-18.17s-45.18-18.18-100.913-18.18-100.914 8.14-100.914 18.18 45.181 18.17 100.914 18.17z" fill="#e0cfe0"/><path d="m283.024 1508.63c.382-10.53-3.203-18.56-7.896-26.32-4.713-7.76-11.097-15.58-15.77-25.72-14.261-18.16-10.006-32.02-14.832-51.93 2.126-18.94-6.701-30.04-14.522-39.25-7.192-9.9-14.212-18.72-3.374-32.64 8.479-10.9 20.553-21.1 23.087-33.45 4.831-19.45-4.567-32.18 3.04-48.49 7.896-9.43 18.552-18.15 28.448-26.65 7.865-7.97 15.809-16.02 22.373-23.36 5.051-6.12 9.939-11.78 13.529-16.13 3.85-4.12 6.535-7.18 6.794-8.47 1.704-.48 4.63-1.49 8.066-2.4 3.552-.59 7.807-.64 11.803.65 4.401 2.85 9.522 9.34 14.62 21.79 4.516 18.82 7.114 37.91 5.886 51.36-.823 10.99-12.345 14.39-15.4 21.51-3.287 7.74-4.46 17.55-8.13 23.4-8.149 12.47-18.411 19.46-5.995 30.29 13.667 10.89 42.073 20.05 48.458 34.36 9.176 19.03-3.858 35.75-20.092 57.39-3.157 13.02-4.57 26.36-6.26 39.52-3.695 12.67-9.699 24.32-17.466 35.22-9.23 10.89-18.628 24.1-27.914 39.4-4.538 7.64-8.746 16-12.871 24.46-4.134 8.46-8.2 17.07-12.455 25.21-4.241 9.36-9.853 16.48-15.149 23.83-5.29 7.35-10.267 14.95-13.337 25.58z" fill="#005a76"/><path d="m300.849 1751.55c-2.457-2.57-5.036-5.35-7.642-8.35-2.633-3.09-5.318-6.45-7.931-10.02-2.595-3.97-5.051-8.09-7.125-12.38-2.059-4.31-3.752-8.78-4.764-13.35-2.014-9.11-.566-19.05 5.964-29.97 4.398-6.33 10.015-13.97 15.849-23.24 5.957-9.42 10.908-20.2 13.333-32.47-1.319-6.65-3.197-13.33-5.211-19.82-2.039-6.5-4.221-12.75-6.119-18.76-3.309-11.72-4.581-23.4-2.846-34.49 1.76-11.42 5.051-21.66 9.044-30.85 3.963-9.19 8.617-17.32 13.093-24.5 9.57-12.01 16.544-21.62 21.252-29.74 4.776-8.11 7.725-15.24 9.838-22.15 2.26-5.52 4.212-10.81 6.87-16.05 2.35-5.21 6.315-10.2 11.915-15.31 9.913-7.69 19.837-15.82 22.258-26.8 1.221-5.51.177-19.1 2.394-31.46 2.244-12.92 6.574-23.96 18.273-22.94 16.325 1.91 23.045 12.1 24.778 24.67 1.516 12.5-1.508 26.67-4.117 38.54-1.308 5.88-2.984 11.9-4.95 17.78-2.199 6.09-4.437 12.2-6.55 18.48-3.405 7.3-5.638 14.98-6.164 23.19-.532 8.2.79 16.58 3.727 24.78 3.115 6.42 7.196 12.3 11.996 17.35 4.829 5.04 10.085 9.64 14.942 14.34 2.696 5.15 4.361 10.7 4.696 17.18.339 6.47-.731 14.08-3.156 22.75-2.831 9.22-6.999 19.25-12.579 30.1-5.428 10.86-9.887 21.67-11.434 31.25 1.03 7.56 3.385 13.89 6.369 19.5 2.995 5.52 6.759 10.45 10.456 15.12 3.518 5.25 4.919 10.61 4.328 15.78-.59 5.15-3.305 9.92-8.046 14.11-6.909 3.9-15.722 6.89-26.111 9.25-5.216 1.19-10.699 2.35-16.265 3.66-5.582 1.31-11.204 2.9-16.727 4.69-9.966 4.01-19.299 8.88-27.277 14.93-7.975 6.04-14.655 12.64-20.403 18.8-5.118 5.75-9.842 10.66-14.155 14.8-4.311 4.14-8.204 7.48-11.598 10.1z" fill="#007395"/><path d="m292.393 1756.96c-2.366-6.43-4.543-13.23-6.661-20.3-2.126-7.1-4.267-14.34-6.66-21.39-2.418-7.21-5.32-14.23-8.909-21.03-3.519-6.91-7.822-13.6-12.821-19.86-4.209-4.26-9.079-8.27-14.502-11.72-5.442-3.47-11.448-6.24-17.803-8.4-6.651-2.25-13.384-4.65-19.776-7.78-6.388-3.14-12.448-7.01-17.857-11.92-9.66-10.02-16.394-21-20.836-32.3-3.039-10.81-2.727-21.59-.874-32.14 3.349-10.42 7.404-20.8 9.337-31.38 1.65-10.28.087-21.57-4.917-34.14-4.111-9.71-9.184-18.58-15.21-26.87-6.181-8.08-13.369-15.1-20.554-21.56-14.388-12.92-26.001-24.39-31.457-38.28-3.3129-13.85-3.7462-26.24-1.476-38.91 1.04-12.51 4.421-25.96 10.57-42.35 4.511-11.62 6.842-22.32 8.077-32.39.788-10.13.838-19.37 1.055-27.72.256-8.34.623-15.9 1.456-23.18.945-6.91 2.165-13.59 4.879-20.28 7.295 1.7 10.821 10.67 14.477 16.95 3.532 6.2 6.988 13.31 10.756 22.14 3.873 9.23 8.275 20.29 13.971 32.29 6.314 12 13.975 22.7 23.635 29.36 10.042 5.43 21.939 6.74 34.855 6.32 11.171-.71 22.816-2.06 33.839-1.75 11.026.3 21.218 3.15 29.477 9.8 9.643 10.92 10.88 20.53 8.51 32.14-2.377 11.6-8.44 26.09-12.951 47.67-3.326 19.47-3.512 35.45-1.161 47.06 2.397 11.42 6.184 20.36 8.546 29.18 2.186 8.08 4.677 15.25 7.715 22.76 3.056 7.51 6.134 15.85 10.287 25.64 4.216 10.76 4.932 18.75 4.299 26.98-.753 8.47-2.866 17.29-4.547 30.14-2.062 12.03-2.922 23.3-3.354 34.03-.555 10.14-.582 19.56-.555 28.41-.263 8.22-.528 16.26-1.161 24.32-.63 8.06-1.48 16.14-2.862 24.28-.827 5.67-2.264 11.72-3.393 17.91-1.153 6.21-2.019 12.58-1.81 18.6z" fill="#0080a5"/><path d="m1805.7 1217.34c-1.28 0-2.55-.44-3.58-1.34-2.27-1.98-2.5-5.42-.52-7.68 13.63-15.61 29.39-23.86 45.6-23.86 16.2 0 31.97 8.25 45.6 23.86 1.98 2.26 1.75 5.7-.52 7.68-2.26 1.98-5.7 1.75-7.68-.52-11.5-13.17-24.43-20.13-37.4-20.13s-25.9 6.96-37.4 20.13c-1.08 1.23-2.59 1.86-4.1 1.86z" fill="#fff"/><path d="m1907.1 1200.25c-1.47 0-2.93-.59-4-1.75-17.09-18.54-36.42-28.35-55.9-28.35-19.49 0-38.82 9.81-55.9 28.35-2.03 2.21-5.47 2.35-7.68.31-2.22-2.03-2.36-5.48-.32-7.69 19.2-20.84 41.29-31.85 63.9-31.85 22.6 0 44.7 11.01 63.9 31.85 2.04 2.21 1.89 5.66-.32 7.69-1.04.97-2.36 1.44-3.68 1.44z" fill="#fff"/><path d="m1772.92 1184.48c-1.32 0-2.64-.48-3.69-1.45-2.2-2.03-2.34-5.48-.31-7.69 23.55-25.56 50.62-39.07 78.28-39.07h.01c27.65 0 54.71 13.51 78.26 39.07 2.04 2.21 1.9 5.66-.31 7.69-2.21 2.04-5.66 1.9-7.69-.31-21.43-23.27-45.73-35.56-70.26-35.56-24.54 0-48.84 12.29-70.29 35.56-1.07 1.16-2.53 1.76-4 1.76z" fill="#fff"/><path d="m1939 1167.71c-1.46 0-2.93-.59-4-1.76-26.74-29.03-57.1-44.37-87.8-44.37s-61.06 15.34-87.8 44.37c-2.04 2.21-5.48 2.35-7.69.32-2.21-2.04-2.35-5.48-.32-7.69 28.86-31.33 61.99-47.89 95.81-47.89s66.94 16.56 95.81 47.89c2.03 2.21 1.89 5.65-.32 7.69-1.05.96-2.37 1.44-3.69 1.44z" fill="#fff"/><path d="m1869.71 1229.2c0 12.27-9.95 22.21-22.21 22.21-12.27 0-22.22-9.94-22.22-22.21s9.95-22.21 22.22-22.21c12.26 0 22.21 9.94 22.21 22.21z" fill="#fff"/><path d="m982.083 1104.85c0 62.38-50.569 112.95-112.939 112.95-62.371 0-112.944-50.57-112.944-112.95 0-62.37 50.574-112.935 112.944-112.935s112.939 50.565 112.939 112.935z" fill="url(#e)"/><path d="m838.419 1048.5v124.39l96.898-62.2z" fill="#ed1c24" opacity=".4"/><path d="m838.419 1048.5v112.71l87.805-56.35z" fill="url(#f)"/><path d="m1371.43 1106.86 2.24-2.39c6.15-6.59 5.96-16.12-.39-21.32l-43.34-35.36 5.46 11.63z" fill="#f69b95"/><path d="m1362.24 1116.7 9.19-9.84-36.03-47.44z" fill="#eb918f"/><path d="m1292.61 1135.61c-11.76-23.75-17.08-49.61-19.39-70.89l-43.24 12.69c-1.4.41-2.79.74-4.16 1.01 3.98 19.76 14.04 58.87 36.3 95.69 31.48 52.07 45.22 59.34 55.51 54.51 0 0 34.77-7.76 57.53-20.61-19.78-2.84-54.79-16.3-82.55-72.4z" fill="#e5dbcf"/><path d="m1321.42 1050.58-48.2 14.14c2.31 21.28 7.63 47.14 19.39 70.89 27.76 56.1 62.77 69.56 82.55 72.4 15.82-8.93 25.84-20.32 14.28-33.27l-27.2-58.04-26.84-57.27-5.46-11.64-.25-.55c-2.47 1.32-5.26 2.46-8.27 3.34z" fill="#fff"/><path d="m1313.96 1025.21c1.08-.32 2.15-.59 3.22-.82l-16.19-27.091c-57.07 11.651-88.69 7.981-106.15.921l-3.47 2.07c-5.59 3.34-12.31 2.41-14.99-2.086-2.03-3.4-1.18-7.851 1.76-11.266-3.96-4.666-4.61-8.416-4.61-8.416l-5.99-11.254c-4.74 1.424-9.57.121-11.74-3.524-2.32-3.883-.89-9.133 3.14-12.65l-6.55-12.302c-1.51-1.857-2.9-3.744-4.21-5.648-4.99 1.858-10.28.633-12.6-3.237-2.42-4.047-.74-9.591 3.69-13.096-3.91-9.265-6.05-18.319-7.19-26.092l-4.24 4.117c-19.64 11.735-24.1 40.425-9.96 64.094l44.64 74.74c10.52 17.6 28.35 27.46 44.88 26.53 3.46-3.31 8.79-6.31 15.13-8.17z" fill="#cd394f"/><path d="m1648.33 788.124 28.64-45.038c9.99-5.967 9.73-24.788-.58-42.048l-3.29-5.501-14.73-24.658-3.28-5.506c-10.31-17.254-26.76-26.414-36.76-20.442l-53.22 3.871c15.56 20.381 30.91 42.999 45.46 67.363 14.55 24.361 27.19 48.597 37.76 71.959z" fill="#fff"/><path d="m1610.57 716.164c-14.55-24.363-29.9-46.981-45.46-67.363-61.24-80.21-125.79-125.748-158.21-106.381-2.03 1.212-3.89 2.667-5.61 4.334-.04.025-.11.049-.17.079 46.48 4.757 122.92 78.576 185.63 183.56 1.03 1.73 2.05 3.458 3.07 5.187.27.46.53.919.8 1.379.78 1.341 1.56 2.681 2.34 4.02.16.278.32.556.47.835 14.49 25.187 26.99 50.099 37.32 73.953 19.4 44.823 31.16 85.903 34.09 118.035.02.151.03.303.05.453.06.738.12 1.468.18 2.196.02.293.04.587.06.878.05.665.1 1.326.13 1.983.03.348.05.693.07 1.038.03.618.06 1.235.09 1.846.02.377.03.751.04 1.125.02.582.05 1.166.06 1.741.01.4.02.795.02 1.192.02.735.03 1.466.03 2.188v2.062c-.01.423-.02.839-.03 1.259-.01.504-.02 1.009-.04 1.506-.01.416-.03.825-.05 1.237-.02.493-.04.986-.07 1.474-.02.399-.04.794-.07 1.189-.03.497-.07.991-.11 1.481-.03.372-.05.744-.09 1.111-.04.514-.09 1.023-.15 1.529-.03.334-.07.67-.11 1.001-.06.579-.14 1.149-.21 1.718-.03.246-.06.497-.1.742-.11.81-.24 1.611-.37 2.399-.02.124-.05.243-.07.366-.12.663-.24 1.32-.37 1.967-.05.253-.1.5-.16.751-.1.51-.22 1.017-.33 1.516-.07.277-.14.551-.2.825-.12.465-.24.927-.36 1.383-.08.275-.15.548-.23.818-.13.455-.26.902-.4 1.347-.08.253-.16.509-.24.759-.15.473-.31.94-.47 1.402-.08.206-.15.417-.22.62-.24.659-.49 1.309-.75 1.943.04-.048.1-.079.14-.123 2.28-.706 4.45-1.661 6.48-2.87 32.42-19.37 22.93-97.787-18.66-189.733-10.57-23.359-23.21-47.595-37.76-71.957z" fill="#e5555c"/><path d="m1661.34 978.286c.16-.462.32-.927.47-1.402.09-.25.16-.505.24-.759.14-.444.27-.892.4-1.346.08-.271.16-.544.23-.818.12-.456.24-.918.36-1.384.06-.274.13-.547.2-.824.12-.499.23-1.006.33-1.516.06-.251.11-.499.16-.752.13-.647.26-1.303.37-1.967.02-.122.05-.242.07-.365.13-.788.26-1.589.37-2.4.04-.245.07-.495.1-.742.07-.569.15-1.138.22-1.718.03-.33.07-.666.1-1.001.05-.506.11-1.014.15-1.528.04-.368.07-.739.09-1.111.04-.491.08-.985.11-1.482.03-.395.05-.789.07-1.188.03-.488.05-.98.07-1.475.02-.412.04-.821.06-1.236.01-.498.02-1.003.03-1.507.01-.42.02-.835.03-1.259 0-.681 0-1.371 0-2.062 0-.723-.01-1.453-.03-2.188 0-.397-.01-.792-.02-1.192-.01-.575-.04-1.158-.06-1.74-.01-.375-.02-.749-.04-1.126-.03-.611-.06-1.228-.09-1.846-.02-.345-.04-.691-.07-1.038-.04-.657-.08-1.318-.13-1.983-.02-.291-.04-.584-.06-.877-.06-.728-.12-1.459-.18-2.197-.02-.15-.03-.302-.05-.452-2.94-32.129-14.7-73.204-34.1-118.019-5.99-13.822-12.69-27.998-20.1-42.379 2.24 6.866 4.25 13.911 5.42 21.448 4.41 28.436 6.44 57.519-5.6 84.296-13.04 28.985-36.69 48.598-65.51 61.006-34.87 15.007-90.15 8.068-179.06 34.355-14.87 4.396-31.23 6.401-45.97 11.898l19.87 33.25c125.74-69.3 267.17 6.28 320.58-38.809.26-.634.51-1.283.75-1.943.07-.206.14-.415.22-.622z" fill="#e5dbcf"/><path d="m1319.92 986.408c14.75-5.497 31.1-7.502 45.97-11.898 88.91-26.287 144.19-19.348 179.06-34.354 28.82-12.407 52.47-32.022 65.51-61.007 12.04-26.776 10.01-55.86 5.6-84.295-1.17-7.539-3.18-14.583-5.42-21.448 7.4 14.38 14.11 28.556 20.1 42.378l.01-.016c-10.33-23.855-22.83-48.766-37.32-73.954-.15-.278-.31-.556-.47-.834-.78-1.339-1.56-2.679-2.34-4.02-.27-.459-.53-.919-.8-1.38-1.02-1.728-2.04-3.457-3.07-5.186-62.71-104.986-139.15-178.804-185.62-183.561-65.04 25.657-64.87 187.236-185.63 265.093.4.465.77.961 1.1 1.504z" fill="#fff"/><path d="m1216.6 813.431c-.33-.544-.7-1.04-1.1-1.505-3.38-3.933-9.22-4.983-13.84-2.223-5.17 3.093-6.88 9.774-3.8 14.924l.87 1.461-66.65 64.632c1.14 7.773 3.28 16.827 7.19 26.092.5-.391 1.02-.765 1.58-1.101l61.37-36.653c5.59-3.342 12.31-2.407 15 2.092 2.68 4.496.32 10.855-5.27 14.199l-61.37 36.651c-.78.468-1.58.843-2.39 1.145 1.3 1.903 2.69 3.79 4.2 5.648l6.55 12.302c.64-.565 1.35-1.089 2.12-1.552l61.37-36.654c5.59-3.342 12.31-2.408 15 2.096 2.68 4.495.32 10.854-5.27 14.193l-61.36 36.654c-1.06.629-2.15 1.106-3.25 1.436l5.99 11.255s.64 3.749 4.61 8.415c.95-1.11 2.13-2.112 3.5-2.932l61.36-36.655c5.6-3.342 12.31-2.411 15 2.092 2.68 4.494.33 10.853-5.27 14.195l-57.89 34.582c17.46 7.06 49.08 10.73 106.15-.921l16.18 27.091c-1.06.23-2.13.5-3.21.82l-91.43 26.82c-6.34 1.86-11.68 4.86-15.14 8.17-3.28 3.16-4.87 6.59-3.99 9.61l.87 2.96c1.61 5.49 10.84 7.74 21.54 5.65 1.37-.27 2.76-.6 4.17-1.01l43.23-12.69 48.2-14.14c3.02-.88 5.8-2.02 8.27-3.34 6.26-3.32 10.46-7.74 11.03-11.79 2.88-3.46 3.44-8.47 1.01-12.53l-1.94-3.26-19.86-33.253z" fill="#e5555c"/><path d="m1135.58 929.906c2.32 3.87 7.61 5.096 12.61 3.237.81-.302 1.61-.677 2.39-1.145l61.37-36.651c5.59-3.344 7.95-9.704 5.27-14.199-2.69-4.499-9.41-5.434-15-2.092l-61.37 36.653c-.56.336-1.08.71-1.58 1.101-4.43 3.506-6.11 9.049-3.69 13.096z" fill="#c61348"/><path d="m1155.8 963.745c2.17 3.644 7.01 4.947 11.74 3.523 1.1-.331 2.2-.807 3.25-1.436l61.37-36.654c5.59-3.34 7.95-9.7 5.27-14.193-2.69-4.505-9.41-5.439-15.01-2.096l-61.36 36.654c-.77.462-1.48.987-2.12 1.552-4.02 3.516-5.46 8.766-3.14 12.65z" fill="#c61348"/><path d="m1176.38 998.203c2.68 4.497 9.4 5.427 14.99 2.087l3.47-2.07 57.9-34.582c5.6-3.342 7.95-9.702 5.27-14.195-2.69-4.504-9.4-5.435-15-2.093l-61.36 36.656c-1.37.82-2.55 1.822-3.51 2.932-2.94 3.415-3.79 7.866-1.76 11.265z" fill="#c61348"/><path d="m1639.09 598.154c1.01.272 2.03.342 3.01.236 3.28-.352 6.15-2.665 7.06-6.033l23.84-88.81c1.18-4.378-1.42-8.883-5.8-10.058-4.37-1.178-8.88 1.42-10.05 5.797l-23.85 88.807c-1.18 4.383 1.42 8.886 5.79 10.061z" fill="#ed1c24"/><path d="m1776.53 538.072c-3.46-2.932-8.64-2.499-11.57.959l-59.43 70.172c-2.92 3.46-2.5 8.638.97 11.57 1.78 1.512 4.03 2.13 6.18 1.898 2.02-.216 3.96-1.182 5.38-2.858l59.43-70.17c2.93-3.46 2.5-8.641-.96-11.571z" fill="#ed1c24"/><path d="m1837.42 655.294c-.9-4.449-5.22-7.319-9.67-6.424l-90.14 18.202c-4.44.898-7.31 5.226-6.42 9.673.85 4.192 4.75 6.987 8.92 6.538.25-.027.5-.065.75-.116l90.14-18.201c4.45-.9 7.32-5.229 6.42-9.672z" fill="#ed1c24"/><path d="m1826.08 784.592-84.85-35.447c-4.18-1.754-9 .224-10.74 4.407-1.75 4.184.23 8.993 4.41 10.745l84.85 35.446c1.32.551 2.7.734 4.03.588 2.89-.31 5.51-2.137 6.71-4.998 1.75-4.184-.23-8.992-4.41-10.741z" fill="#ed1c24"/><path d="m1141.96 557.051h-288.266c-55.616 0-100.702 45.085-100.702 100.704 0 55.616 45.087 100.701 100.702 100.701h25.858v96.629l73.669-96.629h188.739c55.62 0 100.7-45.086 100.7-100.701 0-55.619-45.08-100.704-100.7-100.704z" fill="#6278a1"/><path d="m930.955 654.746c0 12.243-9.927 22.169-22.174 22.169-12.238 0-22.162-9.925-22.162-22.169 0-12.243 9.923-22.165 22.162-22.165 12.247.001 22.174 9.923 22.174 22.165z" fill="#fff"/><path d="m1019.98 654.746c0 12.243-9.91 22.169-22.158 22.169-12.235 0-22.163-9.925-22.163-22.169 0-12.243 9.927-22.165 22.163-22.165 12.248.001 22.158 9.923 22.158 22.165z" fill="#fff"/><path d="m1109.04 654.746c0 12.243-9.93 22.169-22.17 22.169s-22.17-9.925-22.17-22.169c0-12.243 9.93-22.165 22.17-22.165 12.24.001 22.17 9.923 22.17 22.165z" fill="#fff"/><path d="m2129.68 1497.49c0 69.9-56.66 126.55-126.57 126.55-69.89 0-126.53-56.65-126.53-126.55 0-69.89 56.64-126.54 126.53-126.54 69.91 0 126.57 56.65 126.57 126.54z" fill="#fff"/><path d="m2003.11 1635.55c-76.11 0-138.05-61.94-138.05-138.06s61.94-138.05 138.05-138.05c76.13 0 138.05 61.93 138.05 138.05s-61.92 138.06-138.05 138.06zm0-253.1c-63.43 0-115.03 51.6-115.03 115.04s51.6 115.05 115.03 115.05c63.44 0 115.05-51.61 115.05-115.05s-51.61-115.04-115.05-115.04z" fill="#ed1c24"/><path d="m2003.11 1590.42c-51.23 0-92.91-41.69-92.91-92.93s41.68-92.91 92.91-92.91c51.24 0 92.94 41.67 92.94 92.91s-41.7 92.93-92.94 92.93zm0-162.84c-38.55 0-69.91 31.36-69.91 69.91s31.36 69.92 69.91 69.92 69.92-31.37 69.92-69.92-31.37-69.91-69.92-69.91z" fill="#ed1c24"/><path d="m2003.11 1539.25c-23.02 0-41.75-18.73-41.75-41.76 0-23.02 18.73-41.75 41.75-41.75 23.04 0 41.77 18.73 41.77 41.75 0 23.03-18.73 41.76-41.77 41.76zm0-60.5c-10.33 0-18.73 8.41-18.73 18.74 0 10.34 8.4 18.75 18.73 18.75s18.75-8.41 18.75-18.75c0-10.33-8.42-18.74-18.75-18.74z" fill="#ed1c24"/><path d="m2207.6 1373.87-64.53 39.77-.29-52.37 64.53-39.78z" fill="#f3a752"/><path d="m2207.6 1373.87-64.53 39.77 46.66 23.79 64.52-39.77z" fill="#f3a752"/><path d="m2007.02 1504.56c-2.37 0-4.68-1.2-6.02-3.36-2.04-3.32-1.01-7.66 2.31-9.71l215.55-132.85c3.32-2.05 7.66-1.01 9.7 2.3 2.05 3.32 1.02 7.66-2.3 9.71l-215.55 132.85c-1.15.71-2.43 1.06-3.69 1.06z" fill="#231f20"/><path d="m391.857 1732.78h-46.844c10.964 44.45-2.61 103.53-23.291 146.1-17.019 34.99-36.658 57.82-64.049 77.88 14.881 6.25 31.646 8.73 49.176 8.73 58.115 0 102.429-26.98 102.429-129.95-.001-37.97-6.429-73.29-17.421-102.76z" fill="#7576ad"/><path d="m321.721 1878.88c20.682-42.57 34.255-101.65 23.291-146.1h-128.791c-10.996 29.47-17.416 64.79-17.416 102.76 0 71.93 24.371 106.75 58.867 121.22 27.391-20.06 47.03-42.89 64.049-77.88z" fill="#827eb7"/><path d="m265.451 2038.52-1.468.44c-20.804 10.93-8.428 17.77 1.657 21.04l.328-.33h-.516v-21.15z" fill="#232e46"/><path d="m563.31 1991.44-70.417 68.23h-226.925l-.329.33c-10.085-3.27-22.461-10.11-1.657-21.05l1.468-.43h11.578l76.609-72.53h-18.632l-86.625 71.5c-.294.16-.542.27-.845.44-.201.11-.39.21-.578.32-5.748 3.22-8.81 6.13-10.082 8.74l-.051.04.034-.01c-4.987 10.29 18.46 15.68 18.46 15.68l6.346 1.23h240.979l73.343-72.53h-13.225c.316.03.549.04.549.04z" fill="#6278a1"/><path d="m502.644 2038.52h-9.75s-37.583 9.86 0 21.15l70.417-68.23s-.233-.01-.548-.04c-1.454-.13-5.676-.65-7.565-2.59-.292-.6-.437-1.19-.504-1.76z" fill="#dce6eb"/><path d="m492.893 2038.52h-215.864-11.578v21.15h.517 226.925c-37.583-11.29 0-21.15 0-21.15z" fill="#fff"/><path d="m277.029 2038.52h215.864 9.751l52.049-51.47 21.294-21.06h-222.35z" fill="#7e9acf"/><path d="m213.021 2004.72-1.442.43c-20.833 10.94-8.452 17.78 1.638 21.05l.327-.33h-.523z" fill="#232e46"/><path d="m510.886 1957.65-70.416 68.22h-226.926l-.327.33c-10.09-3.27-22.471-10.11-1.638-21.05l1.442-.43h11.58l76.609-72.53h-18.628l-86.627 71.5c-.291.16-.538.27-.838.44-.2.11-.394.22-.582.32-5.748 3.22-8.805 6.14-10.082 8.74l-.055.04.039-.01c-4.989 10.3 18.456 15.69 18.456 15.69l6.35 1.22h240.979l73.343-72.53h-13.259c.337.03.58.05.58.05z" fill="#6278a1"/><path d="m450.22 2004.72h-9.749s-37.582 9.86 0 21.15l70.416-68.22s-.243-.02-.582-.05c-1.496-.13-5.66-.67-7.531-2.59-.287-.6-.437-1.19-.504-1.76z" fill="#dce6eb"/><path d="m440.47 2004.72h-215.869-11.58v21.15h.523 226.926c-37.582-11.29 0-21.15 0-21.15z" fill="#fff"/><path d="m224.602 2004.72h215.869 9.749l52.05-51.47 21.293-21.06h-222.353z" fill="#7e9acf"/><path d="m278.213 1966.28-1.455.43c-20.809 10.94-8.441 17.78 1.652 21.05l.323-.33h-.519v-21.15z" fill="#232e46"/><path d="m576.08 1919.21-70.422 68.22h-226.925l-.324.33c-10.093-3.27-22.461-10.11-1.652-21.05l1.455-.43h11.577l76.614-72.53h-18.63l-86.636 71.51c-.292.16-.532.27-.827.43-.199.11-.393.22-.59.33-5.748 3.22-8.805 6.13-10.078 8.73l-.051.04.036-.01c-4.992 10.3 18.461 15.69 18.461 15.69l6.342 1.22h240.984l73.338-72.53h-13.218c.315.03.546.05.546.05z" fill="#6278a1"/><path d="m515.414 1966.28h-9.755s-37.582 9.86 0 21.15l70.422-68.22s-.231-.02-.546-.05c-1.457-.13-5.678-.65-7.571-2.59-.289-.6-.437-1.18-.5-1.76z" fill="#dce6eb"/><path d="m505.659 1966.28h-215.869-11.577v21.15h.52 226.925c-37.581-11.29.001-21.15.001-21.15z" fill="#fff"/><path d="m289.79 1966.28h215.869 9.755l52.05-51.47 21.287-21.06h-222.347z" fill="#7e9acf"/></svg>