<svg fill="none" height="274" viewBox="0 0 248 274" width="248" xmlns="http://www.w3.org/2000/svg" xmlns:xlink="http://www.w3.org/1999/xlink"><clipPath id="a"><path d="m0 .5h247.31v273h-247.31z"/></clipPath><g clip-path="url(#a)"><path d="m29.767 14.1285c-.228-.6339-.5992-1.1843-1.0674-1.6435-.0073-.0066-.0158-.0143-.0231-.0209-.0934-.0912-.1892-.1791-.2935-.2593-.0352-.0318-.0692-.056-.108-.0846-.0776-.0626-.1589-.123-.2402-.1747-.0582-.0417-.1201-.0769-.1783-.1153-.0691-.0418-.1359-.0802-.205-.1187-.0352-.0208-.0655-.0417-.1043-.0593l-20.20699-10.56871c-.17831-.094482-.36027-.171386-.54223-.241697h-.00728c-.14314-.05603-.28991-.105468-.43305-.147215-.01577-.003296-.03154-.006592-.0461-.010987-.13586-.038451-.27415-.070311-.41001-.094481-.03882-.006592-.074-.014282-.1116-.017578-.12009-.020874-.23655-.038451-.35542-.052734-.05823-.003295-.11646-.006591-.17468-.010986-.10069-.006591-.20137-.014282-.29841-.014282-.02305 0-.04246-.003296-.06187-.003296-.05822 0-.11281.006592-.16619.010987-.08127 0-.16254.003295-.24382.010986-.0934.006591-.17832.017578-.26687.028564-.0655.006592-.13586.017578-.20136.028564-.08856.014282-.17832.03186-.26688.052734-.06914.014282-.1395.03186-.20864.049438l-.22077.062621c-.08492.027465-.16983.056029-.25596.087889-.04973.017578-.09704.035156-.14314.052734-.11281.045044-.22441.094481-.33237.147219-.01577.00659-.02669.01428-.04246.02087-.75088.36804-1.40471.91845-1.868093 1.62596-.007278.01098-.015769.02417-.023048.03515-.189235.30102-.336014.61633-.445188.93603-.038818.12963-.077635.25927-.104322.38891 0 .00659-.00364.01758-.00364.02856-.0315388.12634-.0497345.25598-.0655041.38562-.0072783.04614-.0072783.08789-.0121305.12963-.0036392.05933-.0072783.11865-.0121305.17908-.0036391.03845-.0036391.0769-.0036391.11535 0 .01758-.00363918.03846-.00363918.05603v21.13524c0 .0176.00363918.0385.00363918.056 0 .0385 0 .0769.0036391.1154.0036392.0593.0072783.1186.0121305.1791.0036391.0417.0036391.0846.0121305.1296.0157696.1296.0351784.2593.0655041.3856 0 .011.00364.0209.00364.0286.026687.1296.065504.2593.104322.3889.107961.3186.255953.6339.445188.936.007279.011.01577.0242.023048.0352.464593.7075 1.118433 1.2579 1.868093 1.6259.01577.0066.02669.0143.04246.0209.10796.0527.22077.1022.33237.1472.0461.0176.09341.0352.14314.0527.08492.0319.16983.0594.25596.0879.07399.0209.14677.0451.22077.0627.06914.0175.1395.0351.20864.0494.08856.0209.17468.0385.26324.0527.06914.011.1395.0209.205.0286.08855.011.17832.0209.26687.0286.08128.0066.16255.0109.24382.0142.05459 0 .10797.0066.16619.0066.01941 0 .03882-.0033.06187-.0033.09704 0 .19772-.0066.29841-.0142.05822-.0033.11645-.0066.17468-.011.12009-.0143.23654-.0319.35542-.0495.03882-.0066.074-.011.1116-.0175.13586-.0286.27415-.0594.41001-.0978.01577-.0033.03154-.0066.0461-.011.14314-.0418.28991-.0912.43305-.1439 0 0 .00243-.0011.00728-.0033.18196-.0703.36392-.1472.54223-.2417l19.81999-10.3644c2.2247-.9283 3.3856-3.2376 2.6081-5.3997zm-19.97886 4.256v-5.7952l5.53996 2.8982-5.53996 2.8981z" fill="#ff5c35"/></g></svg>