<svg fill="none" height="31" viewBox="0 0 30 31" width="30" xmlns="http://www.w3.org/2000/svg" xmlns:xlink="http://www.w3.org/1999/xlink"><linearGradient id="a" gradientUnits="userSpaceOnUse" x1="4.37487" x2="18.7499" y1="10.5" y2="10.5"><stop offset=".27" stop-color="#ff824e"/><stop offset=".74" stop-color="#ffa766"/></linearGradient><linearGradient id="b" gradientUnits="userSpaceOnUse" x1="7.52969" x2="22.4703" y1="9.98969" y2="21.0103"><stop offset=".18" stop-color="#ff824e"/><stop offset=".82" stop-color="#ff5c35"/></linearGradient><clipPath id="c"><path d="m0 .5h30v30h-30z"/></clipPath><g clip-path="url(#c)"><path d="m15 11.75c-.9946 0-1.9484.3951-2.6517 1.0983-.7032.7033-1.0983 1.6571-1.0983 2.6517v10c-.0001.8003.2558 1.5797.7304 2.2241.4745.6444 1.1428 1.1201 1.9071 1.3576.7642.2374 1.5844.2241 2.3406-.038s1.4087-.7592 1.8621-1.4187l6.875-10c.3866-.5622.6126-1.2193.6534-1.9004.0409-.6812-.1049-1.3605-.4215-1.965-.3167-.6044-.7923-1.111-1.3756-1.4651s-1.2521-.5424-1.9345-.5445z" fill="#ff5c35"/><path d="m14.9999 19.25c.9945 0 1.9484-.3951 2.6516-1.0983.7033-.7033 1.0984-1.6571 1.0984-2.6517v-9.99997c.0001-.80031-.2559-1.57966-.7304-2.2241-.4745-.64443-1.1428-1.12015-1.9071-1.35758-.7643-.23744-1.5845-.22413-2.3406.03796-.7562.26209-1.4087.75923-1.8621 1.41872l-6.87499 9.99997c-.38725.5631-.61327 1.2213-.65365 1.9035-.04037.6821.10643 1.3624.42456 1.9672.31812.6048.79547 1.1112 1.38047 1.4645.58499.3532 1.2554.5399 1.93878.5398z" fill="url(#a)"/><path d="m15 9.25c2.0711 0 3.75-1.67893 3.75-3.75s-1.6789-3.75-3.75-3.75-3.75 1.67893-3.75 3.75 1.6789 3.75 3.75 3.75z" fill="#ff5c35"/><path d="m21.875 19.25h-13.75c-.99456 0-1.94839-.3951-2.65165-1.0983-.70326-.7033-1.09835-1.6571-1.09835-2.6517s.39509-1.9484 1.09835-2.6517c.70326-.7032 1.65709-1.0983 2.65165-1.0983h13.75c.9946 0 1.9484.3951 2.6517 1.0983.7032.7033 1.0983 1.6571 1.0983 2.6517s-.3951 1.9484-1.0983 2.6517c-.7033.7032-1.6571 1.0983-2.6517 1.0983z" fill="url(#b)"/></g></svg>