<svg fill="none" height="31" viewBox="0 0 30 31" width="30" xmlns="http://www.w3.org/2000/svg" xmlns:xlink="http://www.w3.org/1999/xlink"><linearGradient id="a" gradientUnits="userSpaceOnUse" x1="12.6834" x2="26.6369" y1="2.6475" y2="15.1358"><stop offset=".19" stop-color="#ff5c35"/><stop offset=".61" stop-color="#ffa766"/></linearGradient><linearGradient id="b" gradientUnits="userSpaceOnUse" x1="18.211" x2="4.04261" y1="27.2282" y2="17.6414"><stop offset=".16" stop-color="#ff5c35"/><stop offset=".95" stop-color="#ffa766"/></linearGradient><linearGradient id="c" gradientUnits="userSpaceOnUse" x1="17.319" x2="3.36558" y1="28.3619" y2="15.8735"><stop offset=".11" stop-color="#ff5c35"/><stop offset=".88" stop-color="#ffa766"/></linearGradient><clipPath id="d"><path d="m0 .5h30v30h-30z"/></clipPath><g clip-path="url(#d)"><g fill="#ff5c35"><path d="m6.33974 24.2501c-.70197 0-1.38985-.197-1.98536-.5687s-1.07474-.903-1.38317-1.5336-.43367-1.3351-.36148-2.0333c.0722-.6983.33893-1.3622.76985-1.9164.66328-.853 1-1.7606 1-2.698 0-.9373-.33625-1.845-1-2.6979-.60649-.7855-.87694-1.7793-.75209-2.7637.12485-.98447.63481-1.87931 1.41816-2.48848.78335-.60918 1.77622-.88303 2.7611-.76155s1.88145.62838 2.4933 1.40964c1.68715 2.16969 2.57905 4.69469 2.57905 7.30199 0 2.6074-.8919 5.1324-2.57905 7.3021-.35066.4507-.79961.8155-1.31264 1.0664-.51302.251-1.07657.3815-1.64767.3815z"/><path d="m23.6605 24.2499c-.5711-.0001-1.1347-.1306-1.6477-.3815-.513-.251-.962-.6157-1.3126-1.0665-1.6875-2.1697-2.5791-4.6947-2.5791-7.302 0-2.6074.8919-5.1324 2.5791-7.30206.3016-.39063.6774-.71788 1.1057-.96298.4284-.2451.901-.40323 1.3906-.46532s.9866-.02692 1.4626.10349.9216.35349 1.3112.65646c.3896.30298.7156.67987.9592 1.10908s.4001.90229.4606 1.39213c.0604.4898.0235.9867-.1085 1.4623-.1321.4755-.3567.9203-.661 1.3089-.6633.853-1 1.7606-1 2.698 0 .9373.3363 1.845 1 2.6979.4309.5542.6977 1.2182.7699 1.9164.0722.6983-.0531 1.4027-.3615 2.0333s-.7877 1.162-1.3832 1.5336c-.5955.3717-1.2834.5688-1.9853.5688z"/><path d="m7.5962 14.3378c-.59207-.0004-1.18342-.0415-1.76984-.1231-.48782-.0674-.95758-.2303-1.38246-.4793s-.79656-.5792-1.09382-.9718c-.60033-.793-.86109-1.7919-.7249-2.77711.1362-.9852.65818-1.87594 1.45112-2.47628.79294-.60033 1.79189-.86109 2.77709-.72489 1.07015.14797 2.02453-.01469 2.83625-.48328.81176-.4686 1.42966-1.21391 1.83676-2.21469.3746-.9213 1.0999-1.65603 2.0163-2.04256.4537-.19139.9407-.29153 1.4332-.29471.4924-.00318.9807.09066 1.4369.27617.4561.18552.8713.45906 1.2218.80503.3504.34596.6293.75757.8207 1.21131.1914.45375.2916.94075.2947 1.43319.0032.49245-.0906.9807-.2761 1.43688-1.0354 2.54594-2.7763 4.58074-5.0343 5.88424-1.7643 1.0189-3.75746 1.5409-5.8434 1.5409z"/><path d="m15 29.2499c-.6146 0-1.2199-.1511-1.7624-.4399-.5425-.2889-1.0057-.7067-1.3489-1.2166-.3431-.51-.5556-1.0965-.6188-1.7079-.0632-.6113.0248-1.2289.2564-1.7983 1.0353-2.5459 2.7762-4.5807 5.0342-5.8845 2.2579-1.3037 4.8906-1.7937 7.6133-1.4175.9852.1362 1.8759.6582 2.4762 1.4511.6004.793.8611 1.7919.7249 2.7771s-.6581 1.876-1.4511 2.4763c-.7929.6003-1.7919.8611-2.7771.7249-1.0701-.148-2.0245.0147-2.8362.4833s-1.4297 1.2139-1.8367 2.2147c-.281.6908-.7616 1.2822-1.3803 1.6986-.6188.4163-1.3477.6387-2.0935.6387z"/></g><path d="m22.4039 14.3378c-2.0861 0-4.0781-.5219-5.8437-1.5406-2.2577-1.3038-3.9986-3.3386-5.0339-5.88454-.3747-.92129-.368-1.95369.0185-2.87007s1.1213-1.64168 2.0425-2.01634c.9213-.37465 1.9537-.36799 2.8701.01854s1.6417 1.12126 2.0164 2.04256c.4062 1 1.025 1.74594 1.8367 2.21469s1.7656.63125 2.8362.48328c.4878-.06744.9842-.03813 1.4607.08625s.9238.34139 1.3164.63864c.3926.29726.7229.66894.9718 1.09382.249.42488.4119.89464.4793 1.38246.0675.48781.0382.98411-.0862 1.46061s-.3414.9239-.6387 1.3165c-.2972.3926-.6689.7228-1.0938.9718s-.8946.4119-1.3824.4793c-.5865.0815-1.1778.1226-1.7699.1231z" fill="url(#a)"/><path d="m15.0001 29.25c-.7458 0-1.4747-.2224-2.0934-.6388-.6188-.4163-1.0994-1.0077-1.3803-1.6986-.4063-1.0008-1.025-1.7459-1.83676-2.2147-.81172-.4687-1.76563-.6312-2.83625-.4832-.9852.1361-1.98415-.1246-2.77709-.7249-.79294-.6004-1.31492-1.4911-1.45112-2.4763-.13619-.9852.12457-1.9842.7249-2.7771.60034-.7929 1.49108-1.3149 2.47628-1.4511 2.72265-.3764 5.35514.1137 7.61324 1.4175 2.2582 1.3037 3.9989 3.3386 5.0343 5.8845.2315.5694.3195 1.1869.2563 1.7983s-.2757 1.1979-.6188 1.7078c-.3431.51-.8064.9278-1.3489 1.2166-.5425.2889-1.1478.44-1.7624.44z" fill="url(#b)"/><path d="m23.6602 14.25c2.071 0 3.75-1.6789 3.75-3.75 0-2.07107-1.679-3.75-3.75-3.75-2.0711 0-3.75 1.67893-3.75 3.75 0 2.0711 1.6789 3.75 3.75 3.75z" fill="#ff5c35"/><path d="m7.61151 16.6733c2.08766 0 4.07689.5193 5.83279 1.5332 2.25 1.2993 3.9899 3.3372 5.0292 5.8931.1856.4562.2794.9444.2762 1.4369-.0032.4924-.1033.9794-.2947 1.4332-.1914.4537-.4703.8653-.8207 1.2113-.3505.3459-.7657.6195-1.2219.805-.4561.1855-.9444.2794-1.4368.2762-.4925-.0032-.9795-.1034-1.4332-.2947-.4538-.1914-.8654-.4703-1.2113-.8208-.346-.3504-.6195-.7656-.8051-1.2218-.4111-1.0109-1.0273-1.7589-1.83168-2.2233-.60937-.3519-1.30625-.5289-2.07812-.5289-.25521.0006-.51008.0188-.76281.0542-.98528.1363-1.98433-.1245-2.77736-.7248-.79303-.6004-1.31508-1.4912-1.45131-2.4765-.13624-.9853.12451-1.9843.72487-2.7773.60037-.7931 1.49117-1.3151 2.47645-1.4514.59163-.082 1.18819-.1233 1.78547-.1236z" fill="url(#c)"/></g></svg>