<svg fill="none" height="2500" viewBox="0 0 2500 2500" width="2500" xmlns="http://www.w3.org/2000/svg" xmlns:xlink="http://www.w3.org/1999/xlink"><linearGradient id="a" gradientUnits="userSpaceOnUse" x1="2203.09" x2="933.209" y1="2403.4" y2="737.06"><stop offset="0" stop-color="#dae3fe"/><stop offset="1" stop-color="#e9effd"/></linearGradient><linearGradient id="b"><stop offset="0" stop-color="#09005d"/><stop offset="1" stop-color="#1a0f91"/></linearGradient><linearGradient id="c" gradientUnits="userSpaceOnUse" x1="1296.82" x2="1296.82" xlink:href="#b" y1="1566.87" y2="2207.49"/><linearGradient id="d" gradientUnits="userSpaceOnUse" x1="1249.89" x2="1260" xlink:href="#b" y1="538.259" y2="1637.98"/><linearGradient id="e" gradientUnits="userSpaceOnUse" x1="1337.54" x2="1293.72" xlink:href="#b" y1="1384.94" y2="1940.53"/><linearGradient id="f"><stop offset="0" stop-color="#ff928e"/><stop offset="1" stop-color="#fe7062"/></linearGradient><linearGradient id="g" gradientUnits="userSpaceOnUse" x1="1205.15" x2="1679.52" xlink:href="#f" y1="1434.38" y2="1082.39"/><linearGradient id="h" gradientUnits="userSpaceOnUse" x1="1808.22" x2="1927.01" xlink:href="#b" y1="1601.2" y2="1279.02"/><linearGradient id="i"><stop offset="0" stop-color="#febbba"/><stop offset="1" stop-color="#ff928e"/></linearGradient><linearGradient id="j" gradientUnits="userSpaceOnUse" x1="1685.68" x2="1793.26" xlink:href="#i" y1="1284.79" y2="1541.43"/><linearGradient id="k" gradientUnits="userSpaceOnUse" x1="1687.78" x2="1795.36" xlink:href="#i" y1="1283.91" y2="1540.55"/><linearGradient id="l"><stop offset="0" stop-color="#4f52ff"/><stop offset="1" stop-color="#4042e2"/></linearGradient><linearGradient id="m" gradientUnits="userSpaceOnUse" x1="1982.18" x2="1989.45" xlink:href="#l" y1="1794.11" y2="1983.66"/><linearGradient id="n" gradientUnits="userSpaceOnUse" x1="1819.31" x2="1865.67" xlink:href="#i" y1="2091.34" y2="1518.8"/><linearGradient id="o" gradientUnits="userSpaceOnUse" x1="1843.6" x2="1832.69" xlink:href="#l" y1="1779.06" y2="1987.85"/><linearGradient id="p" gradientUnits="userSpaceOnUse" x1="1923.34" x2="1969.72" xlink:href="#i" y1="2099.86" y2="1527.16"/><linearGradient id="q" gradientUnits="userSpaceOnUse" x1="1904.03" x2="1759.01" xlink:href="#f" y1="1414.04" y2="1628.15"/><linearGradient id="r" gradientUnits="userSpaceOnUse" x1="1990.38" x2="1731.58" xlink:href="#l" y1="1515.51" y2="1884.24"/><linearGradient id="s" gradientUnits="userSpaceOnUse" x1="1813.64" x2="1822.35" xlink:href="#i" y1="1527.42" y2="1460.02"/><linearGradient id="t" gradientUnits="userSpaceOnUse" x1="1762.28" x2="1754.1" xlink:href="#i" y1="1370.13" y2="1582.96"/><linearGradient id="u" gradientUnits="userSpaceOnUse" x1="1660.21" x2="1652.58" xlink:href="#i" y1="1368.3" y2="1566.57"/><linearGradient id="v" gradientUnits="userSpaceOnUse" x1="1801.49" x2="1841.03" xlink:href="#i" y1="1377.25" y2="1463.38"/><linearGradient id="w" gradientUnits="userSpaceOnUse" x1="1739.19" x2="1859.03" xlink:href="#b" y1="1579.38" y2="1254.33"/><linearGradient id="x" gradientUnits="userSpaceOnUse" x1="1820.87" x2="1860.41" xlink:href="#i" y1="1368.35" y2="1454.49"/><linearGradient id="y" gradientUnits="userSpaceOnUse" x1="868.442" x2="873.494" xlink:href="#f" y1="1287.41" y2="1563.24"/><linearGradient id="z" gradientUnits="userSpaceOnUse" x1="862.439" x2="847.682" xlink:href="#l" y1="2337.36" y2="2019.53"/><linearGradient id="A" gradientUnits="userSpaceOnUse" x1="972.001" x2="891.125" xlink:href="#b" y1="1268.96" y2="1390.4"/><linearGradient id="B" gradientUnits="userSpaceOnUse" x1="1065.52" x2="921.911" xlink:href="#f" y1="1137.04" y2="1509.14"/><linearGradient id="C" gradientUnits="userSpaceOnUse" x1="752.703" x2="879.537" xlink:href="#i" y1="1522.58" y2="1846.3"/><linearGradient id="D" gradientUnits="userSpaceOnUse" x1="999.884" x2="873.05" xlink:href="#i" y1="1521.9" y2="1845.61"/><linearGradient id="E" gradientUnits="userSpaceOnUse" x1="876.557" x2="870.064" xlink:href="#b" y1="1563.78" y2="1841.62"/><linearGradient id="F" gradientUnits="userSpaceOnUse" x1="960.243" x2="1036.44" xlink:href="#b" y1="1730.95" y2="1731.57"/><linearGradient id="G" gradientUnits="userSpaceOnUse" x1="1010.53" x2="937.576" xlink:href="#i" y1="1600.93" y2="1809.72"/><linearGradient id="H" gradientUnits="userSpaceOnUse" x1="775.322" x2="699.114" xlink:href="#b" y1="1730.6" y2="1728.98"/><linearGradient id="I" gradientUnits="userSpaceOnUse" x1="849.393" x2="776.396" xlink:href="#i" y1="1538.79" y2="1747.7"/><linearGradient id="J" gradientUnits="userSpaceOnUse" x1="1044.62" x2="843.961" xlink:href="#l" y1="1596.95" y2="1756.21"/><linearGradient id="K" gradientUnits="userSpaceOnUse" x1="855.547" x2="805.768" xlink:href="#l" y1="1730.27" y2="1596.16"/><linearGradient id="L" gradientUnits="userSpaceOnUse" x1="875.105" x2="873.443" xlink:href="#i" y1="1548.9" y2="1396.13"/><linearGradient id="M" gradientUnits="userSpaceOnUse" x1="869.726" x2="895.175" xlink:href="#i" y1="1464.1" y2="1333.22"/><linearGradient id="N" gradientUnits="userSpaceOnUse" x1="975.564" x2="884.561" xlink:href="#b" y1="1251.12" y2="1387.76"/><linearGradient id="O" gradientUnits="userSpaceOnUse" x1="850.977" x2="832.797" xlink:href="#i" y1="1481.41" y2="1273.61"/><linearGradient id="P" gradientUnits="userSpaceOnUse" x1="1949.22" x2="1956.3" xlink:href="#l" y1="1133.48" y2="1133.48"/><linearGradient id="Q" gradientUnits="userSpaceOnUse" x1="1653.75" x2="1946.16" xlink:href="#l" y1="1098.84" y2="1098.84"/><linearGradient id="R" gradientUnits="userSpaceOnUse" x1="1654.12" x2="1658.25" xlink:href="#l" y1="1004.65" y2="1004.65"/><linearGradient id="S" gradientUnits="userSpaceOnUse" x1="1713.42" x2="1720.77" xlink:href="#l" y1="891.845" y2="891.845"/><linearGradient id="T" gradientUnits="userSpaceOnUse" x1="1724.57" x2="2005.3" xlink:href="#l" y1="939.605" y2="939.605"/><linearGradient id="U" gradientUnits="userSpaceOnUse" x1="1999.88" x2="2004.22" xlink:href="#l" y1="1037.7" y2="1037.7"/><linearGradient id="V" gradientUnits="userSpaceOnUse" x1="1677" x2="1979.15" xlink:href="#l" y1="1018.01" y2="1018.01"/><linearGradient id="W" gradientUnits="userSpaceOnUse" x1="1697.36" x2="1704.45" xlink:href="#l" y1="927.56" y2="927.56"/><linearGradient id="X" gradientUnits="userSpaceOnUse" x1="1461.85" x2="1694.06" xlink:href="#l" y1="900.99" y2="900.99"/><linearGradient id="Y" gradientUnits="userSpaceOnUse" x1="1462.08" x2="1466.19" xlink:href="#l" y1="824.706" y2="824.706"/><linearGradient id="Z" gradientUnits="userSpaceOnUse" x1="1509.54" x2="1516.9" xlink:href="#l" y1="733.803" y2="733.803"/><linearGradient id="aa" gradientUnits="userSpaceOnUse" x1="1520.6" x2="1743.62" xlink:href="#l" y1="771.014" y2="771.014"/><linearGradient id="ab" gradientUnits="userSpaceOnUse" x1="1738.53" x2="1742.86" xlink:href="#l" y1="850.238" y2="850.238"/><linearGradient id="ac" gradientUnits="userSpaceOnUse" x1="1480.8" x2="1722.34" xlink:href="#l" y1="834.943" y2="834.943"/><path d="m1829.08 1773.2c-31.23 31.11-60.77 51.18-84.12 67.03-274.41 186.35-599.12 132.03-668.12 118.77-101.909-19.59-298.887-57.46-441.299-215.96-215.457-239.81-181.907-617.62-14.784-867.016 30.569-45.619 192.046-298.814 520.243-339.418 198.63-24.573 430.16 24.988 597.83 157.939 351.95 279.076 326.89 842.865 90.25 1078.655z" fill="url(#a)"/><path d="m483.744 516.939c-1.447-5.829 7.217-9.704 12.523-5.632 53.875 41.349 183.322 165.168 151.062 381.552-40.476 271.491 28.722 370.551 114.857 430.981 0 0-118.292-28.42-192.715-128.94-182.727-246.804-60.001-574.311-85.727-677.961z" fill="#91b3fa"/><path d="m524.744 601.735c6.74 30.223 12.747 60.538 17.389 90.99 4.837 30.427 8.543 60.959 11.08 91.543 2.392 30.588 4.082 61.208 4.179 91.842.264 30.632-1.082 61.238-2.564 91.964-1.272 30.715-2.766 61.656-.391 92.806 2.337 31.09 9.251 62.46 22.974 91.86 3.43 7.32 7.037 14.63 11.135 21.69 3.939 7.12 8.266 14.1 12.743 21.02 9.041 13.8 19.219 27.13 30.561 39.79 22.765 25.27 50.222 47.68 80.469 66.65 3.183 2 7.744 1.51 10.188-1.09 2.399-2.56 1.863-6.2-1.171-8.22l-.022-.02c-7.196-4.78-14.318-9.62-21.15-14.71-3.466-2.5-6.79-5.12-10.173-7.69-3.259-2.67-6.647-5.24-9.801-7.99-12.844-10.82-24.743-22.36-35.537-34.57-21.714-24.29-39.097-51.37-52.266-79.44-6.393-14.1-11.503-28.56-15.234-43.29-3.718-14.73-6.056-29.72-7.35-44.83-2.59-30.24-1.419-60.875-.418-91.595.953-30.728 1.652-61.613.795-92.472-.377-15.428-1.094-30.85-2.147-46.253-.473-7.704-1.129-15.399-1.767-23.093-.728-7.69-1.509-15.375-2.365-23.054-3.498-30.71-8.14-61.318-13.959-91.764-5.997-30.422-12.98-60.704-21.379-90.715-.24-.859-1.285-1.394-2.335-1.198-1.02.191-1.668 1.007-1.484 1.839z" fill="#fff"/><path d="m623.306 1187.31c-6.605 6.63-18.222 4.72-22.196-3.58-21.927-45.82-71.546-180.66 10.401-336.007 69.2-131.183 93.552-208.54 102.036-244.382 1.794-7.58 12.768-8.586 16.08-1.48 36.547 78.401 133.045 345.079-106.321 585.449z" fill="#bdd0fb"/><path d="m611.307 1182.47c-.235.04-.476.06-.724.06-2.077-.03-3.734-1.65-3.703-3.62.037-2.22 4.618-224.918 92.13-411.434.843-1.794 3.065-2.604 4.964-1.808 1.898.798 2.753 2.901 1.911 4.698-86.876 185.157-91.448 406.444-91.485 408.654-.028 1.73-1.356 3.16-3.093 3.45z" fill="#fff"/><path d="m1136.1 1595.47-33.48 284.16h388.39l-50.59-284.16z" fill="url(#c)"/><path d="m483.674 895.369v650.801c0 53.53 45.076 97.31 101.623 98.69 251.151 6.13 1129.553 20.99 1368.633 17.66 41.09-.58 74.38-31.7 75.56-70.58 4.61-151.18 12.1-514.74-15.61-683.53-5.83-35.544-37.53-62.124-75.52-63.274-210.43-6.371-1141.596-26.602-1380.563-21.523-41.213.876-74.123 32.739-74.123 71.756z" fill="url(#d)"/><path d="m526.82 892.2v618.3c0 31.26 26.511 56.73 59.533 57.2l1333.177 15.59c32.74.46 59.58-24.47 59.7-55.46l2.23-612.777c.09-22.158-18.56-40.314-41.97-40.853l-1364.927-26.098c-26.178-.604-47.743 19.316-47.743 44.098z" fill="#91b3fa"/><path d="m1989.27 1608.81c-.01 0-.02 0-.04 0l-1462.446-23.58c-1.13-.02-2.031-.9-2.012-1.97s.917-1.89 2.082-1.91l1462.446 23.59c1.13.02 2.03.9 2.01 1.97-.01 1.06-.93 1.9-2.04 1.9z" fill="#91b3fa"/><path d="m1574.67 1937.77h-568.43c-15.446 0-27.043-10.4-24.057-21.58l7.294-27.3c2.194-8.21 11.733-14.24 23.073-14.58l547.99-16.18c11.84-.35 22.33 5.6 24.91 14.13l13.15 43.49c3.41 11.3-8.24 22.02-23.93 22.02z" fill="url(#e)"/><path d="m1312.23 1881.89c-1.11 0-2.02-.85-2.04-1.91-.02-1.07.88-1.95 2.01-1.96l23.49-.32h.03c1.12 0 2.03.84 2.04 1.9.02 1.08-.88 1.95-2.01 1.97l-23.49.32s-.01 0-.03 0z" fill="#91b3fa"/><path d="m1003.23 1922.9c-.11 0-.22 0-.33-.02-1.11-.17-1.87-1.16-1.69-2.22l3.35-19.86c1.81-10.76 11.48-18.68 22.99-18.84l249.07-3.45c1.08-.04 2.06.84 2.07 1.91.02 1.07-.88 1.95-2.01 1.97l-249.07 3.44c-9.51.14-17.51 6.69-19.01 15.58l-3.35 19.86c-.16.95-1.03 1.63-2.02 1.63z" fill="#91b3fa"/><g fill="#fff"><path d="m1691.08 1082.8h-148.19c-9.3 0-16.84-7.14-16.84-15.94s7.54-15.94 16.84-15.94h148.19c9.3 0 16.84 7.14 16.84 15.94s-7.54 15.94-16.84 15.94z" opacity=".44"/><path d="m1745.62 1057.71h159.94c10.04 0 18.18 28.32 18.18 63.24v372.41c0 34.93-8.14 63.24-18.18 63.24h-159.94c-10.04 0-18.18-28.31-18.18-63.24v-372.41c0-34.92 8.14-63.24 18.18-63.24z" opacity=".43"/><path d="m1542.89 1100.51h148.19c9.3 0 16.84 7.14 16.84 15.94v93.87c0 8.8-7.54 15.94-16.84 15.94h-148.19c-9.3 0-16.84-7.14-16.84-15.94v-93.87c0-8.8 7.54-15.94 16.84-15.94z" opacity=".46"/><path d="m1542.89 1254.4h148.19c9.3 0 16.84 17.2 16.84 38.42v226.23c0 21.22-7.54 38.42-16.84 38.42h-148.19c-9.3 0-16.84-17.2-16.84-38.42v-226.23c0-21.22 7.54-38.42 16.84-38.42z" opacity=".38"/><path d="m1921.88 1031.19h-1327.502c-15.366 0-27.823-11.79-27.823-26.33v-104.794c0-14.804 12.889-26.699 28.526-26.325l1327.509 31.771c15.08.362 27.12 12.041 27.12 26.325v73.023c0 14.54-12.46 26.33-27.83 26.33z" opacity=".42"/><path d="m1477.78 1462.05h-447.29c-11.27 0-20.4-8.65-20.4-19.31v-361.09c0-10.66 9.13-19.31 20.4-19.31h447.29c11.27 0 20.4 8.65 20.4 19.31v361.09c0 10.66-9.13 19.31-20.4 19.31z" opacity=".58"/><path d="m1496.92 1564.08-919.713-7.32c-11.151-.09-20.141-8.67-20.141-19.22v-30.72c0-14.68 12.575-26.58 28.086-26.58h910.528c5.98 0 10.84 4.6 10.84 10.26v64.57c0 5.01-4.31 9.05-9.6 9.01z" opacity=".28"/><path d="m962.488 1452.83h-386.197c-10.618 0-19.225-8.15-19.225-18.2v-365.51c0-10.05 8.607-18.2 19.225-18.2h386.197c10.617 0 19.224 8.15 19.224 18.2v365.51c0 10.05-8.607 18.2-19.224 18.2z" opacity=".47"/></g><path d="m1246.18 1092.51 434.98-3.69c8.53-.07 15.47 6.47 15.42 14.55l-1.9 315.91c-.05 8.13-7.14 14.62-15.73 14.38-78.64-2.22-427.82-12.01-443.23-11.4-15.23.6-6.96-253.17-4.68-315.79.28-7.74 6.95-13.89 15.14-13.96z" fill="url(#g)"/><path d="m1679.42 1421.75h-.09c-62.48-1.76-377.09-10.6-435.08-11.38l-.78-.01-.13-.72c-5.46-29.12-5.35-147.96.28-302.76.04-1.37 1.22-2.44 2.67-2.46l434.98-3.69c.95 0 1.58.41 1.94.76.51.48.79 1.11.78 1.81l-1.9 315.92c-.01 1.4-1.21 2.53-2.67 2.53zm-434.36-13.15c59.99.84 372.12 9.62 434.32 11.37l.07.01c.4 0 .76-.35.76-.78l1.9-315.91c.01-.22-.07-.39-.23-.55-.17-.15-.36-.23-.6-.23l-434.97 3.69c-.44.01-.8.33-.81.74-5.58 153.44-5.74 271.45-.44 301.66z" fill="#fff" opacity=".69"/><path d="m1298.67 1381.14h285.14c8.88 0 14.4-9.13 9.9-16.37l-112.89-181.63c-4.71-7.58-16.48-7-20.33 1l-54.51 113.04c-3.24 6.71-12.45 8.48-18.19 3.49l-22.05-19.13c-5.13-4.44-13.21-3.59-17.18 1.81l-59.31 80.73c-5.29 7.2.15 17.06 9.42 17.06z" fill="#fff"/><path d="m1595.67 1213.5c20.92-8.2 30.85-30.9 22.18-50.7-8.66-19.79-32.64-29.19-53.55-20.99-20.92 8.2-30.85 30.89-22.19 50.69 8.67 19.79 32.65 29.2 53.56 21z" fill="#fff"/><path d="m1953.19 1471.05c-10.01-35.04-40.94-63.83-75.4-71.1-6.33-1.34-10-7.44-8.51-13.42.01-.04.02-.08.03-.12 4.99-20.38-8.81-36.62-29.62-41.18-20.81-4.57-40.76 4.25-45.75 24.63-3.37 13.75.95 29.22 10.5 39.24 3.94 4.13 4.26 10.29.44 14.52-21 23.28-29.54 58.83-20.46 90.61 13.37 46.83 59.89 67.74 106.5 55.82 46.6-11.93 75.64-52.18 62.27-99z" fill="url(#h)"/><path d="m1938.7 1515.73-.91-.6c8.34-11.21 9.41-27.39 2.79-42.22-5.25-11.78-14.66-22.55-29.6-33.9-5.57-4.23-11.47-8.25-17.18-12.13-6.88-4.67-13.98-9.5-20.57-14.75-5.92-4.73-12.16-10.59-13.46-18.27-.66-3.82-.05-7.89.54-11.83.93-6.17 1.8-11.99-2.02-16.45l.86-.66c4.12 4.81 3.17 11.14 2.26 17.25-.58 3.86-1.18 7.86-.55 11.53 1.25 7.33 7.31 13.02 13.08 17.62 6.56 5.23 13.65 10.05 20.5 14.71 5.72 3.89 11.64 7.91 17.23 12.16 15.09 11.46 24.6 22.37 29.93 34.31 6.77 15.17 5.66 31.73-2.9 43.23z" fill="#91b3fa"/><path d="m1916.54 1522.49-1.04-.35c5.67-14.86 4.01-33.12-4.56-50.1-8.5-16.83-22.4-30.56-33.56-40.63l.77-.76c11.22 10.14 25.21 23.95 33.79 40.94 8.7 17.23 10.38 35.78 4.6 50.9z" fill="#91b3fa"/><path d="m1693.05 1330.28-.39-12.1 13.37-25.12c2.44-4.59 2.46-10.01.05-14.62l-15.14-28.93s-8.74 62.8-11.04 68.02c-2.3 5.21 6.24 14.59 6.24 14.59z" fill="url(#j)"/><path d="m1692.66 1318.18s40.65 104.87 109.91 137.65c0 0-23.05 35.6-35.08 37.76 0 0-73.99-89.63-81.53-163.06z" fill="url(#k)"/><path d="m1971.21 1949.05 2.05 15.9c2.13 7.56 12.41 26.61 25.6 25.37 8.12-.76 9.1-23.21 7.97-26.58-2.06-6.14-5.83-15.36-11.27-20.78h-18.65c-3.44 0-6.11 2.85-5.7 6.09z" fill="url(#m)"/><path d="m1825.2 1762.73-3.14 17.52s10.53 101.01 12.41 141.42c.29 6.33-1.44 12.59-4.95 17.99l-18.33 28.16 46.57-26 .93-5.38-7.63-9.92 9.99-113.16c.58-6.65-.87-13.32-4.18-19.21l-9.63-17.12z" fill="url(#n)"/><path d="m1808.13 1971.9h14.86c2.78 0 5.4-1.21 7.1-3.29 4.63-5.7 14.23-16.81 18.82-17.1 6.18-.39 5.39 20.39 5.39 20.39h3.46l4.39-25.83c1.1-6.5-2.32-12.94-8.48-15.98-6.17-3.05-1.41 9.88-9.07 14.26-7.66 4.37-31.16 20.03-31.16 20.03s-2.88-.39-6.04.15c-4.69.8-4.04 7.37.73 7.37z" fill="url(#o)"/><path d="m1888.98 1771.05s61.73 110.82 71.54 136.13c9.82 25.3 13.25 46.41 13.38 48.41.21 3.12 4.31 6.11 15.63 6.11 5.84 0 8.7-2.21 10.1-4.35 1.19-1.83 1.25-4.12.25-6.05-3.57-6.84-14.91-28.7-19.1-38.61-5.01-11.84-15.79-65.48-21.7-84.13s-12.59-38.88-38.34-57.51c0 0-17.67-16.38-31.76 0z" fill="url(#p)"/><path d="m1849.99 1589.46c-9.04-36.26.05-63.57 9.6-80.41 7.62-13.44 2.27-30.05-12.02-37.08-22.34-11-45-16.14-45-16.14s-44.25 30.62-39 54.59c3.08 14.05 31.11 84.14 31.11 84.14s25.91 11.61 55.31-5.1z" fill="url(#q)"/><path d="m1885.29 1621.07c-6.48-18.47-35.3-31.61-35.3-31.61-29.4 16.71-55.31 5.1-55.31 5.1s-5.82 21.02-1.8 40.56c4.01 19.54 29.18 145.13 29.18 145.13 39.65 7.6 100.64-7.66 100.64-7.66-25.26-42.44-30.93-133.04-37.41-151.52z" fill="url(#r)"/><path d="m1831.5 1413.63 12.95 55.04c1.24 4.85-3.43 4.05-8.61 3.13-8.48-1.51-19.41-4.63-23.06-10.88-.38-.63-.56-1.35-.67-2.07l-5.56-38.16c-.44-3.03 1.29-5.97 4.24-7.21l10.73-4.5c4.14-1.74 8.92.49 9.98 4.65z" fill="url(#s)"/><path d="m1669.69 1377.28s34.07 112.03 171.47 101.5c8.79-.67 16.52 5.49 17.2 13.81l.37 4.5c.99 12.06-9.41 22.22-22.16 21.61-45.7-2.19-143.84-19.18-177.48-121.95z" fill="url(#t)"/><path d="m1659.09 1396.75s-6.55-18.23-8.19-29.63c-1.65-11.4 4.41-36.98 9.61-44.18 5.2-7.19 6.07 10.44 8.41 18.73 2.35 8.29-1.62 20.11-1.62 20.11l2.39 15.5z" fill="url(#u)"/><path d="m1804.96 1368.23s-32.74 45.13-12.38 57.71c20.36 12.57 43.66-19.5 43.66-19.5s7.31-24.52-1.01-32.64-30.27-5.57-30.27-5.57z" fill="url(#v)"/><path d="m1818.69 1357.28s-14.24 3.46-16.12 9.62c-1.89 6.17 20.52 11.45 26.77 11.61l5.53 24.64s14.41-23.53 8.25-36.85c-6.16-13.33-24.43-9.02-24.43-9.02z" fill="url(#w)"/><path d="m1829.66 1403.28s12.8-14.58 18.19-5.32-11.45 16.58-17.43 12.1z" fill="url(#x)"/><path d="m605.158 1835.94h521.152v-80.11h-521.152c11.155 0 11.155 80.11 0 80.11z" fill="#91b3fa"/><path d="m1126.31 1815.89v-36.66c0-12.92-10.3-23.4-23-23.4h-495.955c-9.99 0-18.089-6.22-18.089-13.89 0-2.33 2.46-4.22 5.496-4.22h542.038c12.43 0 32.16 15.01 32.16 33.52v51.2c0 17.46-19.16 31.61-30.88 31.61h-540.467c-4.61 0-8.347-2.87-8.347-6.41 0-6.46 6.822-11.7 15.237-11.7h502.097c10.89 0 19.71-8.97 19.71-20.05z" fill="url(#y)"/><path d="m1111.86 1774.05h-488.654c-1.04 0-1.881-.8-1.881-1.78 0-.99.841-1.78 1.881-1.78h488.654c1.04 0 1.88.79 1.88 1.78 0 .98-.84 1.78-1.88 1.78z" fill="#fff" opacity=".76"/><path d="m1111.86 1785.94h-488.654c-1.04 0-1.881-.8-1.881-1.78s.841-1.78 1.881-1.78h488.654c1.04 0 1.88.8 1.88 1.78s-.84 1.78-1.88 1.78z" fill="#fff" opacity=".76"/><path d="m1111.86 1797.83h-488.654c-1.04 0-1.881-.8-1.881-1.78s.841-1.78 1.881-1.78h488.654c1.04 0 1.88.8 1.88 1.78s-.84 1.78-1.88 1.78z" fill="#fff" opacity=".76"/><path d="m1111.86 1809.72h-488.654c-1.04 0-1.881-.8-1.881-1.78s.841-1.78 1.881-1.78h488.654c1.04 0 1.88.8 1.88 1.78s-.84 1.78-1.88 1.78z" fill="#fff" opacity=".76"/><path d="m1111.86 1821.61h-488.654c-1.04 0-1.881-.8-1.881-1.78s.841-1.78 1.881-1.78h488.654c1.04 0 1.88.8 1.88 1.78s-.84 1.78-1.88 1.78z" fill="#fff" opacity=".76"/><path d="m1180.48 1989.03h-679.133c-4.53 0-8.202-3.47-8.202-7.76v-118.33c0-4.29 3.672-7.77 8.202-7.77h679.133c4.53 0 8.21 3.48 8.21 7.77v118.33c0 4.29-3.68 7.76-8.21 7.76z" fill="url(#z)"/><path d="m639.846 1973.65h-54.479c-7.52 0-13.616-5.77-13.616-12.89v-77.31c0-7.12 6.096-12.89 13.616-12.89h54.479c7.52 0 13.616 5.77 13.616 12.89v77.31c0 7.12-6.096 12.89-13.616 12.89z" fill="#7d97f4"/><path d="m685.065 1973.65h-8.51c-6.116 0-11.074-4.7-11.074-10.48v-82.13c0-5.79 4.958-10.48 11.074-10.48h8.51c6.116 0 11.074 4.69 11.074 10.48v82.13c-.001 5.78-4.958 10.48-11.074 10.48z" fill="#7d97f4"/><path d="m844.999 1377.5c-.338.61-21.6 15.41-21.6 15.41s4.696 31.8 23.762 44.35c20.963 13.8 50.568-11.37 50.568-11.37s23.561 5.3 36.09-41.12c2.874-10.65-13.719-11.55-33.745-9.58-25.824 2.53-55.075 2.31-55.075 2.31z" fill="url(#A)"/><path d="m805.257 1485.97c8.318-5.42 17.514-9.5 27.264-12.01 3.662-.94 23.436 4.5 35.659 4.23 16.778-.36 33.857-7.59 47.687-4.33 13.739 3.24 24.983 7.47 31.475 11.84 19.433 13.09 30.842 37.48 37.796 61.64-13.167 12.79-29.735 18.48-29.735 18.48l-3.061 117.44-73.375 35.53-83.749-39.8 3-114.76s-26.594-11.73-28.545-15.99 12.121-47.01 35.584-62.27z" fill="url(#B)"/><path d="m770.912 1547.73s-35.638 93.51 45.629 131.94c16.874-2.12 10.384-28.64 10.384-28.64s-35.311-7.4-24.706-85.41c-9.764-7.6-31.307-17.89-31.307-17.89z" fill="url(#C)"/><path d="m983.424 1547.73s24.526 97.61-45.629 131.94c-16.875-2.12-10.384-28.64-10.384-28.64s28.459-13.27 24.706-85.41c9.763-7.6 31.307-17.89 31.307-17.89z" fill="url(#D)"/><path d="m950.497 1686.24h-151.587c-2.562 0-4.657-1.98-4.657-4.41v-94.03c0-2.42 2.095-4.41 4.657-4.41h151.587c2.562 0 4.657 1.99 4.657 4.41v94.03c.001 2.43-2.095 4.41-4.657 4.41z" fill="url(#E)"/><path d="m1025.73 1716.73c-18.42-4-60.975-1.85-60.975-1.85l-1.731 4.44-2.866 22.05s40.532 6.91 60.512 6.9c2.03-.01 3.9-.3 5.6-.8.61-.51 1.21-1.05 1.77-1.63 8.47-8.76 6.03-21.63-2.31-29.11z" fill="url(#F)"/><path d="m952.527 1713.64 7.206.29c3.872.15 7.521 1.94 10.124 4.95s3.942 7 3.715 11.06c-.182 3.24-1.585 6.27-3.9 8.41-2.314 2.15-5.349 3.24-8.433 3.03l-11.026-.74z" fill="url(#G)"/><path d="m710.204 1714.61c18.512-3.47 60.998-.08 60.998-.08l1.613 4.48 2.284 22.13s-40.697 5.74-60.667 5.14c-2.037-.06-3.894-.4-5.582-.96-.596-.53-1.176-1.08-1.724-1.68-8.242-9.01-5.455-21.8 3.078-29.03z" fill="url(#H)"/><path d="m783.458 1713.64-7.211.08c-3.875.05-7.569 1.73-10.251 4.66-2.682 2.94-4.125 6.88-4.005 10.95.096 3.24 1.419 6.31 3.677 8.52 2.257 2.22 5.262 3.4 8.349 3.28l11.043-.43z" fill="url(#I)"/><path d="m1030.88 1647.59c-8.35-18.19-28.78-21.14-46.16-12.63-.303.37-110.396 53.77-207.484 77.18 2.78 8.43 4.209 17.41 4.52 26.23.057 1.96.022 3.9-.1 5.81 74.453-3.62 155.256-27.12 224.694-47.77 21.53-6.57 33.78-28.66 24.53-48.82z" fill="url(#J)"/><path d="m953.056 1739.75c-.291-10.17 1.797-19.63 6.265-28.39.128-.41.281-.79.416-1.19-5.544-1.62-12.706-3.83-22.115-6.85-68.942-22.33-121.537-44.87-171.733-70.83-19.501-10.08-41.673-3.33-47.915 18.51-5.573 19.5 6.665 36.14 25.237 41.99 55.565 17.5 26.634 12.64 44.782 18.17 48.736 14.26 109.382 27.25 165.18 30.8-.043-.74-.091-1.48-.117-2.21z" fill="url(#K)"/><path d="m832.521 1473.96s7.415 30.41 43.413 29.78c36.665-.63 39.934-29.88 39.934-29.88l-23.951-4.85-2.002-25.26-36.027 2.53-.667 23.99z" fill="url(#L)"/><path d="m858.946 1372.19s-41.287 75.69 7.689 94.06c34.545 12.95 56.204-50.27 49.744-67.39-9.989-26.48-16.567-23.34-16.567-23.34z" fill="url(#M)"/><path d="m926.314 1365.3c20.397 5.31 2.965 47.17-27.743 37.27s-42.775-9.75-47.56-1.77c-4.786 7.98-5.814 36.32-16.197 22.31-11.383-15.36-17.73-46.18-3.773-56.12 12.473-8.88 15.384-22.65 30.345-22.17 19.857.63 35.214-7.7 44.178-1.69 10.294 6.9 5.742 18.27 20.75 22.17z" fill="url(#N)"/><path d="m849.122 1407.31s-8.805-8.97-10.214 1.84c-1.41 10.81 3.115 24.72 8.417 17.1 5.301-7.63 1.797-18.94 1.797-18.94z" fill="url(#O)"/><path d="m884.194 1626.74c.853 5.46-2.235 10.41-8 11.22s-11.13-2.96-11.983-8.42c-.853-5.45 1.785-10.87 7.55-11.68 5.766-.81 11.58 3.43 12.433 8.88z" fill="#91b3fa"/><path d="m773.522 1339.24c104.006 0 188.32-79.8 188.32-178.24s-84.314-178.236-188.32-178.236c-104.007 0-188.321 79.796-188.321 178.236s84.314 178.24 188.321 178.24z" fill="#fff"/><g fill="#91b3fa"><path d="m618.31 1152.31 39.516-19.51v8.31c0 .63-.167 1.21-.5 1.73s-.881.96-1.646 1.34l-18.111 8.79c-.766.37-1.572.7-2.42.96-.848.27-1.755.52-2.719.74.964.22 1.871.46 2.719.73s1.654.59 2.42.97l18.111 8.83c.765.37 1.313.82 1.646 1.34.332.52.5 1.1.5 1.73v8.31l-39.516-19.55z"/><path d="m675.837 1186.49v-70.17h12.324v26.97c1.995-1.8 4.191-3.25 6.586-4.35 2.394-1.1 5.205-1.65 8.431-1.65 2.795 0 5.272.45 7.435 1.35 2.161.89 3.966 2.15 5.413 3.77s2.544 3.56 3.293 5.81c.748 2.25 1.122 4.73 1.122 7.44v30.83h-12.323v-30.83c0-2.96-.724-5.25-2.171-6.87s-3.617-2.43-6.511-2.43c-2.13 0-4.124.45-5.987 1.36-1.863.92-3.626 2.16-5.288 3.74v35.03z"/><path d="m749.379 1187.25c-4.424 0-7.833-1.19-10.228-3.57-2.395-2.37-3.593-5.66-3.593-9.84v-27.06h-5.188c-.666 0-1.24-.2-1.722-.61s-.723-1.03-.723-1.85v-4.62l8.232-1.28 2.595-13.22c.132-.63.44-1.12.922-1.47.483-.34 1.089-.51 1.822-.51h6.386v15.25h13.471v8.31h-13.471v26.25c0 1.52.399 2.7 1.198 3.55.798.85 1.862 1.27 3.193 1.27.765 0 1.405-.09 1.921-.26.515-.17.965-.35 1.347-.54.383-.19.723-.37 1.023-.54.299-.18.598-.26.898-.26.365 0 .665.08.898.26.232.17.481.43.748.78l3.692 5.66c-1.796 1.42-3.859 2.49-6.187 3.21-2.327.73-4.739 1.09-7.234 1.09z"/><path d="m771.182 1186.49v-48.45h7.534c1.596 0 2.644.71 3.143 2.13l.798 3.59c.898-.95 1.838-1.81 2.82-2.6.98-.79 2.028-1.46 3.143-2.03 1.114-.57 2.312-1.01 3.593-1.34 1.28-.34 2.685-.5 4.216-.5 3.226 0 5.879.83 7.957 2.48 2.08 1.65 3.635 3.85 4.666 6.58.798-1.6 1.796-2.98 2.993-4.13 1.198-1.15 2.511-2.08 3.941-2.81 1.43-.72 2.952-1.25 4.566-1.6 1.613-.35 3.235-.52 4.865-.52 2.826 0 5.338.41 7.534 1.23 2.195.82 4.041 2.01 5.538 3.58 1.497 1.58 2.635 3.5 3.418 5.77.781 2.26 1.173 4.86 1.173 7.79v30.83h-12.324v-30.83c0-3.09-.716-5.41-2.145-6.97-1.431-1.56-3.527-2.33-6.287-2.33-1.265 0-2.437.2-3.517.61-1.082.41-2.029 1-2.845 1.77-.815.77-1.455 1.74-1.92 2.91-.466 1.16-.699 2.5-.699 4.01v30.83h-12.373v-30.83c0-3.24-.691-5.6-2.071-7.08-1.381-1.48-3.418-2.22-6.112-2.22-1.764 0-3.418.41-4.965 1.25-1.546.83-2.985 1.97-4.315 3.42v35.46z"/><path d="m868.325 1116.32v70.17h-12.324v-70.17z"/><path d="m887.085 1176.58v-8.31c0-.63.166-1.21.498-1.73s.881-.97 1.647-1.34l18.11-8.83c1.464-.69 3.176-1.26 5.14-1.7-.966-.22-1.871-.47-2.72-.73-.847-.27-1.655-.6-2.42-.97l-18.11-8.79c-.766-.37-1.315-.82-1.647-1.34-.333-.52-.498-1.1-.498-1.73v-8.31l39.515 19.51v4.72z"/></g><path d="m1205.49 1202.87c91.62 0 165.88-70.29 165.88-157 0-86.707-74.26-156.998-165.88-156.998-91.61 0-165.88 70.291-165.88 156.998 0 86.71 74.27 157 165.88 157z" fill="#fff"/><path d="m1117.8 1046.13 47.94-23.66v10.08c0 .76-.21 1.46-.61 2.09s-1.07 1.18-2 1.64l-21.97 10.65c-.93.46-1.9.85-2.93 1.17-1.03.33-2.13.63-3.3.89 1.17.27 2.27.57 3.3.89 1.03.33 2 .72 2.93 1.17l21.97 10.72c.93.46 1.6 1 2 1.63s.61 1.33.61 2.09v10.09l-47.94-23.72z" fill="#91b3fa"/><path d="m1192.79 1087.78c-.36.88-.83 1.64-1.39 2.29s-1.21 1.19-1.94 1.63c-.72.44-1.49.78-2.3 1-.8.24-1.59.35-2.36.35h-6.29l35.35-85.59c.68-1.61 1.67-2.84 2.96-3.7s2.85-1.29 4.66-1.29h6.36z" fill="#91b3fa"/><path d="m1240.31 1075.58v-10.09c0-.76.2-1.46.6-2.09.41-.63 1.07-1.17 2-1.63l21.98-10.72c1.77-.83 3.85-1.52 6.23-2.06-1.17-.26-2.27-.56-3.3-.89-1.03-.32-2.01-.71-2.93-1.17l-21.98-10.65c-.93-.46-1.59-1.01-2-1.64-.4-.63-.6-1.33-.6-2.09v-10.08l47.94 23.66v5.73z" fill="#91b3fa"/><g opacity=".64"><path d="m1951.1 1136.84c-.49 0-.97-.18-1.34-.54-.73-.7-.71-1.83.03-2.51 1.11-1.03 2.2-2.07 3.28-3.12.72-.7 1.91-.73 2.65-.04.75.68.77 1.81.05 2.51-1.1 1.08-2.22 2.14-3.35 3.19-.37.34-.84.51-1.32.51z" fill="url(#P)"/><path d="m1833.85 1183.69c-1.02 0-1.86-.77-1.88-1.73-.03-.99.79-1.8 1.83-1.83 3.04-.06 6.14-.21 9.19-.44 1.03-.07 1.94.65 2.02 1.63.09.98-.69 1.84-1.72 1.92-3.13.23-6.29.38-9.4.45-.01 0-.03 0-.04 0zm-9.31-.02c-.02 0-.04 0-.06 0-3.12-.09-6.28-.26-9.39-.5-1.04-.09-1.81-.95-1.72-1.93.08-.97.98-1.7 2.03-1.62 3.04.24 6.13.41 9.19.49 1.04.03 1.85.85 1.82 1.83-.03.97-.86 1.73-1.87 1.73zm27.85-1.35c-.93 0-1.74-.65-1.86-1.55-.14-.97.59-1.87 1.62-2 3.02-.38 6.08-.84 9.08-1.38 1.02-.18 2.01.46 2.2 1.42.19.97-.48 1.9-1.5 2.08-3.08.55-6.2 1.02-9.29 1.41-.08.01-.17.02-.25.02zm-46.4-.11c-.08 0-.17-.01-.26-.02-3.1-.4-6.22-.89-9.28-1.45-1.02-.18-1.69-1.12-1.49-2.08.2-.97 1.18-1.6 2.2-1.41 2.99.54 6.05 1.02 9.09 1.41 1.02.14 1.74 1.04 1.6 2.01-.13.89-.93 1.54-1.86 1.54zm64.69-3.15c-.85 0-1.62-.54-1.83-1.36-.24-.95.37-1.91 1.38-2.15 2.96-.68 5.95-1.45 8.88-2.29 1-.29 2.04.24 2.34 1.18.31.94-.26 1.94-1.25 2.22-3 .86-6.05 1.65-9.08 2.35-.15.03-.29.05-.44.05zm-82.96-.18c-.15 0-.3-.02-.46-.05-3.02-.72-6.07-1.52-9.06-2.38-.99-.29-1.55-1.28-1.25-2.22s1.36-1.47 2.35-1.18c2.92.84 5.91 1.63 8.87 2.32 1.01.24 1.62 1.2 1.37 2.16-.21.81-.98 1.35-1.82 1.35zm100.77-4.91c-.77 0-1.49-.46-1.77-1.18-.35-.92.15-1.94 1.13-2.28 2.86-.98 5.74-2.05 8.57-3.18.95-.38 2.06.04 2.46.95.41.9-.04 1.94-1 2.33-2.88 1.15-5.83 2.25-8.75 3.25-.21.07-.43.11-.64.11zm-118.56-.24c-.22 0-.43-.03-.65-.11-2.93-1.01-5.87-2.11-8.74-3.27-.96-.38-1.4-1.43-.99-2.33.41-.91 1.52-1.32 2.46-.94 2.81 1.13 5.69 2.21 8.56 3.2.98.34 1.48 1.36 1.12 2.28-.28.72-1 1.17-1.76 1.17zm135.7-6.63c-.7 0-1.37-.37-1.69-1-.46-.88-.07-1.95.86-2.38 2.76-1.27 5.5-2.62 8.17-4.02.91-.47 2.05-.16 2.56.7.5.86.17 1.94-.74 2.42-2.72 1.43-5.53 2.81-8.34 4.1-.27.12-.55.18-.82.18zm-152.82-.27c-.27 0-.56-.06-.82-.18-2.8-1.3-5.61-2.69-8.33-4.14-.91-.48-1.23-1.56-.73-2.42.51-.86 1.65-1.16 2.56-.68 2.67 1.41 5.41 2.77 8.15 4.04.94.43 1.32 1.5.86 2.38-.32.63-.99 1-1.69 1zm169.1-8.26c-.63 0-1.24-.29-1.6-.83-.55-.84-.28-1.94.6-2.46 2.59-1.53 5.17-3.15 7.66-4.81.85-.57 2.03-.37 2.62.43.6.8.4 1.91-.45 2.48-2.55 1.69-5.19 3.35-7.84 4.92-.31.18-.65.27-.99.27zm-185.33-.33c-.35 0-.69-.09-1-.27-2.64-1.58-5.27-3.24-7.82-4.95-.84-.57-1.04-1.68-.44-2.48.6-.81 1.77-1 2.62-.43 2.49 1.67 5.06 3.3 7.64 4.85.88.52 1.14 1.62.59 2.45-.36.54-.97.83-1.59.83zm200.54-9.79c-.56 0-1.11-.23-1.48-.68-.64-.77-.5-1.89.32-2.5 2.41-1.79 4.79-3.67 7.08-5.57.78-.64 1.96-.57 2.65.17s.61 1.86-.17 2.51c-2.34 1.94-4.77 3.85-7.24 5.69-.34.25-.75.38-1.16.38zm-215.71-.39c-.41 0-.82-.12-1.17-.38-2.45-1.84-4.87-3.76-7.2-5.71-.78-.65-.85-1.78-.17-2.51.7-.74 1.89-.81 2.66-.16 2.28 1.91 4.65 3.79 7.05 5.59.81.61.95 1.73.3 2.5-.37.44-.92.67-1.47.67zm-13.92-11.65c-.48 0-.96-.17-1.33-.51-2.21-2.07-4.4-4.22-6.51-6.41-.7-.73-.64-1.85.12-2.52.78-.66 1.96-.6 2.66.12 2.06 2.14 4.21 4.25 6.38 6.27.73.69.74 1.82.02 2.52-.37.35-.86.53-1.34.53zm-12.52-13c-.54 0-1.08-.22-1.46-.65-1.97-2.29-3.91-4.66-5.75-7.04-.61-.8-.43-1.91.41-2.49.83-.58 2.01-.41 2.63.39 1.8 2.33 3.69 4.65 5.62 6.89.66.76.54 1.88-.26 2.5-.35.27-.77.4-1.19.4zm-10.98-14.21c-.61 0-1.21-.28-1.57-.81-1.72-2.48-3.37-5.03-4.93-7.58-.52-.85-.21-1.94.69-2.43s2.05-.2 2.57.65c1.52 2.49 3.14 4.99 4.82 7.42.56.82.32 1.93-.55 2.46-.32.2-.67.29-1.03.29zm-9.31-15.24c-.69 0-1.35-.35-1.68-.97-.67-1.24-1.32-2.49-1.96-3.75-.72-1.42-1.42-2.85-2.09-4.28-.42-.9.01-1.95.96-2.35s2.06 0 2.48.9c.66 1.4 1.34 2.8 2.04 4.19.63 1.23 1.27 2.46 1.92 3.68.47.87.11 1.94-.82 2.39-.27.13-.57.19-.85.19zm-7.57-16.08c-.76 0-1.47-.44-1.76-1.15-1.11-2.75-2.17-5.58-3.13-8.39-.32-.94.23-1.94 1.21-2.24 1-.3 2.05.21 2.37 1.14.94 2.76 1.97 5.52 3.06 8.22.38.92-.11 1.95-1.08 2.3-.22.08-.45.12-.67.12zm-5.72-16.76c-.83 0-1.59-.53-1.82-1.33-.79-2.84-1.52-5.75-2.16-8.66-.21-.96.44-1.9 1.46-2.11 1-.2 2.01.42 2.22 1.38.63 2.85 1.34 5.7 2.12 8.48.26.95-.33 1.93-1.34 2.18-.16.04-.32.06-.48.06zm-3.79-17.24c-.91 0-1.71-.63-1.86-1.51-.47-2.92-.86-5.89-1.16-8.84-.1-.97.65-1.85 1.69-1.94 1.04-.1 1.95.62 2.05 1.6.3 2.88.68 5.79 1.14 8.64.16.97-.55 1.88-1.57 2.03-.1.01-.2.02-.29.02zm-1.81-17.53c-1 0-1.83-.74-1.87-1.7-.11-2.36-.17-4.77-.17-7.16l.01-1.74c.01-.98.94-1.8 1.9-1.76 1.04.01 1.87.81 1.86 1.8l-.01 1.7c0 2.34.06 4.69.16 7.01.05.98-.76 1.81-1.79 1.85-.03 0-.06 0-.09 0z" fill="url(#Q)"/><path d="m1656 1008.64c-.04 0-.08 0-.12 0-1.04-.06-1.82-.91-1.76-1.89.11-1.5.23-2.99.37-4.48.1-.98 1-1.7 2.05-1.61 1.03.09 1.79.96 1.7 1.94-.14 1.45-.26 2.92-.36 4.38-.07.94-.9 1.66-1.88 1.66z" fill="url(#R)"/></g><g opacity=".64"><path d="m1715.31 895.061c-.53 0-1.05-.207-1.42-.612-.68-.741-.6-1.865.18-2.51 1.19-.981 2.4-1.951 3.63-2.905.8-.624 1.98-.514 2.64.244s.55 1.88-.25 2.505c-1.2.934-2.38 1.88-3.55 2.841-.36.294-.8.437-1.23.437z" fill="url(#S)"/><path d="m2003.15 1028.12c-.03 0-.07 0-.1 0-1.04-.05-1.83-.89-1.77-1.87.17-3 .26-6.02.26-8.97 0-.99.84-1.78 1.88-1.78s1.88.79 1.88 1.78c0 3.01-.09 6.1-.27 9.16-.05.95-.88 1.68-1.88 1.68zm0-18.13c-.99 0-1.82-.73-1.88-1.68-.17-2.98-.43-5.99-.78-8.94-.12-.977.63-1.857 1.66-1.965 1.01-.116 1.96.594 2.08 1.571.35 3.024.62 6.094.8 9.134.06.98-.74 1.82-1.77 1.88-.04 0-.08 0-.11 0zm-2.12-18.022c-.9 0-1.7-.615-1.85-1.485-.52-2.928-1.14-5.889-1.83-8.802-.23-.958.4-1.911 1.42-2.128 1.01-.213 2.02.384 2.24 1.344.72 2.976 1.35 6.003 1.88 8.997.17.969-.52 1.887-1.55 2.05-.1.016-.21.024-.31.024zm-4.22-17.687c-.82 0-1.57-.51-1.81-1.292-.86-2.875-1.82-5.755-2.84-8.559-.34-.928.18-1.942 1.16-2.263.97-.319 2.05.172 2.39 1.101 1.05 2.866 2.03 5.807 2.91 8.744.28.946-.29 1.93-1.29 2.2-.17.046-.35.069-.52.069zm-6.25-17.141c-.74 0-1.44-.418-1.74-1.108-1.19-2.747-2.47-5.511-3.82-8.214-.45-.888-.05-1.949.89-2.37.95-.419 2.06-.038 2.51.849 1.38 2.761 2.69 5.584 3.9 8.39.39.91-.07 1.949-1.03 2.32-.23.091-.47.133-.71.133zm-8.19-16.396c-.67 0-1.32-.338-1.66-.933-1.49-2.612-3.09-5.227-4.74-7.771-.54-.838-.26-1.934.62-2.447.88-.516 2.04-.254 2.59.585 1.69 2.599 3.31 5.271 4.84 7.94.49.865.15 1.945-.76 2.412-.29.146-.59.214-.89.214zm-10.03-15.449c-.6 0-1.18-.268-1.55-.767-1.78-2.443-3.67-4.875-5.6-7.23-.64-.776-.49-1.894.32-2.497.83-.605 2.01-.463 2.64.311 1.98 2.408 3.91 4.893 5.74 7.391.59.808.37 1.917-.48 2.475-.33.214-.7.317-1.07.317zm-11.75-14.301c-.53 0-1.05-.207-1.42-.611-2.06-2.24-4.22-4.457-6.42-6.592-.72-.705-.7-1.831.04-2.516.74-.687 1.93-.671 2.66.033 2.24 2.183 4.45 4.45 6.55 6.738.69.742.6 1.865-.18 2.511-.36.293-.8.437-1.23.437zm-13.35-12.98c-.46 0-.91-.156-1.28-.47-2.3-2.004-4.71-3.983-7.14-5.881-.81-.624-.92-1.746-.26-2.505.65-.756 1.84-.87 2.64-.244 2.5 1.939 4.95 3.961 7.31 6.01.76.666.81 1.791.11 2.515-.37.38-.88.575-1.38.575zm-220.78-11.393c-.58 0-1.15-.252-1.52-.727-.62-.792-.44-1.905.4-2.488 2.59-1.797 5.27-3.554 7.96-5.22.87-.535 2.04-.305 2.61.518.56.823.32 1.925-.55 2.462-2.64 1.63-5.26 3.349-7.79 5.109-.34.234-.73.346-1.11.346zm205.98-.111c-.39 0-.78-.112-1.11-.344-2.53-1.756-5.15-3.472-7.79-5.1-.87-.537-1.12-1.639-.55-2.463.56-.824 1.72-1.056 2.6-.519 2.7 1.663 5.38 3.418 7.96 5.211.84.582 1.02 1.695.41 2.488-.37.475-.94.727-1.52.727zm-189.94-9.798c-.65 0-1.28-.319-1.63-.891-.52-.851-.21-1.939.69-2.43 2.79-1.523 5.65-2.99 8.52-4.361.92-.445 2.05-.093 2.52.784s.1 1.948-.83 2.391c-2.8 1.342-5.6 2.778-8.33 4.269-.3.161-.62.238-.94.238zm173.89-.096c-.31 0-.64-.077-.93-.237-2.73-1.485-5.53-2.917-8.34-4.26-.93-.442-1.3-1.513-.83-2.389.46-.877 1.59-1.232 2.52-.788 2.87 1.371 5.74 2.835 8.52 4.352.9.491 1.21 1.579.69 2.43-.34.573-.98.892-1.63.892zm-156.79-8.097c-.73 0-1.42-.397-1.73-1.063-.42-.9.02-1.95.97-2.346 2.94-1.226 5.96-2.391 8.96-3.463.98-.345 2.06.12 2.43 1.038.36.921-.13 1.947-1.1 2.293-2.95 1.049-5.9 2.19-8.78 3.39-.25.102-.5.151-.75.151zm139.69-.069c-.25 0-.5-.049-.75-.15-2.87-1.19-5.83-2.324-8.78-3.371-.98-.344-1.47-1.369-1.11-2.289.37-.92 1.44-1.389 2.42-1.044 3.02 1.069 6.04 2.228 8.98 3.444.95.394 1.38 1.443.97 2.343-.31.668-1 1.067-1.73 1.067zm-121.77-6.318c-.79 0-1.54-.487-1.79-1.246-.31-.938.24-1.937 1.23-2.231 3.06-.914 6.2-1.759 9.32-2.511 1-.241 2.03.332 2.28 1.285.26.952-.35 1.921-1.35 2.164-3.05.736-6.12 1.562-9.12 2.456-.19.056-.38.083-.57.083zm103.83-.029c-.19 0-.38-.027-.56-.082-3-.887-6.06-1.708-9.13-2.443-1-.241-1.61-1.209-1.36-2.161.26-.956 1.28-1.529 2.29-1.288 3.13.75 6.26 1.589 9.32 2.494.99.294 1.54 1.292 1.23 2.231-.25.761-.99 1.249-1.79 1.249zm-85.26-4.451c-.88 0-1.67-.588-1.84-1.436-.2-.964.46-1.9 1.48-2.089 3.16-.588 6.37-1.099 9.55-1.519 1.03-.145 1.98.543 2.12 1.516.15.973-.57 1.873-1.6 2.008-3.11.411-6.26.911-9.35 1.485-.12.024-.24.035-.36.035zm66.69-.004c-.12 0-.24-.011-.36-.034-3.1-.572-6.24-1.071-9.36-1.481-1.02-.135-1.74-1.034-1.6-2.007.14-.974 1.1-1.66 2.12-1.517 3.18.418 6.4.927 9.56 1.512 1.02.189 1.68 1.124 1.48 2.088-.17.849-.96 1.439-1.84 1.439zm-18.98-2.499c-.05 0-.11-.002-.16-.006-3.13-.248-6.32-.415-9.47-.498-1.04-.027-1.85-.846-1.83-1.828.03-.983.97-1.768 1.94-1.73 3.22.084 6.47.256 9.67.509 1.04.081 1.81.941 1.72 1.921-.08.929-.9 1.632-1.87 1.632zm-28.73-.004c-.97 0-1.79-.703-1.88-1.632-.08-.98.69-1.839 1.72-1.921 3.21-.253 6.47-.423 9.67-.506.98-.038 1.91.746 1.94 1.73.02.983-.8 1.8-1.83 1.827-3.14.082-6.33.249-9.47.495-.05.006-.1.007-.15.007z" fill="url(#T)"/><path d="m2001.76 1041.69c-.09 0-.18-.01-.26-.02-1.03-.14-1.75-1.04-1.6-2.01.21-1.45.4-2.91.57-4.36.12-.98 1.04-1.68 2.08-1.57 1.03.11 1.78.99 1.66 1.96-.17 1.49-.37 2.98-.59 4.46-.13.89-.94 1.54-1.86 1.54z" fill="url(#U)"/></g><path d="m1978.99 1055.58c.37-.91.1-1.95-.69-2.58l-22.47-18.01c1.93-12.88 1.69-26.15-.9-39.309l21.58-18.917c.76-.663.99-1.708.57-2.602l-14.23-30.586c-.41-.894-1.38-1.439-2.41-1.359l-29.32 2.303c-8.51-10.701-18.69-19.82-30.03-27.173l1.13-27.843c.04-.975-.58-1.867-1.54-2.221l-32.92-12.103c-.96-.354-2.05-.091-2.72.655l-19.02 21.264c-13.61-1.822-27.63-1.603-41.54.857l-19.99-20.432c-.7-.717-1.8-.933-2.75-.54l-32.31 13.471c-.95.393-1.52 1.311-1.44 2.284l2.43 27.75c-11.3 8.05-20.94 17.688-28.71 28.423l-29.41-1.072c-1.03-.038-1.98.548-2.35 1.458l-12.79 31.153c-.37.91-.09 1.945.69 2.576l22.47 18.003c-1.93 12.89-1.69 26.15.91 39.32l-21.59 18.91c-.76.67-.99 1.71-.57 2.6l14.23 30.59c.42.9 1.38 1.44 2.41 1.36l29.32-2.3c8.51 10.7 18.69 19.82 30.03 27.17l-1.13 27.84c-.04.98.58 1.87 1.54 2.22l32.92 12.11c.96.35 2.05.09 2.72-.66l19.02-21.26c13.61 1.82 27.63 1.6 41.54-.86l19.99 20.43c.7.72 1.8.94 2.75.54l32.31-13.47c.95-.39 1.52-1.31 1.44-2.28l-2.43-27.75c11.3-8.05 20.94-17.69 28.71-28.42l29.41 1.07c1.03.04 1.98-.55 2.35-1.46z" fill="url(#V)"/><path d="m1828.11 1049.46c-9.9 0-19.7-4.16-26.25-12.11-11.26-13.68-8.67-33.48 5.78-44.146 7-5.163 15.72-7.439 24.52-6.408 8.81 1.033 16.67 5.252 22.13 11.879 5.45 6.625 7.86 14.865 6.77 23.205s-5.55 15.78-12.55 20.94c-6.06 4.47-13.25 6.64-20.4 6.64zm-.09-59.348c-6.53 0-12.84 2.04-18.06 5.898-12.82 9.46-15.12 27.02-5.13 39.15 9.99 12.14 28.55 14.31 41.37 4.85 6.21-4.58 10.16-11.17 11.13-18.57.96-7.39-1.17-14.7-6.01-20.58-4.84-5.874-11.81-9.615-19.62-10.532-1.23-.144-2.46-.216-3.68-.216z" fill="#91b3fa"/><path d="m1827.48 1100.23c-33.49 0-65.48-18.38-79.82-49.2-5.02-10.77-7.39-22.03-7.39-33.11.01-31.692 19.42-61.968 51.99-75.54 21.29-8.874 44.95-9.369 66.63-1.397 21.69 7.973 38.79 23.46 48.17 43.608 2.5 5.377 4.39 11 5.64 16.719.02.12.03.24.03.35.01.83-.61 1.57-1.5 1.75-1.01.2-2.01-.43-2.22-1.39-1.19-5.466-3-10.848-5.4-15.995v-.001c-.53-1.147-1.09-2.28-1.68-3.394 0-.005 0-.008 0-.012-.02-.041-.05-.081-.07-.123 0-.008-.01-.018-.01-.026 0-.001 0-.004 0-.006s-.01-.004-.01-.005c0-.01-.01-.018-.01-.028-9.27-17.525-24.86-30.984-44.3-38.13-20.75-7.63-43.39-7.153-63.76 1.336-31.15 12.986-49.74 41.956-49.74 72.284 0 10.6 2.27 21.37 7.07 31.68 18.52 39.79 67.8 57.91 109.84 40.39 13.82-5.77 25.72-14.95 34.4-26.55.6-.81 1.77-1 2.62-.43.52.35.79.9.79 1.46 0 .35-.11.71-.34 1.02-9.08 12.14-21.51 21.73-35.95 27.75-11.39 4.75-23.27 6.99-34.98 6.99z" fill="#91b3fa"/><g opacity=".64"><path d="m1699.24 930.91c-.49 0-.98-.183-1.35-.545-.72-.708-.7-1.834.05-2.516 1.11-1.016 2.21-2.05 3.28-3.097.72-.707 1.91-.722 2.66-.041.74.684.76 1.811.04 2.517-1.1 1.076-2.23 2.138-3.37 3.182-.37.333-.84.5-1.31.5z" fill="url(#W)"/><path d="m1602.83 967.782c-2.55 0-5.14-.066-7.67-.198-1.04-.054-1.83-.893-1.78-1.874.06-.982.93-1.733 1.98-1.68 3.1.16 6.24.223 9.38.18h.03c1.02 0 1.86.78 1.88 1.754.01.983-.82 1.791-1.86 1.805-.65.009-1.31.013-1.96.013zm11.44-.448c-.97 0-1.79-.703-1.88-1.632-.08-.979.69-1.839 1.72-1.921 3.11-.244 6.24-.594 9.32-1.04 1.03-.153 1.98.519 2.14 1.489.16.972-.55 1.88-1.57 2.028-3.16.459-6.38.819-9.58 1.07-.05.004-.1.006-.15.006zm-28.48-.547c-.08 0-.16-.004-.24-.014-3.17-.371-6.38-.852-9.51-1.427-1.02-.188-1.69-1.121-1.49-2.086.2-.963 1.18-1.593 2.2-1.409 3.06.561 6.17 1.029 9.27 1.391 1.03.121 1.76 1.009 1.63 1.985-.12.901-.93 1.56-1.86 1.56zm47.27-2.176c-.86 0-1.64-.562-1.83-1.389-.23-.96.4-1.911 1.42-2.127 3.04-.647 6.09-1.401 9.07-2.243 1.01-.282 2.05.257 2.34 1.198.3.942-.27 1.933-1.26 2.213-3.06.864-6.2 1.639-9.33 2.304-.14.03-.28.044-.41.044zm-65.93-1.244c-.16 0-.32-.021-.48-.061-3.09-.774-6.19-1.662-9.23-2.639-.98-.316-1.51-1.327-1.17-2.258.33-.928 1.4-1.428 2.38-1.112 2.96.95 5.98 1.815 8.98 2.569 1 .252 1.6 1.226 1.34 2.176-.23.798-.99 1.325-1.82 1.325zm84.15-3.892c-.76 0-1.48-.442-1.76-1.157-.37-.92.13-1.946 1.1-2.29 2.91-1.029 5.83-2.171 8.67-3.392.95-.408 2.06-.009 2.49.886.43.894.01 1.95-.93 2.355-2.93 1.255-5.92 2.427-8.91 3.485-.22.076-.44.113-.66.113zm-102.15-1.895c-.24 0-.49-.044-.72-.138-2.95-1.165-5.89-2.443-8.76-3.799-.93-.439-1.31-1.508-.84-2.386.46-.88 1.59-1.238 2.52-.797 2.79 1.32 5.66 2.565 8.53 3.698.96.379 1.41 1.421 1.01 2.328-.3.682-1 1.094-1.74 1.094zm119.47-5.535c-.67 0-1.32-.339-1.66-.937-.49-.867-.15-1.945.77-2.41 2.74-1.393 5.47-2.896 8.1-4.464.88-.526 2.04-.272 2.6.559.55.833.28 1.931-.59 2.454-2.71 1.612-5.52 3.155-8.33 4.586-.29.144-.59.212-.89.212zm-136.47-2.511c-.32 0-.65-.08-.95-.246-2.76-1.539-5.5-3.185-8.13-4.892-.86-.555-1.08-1.663-.49-2.474.58-.81 1.75-1.019 2.61-.463 2.57 1.662 5.23 3.263 7.92 4.761.89.499 1.19 1.59.67 2.437-.36.563-.98.877-1.63.877zm152.56-7.061c-.58 0-1.15-.254-1.52-.732-.61-.795-.43-1.907.41-2.486 2.52-1.735 5-3.575 7.39-5.469.8-.633 1.98-.531 2.65.219.66.753.56 1.876-.24 2.508-2.45 1.946-5 3.836-7.59 5.62-.33.23-.72.34-1.1.34zm-168.24-3.1c-.41 0-.82-.125-1.16-.383-2.52-1.885-5-3.87-7.36-5.9-.76-.66-.82-1.786-.12-2.513s1.89-.78 2.65-.119c2.3 1.975 4.71 3.905 7.16 5.74.81.61.95 1.729.31 2.5-.37.443-.92.675-1.48.675zm-14.06-12.097c-.49 0-.99-.183-1.36-.548-2.21-2.183-4.37-4.47-6.42-6.798-.67-.754-.56-1.877.24-2.506.8-.63 1.98-.526 2.65.228 1.99 2.264 4.09 4.489 6.25 6.614.72.709.69 1.835-.06 2.515-.36.331-.83.495-1.3.495zm-12.17-13.809c-.59 0-1.16-.256-1.53-.737-1.87-2.445-3.67-4.991-5.38-7.566-.54-.834-.28-1.931.6-2.452.88-.522 2.04-.266 2.6.567 1.65 2.507 3.41 4.986 5.23 7.366.61.796.42 1.908-.42 2.484-.33.228-.72.338-1.1.338zm-10.06-15.259c-.68 0-1.33-.342-1.67-.942-.96-1.709-1.9-3.469-2.79-5.232-.5-.983-.98-1.967-1.45-2.954-.43-.896-.01-1.95.94-2.354.95-.406 2.06-.004 2.49.891.45.962.93 1.922 1.41 2.88.87 1.716 1.79 3.431 2.72 5.094.49.868.14 1.946-.77 2.408-.28.142-.59.209-.88.209zm-7.8-16.408c-.77 0-1.49-.444-1.77-1.162-1.11-2.844-2.13-5.757-3.03-8.658-.3-.943.27-1.933 1.27-2.211 1-.275 2.04.264 2.33 1.204.88 2.825 1.88 5.661 2.96 8.427.36.922-.14 1.946-1.11 2.287-.21.076-.44.113-.65.113zm-5.38-17.261c-.86 0-1.64-.565-1.83-1.395-.69-2.942-1.28-5.96-1.76-8.97-.16-.972.55-1.878 1.58-2.024 1.02-.152 1.98.524 2.14 1.494.46 2.931 1.04 5.868 1.71 8.731.22.96-.42 1.91-1.43 2.123-.14.028-.28.041-.41.041zm-2.82-17.791c-.97 0-1.79-.707-1.87-1.638-.25-3.009-.4-6.076-.44-9.112-.01-.983.82-1.789 1.86-1.8 1.02.013 1.89.776 1.9 1.758.04 2.957.18 5.942.43 8.87.08.98-.69 1.837-1.73 1.915-.05.005-.1.007-.15.007z" fill="url(#X)"/><path d="m1463.96 828.702c-.04 0-.08-.001-.11-.004-1.04-.057-1.83-.9-1.77-1.88.09-1.501.21-2.998.36-4.492.09-.978 1-1.692 2.04-1.609 1.04.089 1.8.956 1.7 1.934-.14 1.455-.26 2.915-.35 4.375-.06.946-.88 1.676-1.87 1.676z" fill="url(#Y)"/></g><g opacity=".64"><path d="m1511.42 737.013c-.52 0-1.04-.207-1.42-.612-.68-.742-.59-1.866.19-2.511 1.19-.983 2.41-1.95 3.65-2.9.8-.62 1.99-.5 2.64.26.65.763.53 1.884-.28 2.503-1.2.924-2.38 1.865-3.54 2.822-.36.294-.8.438-1.24.438z" fill="url(#Z)"/><path d="m1741.65 840.928c-.03 0-.05 0-.07-.001-1.04-.036-1.85-.861-1.81-1.842.06-1.576.09-3.155.09-4.735 0-1.334-.02-2.669-.07-4.004-.03-.982.79-1.803 1.82-1.833 1.08-.017 1.91.741 1.94 1.724.05 1.372.07 2.743.07 4.113 0 1.623-.03 3.243-.1 4.862-.03.961-.87 1.716-1.87 1.716zm-.59-17.695c-.95 0-1.77-.686-1.87-1.604-.3-2.878-.71-5.792-1.22-8.661-.17-.969.52-1.887 1.54-2.05 1.04-.162 2 .491 2.17 1.459.52 2.949.94 5.942 1.26 8.9.1.978-.66 1.849-1.69 1.946-.06.007-.13.01-.19.01zm-3.1-17.459c-.85 0-1.62-.549-1.83-1.366-.71-2.819-1.53-5.654-2.45-8.426-.31-.938.25-1.936 1.24-2.228.99-.296 2.04.232 2.35 1.17.94 2.848 1.79 5.761 2.52 8.656.24.956-.38 1.916-1.39 2.145-.15.033-.3.049-.44.049zm-5.56-16.905c-.76 0-1.47-.432-1.76-1.138-1.1-2.693-2.32-5.397-3.62-8.04-.44-.891-.03-1.95.91-2.365.94-.42 2.06-.028 2.5.861 1.34 2.715 2.59 5.494 3.72 8.26.37.916-.11 1.947-1.08 2.301-.22.082-.45.121-.67.121zm-7.9-16.053c-.66 0-1.31-.333-1.65-.922-1.49-2.562-3.07-5.091-4.71-7.513-.56-.829-.3-1.929.57-2.458.88-.53 2.04-.289 2.6.539 1.68 2.489 3.31 5.086 4.84 7.716.5.862.17 1.944-.74 2.418-.29.149-.6.22-.91.22zm-10.08-14.911c-.57 0-1.14-.249-1.51-.721-1.83-2.341-3.76-4.644-5.73-6.845-.68-.748-.58-1.871.21-2.508.79-.634 1.98-.546 2.65.204 2.03 2.262 4.01 4.628 5.89 7.032.62.791.44 1.905-.39 2.489-.34.235-.73.349-1.12.349zm-12.1-13.487c-.49 0-.98-.18-1.35-.538-2.14-2.078-4.38-4.112-6.66-6.047-.77-.655-.84-1.781-.14-2.513.69-.731 1.88-.79 2.65-.137 2.34 1.988 4.64 4.078 6.84 6.213.73.705.71 1.831-.03 2.516-.37.338-.84.506-1.31.506zm-13.93-11.814c-.41 0-.81-.124-1.16-.377-2.41-1.783-4.92-3.511-7.46-5.142-.86-.551-1.08-1.658-.5-2.472.58-.813 1.75-1.025 2.61-.474 2.61 1.675 5.19 3.452 7.67 5.283.82.606.96 1.724.32 2.498-.37.449-.92.684-1.48.684zm-165.91-3.799c-.59 0-1.17-.262-1.54-.754-.6-.803-.39-1.913.46-2.48 2.56-1.71 5.23-3.366 7.92-4.923.89-.511 2.05-.246 2.59.594.54.839.26 1.933-.63 2.445-2.63 1.516-5.22 3.128-7.72 4.793-.33.22-.7.325-1.08.325zm150.43-6.132c-.32 0-.65-.079-.95-.243-2.64-1.461-5.37-2.858-8.12-4.148-.93-.437-1.31-1.506-.85-2.387.46-.879 1.59-1.239 2.52-.801 2.82 1.327 5.63 2.761 8.35 4.262.9.496 1.2 1.586.67 2.434-.35.567-.98.883-1.62.883zm-134.45-3.076c-.68 0-1.34-.348-1.67-.958-.48-.871-.12-1.946.79-2.4 1.42-.696 2.85-1.373 4.3-2.029 1.41-.643 2.83-1.26 4.26-1.852.95-.397 2.06.015 2.47.913.42.9-.01 1.95-.96 2.345-1.39.577-2.77 1.178-4.15 1.803-1.41.64-2.8 1.299-4.18 1.978-.28.136-.57.2-.86.2zm117.7-4.802c-.24 0-.49-.044-.72-.138-2.83-1.113-5.73-2.152-8.64-3.085-.98-.316-1.51-1.327-1.17-2.257.33-.929 1.4-1.427 2.38-1.112 2.99.958 5.97 2.024 8.87 3.169.96.378 1.42 1.42 1.02 2.327-.3.683-1 1.096-1.74 1.096zm-100.58-2.32c-.77 0-1.49-.451-1.77-1.175-.35-.924.16-1.944 1.13-2.279 2.97-1.015 6-1.947 9.02-2.77 1-.277 2.04.274 2.33 1.218.29.945-.29 1.93-1.29 2.202-2.94.802-5.89 1.709-8.78 2.697-.21.073-.42.107-.64.107zm82.87-3.374c-.16 0-.32-.019-.48-.059-2.96-.747-5.99-1.408-9-1.966-1.02-.189-1.68-1.124-1.48-2.088.2-.965 1.16-1.595 2.21-1.405 3.08.574 6.19 1.253 9.23 2.02 1.01.252 1.6 1.228 1.34 2.177-.23.796-.99 1.321-1.82 1.321zm-64.89-1.518c-.86 0-1.65-.57-1.83-1.405-.22-.96.42-1.907 1.44-2.114 3.08-.627 6.22-1.163 9.33-1.593 1.02-.139 1.98.533 2.13 1.505.15.973-.56 1.876-1.59 2.018-3.03.417-6.08.938-9.08 1.549-.13.027-.27.04-.4.04zm46.54-1.883c-.08 0-.16-.004-.24-.013-3.05-.366-6.14-.638-9.19-.808-1.04-.057-1.83-.9-1.77-1.88.07-.981.96-1.74 1.99-1.672 3.14.174 6.31.454 9.44.829 1.03.124 1.76 1.014 1.63 1.989-.12.899-.93 1.555-1.86 1.555zm-28.03-.663c-.97 0-1.79-.71-1.87-1.644-.08-.98.7-1.835 1.73-1.91 3.14-.227 6.33-.357 9.48-.382h.01c1.04 0 1.87.786 1.88 1.763.01.983-.82 1.787-1.86 1.795-3.07.026-6.17.151-9.22.372-.05.004-.1.006-.15.006z" fill="url(#aa)"/><path d="m1740.41 854.224c-.08 0-.17-.005-.26-.016-1.02-.135-1.74-1.034-1.6-2.007.21-1.447.4-2.898.56-4.355.11-.976 1-1.681 2.07-1.584 1.03.103 1.78.979 1.67 1.956-.17 1.494-.36 2.985-.58 4.471-.13.89-.93 1.535-1.86 1.535z" fill="url(#ab)"/></g><path d="m1722.21 864.97c.3-.727.08-1.554-.55-2.059l-17.96-14.393c1.54-10.299 1.35-20.905-.73-31.427l17.26-15.122c.61-.531.79-1.366.46-2.081l-11.38-24.45c-.33-.715-1.11-1.151-1.93-1.087l-23.44 1.841c-6.8-8.554-14.94-15.843-24-21.722l.9-22.257c.03-.78-.46-1.493-1.23-1.775l-26.31-9.675c-.77-.283-1.65-.073-2.18.523l-15.21 16.998c-10.88-1.456-22.08-1.281-33.2.685l-15.98-16.333c-.56-.573-1.44-.747-2.2-.432l-25.83 10.768c-.75.315-1.22 1.048-1.15 1.826l1.95 22.183c-9.04 6.435-16.74 14.14-22.95 22.722l-23.52-.857c-.82-.031-1.58.438-1.88 1.165l-10.22 24.903c-.3.728-.07 1.555.55 2.06l17.96 14.392c-1.53 10.3-1.35 20.906.73 31.428l-17.26 15.122c-.6.531-.79 1.366-.46 2.08l11.38 24.451c.33.714 1.11 1.151 1.93 1.086l23.44-1.841c6.8 8.554 14.94 15.843 24.01 21.722l-.91 22.257c-.03.78.46 1.493 1.23 1.776l26.32 9.675c.76.282 1.64.072 2.17-.523l15.21-16.998c10.88 1.456 22.09 1.281 33.2-.686l15.98 16.334c.56.573 1.44.746 2.2.431l25.83-10.768c.76-.314 1.22-1.047 1.15-1.826l-1.94-22.182c9.03-6.435 16.74-14.141 22.95-22.722l23.51.857c.83.03 1.58-.438 1.88-1.166z" fill="url(#ac)"/><path d="m1601.63 860.449c-1.12 0-2.25-.065-3.37-.197-7.14-.838-13.52-4.258-17.94-9.631s-6.37-12.054-5.49-18.814c.89-6.76 4.5-12.789 10.17-16.978 5.68-4.187 12.73-6.034 19.89-5.195 7.14.837 13.51 4.257 17.93 9.63 9.14 11.091 7.04 27.146-4.68 35.791-4.78 3.528-10.55 5.394-16.51 5.394zm-.11-47.454c-5.13 0-10.09 1.606-14.2 4.641-4.89 3.603-8 8.791-8.76 14.609-.76 5.816.92 11.565 4.73 16.188 3.8 4.623 9.29 7.566 15.43 8.286 6.15.723 12.22-.867 17.1-4.47 4.89-3.603 8-8.791 8.76-14.608s-.92-11.566-4.72-16.189c-3.81-4.623-9.29-7.566-15.44-8.286-.97-.114-1.93-.171-2.9-.171z" fill="#91b3fa"/><path d="m1601.1 901.026c-26.92.001-52.63-14.772-64.16-39.545-4.03-8.659-5.94-17.704-5.94-26.609.01-25.475 15.61-49.808 41.78-60.716 17.11-7.133 36.13-7.531 53.56-1.123s31.18 18.854 38.71 35.049c1.86 4.002 3.31 8.171 4.3 12.407.08.342.16.685.23 1.027.03.121.04.241.04.359 0 .827-.61 1.569-1.5 1.742-1.01.201-2.01-.423-2.22-1.385-.94-4.343-2.39-8.622-4.29-12.717-6.73-14.463-18.7-25.768-33.89-32.09-.9-.376-1.81-.734-2.74-1.075-16.49-6.063-34.49-5.686-50.68 1.062-24.76 10.323-39.54 33.349-39.54 57.455 0 8.427 1.81 16.987 5.62 25.181 14.72 31.634 53.89 46.032 87.31 32.104 10.99-4.581 20.44-11.878 27.34-21.103.6-.802 1.78-.994 2.62-.425.52.347.8.897.8 1.455 0 .356-.11.714-.35 1.026-7.29 9.751-17.28 17.464-28.89 22.304-9.15 3.811-18.71 5.616-28.11 5.617z" fill="#91b3fa"/></svg>