<svg fill="none" height="2500" viewBox="0 0 2500 2500" width="2500" xmlns="http://www.w3.org/2000/svg"><path d="m551.552 1836.9s-253.835-637.93-71.167-779.98c122.096-94.952 251.512 114.35 405.979 3.63 137.516-98.582-54.207-346.915 175.246-411.879 241.18-68.283 438.76 484.699 641.13 408.249 245.56-92.782 489.82 95.56 278.73 781.2z" fill="#d4e8ff"/><path d="m352.945 1679.86c-4.261-11.54-8.477-23.5-12.53-35.54l9.99-2.63c4.027 11.97 8.215 23.85 12.449 35.31zm1787.155-14.9-10.35-1.13c1.72-12.29 3.35-24.66 4.85-36.78l10.36 1c-1.5 12.16-3.14 24.58-4.86 36.91zm-1811.192-56.45c-3.648-11.9-7.185-24.02-10.515-36.03l10.123-2.2c3.31 11.94 6.826 23.99 10.452 35.82zm1820.322-17.42-10.38-.87c1.32-12.33 2.54-24.74 3.63-36.88l10.39.73c-1.09 12.18-2.32 24.64-3.64 37.02zm-1840.36-54.86c-3.01-12.13-5.874-24.39-8.513-36.45l10.232-1.75c2.622 11.99 5.469 24.17 8.46 36.22zm1846.99-19.23-10.4-.58c.88-12.33 1.66-24.76 2.3-36.96l10.41.43c-.64 12.25-1.42 24.73-2.31 37.11zm-1862.972-53.84c-2.318-12.28-4.464-24.66-6.377-36.8l10.322-1.27c1.901 12.06 4.033 24.36 6.335 36.55zm1866.872-20.41-10.42-.27c.41-12.38.69-24.82.84-36.99l10.42.09c-.15 12.23-.43 24.73-.84 37.17zm-1878.48-53.33c-1.554-12.39-2.906-24.87-4.02-37.06l10.388-.74c1.106 12.1 2.448 24.48 3.99 36.79zm1868.94-20.93c-.12-12.39-.39-24.84-.79-36.99l10.42-.27c.4 12.22.67 24.72.79 37.18zm-1875.692-53.29c-.691-12.47-1.15-24.99-1.363-37.22l10.421-.14c.211 12.12.666 24.54 1.351 36.91zm1873.222-20.65c-.71-12.37-1.59-24.79-2.61-36.9l10.39-.69c1.03 12.19 1.91 24.67 2.63 37.12zm-1864.065-53.63-10.42-.19c.29-12.51.85-25.03 1.664-37.23l10.405.54c-.808 12.08-1.362 24.49-1.649 36.88zm1857.835-20.1c-1.39-12.38-2.97-24.73-4.68-36.73l10.34-1.16c1.73 12.08 3.31 24.52 4.71 36.98zm-1852.882-53.55-10.37-.92c1.416-12.46 3.142-24.91 5.13-37.01l10.314 1.32c-1.967 11.97-3.674 24.28-5.074 36.61zm1842.362-19.77c-2.16-12.29-4.55-24.54-7.07-36.4l10.24-1.71c2.55 11.96 4.95 24.3 7.13 36.69zm-1232.608-1.3c-14.482-2.02-24.957-7.85-39.467-17.91l6.587-7.14c12.712 8.8 21.893 14.07 33.99 15.89zm36.16-21.92-9.282-4.19c4.771-8.26 8.988-19.72 12.536-34.06l10.181 1.97c-3.79 15.33-8.185 27.19-13.435 36.28zm-106.215-22.41c-8.303-8.17-17.175-17.58-27.125-28.76l8.19-5.69c9.809 11.02 18.54 20.27 26.69 28.3zm-527.664-7.55-10.232-1.76c2.7-12.3 5.755-24.56 9.08-36.44l10.118 2.21c-3.283 11.73-6.3 23.84-8.966 35.99zm1814.827-19.39c-3.08-12.16-6.41-24.23-9.89-35.85l10.07-2.35c3.52 11.73 6.88 23.91 9.99 36.19zm-1160.5-24.01-10.337-1.17c1.601-11 3.035-23.04 4.385-36.82l10.383.8c-1.361 13.9-2.811 26.07-4.431 37.19zm-179.314-7.49c-8.472-10.11-17.259-20.8-24.831-30.02l8.437-5.41c7.557 9.21 16.326 19.87 24.77 29.95zm763.034-.75c-8.12 0-16.08-2.15-23.67-6.37l5.56-7.8c11.4 6.36 22.61 6.38 34.72 1.31l4.49 8.31c-7.17 3.02-14.26 4.55-21.1 4.55zm-1217.995-19.85-9.967-2.7c4.141-11.97 8.684-23.87 13.504-35.379l9.774 3.198c-4.75 11.343-9.228 23.081-13.311 34.881zm1273.175-8.78-7.66-6.25c7.9-7.57 16.37-16.9 25.9-28.532l8.44 5.402c-9.77 11.93-18.5 21.54-26.68 29.38zm-108.49-6.34c-6.74-9.196-13.42-20.028-20.43-33.111l9.42-3.941c6.81 12.71 13.27 23.191 19.76 32.042zm608.68-4.08c-4.19-11.934-8.67-23.684-13.31-34.922l9.79-3.157c4.69 11.376 9.23 23.268 13.48 35.349zm-1367.934-20.258c-9.536-11.519-17.482-20.976-25.009-29.76l8.309-5.561c7.562 8.826 15.54 18.321 25.111 29.882zm236.412-6.847-10.401-.595c.79-10.794 1.594-22.924 2.457-37.087l10.407.496c-.865 14.196-1.671 26.359-2.463 37.186zm-612.91-22.678-9.535-3.72c5.721-11.454 11.818-22.701 18.297-33.699l9.242 4.259c-6.375 10.821-12.373 21.888-18.004 33.16zm1294.802-.002-8.71-5.062c7.4-9.953 15.05-20.498 22.8-31.151l8.76 4.98c-7.76 10.68-15.42 21.235-22.85 31.233zm-196.26-13.624c-4.72-10.467-9.6-21.886-14.91-34.91l9.8-3.126c5.28 12.927 10.12 24.253 14.79 34.624zm617.25-5.746c-5.61-11.537-11.53-22.744-17.62-33.309l9.29-4.18c6.19 10.744 12.21 22.134 17.9 33.855zm-1390.035-10.054c-9.457-10.376-18.26-19.611-26.911-28.233l7.797-6.113c8.762 8.732 17.669 18.076 27.23 28.567zm291.785-22.244-10.409-.464c.702-12.307 1.4-24.621 2.144-37.152l10.408.483c-.744 12.524-1.442 24.832-2.143 37.133zm722.96-10.679-8.69-5.08c8.71-11.646 16.5-21.721 23.81-30.799l8.49 5.344c-7.24 8.99-14.97 18.978-23.61 30.535zm-1301.829-2.6-8.784-4.958c8.19-11.338 16.634-21.577 25.099-30.434l7.962 5.944c-8.168 8.546-16.335 18.453-24.277 29.448zm1031.039-18.742c-4.78-12.38-9.46-24.768-13.42-35.253l9.89-2.915c3.95 10.47 8.63 22.838 13.4 35.192zm-799.522-.645c-10.652-9.167-21.126-17.266-31.131-24.07l6.356-7.301c10.323 7.021 21.105 15.355 32.046 24.77zm1407.742-.394c-7.46-10.772-15.29-20.96-23.27-30.28l8.31-5.557c8.18 9.559 16.21 19.997 23.85 31.023zm-1585.75-34.73-6.321-7.325c12.446-8.392 25.4-14.444 38.501-17.988l3.05 8.81c-11.917 3.222-23.77 8.775-35.23 16.503zm1297.07-2.818-8.1-5.8c9.77-10.66 19.04-19.833 28.31-28.042l7.38 6.511c-9.02 7.98-18.05 16.921-27.59 27.331zm-767.232-3.622-10.404-.548c.903-13.391 1.799-25.551 2.739-37.176l10.396.657c-.938 11.588-1.831 23.713-2.731 37.067zm-417.419-1.929c-13.005-5.72-25.797-9.372-38.02-10.852l1.415-9.127c13.349 1.617 27.227 5.564 41.249 11.732zm1423.251-14.892c-10.03-9.087-20.42-17.107-30.88-23.838l6.14-7.446c10.92 7.034 21.76 15.395 32.2 24.85zm-584.85-11.475c-5.19-13.707-9.46-24.883-13.45-35.172l9.86-2.987c4 10.312 8.28 21.508 13.47 35.237zm405.03-18.93-5.98-7.549c12.82-7.926 25.77-13.797 38.48-17.447l3.22 8.762c-11.73 3.369-23.75 8.831-35.72 16.234zm113.72-11.286c-12.91-4.813-25.98-7.791-38.84-8.853l.97-9.173c13.92 1.15 28.03 4.358 41.92 9.537zm-933.667-15.541-10.381-.815c1.299-12.926 2.712-25.409 4.2-37.103l10.357 1.03c-1.479 11.623-2.884 24.034-4.176 36.888zm387.597-24.454c-5.03-12.425-9.78-23.783-14.51-34.722l9.74-3.287c4.75 10.999 9.52 22.416 14.58 34.902zm-378.115-49.167-10.315-1.318c2.108-12.898 4.425-25.302 6.887-36.867l10.242 1.703c-2.434 11.438-4.727 23.711-6.814 36.482zm348.125-19.951c-5.6-11.907-11.25-23.299-16.78-33.86l9.46-3.871c5.59 10.671 11.29 22.176 16.94 34.195zm-332.46-52.581-10.112-2.233c3.635-12.864 7.642-24.981 11.912-36.015l9.86 2.98c-4.17 10.789-8.1 22.655-11.66 35.268zm297.17-14.341c-6.85-11.411-13.86-22.124-20.81-31.84l8.81-4.926c7.09 9.913 14.23 20.829 21.21 32.446zm-269.86-54.678-9.34-4.077c6.84-12.256 14.43-23.093 22.55-32.211l8.19 5.7c-7.68 8.614-14.88 18.905-21.4 30.588zm225.16-7.042c-9.1-10.091-18.5-19.03-27.93-26.568l6.99-6.833c9.84 7.871 19.63 17.177 29.09 27.657zm-174.68-47.423-5.62-7.759c12.34-6.984 25.95-11.526 40.43-13.498l1.59 9.105c-13.04 1.775-25.29 5.863-36.4 12.152zm113.86-.006c-12.14-5.785-24.78-9.74-37.59-11.755l1.83-9.07c13.89 2.187 27.59 6.466 40.71 12.716z" fill="#dce6ff"/><path d="m2206.15 1601c-86.49-14.05-72.38 112.9-195.66 112.9-112.72 0-148.78-483.46-230.79-345.26-420.43 708.5-176.29-301.3-510.66-314.13-151.19-5.8-251.93 170.91-289.082 483.78-53.853 282.85-178.746-215.73-307.274-169.37-81.686 29.46-45.566 377.18-180.203 371.8-123.2-4.92-114.013-153.77-200.5-139.72-93.118 15.13-120.931 239.83-120.931 239.83h2156.03s-27.82-224.7-120.93-239.83z" fill="#eef7ff"/><path d="m2129.56 1738.42c-79.57-6-66.59 48.21-180 48.21-103.7 0-100.85-121.49-170.24-147.31-127.79-47.55-233.14 193.1-282.68 72.32-94.1-320.48-368.54-481.2-495.15 0-49.54 120.79-165.398-94.73-282.682-72.32-72.193 13.79-66.543 147.31-170.239 147.31-113.416 0-100.432-54.21-179.998-48.21-85.666 6.46-111.253 102.41-111.253 102.41h1983.492s-25.59-95.95-111.25-102.41z" fill="#dce6ff"/><path d="m171.051 1840.83s-12.672 53.23 49.994 65.77c85.714 17.15 587.991 38.92 465.763 73.15-68.998 19.33 35.223 45.57 371.292 55.23 336.07 9.67 912.74-28.2 718.81-84.21-193.92-56.02 598.3 6.59 550.17-109.94z" fill="#cfddf9"/><path d="m2009.05 1067.53 42.83-66.94-38.52-24.537c4.61-13.872 7.24-28.128 7.97-42.384l45.1-9.931-17.16-77.552-43.4 9.558c-7.12-15.021-16.6-29.049-28.3-41.468l25.29-39.53-67.09-42.733-25.3 39.53c-15.06-4.982-30.58-7.641-46.05-8.091l-9.02-40.737-77.73 17.118 9.01 40.737c-13.85 6.908-26.8 15.836-38.36 26.682l-38.52-24.534-42.84 66.942 38.53 24.534c-5.38 16.181-8.06 32.884-8.18 49.5l-43.4 9.557 17.16 77.549 45.1-9.93c6.68 12.63 15.07 24.45 25.11 35.1l-25.3 39.53 67.1 42.74 25.29-39.53c15.07 4.98 30.58 7.64 46.06 8.09l10.51 47.48 77.73-17.12-10.51-47.48c13.85-6.91 26.81-15.84 38.37-26.68zm-184.67-78.826c-83.17-46.28-13.37-172.334 70.09-127.159 83.16 46.279 13.37 172.335-70.09 127.159z" fill="#eb5648"/><path d="m1344.44 1680.33h-225.58v203.84h225.58z" fill="#255084"/><path d="m1344.44 1560.7h-225.58v231.51h225.58z" fill="#1d3f70"/><path d="m1577.29 1924.1h-691.277c-13.876 0-25.125-11.23-25.125-25.07s11.249-25.07 25.125-25.07h691.277c13.87 0 25.12 11.23 25.12 25.07s-11.25 25.07-25.12 25.07z" fill="#1d3f70"/><path d="m595.333 1707.98v-739.11c0-28.13 22.804-50.934 50.934-50.934h1170.763c28.13 0 50.93 22.804 50.93 50.934v739.11c0 28.13-22.8 50.94-50.93 50.94h-1170.763c-28.13 0-50.934-22.81-50.934-50.94z" fill="#255084"/><path d="m1231.65 1737.69c14.73 0 26.67-11.92 26.67-26.61 0-14.7-11.94-26.61-26.67-26.61s-26.67 11.91-26.67 26.61c0 14.69 11.94 26.61 26.67 26.61z" fill="#1d3f70"/><path d="m1818.13 967.333v203.347l-303.08 456.37-869.883-290.08v-369.637z" fill="#a9bff7"/><path d="m645.167 1336.97s175.016-159.88 352.465-62.37c177.448 97.52 209.458 293.08 447.318 273.48 244.14-20.11 81.46-345.05 373.18-377.4v480.12h-1172.963z" fill="#ce4abf"/><path d="m645.167 967.333s44.485 185.627 327.502 141.677c258.981-40.22 245.781 233.41 415.171 243.23 169.38 9.83 219.2-186.25 281.64-254.96s148.65-56.98 148.65-56.98v-72.967z" fill="#d9e4f9"/><path d="m1181.38 1376.5c-.2 0-.41-.05-.59-.16l-361.199-198.17c-.597-.33-.815-1.08-.487-1.67.328-.6 1.078-.82 1.673-.49l361.193 198.17c.6.33.82 1.08.49 1.68-.23.4-.65.64-1.08.64z" fill="#1d3f70"/><path d="m1000.78 1265.12h-13.437v13.41h13.437z" fill="#1d3f70"/><path d="m820.183 1182.74c3.126 0 5.661-2.53 5.661-5.65s-2.535-5.65-5.661-5.65c-3.127 0-5.661 2.53-5.661 5.65s2.534 5.65 5.661 5.65z" fill="#1d3f70"/><path d="m1187.04 1375.26c0 3.12-2.54 5.65-5.66 5.65-3.13 0-5.66-2.53-5.66-5.65s2.53-5.65 5.66-5.65c3.12 0 5.66 2.53 5.66 5.65z" fill="#1d3f70"/><path d="m1451.67 1541.07h-13.44v13.41h13.44z" fill="#1d3f70"/><path d="m1207.09 1568.91c-.64 0-1.18-.49-1.23-1.13-.06-.68.45-1.27 1.13-1.33l483.29-39.83c.71-.06 1.28.45 1.33 1.13.06.68-.44 1.27-1.12 1.33l-483.3 39.83c-.04 0-.07 0-.1 0z" fill="#1d3f70"/><path d="m1212.75 1567.68c0 3.12-2.54 5.65-5.66 5.65-3.13 0-5.66-2.53-5.66-5.65s2.53-5.65 5.66-5.65c3.12 0 5.66 2.53 5.66 5.65z" fill="#1d3f70"/><path d="m1696.05 1527.85c0 3.12-2.54 5.65-5.66 5.65-3.13 0-5.66-2.53-5.66-5.65s2.53-5.65 5.66-5.65c3.12 0 5.66 2.53 5.66 5.65z" fill="#1d3f70"/><path d="m1497.07 1207.52h210.68c14.39 0 26.05 11.66 26.05 26.05v114.13c0 14.38-11.66 26.05-26.05 26.05h-210.68c-14.39 0-26.05-11.66-26.05-26.05v-114.13c0-14.39 11.66-26.05 26.05-26.05z" fill="#fff"/><path d="m1697.42 1283.05v-37.92h-38v37.92z" fill="#397caa"/><path d="m1697.42 1336.14v-37.92h-38v37.92z" fill="#ff7b7b"/><path d="m1659.42 1283.05v-37.92h-38.01v37.92z" fill="#2e6999"/><path d="m1659.42 1336.14v-37.92h-38.01v37.92z" fill="#f66"/><path d="m1621.41 1283.05v-37.92h-38v37.92z" fill="#285989"/><path d="m1621.41 1336.13v-37.91h-38v37.91z" fill="#f95c58"/><path d="m1583.41 1283.05v-37.92h-38.01v37.92z" fill="#1f4777"/><path d="m1583.41 1336.13v-37.91h-38.01v37.91z" fill="#eb5648"/><path d="m1545.4 1283.05v-37.92h-38v37.92z" fill="#103663"/><path d="m1545.4 1336.13v-37.91h-38v37.91z" fill="#ce3932"/><path d="m1071.36 1136.66h-268.814c-10.958 0-19.842-8.88-19.842-19.84v-96.95c0-10.96 8.883-19.84 19.842-19.84h268.814c10.96 0 19.84 8.88 19.84 19.84v96.95c0 10.96-8.88 19.84-19.84 19.84z" fill="#667ecc"/><path d="m841.834 1043.16h-33.654v33.58h33.654z" fill="#1d3f70"/><path d="m858.661 1059.95h-33.654v33.58h33.654z" fill="#1d3f70"/><path d="m910.856 1043.16h-33.654v33.58h33.654z" fill="#1d3f70"/><path d="m927.683 1059.95h-33.654v33.58h33.654z" fill="#a9bff7"/><path d="m979.881 1043.16v16.79h-16.829v16.79h-16.829v-33.58z" fill="#a9bff7"/><path d="m979.881 1059.95h-16.829v16.79h16.829z" fill="#1d3f70"/><path d="m996.705 1059.95v33.58h-33.653v-16.79h16.829v-16.79z" fill="#a9bff7"/><path d="m1048.9 1043.16v16.79h-16.83v16.79h-16.83v-33.58z" fill="#1d3f70"/><path d="m1048.9 1059.95h-16.83v16.79h16.83z" fill="#a9bff7"/><path d="m1065.73 1059.95v33.58h-33.66v-16.79h16.83v-16.79z" fill="#1d3f70"/><path d="m989.424 1588.07h-93.476c-12.594 0-22.802-10.21-22.802-22.8v-93.15c0-12.6 10.209-22.81 22.802-22.81h93.476c12.596 0 22.806 10.21 22.806 22.81v93.15c0 12.59-10.21 22.8-22.806 22.8z" fill="#a9bff7"/><path d="m977.141 1513.95v39.1h-39.231v-39.1zm10.062-10.06h-59.356v59.22h59.356z" fill="#fff"/><path d="m957.525 1474.28h-59.356v59.22h59.356z" fill="#a523a2"/><path d="m927.847 1564.66c-.397 0-.793-.15-1.096-.46-.604-.6-.603-1.58.003-2.19l59.356-59.22c.606-.6 1.586-.6 2.189.01.604.6.603 1.58-.002 2.18l-59.356 59.22c-.303.31-.698.46-1.094.46z" fill="#eb5648"/><path d="m529.163 1145.21v-293.273c0-13.408 10.87-24.278 24.278-24.278h140.92c13.408 0 24.278 10.87 24.278 24.278v293.273c0 13.4-10.87 24.27-24.278 24.27h-140.92c-13.408 0-24.278-10.87-24.278-24.27z" fill="#667ecc"/><g fill="#fff"><path d="m692.532 1124.32-18.762-18.72c2.915-3.5 4.505-7.86 4.505-12.47 0-5.22-2.038-10.13-5.739-13.83-7.638-7.62-20.064-7.62-27.702 0-3.701 3.7-5.739 8.61-5.739 13.83s2.038 10.13 5.739 13.82c3.819 3.81 8.835 5.72 13.851 5.72 4.443 0 8.883-1.5 12.494-4.49l18.77 18.72zm-45.115-19.95c-3.008-3.01-4.665-7-4.665-11.24 0-4.25 1.657-8.24 4.665-11.24 3.106-3.1 7.188-4.65 11.268-4.65 4.081 0 8.162 1.55 11.268 4.65 3.008 3 4.665 7 4.665 11.24s-1.657 8.23-4.665 11.24c-6.213 6.19-16.323 6.19-22.536 0z"/><path d="m666.082 991.02c-6.066 0-12.132-2.304-16.75-6.911-4.475-4.465-6.94-10.402-6.94-16.717s2.465-12.252 6.94-16.717c9.236-9.214 24.264-9.214 33.5 0 4.476 4.465 6.94 10.402 6.94 16.717s-2.465 12.252-6.94 16.717c-4.618 4.608-10.684 6.911-16.75 6.911zm0-43.601c-5.131 0-10.261 1.948-14.167 5.845-3.783 3.774-5.866 8.792-5.866 14.128 0 5.337 2.083 10.354 5.866 14.128 7.812 7.793 20.522 7.793 28.333 0 3.783-3.774 5.866-8.792 5.866-14.128s-2.083-10.354-5.866-14.128c-3.905-3.895-9.036-5.845-14.166-5.845z"/><path d="m682.251 1015.22-34.939 34.85 2.583 2.59 34.939-34.86z"/><path d="m562.583 878.703 30.83 20.544-17.333-1.541c-.109-.01-.217-.014-.325-.014-1.417 0-2.72.823-3.321 2.128l-7.276 15.804zm-4.166-7.171 4.087 58.603 13.252-28.786 31.625 2.811z"/><path d="m641.6 871.532 4.086 58.604 13.252-28.787 31.626 2.812z"/><path d="m562.578 1014.4v9.29h3.658v-5.63h14.834v31.78h-5.558v3.66h14.774v-3.66h-5.559v-31.78h14.835v5.63h3.658v-9.29z"/><path d="m590.199 958.294-34.938 34.86 2.583 2.589 34.938-34.86z"/><path d="m586.75 952.158c-4.906 0-8.881 3.966-8.881 8.86 0-4.895-3.975-8.86-8.881-8.86 4.906 0 8.881-3.965 8.881-8.86 0 4.894 3.975 8.86 8.881 8.86z"/><path d="m604.2 947.028c-3.701 0-6.699 2.991-6.699 6.684 0-3.692-2.998-6.684-6.699-6.684 3.701 0 6.699-2.991 6.699-6.683 0 3.692 2.998 6.683 6.699 6.683z"/><path d="m609.236 963.583c-3.701 0-6.699 2.991-6.699 6.683 0-3.692-2.998-6.683-6.699-6.683 3.701 0 6.699-2.991 6.699-6.683 0 3.692 2.999 6.683 6.699 6.683z"/><path d="m606.241 1077.25c-1.596-1.59-4.186-1.59-5.784 0l-4.6 4.58-1.703-1.7c-1.596-1.6-4.186-1.6-5.784 0-1.327 1.32-1.536 3.32-.662 4.87l-28.945 28.84c-1.437 1.43-2.229 3.33-2.23 5.36-.002 2.03.788 3.93 2.223 5.37 1.481 1.48 3.428 2.22 5.375 2.22 1.943 0 3.887-.74 5.368-2.22l28.95-28.84c1.558.88 3.56.67 4.887-.65 1.598-1.59 1.6-4.18.004-5.77l-1.703-1.7 4.6-4.59c1.598-1.59 1.6-4.17.004-5.77zm-39.324 44.73c-1.538 1.54-4.041 1.53-5.577 0-.743-.74-1.151-1.73-1.151-2.78.001-1.05.411-2.03 1.155-2.77l28.831-28.72 5.566 5.56z"/></g><path d="m1234.95 854.542h-422.061c-12.356 0-22.372-10.016-22.372-22.372v-70.052c0-12.356 10.016-22.372 22.372-22.372h422.061c12.36 0 22.37 10.016 22.37 22.372v70.052c0 12.356-10.01 22.372-22.37 22.372z" fill="#667ecc"/><g fill="#fff"><path d="m823.478 774.39h-4.13v49.645h4.13z"/><path d="m850.992 780.135h-24.397v14.075h24.397z"/><path d="m859.992 798.374h-33.397v14.075h33.397z"/><path d="m1006.4 774.39h-4.13v49.645h4.13z"/><path d="m974.751 794.209h24.397v-14.075h-24.397z"/><path d="m965.752 812.449h33.397v-14.075h-33.397z"/><path d="m914.937 774.39h-4.13v49.645h4.13z"/><path d="m927.699 780.135h-29.655v14.075h29.655z"/><path d="m933.169 798.374h-40.595v14.075h40.595z"/><path d="m1154.26 797.147h-49.76v4.13h49.76z"/><path d="m1148.5 814.005v-29.586h-14.11v29.586z"/><path d="m1130.22 819.463v-40.501h-14.11v40.501z"/><path d="m1082.09 774.359h-49.76v4.13h49.76z"/><path d="m1073.4 811.085v-29.586h-14.1v29.586z"/><path d="m1055.12 822v-40.501h-14.11v40.501z"/><path d="m1226.43 819.935h-49.76v4.13h49.76z"/><path d="m1203.64 787.34v29.586h14.1v-29.586z"/><path d="m1185.35 776.425v40.501h14.11v-40.501z"/></g><path d="m745.313 712.729 5.401-27.742-21.297-4.127c.066-4.488-.235-8.924-.909-13.265l20.49-7.042-9.226-26.72-20.517 7.051c-2.173-3.871-4.664-7.555-7.449-11.015l14.234-16.341-21.381-18.537-14.215 16.319c-3.783-2.248-7.792-4.187-11.989-5.806l4.137-21.248-27.807-5.389-4.137 21.248c-4.499-.066-8.944.234-13.296.906l-7.058-20.442-26.782 9.204 7.068 20.469c-3.88 2.168-7.573 4.654-11.04 7.432l-16.379-14.201-18.581 21.331 16.357 14.182c-2.254 3.774-4.197 7.774-5.82 11.961l-21.297-4.127-5.401 27.742 21.297 4.127c-.066 4.488.235 8.923.908 13.265l-20.49 7.042 9.226 26.72 20.516-7.051c2.173 3.871 4.665 7.555 7.449 11.014l-14.234 16.341 21.381 18.538 14.215-16.319c3.783 2.248 7.793 4.187 11.989 5.806l-4.137 21.248 27.807 5.388 4.137-21.248c4.499.066 8.944-.234 13.296-.906l7.058 20.442 26.782-9.204-7.068-20.469c3.88-2.168 7.573-4.654 11.04-7.431l16.379 14.201 18.581-21.331-16.357-14.182c2.253-3.774 4.197-7.775 5.82-11.961zm-103.36 6.162c-51.359-10.864-36.463-87.335 15.231-78.221 51.357 10.864 36.461 87.335-15.231 78.221z" fill="#ce4abf"/><path d="m2068.07 1297.63 3.72-19.08-14.65-2.84c.05-3.09-.16-6.14-.62-9.12l14.09-4.85-6.35-18.38-14.11 4.86c-1.49-2.67-3.21-5.2-5.12-7.58l9.79-11.24-14.71-12.75-9.77 11.22c-2.6-1.54-5.36-2.88-8.25-3.99l2.85-14.61-19.13-3.71-2.84 14.61c-3.1-.04-6.16.16-9.15.63l-4.85-14.06-18.42 6.33 4.86 14.08c-2.67 1.49-5.21 3.2-7.59 5.11l-11.27-9.77-12.78 14.67 11.25 9.76c-1.55 2.59-2.88 5.34-4 8.22l-14.65-2.84-3.71 19.08 14.65 2.84c-.05 3.09.16 6.14.62 9.12l-14.09 4.85 6.34 18.38 14.11-4.86c1.5 2.67 3.21 5.2 5.13 7.58l-9.79 11.24 14.7 12.75 9.78-11.22c2.6 1.54 5.36 2.87 8.25 3.99l-2.85 14.61 19.13 3.71 2.84-14.62c3.09.05 6.15-.16 9.14-.62l4.86 14.06 18.42-6.33-4.86-14.08c2.67-1.49 5.21-3.2 7.59-5.11l11.27 9.77 12.77-14.67-11.25-9.76c1.55-2.59 2.89-5.34 4.01-8.22zm-71.09 4.23c-35.32-7.47-25.07-60.06 10.48-53.79 35.32 7.47 25.08 60.06-10.48 53.79z" fill="#7689d6"/><path d="m1484.48 571.692s10.31-19.486 41.2-13.469c30.9 6.017 37.9 45.248 48.26 63.16 21.95 37.944 28.3 78.131 16.6 97.321-13.01 21.313-41.29 12.719-82.65 8.557-44.14-4.441-62.35-42.836-34.46-95.215z" fill="#662948"/><path d="m1496.61 662.735c-12.24 17.606-20.64 103.855-20.95 110.56-14.22-1.16-48.4-3.948-62.98-5.137-3.87-31.627 38.63-96.094 76.99-103.472 0-.01 0-.01 0-.01 4.32-1.429 6.94-1.941 6.94-1.941z" fill="#3a72aa"/><path d="m1313.45 1137.16 61.53-.2c-.08-9.81-2.55-29.64-.51-40.82 0 0-26.58 3.21-26.58 3.21.69 5.39 2.23 17.06-6.73 19.79-11.62 3.52-24.24 2.31-31.54 11.15-1.9 2.98.29 6.88 3.83 6.87z" fill="#f99370"/><path d="m1376.76 1131.05c-.24 2.07-.81 4.09-1.85 5.91l-62.13.2c-3.02.01-5.22-2.95-4.22-5.8 2.33-6.65 10.07-16.29 38.7-17.88 0 0 10.47 1.75 26.48-1.2 0 0 4.03 10.35 3.02 18.77z" fill="#1d3f70"/><path d="m1326.91 1129.12c-.49-.01-.96-.3-1.16-.78-2.29-5.6-6.41-7.3-6.58-7.37-3.26-5.03 6.12-1.47 8.91 6.42.35.8-.3 1.75-1.17 1.73z" fill="#e8c0a6"/><path d="m1336.69 1127.91c-.54-.01-1.03-.35-1.2-.88-2.03-6.49-7.7-9.47-7.76-9.5-2.96-5.84 7.93.39 10.17 8.75.26.79-.38 1.65-1.21 1.63z" fill="#e8c0a6"/><path d="m1347.81 1126.51c-.51 0-.99-.33-1.18-.84-2.37-6.73-7.81-10.39-7.86-10.42-2.29-6.13 7.61 1.28 10.24 9.59.3.8-.35 1.69-1.2 1.67z" fill="#e8c0a6"/><path d="m1308.66 1131.26 68.17-.21c-.25 2.07-.81 4.09-1.85 5.91l-62.13.2c-3.06.02-5.27-3.04-4.19-5.9z" fill="#395b96"/><path d="m1510.2 904.322c-30.27-1.506-82.9-18.556-105.95 19.704-25.24 41.785-19.84 130.894-17.66 173.944-33.33 10.42-51.12-.4-51.12-.4-13.47-88.21-58.55-289.243 97.21-260.185 0-.006 104.6.808 104.6.808 17.21 35.715 1.33 65.755-27.08 66.129z" fill="#eb5648"/><path d="m1387.23 1137.73 61.53-.2c-.08-9.81-2.55-29.64-.51-40.82 0 0-26.58 3.22-26.58 3.22.69 5.38 2.44 17.06-6.73 19.78-11.65 3.44-24.23 2.31-31.54 11.15-1.9 2.98.29 6.88 3.83 6.87z" fill="#f99370"/><path d="m1450.61 1131.62c-.24 2.08-.81 4.09-1.85 5.92l-62.13.19c-3.02.01-5.22-2.95-4.22-5.79 2.33-6.66 10.16-16.47 38.79-18.05 0 0 10.32 2.04 26.33-.9 0 0 4.09 10.21 3.08 18.63z" fill="#1d3f70"/><path d="m1400.69 1129.69c-.49-.01-.96-.3-1.16-.78-2.29-5.6-6.4-7.3-6.58-7.37-3.26-5.03 6.12-1.47 8.91 6.42.35.8-.3 1.75-1.17 1.73z" fill="#e8c0a6"/><path d="m1410.47 1128.48c-.54 0-1.03-.35-1.19-.88-2.04-6.49-7.71-9.47-7.77-9.49-2.96-5.85 7.93.38 10.17 8.74.26.79-.38 1.65-1.21 1.63z" fill="#e8c0a6"/><path d="m1421.59 1127.08c-.51-.01-.99-.33-1.18-.84-2.37-6.73-7.81-10.39-7.86-10.42-2.29-6.13 7.61 1.28 10.24 9.59.3.8-.35 1.69-1.2 1.67z" fill="#e8c0a6"/><path d="m1382.44 1131.83 68.17-.21c-.24 2.08-.81 4.09-1.85 5.92l-62.13.19c-3.06.02-5.27-3.04-4.19-5.9z" fill="#395b96"/><path d="m1441.19 837.445-9.45 64.992c-39.23 15.063-42.37 56.096-46.3 102.283-17.55-71.542-15.42-143.708 55.75-167.275z" fill="#ce3932"/><path d="m1559.02 910.853c-33.39 16.386-72.76-5.476-95.4 39.242-18.3 39.165-8.8 114.355-4.13 148.445-33.32 10.42-51.11-.4-51.11-.4-19.12-76.15-62.82-253.118 64.64-260.445 34.89-.837 80.73-.175 111.57-1.788 0 0 15.73 54.685-25.57 74.946z" fill="#eb5648"/><path d="m1442.58 746.539c-.6-.002-1.09-.536-1.03-1.141 2.22-17.229 20.7-39.44 23.1-38.228 1.63 2.12-19.64 20.472-21.02 38.423-.05.543-.51.95-1.05.946z" fill="#23659b"/><path d="m1585.35 817.936c2.55 19.27 1.14 27.395 1.14 27.395-51.43 5.972-83.82 6.018-146.31-3.187 40.43-117.755-49.09-42.536 56.43-179.409.25.023 25.61 2.512 25.84 2.529 29.19 22.264 47.88 51.627 62.9 152.672z" fill="#3a72aa"/><path d="m1332.34 843.35 138.44 1.078-26.77-101.455-137.6-1.071z" fill="#163260"/><path d="m1332.33 842.791-.06 6.875 138.45 1.08.05-6.875z" fill="#234270"/><path d="m1441.93 742.957 4.95.038 26.21 100.95 65.7.511-.05 6.875-70.31-.547.04-6.149z" fill="#0b274f"/><path d="m1567.82 685.226c31.72 24.112 48.43 67.19 39.7 106.177-3.4 21.912-17.44 42.668-39.19 48.708-10.75 4.192-60.79 10.679-58.32-7.004.83-4.24 4.61-5.775 8.28-6.881 6.04-2.073 12.27-4.367 18.04-6.928 10.33-5.248 23.6-10.138 25.93-21.646 4.98-26.875-5.87-53.273-25.89-70.998.04.021-.1-.081.2.137-27.16-20.513 3.92-61.824 31.25-41.565z" fill="#f99370"/><path d="m1585.77 835.438c-16.31 7.111-31.71 9.213-43.55 9.548 0 0 2.87-17.591-9.83-24.946 72.29-53.927-30.17-77.659-9.83-157.568 77.04 1.973 155.69 119.114 63.21 172.966z" fill="#3a72aa"/><path d="m1479.43 843.994s6.33-21.46 43.12-18.695l7.56 19.09z" fill="#f99370"/><path d="m1550.77 844.458c-5.27.544-8.54.529-8.54.529s2.86-17.591-9.84-24.946c0 0 3.16-2.012 7.29-5.592 0 0 13.9 10.35 11.09 30.009z" fill="#23659b"/><path d="m1539 817.453c-.93.014-1.42-1.244-.67-1.84 32.13-28.12 16.74-58.271-2.09-77.87-.93-.962.64-2.439 1.55-1.408 20.02 20.288 35.08 53.673 1.21 81.118z" fill="#23659b"/><path d="m1550.08 844.562c-5.94-3.514 16.77-1.607 34.12-9.624.54-.213 1.15.044 1.36.58.22.535-.04 1.144-.58 1.358-17.92 7.169-34.67 7.683-34.9 7.686z" fill="#23659b"/><path d="m1529.43 694.746c-.78 5.498-6.07 7.173-7.38 6.87-18.47-8.047-5.49 17.012-13.13 19.494-6.43 2.087-7.13-6.263-12.71-6.763-8.11-.727-9.8 3.67-12.63.968-3.94-3.763 5.72-10.204 4.54-16.892-.82-4.695-10.21-.056-10.01-9.706.22-9.479 11.21-23.596 11.56-24.032 0-.01 0-.01 0-.01 10.35-5.37 32.89-2.203 32.89-2.203s2.99-.633 5.85.475c1.36 7.719 2.56 23.547 1.02 31.799z" fill="#f4d4be"/><path d="m1497.31 653.567-.7 9.167s-.93 8.815-1.06 25.217c-.18 23.057 5.55 20.417 13.59 4.371 4.42-8.817 13.42-29.849 13.42-29.849l1.35-16.122z" fill="#f99370"/><path d="m1528.31 627.553c-.11.435-.24.875-.38 1.296-.56-.453-3.5 14.381-4.73 26.008-11.11 6.376-24.23 5.82-26.42 5.129.73-17.211 2.38-42.961 15.7-47.657 8.94-2.754 18.31 6.085 15.83 15.224z" fill="#e57d61"/><path d="m1495.25 570.579c-33.36-4.256-39.07 48.285-16.53 67.809z" fill="#662948"/><path d="m1534.32 607.937c1.52 11.495 1.52 24.963-4.98 34.811l-.02.004c-17.79 28.527-75.77 9.595-59.58-24.27 2.38-4.32 3.74-9.583 3.95-14.055.89-46.933 56.3-36.651 60.63 3.51z" fill="#f99370"/><path d="m1490.35 613.709c-1.58-1.605.98-4.041 2.51-2.39 1.58 1.605-.98 4.041-2.51 2.39z" fill="#c16256"/><path d="m1475.65 615.542c-1.57-1.605.99-4.041 2.52-2.39 1.58 1.605-.99 4.041-2.52 2.39z" fill="#c16256"/><path d="m1484.3 628.628c-2.94.444-7.19-.349-4.39-3.841 2.63-2.636 2.99-9.828 3-9.9.02-.842 1.36-.795 1.31.059-.01.316-.39 7.771-3.38 10.766-.34.341-.69.808-.45 1.101.7.83 4 .992 5.91-.312.3-.204.71-.129.92.17.48 1.374-1.9 1.651-2.92 1.957z" fill="#c16256"/><path d="m1534.32 607.937c1.52 11.495 1.52 24.963-4.98 34.811l-.02.004c3.03-7.397 2.03-21.627 2.03-21.627l-4.06-5.251c-41.85-.885-47.76-32.441-47.76-32.441 18.01-25.043 52.82-1.979 54.79 24.504z" fill="#e57d61"/><path d="m1482.77 579.501s5.98 31.071 43.85 33.243l10.23-10.413c4.93-26.969-27.03-54.868-54.08-22.83z" fill="#662948"/><path d="m1542.97 611.392c1.24 13.145-15.41 14.521-16.35 1.351-1.24-13.144 15.4-14.521 16.35-1.351z" fill="#f99370"/><path d="m1539.08 607.962c-1.66-5.219-11.74.262-7.47.492.02-.23 4.49-2.855 5.86-.536-4.4 2.03-5.93 10.174-3.37 7.558 0-.049.57-4.689 4.03-6.418 1.62 11.875 3.24 3.658.95-1.096z" fill="#c16256"/><path d="m1537.81 619.197c.58 1.821-2.3 2.682-2.83.845-.57-1.822 2.31-2.683 2.83-.845z" fill="#f4d4be"/><path d="m1495.25 727.037c.02 3.805-5.97 3.758-5.88-.046-.03-3.804 5.96-3.758 5.88.046z" fill="#23659b"/><path d="m1489.31 747.64c.03 3.805-5.96 3.758-5.87-.046-.03-3.804 5.96-3.758 5.87.046z" fill="#23659b"/><path d="m1489.17 766.221c.02 3.805-5.97 3.758-5.88-.046-.03-3.804 5.96-3.758 5.88.046z" fill="#23659b"/><path d="m1385.84 1083.18c.48 9.23.75 14.79.75 14.79-33.33 10.42-51.12-.4-51.12-.4s-.62-4.58-1.99-12.57c.4.2 21.12 10.57 52.36-1.82z" fill="#ce3932"/><path d="m1459.49 1098.54c-33.32 10.42-51.11-.4-51.11-.4s-1.09-4.28-2.91-11.66c0 0 18.25 9.65 52.38.41.95 7.29 1.64 11.65 1.64 11.65z" fill="#ce3932"/><path d="m1481.44 843.793c-6.54.15 17.4-15.962 24.47-11.922.05.576-.37 1.085-.95 1.138-13.41 1.293-22.39 10.752-23.52 10.784z" fill="#e57d61"/><path d="m1491.52 844.24c-4.94-2.153 10.5-5.655 18.15-7.657.57-.114 1.12.255 1.24.821.11.565-.26 1.115-.83 1.227-8.14 1.608-17.74 5.527-18.56 5.609z" fill="#e57d61"/><path d="m1495.84 608.43c-.16-.001-.32-.054-.46-.161-4.15-3.295-7.96-2.264-8.12-2.218-.4.113-.81-.114-.92-.508-.11-.393.11-.803.5-.918.19-.056 4.69-1.315 9.47 2.481.32.256.37.723.12 1.044-.15.185-.37.281-.59.28z" fill="#c16256"/><path d="m1485.41 633.845c.11-.122.25-.212.42-.247 5.2-1.069 6.84-4.647 6.91-4.799.17-.375.6-.545.98-.38.37.164.55.599.38.975-.07.179-1.99 4.428-7.97 5.659-.4.083-.8-.176-.88-.577-.05-.233.02-.463.16-.631z" fill="#c16256"/><path d="m1473.96 610.052c-.14-.001-.29-.044-.41-.13-.34-.232-.43-.695-.19-1.033.09-.143 2.44-3.502 6.31-3.323.41.019.73.367.71.777s-.37.734-.78.707c-3.04-.121-5 2.652-5.02 2.68-.14.211-.38.324-.62.322z" fill="#c16256"/><path d="m805.102 1427.29s8.349 1.24 14.154-3.15l-7.872-3.12z" fill="#f99370"/><path d="m505.059 1919.45-1.094-.57c0 .77-.947 3.42-1.713 3.42l-32.357.66c-.766 0-1.237-1.43-1.237-2.2l-2.76-.79c0-4.83.399-6.58 2.539-10.32 7.867-10.44-1.524-57.09-1.253-69.28-1.94-3.33 34.073-.71 34.576-1.5.809 0 1.447.69 1.383 1.49l-4.238 53.31c-1.902 10.12 5.883 16.24 6.154 25.78z" fill="#f99370"/><path d="m665.099 1924.1h-64.451c-5.626-.23-5.583-5.95-4.546-10.39 3.549-16.01-2.724-52.75-3.887-69.21-.31-3.01 2.061-5.63 5.097-5.63 47.557-.48 31.365-7.04 28.566 44.2-1.424 26.07 18.354 23.99 30.541 25.96 8.023.58 21.441 11.51 8.68 15.07z" fill="#f99370"/><path d="m593.648 1917.42c.174 3.16 1.741 6.75 5.401 6.68h66.854c15.768-5.84-6.885-26.71-37.752-26.58-14.141 3.87-30.992 1.19-30.992 1.19s-4.551 5.78-3.511 18.71z" fill="#103663"/><path d="m471.024 1924.1h28.574c13.925-1.9 3.975-26.55-14.287-27.3-18.359-.76-28.201 25.43-14.287 27.3z" fill="#103663"/><path d="m649.966 1915.07c.561 0 1.093-.33 1.317-.89 2.57-6.32 7.202-8.26 7.398-8.34 3.613-5.68-6.887-1.63-10.031 7.28-.391.9.334 1.97 1.316 1.95z" fill="#e8c0a6"/><path d="m638.927 1913.74c.607 0 1.168-.39 1.357-1 2.271-7.32 8.664-10.71 8.729-10.74 3.276-6.61-8.93.47-11.443 9.9-.293.9.421 1.85 1.357 1.84z" fill="#e8c0a6"/><path d="m626.364 1912.2c.588 0 1.137-.37 1.342-.95 2.652-7.61 8.778-11.75 8.84-11.79 3.625-9.77-16.38 10.13-10.182 12.74z" fill="#e8c0a6"/><path d="m475.067 1905.95c7.937-4.81 20.113-.48 20.159-.13 8.288-1.78-11.311-8.76-20.878-2.51-1.246.67-.674 2.69.719 2.64z" fill="#e8c0a6"/><path d="m670.581 1917.43h-76.933c.283 2.34.932 4.61 2.11 6.67h70.145c3.455 0 5.905-3.45 4.678-6.67z" fill="#0f2e54"/><path d="m471.024 1924.1h28.574c3.635 0 6.561-3.05 6.336-6.67h-41.247c-.22 3.61 2.702 6.67 6.337 6.67z" fill="#0f2e54"/><path d="m619.101 1429.89c62.916 47.91 140.915 28.28 185.551-5.05l4.155-18.83c-102.955 7.96-128.1-42.7-193.883-65.71l5.728 20.76c.001 0-2.253 67.29-1.551 68.83z" fill="#ce3932"/><path d="m634.007 1881.43c-24.252 9.07-51.134 2.15-51.134 2.15.341-3.27.65-6.59.926-9.96 9.158-113.22-21.5-272.79-24.65-284.41 0 0-.008-.01-.008-.01-.146-.56-.236-.77-.244-.59-20.127 131.21-40.068 240.01-49.421 290.81-23.895 11.14-48.138-4.81-48.138-4.81-.146-4.58-.268-9.08-.373-13.55-5.513-88.16 7.096-358.68 52.742-411.5 52.953 26.2 125.758 30.29 125.758 30.29 12.177 230.61 11.584 340.83-5.458 401.58z" fill="#1d3f70"/><path d="m607.227 1337.44c3.018-15.92 10.346-44.57-1.657-51.63-8.453-4.62-20.37 1.23-19.312 11.79.9-.38-1.356 28.84-4.504 36.53-24.891 3.11 42.427 38.41 25.473 3.31z" fill="#f99370"/><path d="m586.236 1296.25c-.012.44-.009.9.021 1.35.652-.29-.387 15.86-2.319 27.39 10.024 6.75 22.191 6.5 24.483 6.41 3.262-16.94 8.638-37.81-2.854-45.59-7.862-5.04-19.266.97-19.331 10.44z" fill="#e57d61"/><path d="m617.822 1876.85c29.935-139.32-.519-322.21-5.093-323.55-2.343 1.09 24.26 184.89 5.093 323.55z" fill="#163356"/><path d="m486.312 1874.6 2.108-.94c23.368-148.26 48.982-325.73 45.739-328.26-3.514.49-30.993 177.45-47.847 329.2z" fill="#163356"/><path d="m484.789 1526.7c35.249 26.61 121.625 34.9 156.821 22.19 11.864-5.01 13.523-44.88 12.147-84.03-2.109-52.2-14.691-89.68-38.833-124.56-.297-.12-5.055-2.4-7.686-2.84.117 4.77-.975 18.55-25.479-3.33-.109.1-9.236.4-9.236.4-37.074 18.48-52.938 57.77-64.508 102.54-17.749 68.69-30.217 79.27-23.226 89.63z" fill="#eb5648"/><path d="m593.614 1872.21-9.816 1.41c9.158-113.22-21.5-272.79-24.65-284.41 1.916 4.69 14.419 36.66 23.724 96.08 10.101 64.53 13.251 154.21 10.742 186.92z" fill="#163356"/><path d="m572.523 1334.53c8.067 13.72 43.871 35.2 42.402 5.77-.301-.14-3.589-2.33-7.685-2.84.055.77 1.458 21.01-25.485-3.33.03.2-4.177-1.25-9.232.4z" fill="#ce3932"/><path d="m582.874 1883.58s26.883 6.92 51.134-2.16l3.162-12.71s-30.329 10.5-52.88-1.12c-.431 5.36-.903 10.7-1.416 15.99z" fill="#163356"/><path d="m460.961 1861.05c.108 4.47.229 8.98.378 13.56 0 0 24.238 15.96 48.138 4.81 0 0 .783-4.18 2.186-11.82.001 0-25.735 7.66-50.702-6.55z" fill="#163356"/><path d="m601.759 1379.65c11.101 0 17.336-2.08 17.72-2.21l-1.38-4.01c-.133.05-13.486 4.43-36.054-.07l-.834 4.16c8.017 1.6 14.912 2.13 20.548 2.13z" fill="#ce3932"/><path d="m599.945 1395.97c13.878 0 22.153-3.22 22.626-3.41l-1.576-3.93c-.152.06-15.347 5.91-38.96 1.33l-.812 4.16c7.009 1.36 13.293 1.85 18.722 1.85z" fill="#ce3932"/><path d="m602.61 1412.15c12.437 0 20.943-3.5 21.472-3.72l-1.651-3.91c-.184.08-18.414 7.51-40.103-.05l-1.401 4.01c7.895 2.75 15.307 3.67 21.683 3.67z" fill="#ce3932"/><path d="m630.522 1274.97s-.941-13.55-5.671-22.67l-7.571 4.2z" fill="#8e4a35"/><path d="m632.814 1314.61c-11.497 12.42-30.416 15.18-44.538 8.08h-.005c-1.052-.58-2.052-1.22-3.013-1.94l-.014.01c-45.638-41.3 9.541-115.66 39.662-54.84 10 17.05 26.304 25.62 7.908 48.69z" fill="#f99370"/><path d="m612.292 1280.27c.391-.87-.004-1.9-.882-2.29-.879-.39-1.908 0-2.3.88-.391.88.003 1.9.882 2.29s1.909 0 2.3-.88z" fill="#c16256"/><path d="m626.79 1277.07c.392-.87-.004-1.9-.882-2.29-.879-.39-1.908.01-2.3.88-.391.88.003 1.9.882 2.29s1.908 0 2.3-.88z" fill="#c16256"/><path d="m623.036 1292.32c-1.013.17-2.056.17-2.949-.07-.353-.09-.562-.45-.469-.8.092-.35.459-.56.805-.47 2.242.59 5.31-.67 5.688-1.68.132-.36-.358-.68-.793-.89-3.835-1.82-6.701-8.73-6.82-9.03-.138-.33.023-.72.361-.85.349-.15.722.02.86.35.028.07 2.792 6.74 6.167 8.34 1.84.88 1.636 2.06 1.463 2.53-.452 1.22-2.327 2.23-4.313 2.57z" fill="#c16256"/><path d="m622.669 1261.73c-9.69-4.47-26.558.93-34.959 1.3 0 0 2.533 14.23-11.43 25.19-.538 13.24-2.409 19.1 11.996 34.47h-.005c-1.052-.58-2.052-1.22-3.013-1.94l-.014.01c-43.926-39.36 6.758-113.08 37.425-59.03z" fill="#e57d61"/><path d="m628.309 1232.81c-5.97-10.37-22.329-15.32-35.503-1.44-10.143 10.69-21.673 11.21-20.881 21.88-20.905 10.81-9.049 33.78-9.049 33.78l10.666-1.82c11.743-10.54 10.61-25.07 10.61-25.07h-.003c2.741-.01 5.614-.27 8.129-1.05 7.794-2.43 19.431-4.01 28.51-1.2 9.077 2.8 14.193-13.5 7.521-25.08z" fill="#8e4a35"/><path d="m561.798 1295.74c1.448 5.44 6.18 8.9 10.57 7.74s6.776-6.51 5.328-11.95-6.18-8.9-10.57-7.74-6.776 6.51-5.328 11.95z" fill="#f99370"/><path d="m571.954 1287.91c-.175-.06-4.326-1.41-6.503.82-.555.57-.906 1.31-1.078 2.21-.001.01 0 .01-.001.01-.016.08-.041.16-.054.25h-.001s.001 0 0 0c-.243 1.67.125 3.87 1.109 6.59.111.3.423.47.732.42.038-.01.075-.02.113-.03.342-.12.52-.5.396-.84-.799-2.2-1.154-4-1.09-5.38 3.829.48 5.953 4.62 5.974 4.66.132.27.423.41.704.36.059-.01.119-.03.178-.06.328-.16.462-.55.304-.88-.103-.2-2.419-4.83-6.915-5.42.138-.38.319-.71.57-.97 1.6-1.64 5.111-.5 5.144-.49.35.11.718-.08.834-.42.115-.34-.072-.71-.416-.83z" fill="#c16256"/><path d="m603.228 1278.33c-.139.02-.285 0-.424-.05-.394-.17-.581-.62-.417-1.01.1-.24 2.519-5.9 9.585-7.49.413-.09.831.17.926.58.094.42-.168.83-.584.93-6.259 1.41-8.408 6.36-8.497 6.57-.108.26-.336.42-.589.47z" fill="#c16256"/><path d="m627.074 1271.6c-.237.04-.488-.03-.672-.21-2.102-2.08-6.32-1.66-6.362-1.65-.424.04-.806-.27-.851-.69-.046-.42.261-.81.686-.85.202-.02 4.987-.5 7.616 2.09.304.3.306.79.006 1.09-.119.12-.268.19-.423.22z" fill="#c16256"/><path d="m627.043 1300.02-16.633-7.52s-.559 8.87 5.981 10.97c6.251 2.01 10.652-3.45 10.652-3.45z" fill="#f9f8f3"/><path d="m627.169 1300.78c-.146.02-.301.01-.446-.06l-16.633-7.52c-.389-.18-.562-.63-.386-1.02.177-.39.637-.56 1.024-.39l16.633 7.53c.389.17.562.63.385 1.02-.109.24-.331.4-.577.44z" fill="#c16256"/><path d="m996.694 1282.56-2.526-4.02-50.202 31.39c.742 3.05-.484 6.35-3.276 8.12-3.424 2.17-8.157 1.14-10.36-2.26-2.287-3.53-1.233-8.23 2.322-10.45 2.819-1.76 6.354-1.43 8.788.57l50.202-31.39-2.526-4.03-65.443 12.39c-6.09 1.15-11.533 4.52-15.271 9.46l-19.722 26.03 10.526 16.75 10.526 16.76 32.082-6.37c6.08-1.2 11.493-4.62 15.187-9.59z" fill="#fff"/><path d="m442.761 1622.89-2.076-3.3c-7.726-12.3-3.998-28.52 8.327-36.22l430.627-269.32 30.054 47.83-430.627 269.32c-12.325 7.71-28.579 3.99-36.305-8.31z" fill="#3a72aa"/><path d="m896.557 1361.06-21.903-34.86c-2.738-4.36-1.417-10.1 2.951-12.84 4.368-2.73 10.129-1.41 12.867 2.95l21.903 34.86c2.738 4.36 1.417 10.1-2.951 12.84-4.367 2.73-10.128 1.41-12.867-2.95z" fill="#255084"/><path d="m530.43 1532.45-6.007 3.75s5.136 5.35 9.568 7.48c4.329 2.07 8.573 4.13 13.282 5.63 6.636 8.44-18.558-.45-21.63-.84-.02.06-.019.06-.039.11 5.965 4.45 12.203 8.56 18.77 12.07 4.844 10.34-20.133-5.81-22.995-7.14-.009.03-.009.02-.018.05 4.846 5.21 10.373 9.78 16.346 13.65 3.958 10.89-19.972-7.49-22.333-9.78-.027.02-.053.03-.08.04 3.184 4.7 6.999 8.96 11.016 12.97 2.316 10.83-16.082-8.32-17.947-10.65-1.85-.84-11.917-8.56-18.027-19.94-2.002-3.73 7.761-13.07 11.98-12.67 0 0 11.127.78 12.993 1.17 4.298.26 10.6 2.78 15.121 4.1z" fill="#f99370"/><path d="m812.414 1422.65c5.902 6.12 12.863-2.28 3.808-4.46l.106.11c-3.246-3.26-7.029 1.38-3.914 4.35z" fill="#f99370"/><path d="m817.448 1419.91c7.942 5.65 11.846-5.54 3.392-5.04.183.03-.762-.3-.592-.25-3.874-2.58-6.259 3.12-2.8 5.29z" fill="#f99370"/><path d="m822.814 1417.2 3.091 1.01c4.365 1.25 4.589-5.31.921-6.24l-3.09-1c-4.365-1.25-4.588 5.3-.922 6.23z" fill="#f99370"/><path d="m827.105 1414.12 3.091 1.01c4.366 1.25 4.589-5.3.922-6.24l-3.09-1c-4.367-1.25-4.59 5.3-.923 6.23z" fill="#f99370"/><path d="m572.523 1334.53s-58.397-5.47-110.422 48.51c-38.627 40.08-63.255 108.27 28.127 157.12 0 0 3.065-9.81 12.089-12.98 0 0-16.469-38.61-11.919-59.35 5.032-22.94 33.343-44.87 55.096-71.86 18.989-23.56 27.029-61.44 27.029-61.44z" fill="#ce3932"/></svg>