<svg enable-background="new 0 0 380.5 114" height="114" viewBox="0 0 380.5 114" width="380.5" xmlns="http://www.w3.org/2000/svg"><g fill="#426cad"><path d="m101.897 38.444c4.235 0 7.667-3.435 7.667-7.669 0-4.235-3.432-7.67-7.667-7.67-4.237 0-7.669 3.435-7.669 7.67s3.432 7.669 7.669 7.669z"/><path d="m142.846 59.447c-2.515-11.963-13.155-20.644-25.3-20.644-14.26 0-25.861 11.682-25.861 26.043 0 14.362 11.602 26.048 25.861 26.048 4.44 0 8.829-1.164 12.696-3.372l.584-.336-.217-.633c-.774-2.274-2.8-6.239-7.686-7.286l-.225-.051-.217.078c-1.594.563-3.254.848-4.937.848-8.331 0-15.109-6.861-15.109-15.296 0-8.337 6.638-14.869 15.109-14.869 3.239 0 6.337 1.09 8.963 3.145 2.463 1.931 4.356 4.642 5.345 7.657h-6.998l-.096.004c-5.69.673-7.671 5.537-8.257 7.6l-.297 1.039h21.899l.115-.035c.48-.145 4.721-1.527 5.051-6.138l.002-.047-.002-.047c-.015-.371-.115-2.286-.423-3.708z"/><path d="m182.164 66.859c-1.781-2.462-4.731-4.587-8.771-6.311-4.053-1.73-6.62-3.07-7.847-4.094-1.184-.984-1.787-2.103-1.787-3.317 0-3.145 1.785-4.677 5.456-4.677 2.361 0 4.459.36 6.234 1.071l.346.141.333-.172c1.973-1.028 4.597-2.966 5.897-6.376l.258-.676-.639-.337c-4.063-2.148-8.447-3.234-13.029-3.234-4.731 0-8.676 1.223-11.721 3.642-3.101 2.457-4.606 5.793-4.606 10.2 0 6.458 4.026 11.549 11.969 15.128 3.649 1.656 6.032 3.043 7.286 4.25 1.219 1.172 1.838 2.7 1.838 4.536 0 3.103-2.051 4.677-6.096 4.677-2.665 0-5.188-.625-7.492-1.855l-.34-.18-.357.148c-2.436 1.016-4.406 2.789-5.858 5.27l-.82 1.97.623.355c2.663 1.516 4.896 2.544 6.632 3.056 1.848.543 4.337.82 7.398.82 5.441 0 9.812-1.352 12.988-4.017 3.18-2.673 4.795-6.388 4.795-11.033 0-3.492-.907-6.516-2.69-8.985z"/><path d="m75.708 42.124c-3.297-2.285-8.527-3.398-15.989-3.398h-17.706v52.169h10.222v-42.257h10.314c1.824 0 3.387.293 4.641.863 1.252.574 2.211 1.234 2.848 1.965.635.73 1.139 1.691 1.495 2.855.369 1.22.588 2.224.648 2.985.064.805.096 1.793.096 2.941v30.646h10.223v-30.743c0-4.391-.389-8.001-1.152-10.724-.8-2.836-2.699-5.293-5.64-7.302z"/><path d="m21.304 38.722h10.598v52.173h-10.598z"/><path d="m203.519 38.886h1.265v51.54h-1.265z"/><path d="m265.226 69.902c-1.66 11.955-9.259 20.523-21.698 20.523-13.127 0-22.318-10.709-22.318-25.426 0-11.956 6.427-26.259 23.217-26.259 13.061 0 19.485 9.881 19.694 15.963h-1.383c-.554-7.118-7.601-14.58-18.312-14.58-16.237 0-21.834 14.646-21.834 24.876 0 12.506 7.602 24.046 20.936 24.046 11.816 0 18.863-8.224 20.315-19.144h1.383z"/><path d="m271.926 89.249h-1.381v-49.332h20.178c10.226 0 14.855 4.075 15.061 12.643.209 6.563-3.661 11.127-10.57 12.714v.141c8.361 1.105 9.742 5.734 9.742 13.682 0 2.832.277 8.911 1.174 10.153h-1.52c-.896-2-1.035-7.251-1.035-10.36 0-8.088-1.728-12.783-13.06-12.783h-18.589zm0-24.527h18.45c7.323 0 14.028-3.66 14.028-12.299-.07-6.978-3.94-11.127-13.336-11.127h-19.143v23.426z"/><path d="m356.916 39.917h2.279v49.332h-1.383v-47.605h-.137l-20.937 47.605h-1.521l-20.937-47.605h-.137v47.605h-1.383v-49.332h2.279l20.866 47.539h.139z"/></g></svg>