<svg height="122.6449mm" viewBox="0 0 942.71486 434.56853" width="266.05508mm" xmlns="http://www.w3.org/2000/svg"><rect fill="#fff" height="434.56854" rx="137.95827" width="942.71484"/><g transform="translate(99.31019 -317.382104)"><path d="m80.8975 413.76751c-25.25 0-35.3203 3.28851-37.875 7.875-29.1128 52.26628-27.8407 145.04573-30 233.25-.1407 5.74828 1.625 10.875 4.875 15.375s7.625 6.75 13.125 6.75h115.5c4.50004 0 7.75002-6 9.75002-18 .14094-1.17446.25469-2.34022.36914-3.50586-.34074-.33395-.68358-.66303-1.02148-1.00195-10.95298-11.45081-19.17778-28.97622-24.67778-49.11719h-41.7949c.3093-63.09585 35.2148-173.38767 30-183.75-2.36-4.68964-12.75-7.875-38.25-7.875z" fill="#d900bd"/><path d="m244.53033 380.49993c-27.60782-.15569-56.28708 10.54881-81.46484 32.76758-22.24999 22.75-33.37499 74.25-33.37499 118.5 0 44 11 91.5 32.99999 114.5 42.50003 42.62803 107.66423 46.00275 156.125 1.5 5.44275-5.44274 10.21482-12.41928 14.32617-20.5039-12.78074-26.85374-19.17773-65.34749-19.17773-99.83204 0-29.20587 6.18173-67.92064 18.53711-95.60546-3.77116-7.51802-8.08076-13.9672-12.93555-18.9336-20.891-21.22098-47.42733-32.23688-75.03516-32.39258zm-2.47656 71.57227c7.11551-.054 14.23512 4.48412 20.88672 15.19531 8.25 10.75 12.375 44.125 12.375 64.125s-4 49.375-12 60.125c-14.9548 20.85807-24.01269 22.27513-45.125.375-7.75-10.75-11.625-40-11.625-59.75 0-20 4-53.5 12-64.5 7.36513-9.54992 15.42404-15.50911 23.48828-15.57031z" fill="#04b934"/><path d="m439.59869 370.8515c-28.72606.30775-55.88037 10.71034-83.00976 36.08007-21.75 24.25-32.625 79.75-32.625 118.5 0 45.5 11.125 98 33.375 121.5 28.81029 29.87206 78.63837 41.64905 123.5 30.375 15.25-3.5 25.375-7 30.375-10.5l.28125-22.08007c-22.01579-30.63839-30.88399-68.75406-26.13672-104.17774l-1.51953-.11719c-4.75 0-10.75.625-18 1.875-7.25 1-10.875 3.25-10.875 6.75l-.75 51c.11342 19.60031-29.61921 6.26959-37.625-6.375-9.75-11-14.625-45-14.625-66s4.75-60.49999 14.25-70.5c11.8304-12.12002 24.32717-18.93489 42.125-11.62499 7 2 11.625 4 13.875 5.99999 2.5 1.75 4.75 2.625 6.75 2.625 2.25 0 5.75-2.5 10.5-7.49999 4.75-5 9-12.5 12.75-22.5 3.75-10.25 5.625-18.125 5.625-23.625s-.125-9.25-.375-11.25c-5.25-5.75-15-10.25-29.25-13.5-12.27579-3.05804-24.18524-4.81643-35.83008-4.95313-.92997-.0109-1.85851-.0119-2.78516-.002zm134.62891 175.84375c-2.505 15.16385 1.06664 29.62696 11.07812 43.44726 1.24951 1.69287 2.56308 3.24373 3.9375 4.66016l-.86914-45.3711c0-.99151-5.70058-1.9021-14.14648-2.73632z" fill="#0081ff"/><path d="m611.18115 680.76699c-35 0-63.625-11.5-85.875-34.5-43.91157-53.15652-44.7413-133.71332.375-181 22.5-22.75 51.375-34.125 86.625-34.125 35.5 0 64.125 11.25 85.875 33.75 43.17426 54.37072 44.80322 136.41163-.75 182.875-22.25 22-51 33-86.25 33zm.375-177.625c-12 0-22.125 5.5-30.375 16.5-15.97959 25.933-16.54675 49.9258-.375 72.25 7.75 10.5 17.875 15.75 30.375 15.75 12.75 0 23-5.375 30.75-16.125 16.56229-22.94306 16.07101-50.62385-.375-72.25-8-10.75-18-16.125-30-16.125z" fill="#f80"/></g></svg>