<svg viewBox="0 0 234.49 233.18" xmlns="http://www.w3.org/2000/svg" xmlns:xlink="http://www.w3.org/1999/xlink"><linearGradient id="a" gradientUnits="userSpaceOnUse" x1="87.3" x2="104.57" y1="132.44" y2="75.64"><stop offset="0" stop-color="#1c75bc"/><stop offset=".28" stop-color="#2077bc"/><stop offset=".54" stop-color="#2b7ebc"/><stop offset=".8" stop-color="#3e88bc"/><stop offset="1" stop-color="#5394bc"/></linearGradient><g fill="#fff" opacity=".4"><path d="m112.83 28.51v1.07l4.5 2.59v-1.07z"/><path d="m112.83 30.46v1.08l4.5 2.59v-1.07z"/><path d="m112.83 32.42v1.07l4.5 2.6v-1.08z"/><path d="m146.77 55.02v-1.07l-27.75-16.01v1.07z"/><path d="m112.83 34.38v1.07l4.5 2.59v-1.07z"/><path d="m112.83 36.33v1.07l4.5 2.6v-1.08z"/><path d="m146.77 56.98v-1.07l-27.75-16.01v1.07z"/><path d="m112.83 42.2v1.07l4.5 2.59v-1.07z"/><path d="m112.83 44.15v1.07l4.5 2.6v-1.07z"/><path d="m112.83 51.98v1.07l4.5 2.59v-1.07z"/><path d="m112.83 53.93v1.07l4.5 2.59v-1.07z"/><path d="m136.52 67.6-17.5-10.1v1.07l17.5 10.1z"/><path d="m137.45 68.13v1.07l9.32 5.38v-1.07z"/><path d="m127.81 60.62-8.79-5.08v1.07l8.79 5.08z"/><path d="m128.74 61.15v1.07l18.03 10.4v-1.07z"/><path d="m144.4 64.32v1.07l2.37 1.36v-1.07z"/><path d="m131.49 54.91-12.47-7.19v1.07l12.47 7.19z"/><path d="m126.38 36.32-7.36-4.24v1.07l7.36 4.24z"/><path d="m138.44 43.28-11.14-6.43v1.07l11.14 6.43z"/><path d="m131.95 41.49-7.85-4.52v1.07l7.85 4.52z"/><path d="m140.18 46.24-7.31-4.22v1.07l7.31 4.22z"/><path d="m141.1 46.77v1.07l5.67 3.27v-1.07z"/><path d="m120.47 36.82v1.07l5.91 3.41v-1.07z"/><path d="m144.46 50.66-17.16-9.89v1.07l17.16 9.89z"/><path d="m134.63 50.86-11.21-6.46v1.07l11.21 6.46z"/><path d="m144.46 56.53-8.9-5.13v1.07l8.9 5.13z"/><path d="m143.47 61.83-11.06-6.38v1.07l11.06 6.38z"/><path d="m137.45 60.31v1.07l6.02 3.47v-1.07z"/><path d="m121.19 50.93-2.17-1.25v1.07l2.17 1.25z"/><path d="m125.25 53.27v1.07l11.27 6.5v-1.07z"/><path d="m124.33 52.74-2.22-1.28v1.07l2.22 1.28z"/><path d="m134.44 60.53-12.33-7.11v1.07l12.33 7.11z"/></g><g fill="#fff" opacity=".4"><path d="m136.81 10.8-18.65-10.8v.95l18.65 10.8z"/><path d="m118.16 2.81 28.61 16.55v-.95l-28.61-16.55z"/><path d="m138.06 11.5v.95l8.71 5.05v-.95z"/><path d="m136.81 14.43-18.65-10.8v.95l18.65 10.8z"/><path d="m118.16 6.45 28.61 16.54v-.95l-28.61-16.54z"/><path d="m138.06 16.08 8.71 5.05v-.95l-8.71-5.04z"/><path d="m136.81 20.43-18.65-10.8v.95l18.65 10.8z"/><path d="m118.16 12.45 28.61 16.54v-.95l-28.61-16.54z"/><path d="m138.06 22.08 8.71 5.05v-.95l-8.71-5.04z"/><path d="m136.81 24.07-18.65-10.8v.95l18.65 10.8z"/><path d="m118.16 16.08 28.61 16.55v-.95l-28.61-16.55z"/><path d="m138.06 25.72 8.71 5.04v-.94l-8.71-5.05z"/><path d="m136.81 30.07-18.65-10.8v.95l18.65 10.8z"/><path d="m118.16 22.08 28.61 16.55v-.95l-28.61-16.55z"/><path d="m138.06 31.72 8.71 5.04v-.95l-8.71-5.04z"/><path d="m136.81 33.7-18.65-10.8v.95l18.65 10.8z"/><path d="m118.16 25.71 28.61 16.55v-.95l-28.61-16.55z"/><path d="m138.06 35.35 8.71 5.05v-.95l-8.71-5.05z"/></g><path d="m432.91 167-13.93-8a1 1 0 0 0 -1.53.88v16.67a2.25 2.25 0 0 0 1.14 2l13.93 8.06a1 1 0 0 0 1.56-.91v-16.7a2.35 2.35 0 0 0 -1.17-2z" fill="#fff" opacity=".2" transform="translate(-346.41 -142.59)"/><path d="m426.73 181.06-18.26-10.53a1.71 1.71 0 0 0 -1.83.07l-4 2.31 1.86 2.53.7.8v18.09a3 3 0 0 0 1.5 2.61l13.67 7.91.14.76 2.79 3.91 4.29-2.53a1.36 1.36 0 0 0 .66-1.17v-22a3.14 3.14 0 0 0 -1.52-2.76z" fill="#f4767a" transform="translate(-346.41 -142.59)"/><path d="m422.46 183.57-18.46-10.66a1.35 1.35 0 0 0 -2 1.17v22.12a3 3 0 0 0 1.51 2.61l18.48 10.69a1.39 1.39 0 0 0 2.08-1.2v-22a3.14 3.14 0 0 0 -1.61-2.73z" fill="#ed5561" transform="translate(-346.41 -142.59)"/><path d="m424 208.3v-22a3.17 3.17 0 0 0 -.21-1.06l4.28-2.47a2.94 2.94 0 0 1 .2 1v22a1.36 1.36 0 0 1 -.66 1.17l-4.25 2.5a1.36 1.36 0 0 0 .64-1.14z" fill="#d8395a" transform="translate(-346.41 -142.59)"/><path d="m406.35 183.5-2.25-1.3v8.09l1.49.86v-2.88l.64.37a2.46 2.46 0 0 0 2 .48c.47-.19.71-.72.71-1.59a3.92 3.92 0 0 0 -.66-2.27 5.56 5.56 0 0 0 -1.93-1.76zm.75 3.93a1.37 1.37 0 0 1 -1-.28l-.49-.28v-2.4l.68.39a2.62 2.62 0 0 1 .89.81 1.92 1.92 0 0 1 .29 1.05c-.02.4-.14.64-.37.71z" fill="#fff" transform="translate(-346.41 -142.59)"/><path d="m67.75 48.59-2.78-1.61.01-3.17-1.5-.86-.02 8.09 1.49.86.01-3.49 2.79 1.61-.01 3.49 1.49.86.02-8.09-1.49-.86z" fill="#fff"/><path d="m421.23 192.73a5.56 5.56 0 0 0 -1.94-1.76l-2.25-1.3v8.09l1.49.86v-2.87l.64.37a2.48 2.48 0 0 0 2 .47c.47-.19.71-.71.71-1.59a3.94 3.94 0 0 0 -.65-2.27zm-1.23 2.18a1.39 1.39 0 0 1 -1-.29l-.49-.28v-2.4l.68.39a2.53 2.53 0 0 1 .89.81 1.93 1.93 0 0 1 .29 1.06c.02.39-.1.63-.37.71z" fill="#fff" transform="translate(-346.41 -142.59)"/><g fill="#fff" opacity=".4"><path d="m37.19 39.29v1.07l4.5 2.6v-1.07z"/><path d="m37.19 41.25v1.07l4.5 2.59v-1.07z"/><path d="m37.19 43.2v1.07l4.5 2.6v-1.07z"/><path d="m71.13 65.8v-1.07l-27.75-16v1.07z"/><path d="m37.19 45.16v1.07l4.5 2.59v-1.07z"/><path d="m37.19 47.11v1.08l4.5 2.59v-1.07z"/><path d="m71.13 67.76v-1.07l-27.75-16.01v1.07z"/><path d="m37.19 52.98v1.07l4.5 2.6v-1.07z"/><path d="m37.19 54.94v1.07l4.5 2.59v-1.07z"/><path d="m37.19 62.76v1.07l4.5 2.59v-1.07z"/><path d="m37.19 64.71v1.07l4.5 2.6v-1.07z"/><path d="m60.88 78.38-17.5-10.1v1.07l17.5 10.1z"/><path d="m61.81 78.91v1.07l9.32 5.38v-1.07z"/><path d="m52.17 71.4-8.79-5.07v1.07l8.79 5.07z"/><path d="m53.09 71.93v1.07l18.04 10.4v-1.07z"/><path d="m68.76 75.1v1.07l2.37 1.37v-1.07z"/><path d="m55.84 65.7-12.46-7.2v1.07l12.46 7.2z"/><path d="m50.74 47.1-7.36-4.24v1.07l7.36 4.24z"/><path d="m62.8 54.06-11.14-6.42v1.07l11.14 6.42z"/><path d="m56.31 52.27-7.85-4.52v1.07l7.85 4.52z"/><path d="m64.54 57.02-7.31-4.21v1.07l7.31 4.21z"/><path d="m65.46 57.55v1.07l5.67 3.27v-1.07z"/><path d="m44.83 47.61v1.07l5.91 3.41v-1.07z"/><path d="m68.82 61.44-17.16-9.89v1.07l17.16 9.9z"/><path d="m58.99 61.65-11.21-6.47v1.07l11.21 6.47z"/><path d="m68.82 67.31-8.9-5.13v1.07l8.9 5.13z"/><path d="m67.83 72.61-11.06-6.38v1.07l11.06 6.38z"/><path d="m61.81 71.09v1.07l6.02 3.48v-1.07z"/><path d="m45.55 61.71-2.17-1.25v1.07l2.17 1.25z"/><path d="m49.61 64.06v1.07l11.27 6.5v-1.07z"/><path d="m48.69 63.52-2.22-1.28v1.07l2.22 1.28z"/><path d="m58.8 71.31-12.33-7.11v1.07l12.33 7.11z"/></g><path d="m517.7 195.8-13.93-8a1 1 0 0 0 -1.53.89v16.67a2.27 2.27 0 0 0 1.13 2l13.93 8.05a1 1 0 0 0 1.57-.9v-16.68a2.36 2.36 0 0 0 -1.17-2.03z" fill="#fff" opacity=".2" transform="translate(-346.41 -142.59)"/><path d="m536.72 163.58-13.93-8a1 1 0 0 0 -1.53.88v16.64a2.24 2.24 0 0 0 1.14 2l13.93 8.06a1 1 0 0 0 1.56-.91v-16.6a2.32 2.32 0 0 0 -1.17-2.07z" fill="#fff" opacity=".2" transform="translate(-346.41 -142.59)"/><path d="m579.73 250.76-13.93-8a1 1 0 0 0 -1.53.88v16.68a2.24 2.24 0 0 0 1.14 2l13.92 8.06a1 1 0 0 0 1.57-.91v-16.6a2.32 2.32 0 0 0 -1.17-2.11z" fill="#fff" opacity=".2" transform="translate(-346.41 -142.59)"/><path d="m458.48 209.73-13.93-8a1 1 0 0 0 -1.52.89v16.67a2.28 2.28 0 0 0 1.13 2l13.93 8.05a1 1 0 0 0 1.57-.9v-16.68a2.35 2.35 0 0 0 -1.18-2.03z" fill="#fff" opacity=".2" transform="translate(-346.41 -142.59)"/><path d="m406.05 346.76c-3.7 0-2.49-2.78-2.49-2.78-5.48-1.67-8.18-.74-8.18-.74a25.23 25.23 0 0 0 -.87 8.94c0 .57.4.92.94 1.13 2.95 1.09 5.64 1.82 11.13 1.29 4.05-.4 8.33-4.14 7.36-8-.61-2.38-4.14.12-7.89.16z" fill="#933e31" transform="translate(-346.41 -142.59)"/><path d="m404.46 312c-1.08-1.41-2.94-2.61-6-1.8l-33.06 6.38 1.24 8.49a13.18 13.18 0 0 0 13.93 4.15 51.47 51.47 0 0 0 14.62-6.68l-1.14 23.46a13.23 13.23 0 0 0 9.81-1.18c.77-.47 1.49-23.07 1.73-28.87a5.31 5.31 0 0 0 -1.13-3.95z" fill="#1c75bc" transform="translate(-346.41 -142.59)"/><path d="m421.92 353.54c-3.84 0-2.58-2.89-2.58-2.89-5.7-1.73-8.5-.77-8.5-.77a26.55 26.55 0 0 0 -.91 9.28 1.26 1.26 0 0 0 1 1.18c3.07 1.14 5.86 1.89 11.56 1.34 4.2-.41 8.65-4.3 7.64-8.3-.65-2.48-4.32.12-8.21.16z" fill="#9d4d36" transform="translate(-346.41 -142.59)"/><path d="m37.93 201.62-28.38-16.41v4l28.39 16.36z" fill="#bbcee1"/><path d="m35.35 170.39-25.8 14.82 28.38 16.41 25.83-14.84z" fill="#fff"/><path d="m63.76 186.78-25.83 14.84.01 3.95 25.82-14.94z" fill="#a7bcce"/><path d="m420.27 317.44c-1.12-1.46-3-2.71-6.25-1.87l-34.33 6.62 1.31 8.81a13.68 13.68 0 0 0 14.46 4.31 53.29 53.29 0 0 0 15.18-6.94l-1.16 24.33a13.68 13.68 0 0 0 10.18-1.22c.81-.49 1.56-23.95 1.8-30a5.51 5.51 0 0 0 -1.19-4.04z" fill="#2a87c6" transform="translate(-346.41 -142.59)"/><path d="m358.93 267.78 58.62-34a8 8 0 0 1 8 0l92.34 53.42a3.53 3.53 0 0 1 0 6.12l-57.31 33.27a9.53 9.53 0 0 1 -9.55 0l-92.13-53.3a3.16 3.16 0 0 1 .03-5.51z" fill="#e8ebf5" transform="translate(-346.41 -142.59)"/><path d="m358.94 273.26 92.13 53.3a9.53 9.53 0 0 0 9.55 0l57.31-33.27a3.51 3.51 0 0 0 1.76-3v4.46a3.48 3.48 0 0 1 -1.75 3l-57.32 33.25a9.53 9.53 0 0 1 -9.55 0l-92.13-53.3a3.15 3.15 0 0 1 -1.59-2.77v-4.38a3.12 3.12 0 0 0 1.59 2.71z" fill="#a7bcce" transform="translate(-346.41 -142.59)"/><path d="m358.94 273.26 92.13 53.3a9.45 9.45 0 0 0 4.36 1.25v4.42a9.57 9.57 0 0 1 -4.36-1.25l-92.13-53.3a3.15 3.15 0 0 1 -1.59-2.77v-4.38a3.12 3.12 0 0 0 1.59 2.73z" fill="#bbcee1" transform="translate(-346.41 -142.59)"/><path d="m402.24 280.08 9.95-5.75a1.51 1.51 0 0 1 1.51 0l30.73 17.77a.67.67 0 0 1 0 1.15l-9.71 5.61a1.79 1.79 0 0 1 -1.79 0l-30.69-17.74a.61.61 0 0 1 0-1.04z" fill="#0f4463" transform="translate(-346.41 -142.59)"/><path d="m402.24 281.12 30.69 17.74a1.79 1.79 0 0 0 1.79 0l9.71-5.61a.66.66 0 0 0 .33-.58v1.18a.7.7 0 0 1 -.33.57l-9.71 5.58a1.79 1.79 0 0 1 -1.79 0l-30.69-17.7a.57.57 0 0 1 -.29-.52v-1.18a.61.61 0 0 0 .29.52z" fill="#0b3b56" transform="translate(-346.41 -142.59)"/><path d="m65.67 133.35 1.24-.72 1.42.81-1.24.72z" fill="#1f5e77"/><path d="m67.43 134.37 1.25-.73 1.41.82-1.24.72z" fill="#1f5e77"/><path d="m69.2 135.38 1.24-.72 1.42.82-1.24.72z" fill="#1f5e77"/><path d="m70.96 136.4 1.25-.72 1.42.81-1.25.72z" fill="#1f5e77"/><path d="m72.73 137.42 1.25-.73 1.41.82-1.24.72z" fill="#1f5e77"/><path d="m74.5 138.43 1.24-.72 1.42.82-1.24.72z" fill="#1f5e77"/><path d="m76.26 139.45 1.25-.72 1.41.81-1.24.72z" fill="#1f5e77"/><path d="m78.03 140.47 1.24-.73 1.42.82-1.24.72z" fill="#1f5e77"/><path d="m79.79 141.48 1.25-.72 1.41.82-1.24.72z" fill="#1f5e77"/><path d="m81.56 142.5 1.25-.72 1.41.81-1.24.72z" fill="#1f5e77"/><path d="m83.33 143.51 1.24-.72 1.42.82-1.24.72z" fill="#1f5e77"/><path d="m85.09 144.53 1.25-.72 1.41.82-1.24.71z" fill="#1f5e77"/><path d="m88.1 144.82 1.42.82-1.24.72-1.42-.81z" fill="#1f5e77"/><path d="m65.47 135.1-1.41-.82 1.24-.72 1.42.82z" fill="#1f5e77"/><path d="m68.48 135.39-1.24.72-1.42-.81 1.25-.72z" fill="#1f5e77"/><path d="m70.25 136.41-1.24.72-1.42-.81 1.24-.73z" fill="#1f5e77"/><path d="m72.01 137.43-1.24.72-1.42-.82 1.25-.72z" fill="#1f5e77"/><path d="m73.78 138.44-1.24.72-1.42-.81 1.24-.72z" fill="#1f5e77"/><path d="m75.55 139.46-1.25.72-1.42-.81 1.25-.73z" fill="#1f5e77"/><path d="m77.31 140.48-1.24.72-1.42-.82 1.25-.72z" fill="#1f5e77"/><path d="m79.08 141.49-1.24.72-1.42-.81 1.24-.72z" fill="#1f5e77"/><path d="m80.84 142.51-1.24.72-1.42-.81 1.25-.73z" fill="#1f5e77"/><path d="m82.61 143.53-1.24.72-1.42-.82 1.24-.72z" fill="#1f5e77"/><path d="m84.38 144.54-1.25.72-1.42-.81 1.25-.72z" fill="#1f5e77"/><path d="m86.14 145.56-1.24.72-1.42-.81 1.24-.73z" fill="#1f5e77"/><path d="m86.49 145.76 1.42.81-1.24.73-1.42-.82z" fill="#1f5e77"/><path d="m63.86 136.03-1.42-.81 1.25-.72 1.41.81z" fill="#1f5e77"/><path d="m66.87 136.33-1.24.72-1.42-.82 1.24-.72z" fill="#1f5e77"/><path d="m65.97 137.25 1.25-.72 1.42.81-1.25.72z" fill="#1f5e77"/><path d="m70.4 138.36-1.24.72-1.42-.81 1.25-.73z" fill="#1f5e77"/><path d="m72.17 139.38-1.24.72-1.42-.82 1.24-.72z" fill="#1f5e77"/><path d="m73.93 140.39-1.24.72-1.42-.81 1.25-.72z" fill="#1f5e77"/><path d="m75.7 141.41-1.24.72-1.42-.81 1.24-.73z" fill="#1f5e77"/><path d="m77.47 142.43-1.25.72-1.42-.82 1.25-.72z" fill="#1f5e77"/><path d="m79.23 143.44-1.24.72-1.42-.81 1.25-.72z" fill="#1f5e77"/><path d="m81 144.46-1.24.72-1.42-.81 1.24-.73z" fill="#1f5e77"/><path d="m82.76 145.48-1.24.72-1.42-.82 1.25-.72z" fill="#1f5e77"/><path d="m81.87 146.4 1.24-.72 1.42.81-1.24.72z" fill="#1f5e77"/><path d="m84.88 146.69 1.42.82-1.25.72-1.42-.82z" fill="#1f5e77"/><path d="m62.25 136.97-1.42-.82 1.25-.72 1.41.82z" fill="#1f5e77"/><path d="m62.6 137.17 1.24-.73 1.42.82-1.24.72z" fill="#1f5e77"/><path d="m64.36 138.18 1.25-.72 1.41.82-1.24.72z" fill="#1f5e77"/><path d="m66.13 139.2 1.25-.72 1.41.81-1.24.72z" fill="#1f5e77"/><path d="m67.89 140.22 1.25-.73 1.42.82-1.25.72z" fill="#1f5e77"/><path d="m69.66 141.23 1.25-.72 1.41.82-1.24.72z" fill="#1f5e77"/><path d="m71.43 142.25 1.24-.72 1.42.81-1.24.72z" fill="#1f5e77"/><path d="m73.19 143.27 1.25-.73 1.41.82-1.24.72z" fill="#1f5e77"/><path d="m74.96 144.28 1.24-.72 1.42.82-1.24.72z" fill="#1f5e77"/><path d="m76.72 145.3 1.25-.72 1.42.81-1.25.72z" fill="#1f5e77"/><path d="m78.49 146.32 1.25-.73 1.41.82-1.24.72z" fill="#1f5e77"/><path d="m80.26 147.33 1.24-.72 1.42.82-1.24.72z" fill="#1f5e77"/><path d="m83.27 147.63 1.41.81-1.24.72-1.42-.81z" fill="#1f5e77"/><path d="m60.64 137.9-1.42-.81 1.25-.73 1.41.82z" fill="#1f5e77"/><path d="m60.98 138.1 1.25-.72 1.42.81-1.24.72z" fill="#1f5e77"/><path d="m62.75 139.12 1.25-.72 1.41.81-1.24.72z" fill="#1f5e77"/><path d="m64.52 140.13 1.24-.72 1.42.82-1.24.72z" fill="#1f5e77"/><path d="m66.28 141.15 1.25-.72 1.41.82-1.24.72z" fill="#1f5e77"/><path d="m68.05 142.17 1.25-.73 1.41.82-1.24.72z" fill="#1f5e77"/><path d="m69.81 143.18 1.25-.72 1.42.82-1.25.72z" fill="#1f5e77"/><path d="m71.58 144.2 1.25-.72 1.41.81-1.24.72z" fill="#1f5e77"/><path d="m73.35 145.22 1.24-.73 1.42.82-1.24.72z" fill="#1f5e77"/><path d="m75.11 146.23 1.25-.72 1.41.82-1.24.72z" fill="#1f5e77"/><path d="m76.88 147.25 1.24-.72 1.42.81-1.24.72z" fill="#1f5e77"/><path d="m78.64 148.27 1.25-.73 1.42.82-1.25.72z" fill="#1f5e77"/><path d="m81.66 148.56 1.41.82-1.24.72-1.42-.82z" fill="#1f5e77"/><path d="m58.85 137.3 1.42.81-1.24.72-1.42-.81z" fill="#1f5e77"/><path d="m62.03 139.13-1.24.72-1.42-.82 1.25-.72z" fill="#1f5e77"/><path d="m63.8 140.15-1.24.72-1.42-.82 1.24-.72z" fill="#1f5e77"/><path d="m65.57 141.16-1.24.72-1.42-.81 1.24-.73z" fill="#1f5e77"/><path d="m67.33 142.18-1.24.72-1.42-.82 1.25-.72z" fill="#1f5e77"/><path d="m69.1 143.19-1.24.72-1.42-.81 1.24-.72z" fill="#1f5e77"/><path d="m69.45 143.4 1.76 1.01h.01l.34.2 1.42.82.72.41 1.05.6 1.11.65 2.07 1.19-1.24.72-2.16-1.25-1.03-.58-1.07-.62-.7-.4h.01l-1.4-.8-.37-.22-1.77-1.01z" fill="#1f5e77"/><path d="m79.69 149.29-1.24.72-1.42-.81 1.25-.72z" fill="#1f5e77"/><path d="m81.46 150.31-1.24.72-1.42-.81 1.24-.73z" fill="#1f5e77"/><path d="m90.39 147.58 1.24-.72 1.42.81-1.24.72z" fill="#1f5e77"/><path d="m92.16 148.6 1.24-.73 1.42.82-1.25.72z" fill="#1f5e77"/><path d="m93.92 149.61 1.25-.72 1.41.82-1.24.72z" fill="#1f5e77"/><path d="m91.44 148.61-1.24.72-1.42-.82 1.24-.72z" fill="#1f5e77"/><path d="m93.2 149.62-1.24.72-1.42-.81 1.25-.72z" fill="#1f5e77"/><path d="m94.97 150.64-1.24.72-1.42-.81 1.24-.73z" fill="#1f5e77"/><path d="m89.83 149.54-1.25.72-1.41-.81 1.24-.73z" fill="#1f5e77"/><path d="m91.59 150.56-1.24.72-1.42-.82 1.25-.72z" fill="#1f5e77"/><path d="m93.36 151.57-1.24.72-1.42-.81 1.24-.72z" fill="#1f5e77"/><path d="m85.55 150.38 1.25-.72 1.42.81-1.25.72z" fill="#1f5e77"/><path d="m87.32 151.4 1.24-.73 1.42.82-1.24.72z" fill="#1f5e77"/><path d="m89.08 152.41 1.25-.72 1.42.82-1.25.72z" fill="#1f5e77"/><path d="m83.94 151.31 1.25-.72 1.41.82-1.24.72z" fill="#1f5e77"/><path d="m85.71 152.33 1.24-.72 1.42.81-1.24.72z" fill="#1f5e77"/><path d="m87.47 153.35 1.25-.73 1.42.82-1.25.72z" fill="#1f5e77"/><path d="m84.99 152.34-1.24.72-1.42-.81 1.25-.72z" fill="#1f5e77"/><path d="m86.76 153.36-1.24.72-1.42-.82 1.24-.72z" fill="#1f5e77"/><path d="m424.31 270.54 9.79-5.68a1.31 1.31 0 0 1 1.34 0l23.22 13.41a.59.59 0 0 1 0 1l-9.57 5.55a1.56 1.56 0 0 1 -1.59 0l-23.19-13.38a.53.53 0 0 1 0-.9z" fill="#1f5e77" transform="translate(-346.41 -142.59)"/><path d="m424.31 271.45 23.19 13.38a1.56 1.56 0 0 0 1.59 0l9.57-5.55a.6.6 0 0 0 .29-.51v1.23a.58.58 0 0 1 -.29.5l-9.57 5.5a1.59 1.59 0 0 1 -1.59 0l-23.19-13.39a.53.53 0 0 1 -.26-.46v-1.15a.53.53 0 0 0 .26.45z" fill="#07304b" transform="translate(-346.41 -142.59)"/><path d="m424.31 271.45 23.19 13.38a1.54 1.54 0 0 0 .72.21v1.19a1.53 1.53 0 0 1 -.72-.2l-23.19-13.39a.53.53 0 0 1 -.26-.46v-1.18a.53.53 0 0 0 .26.45z" fill="#0b3b56" transform="translate(-346.41 -142.59)"/><path d="m103.29 128.84-18.04-10.45v8.94l18.04 10.44z" fill="#0f4463"/><path d="m87.76 116.95-2.51 1.44 18.04 10.45 2.52-1.45z" fill="#07304b"/><path d="m105.81 127.39-2.52 1.45v8.93l2.52-1.46z" fill="#07304b"/><path d="m67 72.89 54.86 31.82v40.36l-54.86-31.94z" fill="url(#a)"/><path d="m121.86 104.71 1.82-1.11v40.37l-1.82 1.1z" fill="#07304b"/><path d="m67 72.89 1.87-1.08 54.81 31.79-1.82 1.11z" fill="#1f5e77"/><path d="m413.41 215.49v40.24l54.86 31.94v-40.37zm53.59 69.92-52.29-30.41v-37.26l52.29 30.31z" fill="#0b3b56" transform="translate(-346.41 -142.59)"/><path d="m393.1 265.32c-.57 5.77-4.82 10.07-9.5 9.61s-8-5.51-7.43-11.28 4.82-10.06 9.49-9.6 8.01 5.51 7.44 11.27z" fill="#fed4bd" transform="translate(-346.41 -142.59)"/><path d="m400.09 278.76s2 .49 2.74.56 3.38.63 4.47.3-1-1.06-1.47-1.43-.48-1.32.62-1.65 3.6-.18 4.92-.37-1.31-4.18-3.46-4.55a9.09 9.09 0 0 0 -5.89.8c-1.83.9-2.83 2.43-3.68 2.72z" fill="#f4c5a2" transform="translate(-346.41 -142.59)"/><path d="m400.33 273.32-13.91 3.49-.7 8.83 16.42-5.64c.34-3.11-1.81-6.68-1.81-6.68z" fill="#ed5561" transform="translate(-346.41 -142.59)"/><path d="m366 277.06s-3.85 4.84 0 11.52c0 0 2.69 3.72 10.07.07z" fill="#ed5561" transform="translate(-346.41 -142.59)"/><path d="m377.43 271.4s6-.41 10.69 2.87a3.62 3.62 0 0 0 1.29 1.62c.94.63 5.61 2.5 5.61 2.5s-2.06 27.37.3 40.7c0 0-10.13 7.91-26 0 0 0-2.31-33.61-3.33-42 .01-.03 2.68-3.29 11.44-5.69z" fill="#de495a" transform="translate(-346.41 -142.59)"/><path d="m28.38 173.99-28.38-16.41 9.55 27.67 28.39 16.37z" fill="#bbcee1"/><path d="m3.13 155.76-3.13 1.82 28.38 16.41 3.17-1.84z" fill="#fff"/><path d="m31.55 172.15-3.17 1.84 9.56 27.63 3.2-1.84z" fill="#a7bcce"/><path d="m418.79 290.89s1.55-1.56 2.14-2 2.67-2.41 3.84-2.67-.82 1.77-1.07 2.4 1.2-.51 2.29-.92a5.39 5.39 0 0 1 3.72.13c2.69 1 2.56 6.33.36 5.7-3.61-1-5.23 1.82-7.39 2.42a21.71 21.71 0 0 1 -3.05.56z" fill="#f4c5a2" transform="translate(-346.41 -142.59)"/><path d="m395 278.39 11.73 15.55 12.2-3.6s2.62 3.3 1.77 6.79l-16.28 6.34-13.23-14.55s-4.41-9.24 3.81-10.53z" fill="#ed5561" transform="translate(-346.41 -142.59)"/><path d="m388.48 249.12s.9 2.17-3.42 2.76-9.65 2.73-11.06 7.29c-.9 2.91.14 6 1.61 8.58a16.48 16.48 0 0 0 1.71 2.5 9.33 9.33 0 0 0 6.37-1.09 11.06 11.06 0 0 0 3.43-4.18s2.57 1.07 3.37-1.07c.59-1.58 2.45-2 3.46-2.83.05-0 5.83-9.53-5.47-11.96z" fill="#9d4d36" transform="translate(-346.41 -142.59)"/><path d="m203.15 189.34-18.81-10.91v7.04l18.81 10.88z" fill="#bbcee1"/><path d="m203.78 167.26-19.44 11.17 18.81 10.91 19.46-11.18z" fill="#fff"/><path d="m222.61 178.16-19.46 11.18v7.01l19.46-11.26z" fill="#a7bcce"/><path d="m203.15 177.84-18.81-10.92v7.04l18.81 10.88z" fill="#bbcee1"/><path d="m203.78 155.75-19.44 11.17 18.81 10.92 19.46-11.19z" fill="#fff"/><path d="m222.61 166.65-19.46 11.19v7l19.46-11.26z" fill="#a7bcce"/><path d="m171.34 207.76-18.8-10.92v7.04l18.81 10.88z" fill="#bbcee1"/><path d="m171.98 185.67-19.44 11.17 18.8 10.92 19.47-11.19z" fill="#fff"/><path d="m190.81 196.57-19.47 11.19.01 7 19.46-11.26z" fill="#a7bcce"/><path d="m171.34 196.25-18.8-10.91v7.03l18.81 10.89z" fill="#bbcee1"/><path d="m171.98 174.17-19.44 11.17 18.8 10.91 19.47-11.18z" fill="#fff"/><path d="m190.81 185.07-19.47 11.18.01 7.01 19.46-11.26z" fill="#a7bcce"/><path d="m139.54 226.17-18.8-10.91v7.03l18.8 10.89z" fill="#bbcee1"/><path d="m140.18 204.09-19.44 11.17 18.8 10.91 19.47-11.18z" fill="#fff"/><path d="m159.01 214.99-19.47 11.18v7.01l19.47-11.26z" fill="#a7bcce"/><path d="m139.54 214.66-18.8-10.91v7.04l18.8 10.88z" fill="#bbcee1"/><path d="m140.18 192.58-19.44 11.17 18.8 10.91 19.47-11.18z" fill="#fff"/><path d="m159.01 203.48-19.47 11.18v7.01l19.47-11.26z" fill="#a7bcce"/><path d="m491.82 350.37-1.18-.69a10.7 10.7 0 0 1 -2.77.67v1h-2.87v-1a10.9 10.9 0 0 1 -2.77-.67l-1.17.69-2-1.18 1.18-.68a3.76 3.76 0 0 1 -1.16-1.6h-1.66v-1.67h1.58a3.73 3.73 0 0 1 1.14-1.6l-1.14-.64 2-1.18 1.18.68a11.14 11.14 0 0 1 2.76-.66v-1h2.87v1a11.3 11.3 0 0 1 2.78.66l1.17-.68 2 1.18-1.18.68a3.7 3.7 0 0 1 1.16 1.6h1.66v1.66h-1.6a3.73 3.73 0 0 1 -1.14 1.6l1.18.68zm-8.06-2.75a5.89 5.89 0 0 0 5.33 0c1.46-.86 1.45-2.24 0-3.09a5.87 5.87 0 0 0 -5.32 0c-1.47.85-1.46 2.23 0 3.09" fill="#1c75bc" transform="translate(-346.41 -142.59)"/><path d="m173.41 180.24 1.83 3.9 1.83 3.91-6.75-1.05-6.75-1.04 4.92-2.86z" fill="#ef4136"/><path d="m542.83 308.41c-1-.59-.56-1.44 1.38-2.57a8.62 8.62 0 0 1 2.56-1 2.67 2.67 0 0 1 1.85.16 1.35 1.35 0 0 1 .49.45 2.3 2.3 0 0 1 .23.51l1.78-.44a2.21 2.21 0 0 0 -.47-.77 2.88 2.88 0 0 0 -.76-.58 5.35 5.35 0 0 0 -3.31-.61 10.25 10.25 0 0 0 -4 1.39 5 5 0 0 0 -2.39 2.28c-.24.73.11 1.36 1 1.91a5.22 5.22 0 0 0 2 .67l1.38-.8a5.29 5.29 0 0 1 -1.74-.6z" fill="#91a6b7" transform="translate(-346.41 -142.59)"/><path d="m551.28 310.56a1.75 1.75 0 0 0 0-1.31 1.74 1.74 0 0 1 -.14-.91.88.88 0 0 1 .49-.57 2 2 0 0 1 .88-.28 1.56 1.56 0 0 1 .83.19 1.87 1.87 0 0 1 .53.45 4.29 4.29 0 0 1 .29.5l1.76-.42a3 3 0 0 0 -1.32-1.39 4.2 4.2 0 0 0 -2.24-.56 4.56 4.56 0 0 0 -2.3.64 3.23 3.23 0 0 0 -.84.66 1.69 1.69 0 0 0 -.33.69 2 2 0 0 0 .11.89 1.85 1.85 0 0 1 .12 1 .88.88 0 0 1 -.49.6 1.79 1.79 0 0 1 -.89.25 1.75 1.75 0 0 1 -.93-.24 2.61 2.61 0 0 1 -1.12-1.36l-1.53.89a3.42 3.42 0 0 0 1.44 1.33 4.41 4.41 0 0 0 2.34.63 4.81 4.81 0 0 0 2.38-.7 2.32 2.32 0 0 0 .96-.98z" fill="#91a6b7" transform="translate(-346.41 -142.59)"/><path d="m559.43 309.63a4.27 4.27 0 0 0 -2.24-.57 4.73 4.73 0 0 0 -2.3.65 3 3 0 0 0 -.83.66 1.47 1.47 0 0 0 -.33.69 1.81 1.81 0 0 0 .11.88 2 2 0 0 1 .12 1 1 1 0 0 1 -.49.6 1.9 1.9 0 0 1 -.9.25 1.71 1.71 0 0 1 -.92-.24 2.57 2.57 0 0 1 -1.12-1.36l-1.53.89a3.33 3.33 0 0 0 1.43 1.33 4.53 4.53 0 0 0 2.34.63 4.85 4.85 0 0 0 2.39-.7 2.35 2.35 0 0 0 1-.94 1.73 1.73 0 0 0 0-1.32 1.82 1.82 0 0 1 -.14-.9.94.94 0 0 1 .5-.58 2 2 0 0 1 .88-.27 1.48 1.48 0 0 1 .83.19 1.68 1.68 0 0 1 .52.45 3.22 3.22 0 0 1 .29.5l1.76-.43a3 3 0 0 0 -1.37-1.41z" fill="#91a6b7" transform="translate(-346.41 -142.59)"/><path d="m549.14 246.82-18.27-10.53a1.69 1.69 0 0 0 -1.82.07l-4 2.31 1.87 2.53.69.8v18.09a3 3 0 0 0 1.51 2.61l13.67 7.91.14.76 2.79 3.91 4.29-2.53a1.37 1.37 0 0 0 .65-1.17v-22a3.14 3.14 0 0 0 -1.52-2.76z" fill="#79ff68" transform="translate(-346.41 -142.59)"/><path d="m544.87 249.33-18.48-10.66a1.35 1.35 0 0 0 -2 1.17v22.16a3 3 0 0 0 1.51 2.62l18.47 10.68a1.4 1.4 0 0 0 2.09-1.2v-22.1a3.14 3.14 0 0 0 -1.59-2.67z" fill="#50e85e" transform="translate(-346.41 -142.59)"/><path d="m546.43 274.06v-22.06a3 3 0 0 0 -.22-1.06l4.29-2.47a3.19 3.19 0 0 1 .2 1v22a1.37 1.37 0 0 1 -.65 1.17l-4.25 2.5a1.36 1.36 0 0 0 .63-1.08z" fill="#3cc743" transform="translate(-346.41 -142.59)"/><path d="m570 202.83-18.27-10.54a1.73 1.73 0 0 0 -1.83.07l-4 2.32 1.87 2.52.69.8v18.09a3 3 0 0 0 1.51 2.62l13.67 7.9.14.76 2.79 3.91 4.29-2.52a1.35 1.35 0 0 0 .65-1.17v-22a3.1 3.1 0 0 0 -1.51-2.76z" fill="#9263c1" transform="translate(-346.41 -142.59)"/><path d="m565.77 205.34-18.48-10.67a1.36 1.36 0 0 0 -2 1.18v22.15a3 3 0 0 0 1.51 2.61l18.47 10.68a1.39 1.39 0 0 0 2.08-1.2v-22.09a3.1 3.1 0 0 0 -1.58-2.66z" fill="#8444b2" transform="translate(-346.41 -142.59)"/><path d="m567.32 230.06v-22.06a2.94 2.94 0 0 0 -.21-1.06l4.29-2.47a3.23 3.23 0 0 1 .19 1v22a1.35 1.35 0 0 1 -.65 1.17l-4.26 2.5a1.37 1.37 0 0 0 .64-1.08z" fill="#7231a3" transform="translate(-346.41 -142.59)"/><path d="m509 203.15-18.3-10.54a1.73 1.73 0 0 0 -1.83.07l-4 2.31 1.87 2.53.69.8v18.09a3 3 0 0 0 1.51 2.62l13.67 7.9.14.76 2.79 3.91 4.29-2.52a1.37 1.37 0 0 0 .65-1.17v-22a3.1 3.1 0 0 0 -1.48-2.76z" fill="#ffa8e1" transform="translate(-346.41 -142.59)"/><path d="m504.7 205.66-18.48-10.66a1.35 1.35 0 0 0 -2 1.18v22.11a3 3 0 0 0 1.51 2.62l18.47 10.68a1.39 1.39 0 0 0 2.08-1.2v-22a3.1 3.1 0 0 0 -1.58-2.73z" fill="#ff7ad2" transform="translate(-346.41 -142.59)"/><path d="m506.25 230.38v-22a2.94 2.94 0 0 0 -.21-1.06l4.29-2.47a3.23 3.23 0 0 1 .19 1v22a1.37 1.37 0 0 1 -.65 1.17l-4.26 2.5a1.37 1.37 0 0 0 .64-1.14z" fill="#de64c6" transform="translate(-346.41 -142.59)"/><path d="m469 160.49-18.29-10.49a1.73 1.73 0 0 0 -1.83.07l-4 2.32 1.86 2.52.7.8v18.09a3 3 0 0 0 1.5 2.62l13.67 7.9.14.76 2.79 3.91 4.29-2.52a1.34 1.34 0 0 0 .66-1.17v-22a3.11 3.11 0 0 0 -1.49-2.81z" fill="#fcec32" transform="translate(-346.41 -142.59)"/><path d="m464.7 163-18.48-10.67a1.36 1.36 0 0 0 -2 1.18v22.12a3 3 0 0 0 1.51 2.61l18.48 10.68a1.39 1.39 0 0 0 2.08-1.2v-22a3.09 3.09 0 0 0 -1.59-2.72z" fill="#f5d012" transform="translate(-346.41 -142.59)"/><path d="m466.26 187.72v-22a3.17 3.17 0 0 0 -.21-1.06l4.28-2.47a3 3 0 0 1 .2 1v22a1.34 1.34 0 0 1 -.66 1.17l-4.25 2.5a1.39 1.39 0 0 0 .64-1.14z" fill="#eaa10c" transform="translate(-346.41 -142.59)"/><path d="m501.05 210a11.72 11.72 0 0 0 -4.06-4.29 4.09 4.09 0 0 0 -4.08-.41c-2 1.14-2.23 4.57-.68 8l-5 2.86 1.46 2.53 5-2.86a10.86 10.86 0 0 0 3.27 3.06 4.08 4.08 0 0 0 4.06.41c2.26-1.24 2.27-5.42.03-9.3zm-1.49 6.81a2.62 2.62 0 0 1 -2.6-.26 7.42 7.42 0 0 1 -2.6-2.74c-1.43-2.48-1.43-5.16 0-6a2.62 2.62 0 0 1 2.6.26 7.62 7.62 0 0 1 2.6 2.75c1.44 2.49 1.44 5.18 0 5.99z" fill="#fff" transform="translate(-346.41 -142.59)"/><path d="m450 164.9a3.89 3.89 0 0 1 .84.65c.28.28.56.57.84.89l.52-1.19a8.88 8.88 0 0 0 -2.19-1.87 3.27 3.27 0 0 0 -1.87-.54 1.53 1.53 0 0 0 -1.23.84 4.43 4.43 0 0 0 -.43 2.11 7.91 7.91 0 0 0 .86 3.77 6.33 6.33 0 0 0 2.5 2.58 5.15 5.15 0 0 0 2.06.75v-1.53a5.8 5.8 0 0 1 -1.91-.65c-1.25-.72-1.88-2-1.87-4a2.66 2.66 0 0 1 .49-1.87c.39-.3.81-.29 1.39.06z" fill="#8444b2" transform="translate(-346.41 -142.59)"/><path d="m109.72 25.86-1.12-.65-.01 2.3-1.98-1.15v1.29l1.98 1.15-.01 2.27 1.12.64.01-2.26 1.98 1.14.01-1.29-1.99-1.15z" fill="#8444b2"/><path d="m115.7 31.61.01-2.29-1.12-.65-.01 2.29-1.98-1.14v1.29l1.98 1.15-.01 2.26 1.12.65.01-2.27 1.98 1.15v-1.29z" fill="#8444b2"/><path d="m551.31 203.94a1.75 1.75 0 0 0 -.3 1.2v2.72c0 .5-.16.77-.48.8a2.55 2.55 0 0 1 -1.38-.46v1.8a4.68 4.68 0 0 1 1.37 1.13 2.27 2.27 0 0 1 .48 1.44v2.61a3.78 3.78 0 0 0 .29 1.56 4 4 0 0 0 1 1.27 10.09 10.09 0 0 0 1.79 1.26v-1.74a3.1 3.1 0 0 1 -1-.89 2.06 2.06 0 0 1 -.26-1v-2.64a3.45 3.45 0 0 0 -1.65-2.74v-.1c1.09.45 1.64.14 1.66-.92v-2.5c0-.4.09-.65.27-.73s.51 0 1 .26v-1.74a7.15 7.15 0 0 0 -1.78-.8 1 1 0 0 0 -1.01.21z" fill="#fff" transform="translate(-346.41 -142.59)"/><path d="m561.64 215.09a2.18 2.18 0 0 1 -.47-1.36v-2.73a3.56 3.56 0 0 0 -.68-2.2 7.58 7.58 0 0 0 -2.35-1.88v1.74a3 3 0 0 1 1 .88 2 2 0 0 1 .26 1v2.5a3.63 3.63 0 0 0 1.67 2.85v.1a1.63 1.63 0 0 0 -1.24-.13c-.29.14-.44.46-.44 1v2.58c0 .4-.09.65-.26.74s-.52 0-1-.27v1.74a4.28 4.28 0 0 0 2.37.84c.45-.09.68-.56.68-1.42v-2.61c0-.54.16-.84.47-.89a2.48 2.48 0 0 1 1.38.46v-1.84a4.85 4.85 0 0 1 -1.39-1.1z" fill="#fff" transform="translate(-346.41 -142.59)"/><path d="m180.3 110.33 5.72 6.22.01-1.59-3.95-4.15 3.96.18v-1.59l-5.74-.02z" fill="#1f5e77"/><path d="m186.61 118.24 1.6.92 3.18-7.89-1.61-.92z" fill="#1f5e77"/><path d="m191.94 112.81v1.59l3.95 4.38-3.96-.41-.01 1.59 5.75.4v-.95z" fill="#1f5e77"/><path d="m73.83 81.28v1.07l4.5 2.59v-1.07z" fill="#f5d012"/><path d="m73.83 83.23v1.07l4.5 2.6v-1.07z" fill="#edf0f8"/><path d="m73.83 85.19v1.07l4.5 2.59v-1.07z" fill="#edf0f8"/><path d="m107.77 107.79v-1.07l-27.76-16.01v1.07z" fill="#edf0f8"/><path d="m73.83 87.14v1.07l4.5 2.6v-1.07z" fill="#edf0f8"/><path d="m73.83 89.1v1.07l4.5 2.59v-1.07z" fill="#edf0f8"/><path d="m107.77 109.74v-1.07l-27.76-16v1.06z" fill="#50e85e"/><path d="m73.83 94.96v1.07l4.5 2.6v-1.07z" fill="#edf0f8"/><path d="m73.83 96.92v1.07l4.5 2.59v-1.07z" fill="#f5d012"/><path d="m73.83 104.74v1.07l4.5 2.6v-1.08z" fill="#edf0f8"/><path d="m73.83 106.7v1.07l4.5 2.59v-1.07z" fill="#edf0f8"/><path d="m97.52 120.36-17.51-10.1v1.07l17.51 10.1z" fill="#50e85e"/><path d="m98.44 120.89v1.08l9.33 5.37v-1.07z" fill="#edf0f8"/><path d="m88.81 113.38-8.8-5.07v1.07l8.8 5.07z" fill="#edf0f8"/><path d="m89.73 113.92v1.06l18.04 10.41v-1.07z" fill="#edf0f8"/><path d="m105.39 117.08v1.07l2.38 1.37v-1.07z" fill="#edf0f8"/><path d="m92.48 107.68-12.47-7.19v1.07l12.47 7.19z" fill="#ed5561"/><path d="m87.37 89.09-7.36-4.25v1.07l7.36 4.25z" fill="#edf0f8"/><path d="m99.44 96.05-11.14-6.43v1.07l11.14 6.43z" fill="#edf0f8"/><path d="m92.94 94.26-7.84-4.53v1.07l7.84 4.53z" fill="#edf0f8"/><path d="m101.18 99-7.31-4.21v1.07l7.31 4.22z" fill="#ed5561"/><path d="m102.1 99.54v1.07l5.67 3.27v-1.07z" fill="#edf0f8"/><path d="m81.46 89.59v1.07l5.91 3.41v-1.07z" fill="#ed5561"/><path d="m105.45 103.43-17.15-9.9v1.07l17.15 9.9z" fill="#edf0f8"/><path d="m95.63 103.63-11.21-6.47v1.07l11.21 6.47z" fill="#edf0f8"/><path d="m105.45 109.29-8.9-5.13v1.07l8.9 5.13z" fill="#edf0f8"/><path d="m104.47 114.59-11.06-6.38v1.07l11.06 6.38z" fill="#edf0f8"/><path d="m98.44 113.07v1.07l6.03 3.48v-1.07z" fill="#50e85e"/><g fill="#edf0f8"><path d="m82.18 103.69-2.17-1.25v1.07l2.17 1.25z"/><path d="m86.25 106.04v1.07l11.27 6.5v-1.07z"/><path d="m85.33 105.51-2.22-1.28v1.07l2.22 1.28z"/><path d="m95.44 113.29-12.33-7.11v1.07l12.33 7.11z"/><path d="m109.72 101.99v.29l1.24.72v-.3z"/><path d="m109.72 102.53v.29l1.24.72v-.3z"/><path d="m109.72 103.07v.29l1.24.72v-.3z"/><path d="m119.07 109.29v-.29l-7.65-4.41v.29z"/><path d="m109.72 103.61v.29l1.24.71v-.29z"/><path d="m109.72 104.14v.3l1.24.71v-.29z"/><path d="m119.07 109.83v-.29l-7.65-4.41v.29z"/><path d="m109.72 105.76v.3l1.24.71v-.29z"/><path d="m109.72 106.3v.29l1.24.72v-.3z"/><path d="m109.72 108.45v.3l1.24.72v-.3z"/><path d="m109.72 108.99v.3l1.24.71v-.29z"/><path d="m116.25 112.76-4.83-2.78v.29l4.83 2.78z"/><path d="m116.5 112.91v.29l2.57 1.48v-.29z"/><path d="m113.85 110.84-2.43-1.4v.29l2.43 1.4z"/><path d="m114.1 110.98v.3l4.97 2.86v-.29z"/><path d="m118.42 111.86v.29l.65.38v-.3z"/><path d="m114.86 109.26-3.44-1.98v.3l3.44 1.98z"/><path d="m113.45 104.14-2.03-1.17v.3l2.03 1.17z"/><path d="m116.78 106.06-3.08-1.77v.29l3.08 1.77z"/><path d="m114.98 105.57-2.16-1.25v.29l2.16 1.25z"/><path d="m117.25 106.87-2.01-1.16v.3l2.01 1.16z"/><path d="m117.51 107.02v.3l1.56.9v-.3z"/><path d="m111.82 104.28v.3l1.63.93v-.29z"/><path d="m118.43 108.09-4.73-2.72v.29l4.73 2.73z"/><path d="m115.72 108.15-3.08-1.78v.29l3.08 1.78z"/><path d="m118.43 109.71-2.45-1.41v.29l2.45 1.41z"/><path d="m118.16 111.17-3.05-1.76v.3l3.05 1.76z"/><path d="m116.5 110.75v.3l1.66.95v-.29z"/><path d="m112.02 108.17-.6-.35v.3l.6.34z"/><path d="m113.14 108.81v.3l3.11 1.79v-.3z"/><path d="m112.89 108.67-.62-.36v.3l.62.35z"/><path d="m115.67 110.81-3.4-1.96v.3l3.4 1.96z"/><path d="m109.72 111.11v.29l1.24.72v-.3z"/><path d="m109.72 111.64v.3l1.24.72v-.3z"/><path d="m109.72 112.18v.3l1.24.71v-.29z"/><path d="m119.07 118.41v-.29l-7.65-4.41v.29z"/><path d="m109.72 112.72v.3l1.24.71v-.29z"/><path d="m109.72 113.26v.3l1.24.71v-.29z"/><path d="m119.07 118.95v-.29l-7.65-4.42v.3z"/><path d="m109.72 114.88v.29l1.24.72v-.3z"/><path d="m109.72 115.42v.29l1.24.72v-.3z"/><path d="m109.72 117.57v.3l1.24.71v-.29z"/><path d="m109.72 118.11v.3l1.24.71v-.29z"/><path d="m116.25 121.88-4.83-2.79v.3l4.83 2.78z"/><path d="m116.5 122.02v.3l2.57 1.48v-.3z"/><path d="m113.85 119.95-2.43-1.39v.29l2.43 1.4z"/><path d="m114.1 120.1v.29l4.97 2.87v-.29z"/><path d="m118.42 120.97v.3l.65.37v-.29z"/><path d="m114.86 118.38-3.44-1.98v.29l3.44 1.99z"/><path d="m113.45 113.26-2.03-1.17v.29l2.03 1.17z"/><path d="m116.78 115.18-3.08-1.77v.29l3.08 1.77z"/><path d="m114.98 114.68-2.16-1.24v.29l2.16 1.25z"/><path d="m117.25 115.99-2.01-1.16v.3l2.01 1.16z"/><path d="m117.51 116.14v.29l1.56.9v-.29z"/><path d="m111.82 113.4v.29l1.63.94v-.29z"/><path d="m118.43 117.21-4.73-2.73v.3l4.73 2.72z"/><path d="m115.72 117.27-3.08-1.79v.3l3.08 1.78z"/><path d="m118.43 118.83-2.45-1.42v.3l2.45 1.41z"/><path d="m118.16 120.29-3.05-1.76v.29l3.05 1.76z"/><path d="m116.5 119.87v.29l1.66.96v-.29z"/><path d="m112.02 117.28-.6-.34v.29l.6.35z"/><path d="m113.14 117.93v.29l3.11 1.8v-.3z"/><path d="m112.89 117.78-.62-.35v.29l.62.36z"/><path d="m115.67 119.93-3.4-1.96v.29l3.4 1.96z"/><path d="m109.72 120.22v.3l1.24.71v-.29z"/><path d="m109.72 120.76v.3l1.24.71v-.29z"/><path d="m109.72 121.3v.3l1.24.71v-.29z"/><path d="m119.07 127.53v-.3l-7.65-4.41v.3z"/><path d="m109.72 121.84v.3l1.24.71v-.29z"/><path d="m109.72 122.38v.29l1.24.72v-.3z"/><path d="m119.07 128.07v-.3l-7.65-4.41v.3z"/><path d="m109.72 124v.29l1.24.71v-.29z"/><path d="m109.72 124.53v.3l1.24.71v-.29z"/><path d="m109.72 126.69v.29l1.24.72v-.3z"/><path d="m109.72 127.23v.29l1.24.72v-.3z"/><path d="m116.25 130.99-4.83-2.78v.3l4.83 2.78z"/><path d="m116.5 131.14v.3l2.57 1.48v-.3z"/><path d="m113.85 129.07-2.43-1.4v.3l2.43 1.4z"/><path d="m114.1 129.22v.29l4.97 2.87v-.3z"/><path d="m118.42 130.09v.29l.65.38v-.29z"/><path d="m114.86 127.5-3.44-1.98v.29l3.44 1.98z"/><path d="m113.45 122.38-2.03-1.17v.29l2.03 1.17z"/><path d="m116.78 124.29-3.08-1.77v.3l3.08 1.77z"/><path d="m114.98 123.8-2.16-1.25v.3l2.16 1.24z"/><path d="m117.25 125.11-2.01-1.16v.29l2.01 1.16z"/><path d="m117.51 125.25v.3l1.56.9v-.29z"/><path d="m111.82 122.51v.3l1.63.94v-.3z"/><path d="m118.43 126.33-4.73-2.73v.29l4.73 2.73z"/><path d="m115.72 126.38-3.08-1.78v.29l3.08 1.79z"/><path d="m118.43 127.94-2.45-1.41v.29l2.45 1.42z"/><path d="m118.16 129.4-3.05-1.76v.3l3.05 1.76z"/><path d="m116.5 128.99v.29l1.66.96v-.3z"/><path d="m112.02 126.4-.6-.34v.29l.6.34z"/><path d="m113.14 127.05v.29l3.11 1.79v-.29z"/><path d="m112.89 126.9-.62-.35v.29l.62.35z"/><path d="m115.67 129.05-3.4-1.96v.29l3.4 1.96z"/><path d="m109.72 129.34v.3l1.24.71v-.29z"/><path d="m109.72 129.88v.29l1.24.72v-.3z"/><path d="m109.72 130.42v.29l1.24.72v-.3z"/><path d="m119.07 136.65v-.3l-7.65-4.41v.3z"/><path d="m109.72 130.96v.29l1.24.72v-.3z"/><path d="m109.72 131.5v.29l1.24.71v-.29z"/><path d="m119.07 137.18v-.29l-7.65-4.41v.29z"/><path d="m109.72 133.11v.3l1.24.71v-.29z"/><path d="m109.72 133.65v.3l1.24.71v-.29z"/><path d="m118.42 139.21v.29l.65.38v-.3z"/><path d="m114.86 136.62-3.44-1.99v.3l3.44 1.98z"/><path d="m113.45 131.49-2.03-1.17v.3l2.03 1.17z"/><path d="m116.78 133.41-3.08-1.77v.3l3.08 1.77z"/><path d="m114.98 132.92-2.16-1.25v.3l2.16 1.24z"/><path d="m117.25 134.23-2.01-1.17v.3l2.01 1.16z"/><path d="m117.51 134.37v.3l1.56.9v-.3z"/><path d="m111.82 131.63v.3l1.63.94v-.3z"/><path d="m118.43 135.44-4.73-2.72v.29l4.73 2.73z"/><path d="m115.72 135.5-3.08-1.78v.29l3.08 1.78z"/><path d="m118.43 137.06-2.45-1.41v.29l2.45 1.42z"/><path d="m118.16 138.52-3.05-1.76v.3l3.05 1.76z"/><path d="m116.5 138.1v.3l1.66.95v-.29z"/><path d="m112.02 135.52-.6-.35v.3l.6.34z"/><path d="m113.14 136.16v.3l3.11 1.79v-.29z"/><path d="m112.89 136.02-.62-.36v.3l.62.35z"/><path d="m115.67 138.16-3.4-1.96v.3l3.4 1.96z"/></g><path d="m417.36 222.21-1.48-.86a.11.11 0 0 0 -.17.1v1.77a.23.23 0 0 0 .13.21l1.48.86a.11.11 0 0 0 .16-.1v-1.77a.22.22 0 0 0 -.12-.21z" fill="#50e85e" transform="translate(-346.41 -142.59)"/><path d="m417.36 224.86-1.48-.85a.11.11 0 0 0 -.17.09v1.77a.23.23 0 0 0 .13.21l1.48.86a.11.11 0 0 0 .16-.1v-1.76a.25.25 0 0 0 -.12-.22z" fill="#50e85e" transform="translate(-346.41 -142.59)"/><path d="m417.36 227.51-1.48-.85a.11.11 0 0 0 -.17.09v1.78a.26.26 0 0 0 .13.21l1.48.85a.1.1 0 0 0 .16-.09v-1.77a.25.25 0 0 0 -.12-.22z" fill="#50e85e" transform="translate(-346.41 -142.59)"/><path d="m417.36 230.17-1.48-.86a.11.11 0 0 0 -.17.1v1.77a.23.23 0 0 0 .13.21l1.48.86a.11.11 0 0 0 .16-.1v-1.77a.22.22 0 0 0 -.12-.21z" fill="#50e85e" transform="translate(-346.41 -142.59)"/><path d="m417.36 232.82-1.48-.85a.11.11 0 0 0 -.17.09v1.77a.23.23 0 0 0 .13.21l1.48.86a.11.11 0 0 0 .16-.1v-1.8a.24.24 0 0 0 -.12-.18z" fill="#50e85e" transform="translate(-346.41 -142.59)"/><path d="m417.36 235.47-1.48-.85a.11.11 0 0 0 -.17.09v1.78a.26.26 0 0 0 .13.21l1.48.85a.11.11 0 0 0 .16-.09v-1.77a.25.25 0 0 0 -.12-.22z" fill="#50e85e" transform="translate(-346.41 -142.59)"/><path d="m417.36 238.13-1.48-.86a.11.11 0 0 0 -.17.1v1.77a.23.23 0 0 0 .13.21l1.48.86a.11.11 0 0 0 .16-.1v-1.77a.22.22 0 0 0 -.12-.21z" fill="#50e85e" transform="translate(-346.41 -142.59)"/><path d="m417.36 240.78-1.48-.86a.12.12 0 0 0 -.17.1v1.77a.23.23 0 0 0 .13.21l1.48.86a.11.11 0 0 0 .16-.1v-1.76a.24.24 0 0 0 -.12-.22z" fill="#50e85e" transform="translate(-346.41 -142.59)"/><path d="m417.36 243.43-1.48-.85a.11.11 0 0 0 -.17.09v1.78a.23.23 0 0 0 .13.2l1.48.86a.11.11 0 0 0 .16-.09v-1.77a.25.25 0 0 0 -.12-.22z" fill="#50e85e" transform="translate(-346.41 -142.59)"/><path d="m417.36 246.09-1.48-.86a.11.11 0 0 0 -.17.1v1.77a.24.24 0 0 0 .13.21l1.48.85a.1.1 0 0 0 .16-.09v-1.77a.22.22 0 0 0 -.12-.21z" fill="#50e85e" transform="translate(-346.41 -142.59)"/><path d="m417.36 248.74-1.48-.86a.11.11 0 0 0 -.17.1v1.77a.23.23 0 0 0 .13.21l1.48.86a.11.11 0 0 0 .16-.1v-1.72a.24.24 0 0 0 -.12-.26z" fill="#50e85e" transform="translate(-346.41 -142.59)"/><path d="m417.36 251.39-1.48-.85a.11.11 0 0 0 -.17.09v1.78a.23.23 0 0 0 .13.2l1.48.86a.11.11 0 0 0 .16-.1v-1.76a.25.25 0 0 0 -.12-.22z" fill="#50e85e" transform="translate(-346.41 -142.59)"/><g fill="#fff" opacity=".4"><path d="m140.54 89.02v1.07l4.5 2.59v-1.07z"/><path d="m140.54 90.97v1.07l4.5 2.6v-1.08z"/><path d="m140.54 92.93v1.07l4.5 2.59v-1.07z"/><path d="m174.48 115.53v-1.07l-27.75-16.01v1.07z"/><path d="m140.54 94.88v1.07l4.5 2.6v-1.07z"/><path d="m140.54 96.84v1.07l4.5 2.59v-1.07z"/><path d="m174.48 117.48v-1.07l-27.75-16v1.06z"/><path d="m140.54 102.7v1.08l4.5 2.59v-1.07z"/><path d="m140.54 104.66v1.07l4.5 2.59v-1.07z"/><path d="m140.54 112.48v1.07l4.5 2.6v-1.07z"/><path d="m140.54 114.44v1.07l4.5 2.59v-1.07z"/><path d="m164.24 128.1-17.51-10.1v1.08l17.51 10.09z"/><path d="m165.16 128.63v1.08l9.32 5.37v-1.07z"/><path d="m155.53 121.12-8.8-5.07v1.07l8.8 5.07z"/><path d="m156.45 121.66v1.06l18.03 10.41v-1.07z"/><path d="m172.11 124.82v1.07l2.37 1.37v-1.07z"/><path d="m159.2 115.42-12.47-7.19v1.07l12.47 7.19z"/><path d="m154.09 96.83-7.36-4.25v1.07l7.36 4.25z"/><path d="m166.16 103.79-11.15-6.43v1.07l11.15 6.43z"/><path d="m159.66 102-7.84-4.53v1.07l7.84 4.53z"/><path d="m167.89 106.75-7.31-4.22v1.07l7.31 4.21z"/><path d="m168.81 107.28v1.07l5.67 3.27v-1.07z"/><path d="m148.18 97.33v1.07l5.91 3.41v-1.07z"/><path d="m172.17 111.17-17.16-9.9v1.07l17.16 9.9z"/><path d="m162.35 111.37-11.22-6.47v1.07l11.22 6.47z"/><path d="m172.17 117.03-8.9-5.13v1.07l8.9 5.14z"/><path d="m171.19 122.33-11.07-6.38v1.07l11.07 6.38z"/><path d="m165.16 120.81v1.07l6.03 3.48v-1.07z"/><path d="m148.9 111.43-2.17-1.25v1.07l2.17 1.25z"/><path d="m152.96 113.78v1.07l11.28 6.5v-1.07z"/><path d="m152.04 113.25-2.22-1.28v1.07l2.22 1.28z"/><path d="m162.15 121.03-12.33-7.11v1.07l12.33 7.11z"/></g><g fill="#fff" opacity=".4"><path d="m181.88 22v1.07l4.5 2.59v-1.07z"/><path d="m181.88 23.95v1.07l4.5 2.6v-1.07z"/><path d="m181.88 25.91v1.07l4.5 2.59v-1.07z"/><path d="m215.82 48.51v-1.07l-27.75-16.01v1.07z"/><path d="m181.88 27.87v1.07l4.5 2.59v-1.07z"/><path d="m181.88 29.82v1.07l4.5 2.6v-1.08z"/><path d="m215.82 50.47v-1.07l-27.75-16.01v1.07z"/><path d="m181.88 35.69v1.07l4.5 2.59v-1.07z"/><path d="m181.88 37.64v1.07l4.5 2.6v-1.07z"/><path d="m181.88 45.47v1.07l4.5 2.59v-1.07z"/><path d="m181.88 47.42v1.07l4.5 2.6v-1.08z"/><path d="m205.57 61.09-17.5-10.1v1.07l17.5 10.1z"/><path d="m206.5 61.62v1.07l9.32 5.38v-1.07z"/><path d="m196.86 54.11-8.79-5.08v1.07l8.79 5.08z"/><path d="m197.78 54.64v1.07l18.04 10.4v-1.07z"/><path d="m213.45 57.8v1.08l2.37 1.36v-1.07z"/><path d="m200.54 48.4-12.47-7.19v1.07l12.47 7.19z"/><path d="m195.43 29.81-7.36-4.24v1.07l7.36 4.24z"/><path d="m207.49 36.77-11.14-6.43v1.07l11.14 6.43z"/><path d="m201 34.98-7.85-4.52v1.07l7.85 4.52z"/><path d="m209.23 39.73-7.31-4.22v1.07l7.31 4.22z"/><path d="m210.15 40.26v1.07l5.67 3.27v-1.07z"/><path d="m189.51 30.31v1.07l5.92 3.41v-1.07z"/><path d="m213.51 44.15-17.16-9.89v1.07l17.16 9.89z"/><path d="m203.68 44.35-11.21-6.47v1.07l11.21 6.47z"/><path d="m213.51 50.02-8.9-5.14v1.07l8.9 5.14z"/><path d="m212.52 55.32-11.06-6.38v1.07l11.06 6.38z"/><path d="m206.5 53.8v1.07l6.02 3.47v-1.07z"/><path d="m190.24 44.42-2.17-1.25v1.07l2.17 1.25z"/><path d="m194.3 46.76v1.07l11.27 6.51v-1.08z"/><path d="m193.38 46.23-2.22-1.28v1.07l2.22 1.28z"/><path d="m203.49 54.02-12.33-7.11v1.07l12.33 7.11z"/></g><path d="m447 302a6 6 0 0 0 -5.51.84c-3 2-5 4.73-3.78 5.75s3.57 2.11 5.1 1.56 9.09-4.99 4.19-8.15z" fill="#0f4463" transform="translate(-346.41 -142.59)"/><path d="m163.5 147.74-23.56 13.35-15.02-8.69 23.56-13.34z" fill="#ed5561"/><path d="m144.55 160.77v.52l23.56-13.49v-.38z" fill="#f0cec9"/><path d="m168.11 147.42-23.56 13.35-15.01-8.69 23.55-13.34z" fill="#fffbf0"/><path d="m144.55 160.77v.52l-15.01-8.69v-.52z" fill="#f5ddd8"/><path d="m152.93 140.16 9.07 5.23-.39.23-9.08-5.23z" fill="#dfbab8"/><path d="m151.99 140.7 9.07 5.23-.4.22-9.07-5.23z" fill="#dfbab8"/><path d="m149.8 141.94 12.49 7.21-.4.22-12.49-7.21z" fill="#dfbab8"/><path d="m148.93 142.43 12.49 7.21-.39.22-12.5-7.21z" fill="#dfbab8"/><path d="m148.07 142.92 12.49 7.21-.4.22-12.49-7.21z" fill="#dfbab8"/><path d="m147.2 143.41 12.49 7.21-.39.22-12.49-7.21z" fill="#dfbab8"/><path d="m146.34 143.9 12.49 7.21-.4.23-12.49-7.21z" fill="#dfbab8"/><path d="m145.47 144.39 12.5 7.21-.4.23-12.49-7.21z" fill="#dfbab8"/><path d="m144.61 144.88 12.49 7.21-.4.23-12.49-7.21z" fill="#dfbab8"/><path d="m143.74 145.37 12.5 7.21-.4.23-12.49-7.21z" fill="#dfbab8"/><path d="m142.88 145.86 12.49 7.21-.4.23-12.49-7.21z" fill="#dfbab8"/><path d="m142.01 146.35 12.5 7.21-.4.23-12.49-7.21z" fill="#dfbab8"/><path d="m141.15 146.84 12.49 7.22-.4.22-12.49-7.21z" fill="#dfbab8"/><path d="m140.29 147.34 12.49 7.2-.4.23-12.49-7.21z" fill="#dfbab8"/><path d="m139.42 147.83 12.49 7.21-.4.22-12.49-7.21z" fill="#dfbab8"/><path d="m138.56 148.32 12.49 7.21-.4.22-12.49-7.21z" fill="#dfbab8"/><path d="m137.69 148.81 12.49 7.21-.39.22-12.5-7.21z" fill="#dfbab8"/><path d="m473.92 298.1h-2.2v2.38h2.2a1.49 1.49 0 0 1 1.49 1.49v3.86a1.49 1.49 0 0 1 -1.49 1.48h-3.23v2.38h3.23a3.87 3.87 0 0 0 3.87-3.86v-3.83a3.88 3.88 0 0 0 -3.87-3.9z" fill="#a7bcce" transform="translate(-346.41 -142.59)"/><path d="m473.09 296.79v13.38c0 2.08-3.09 3.76-6.9 3.76s-6.91-1.68-6.91-3.76v-13.38z" fill="#bbcee1" transform="translate(-346.41 -142.59)"/><path d="m459.28 296.79c0 2.07 3.09 3.76 6.91 3.76s6.9-1.69 6.9-3.76-3.09-3.79-6.9-3.79-6.91 1.72-6.91 3.79z" fill="#fff" transform="translate(-346.41 -142.59)"/><path d="m460.66 296.74c0 1.63 2.47 2.94 5.53 2.94s5.53-1.31 5.53-2.94-2.48-2.93-5.53-2.93-5.53 1.31-5.53 2.93z" fill="#a7bcce" transform="translate(-346.41 -142.59)"/><path d="m466.19 295.73c-2.42 0-4.47.83-5.23 2 .76 1.15 2.81 2 5.23 2s4.47-.83 5.22-2c-.75-1.17-2.8-2-5.22-2z" fill="#9d4d36" transform="translate(-346.41 -142.59)"/><path d="m468.8 300.27v13.38a7.39 7.39 0 0 0 3.25-1.5v-13.38a7.39 7.39 0 0 1 -3.25 1.5z" fill="#a7bcce" transform="translate(-346.41 -142.59)"/></svg>