<svg fill="none" height="40" viewBox="0 0 40 40" width="40" xmlns="http://www.w3.org/2000/svg" xmlns:xlink="http://www.w3.org/1999/xlink"><clipPath id="a"><path d="m0 0h40v40h-40z"/></clipPath><g clip-path="url(#a)"><path d="m38.75 37.4999c0 .69-.56 1.25-1.25 1.25h-35c-.69 0-1.25-.56-1.25-1.25v-1.7506l9.1269-9.1269c.4881-.4881 1.2793-.4881 1.7675 0 0 0 3.8731 3.8737 4.4687 4.4687.5956.5957 1.175.5938 1.7681 0 .5932-.5937 10.7319-10.7318 10.7319-10.7318.4882-.4882 1.2794-.4882 1.7675 0l7.8694 7.87z" fill="#b4ccb9"/><path d="m37.5 0h-35c-1.38187 0-2.5 1.11813-2.5 2.5v35c0 1.3819 1.11813 2.5 2.5 2.5h35c1.3819 0 2.5-1.1181 2.5-2.5v-35c0-1.38187-1.1181-2.5-2.5-2.5zm1.25 37.5c0 .69-.56 1.25-1.25 1.25h-35c-.69 0-1.25-.56-1.25-1.25v-1.7506l9.1269-9.1269c.4881-.4881 1.2793-.4881 1.7675 0 0 0 3.8731 3.8737 4.4687 4.4687.5956.5957 1.175.5938 1.7681 0 .5932-.5937 10.7319-10.7318 10.7319-10.7318.4882-.4881 1.2794-.4881 1.7675 0l7.8694 7.87zm0-11.0387-6.9856-6.9857c-.9769-.9769-2.5582-.9769-3.535 0l-10.7319 10.7319-4.4694-4.4688c-.9769-.9768-2.5581-.9768-3.53497 0l-8.24313 8.2425v-31.4812c0-.69.56-1.25 1.25-1.25h35c.69 0 1.25.56 1.25 1.25z" fill="#394240"/><path d="m18.1244 10.6254h-1.8738c-.015 0-.0275.0075-.0425.0087-.1131-.91812-.475-1.7575-1.0162-2.4525.0112-.01.0256-.01312.0368-.02437l1.3257-1.32563c.245-.24437.2443-.63937 0-.88375-.245-.24437-.6394-.24437-.885 0l-1.325 1.325c-.0113.01125-.0144.025-.0244.03688-.6944-.54188-1.5337-.90375-2.4525-1.01688.0013-.01375.0088-.0275.0088-.04187l.0006-1.875c0-.34563-.2806-.625-.625-.625-.3469 0-.6263.27875-.6269.62562v1.87375c0 .01438.0075.02813.0087.04188-.9187.11312-1.75808.475-2.45308 1.01625-.01-.01125-.01312-.02563-.02375-.03625l-1.32562-1.325c-.24437-.245-.63938-.24438-.88375 0-.24438.245-.245.63937 0 .88437l1.32563 1.32563c.01062.01062.02499.01375.03624.02375-.54187.69437-.90375 1.535-1.01687 2.45312-.015-.0012-.02812-.0087-.0425-.0087h-1.875c-.34562 0-.625.2793-.625.625 0 .3456.27938.625.625.625h1.875c.01438 0 .0275-.0075.04188-.0088.11312.9188.475 1.7581 1.01687 2.4531-.01187.01-.02562.0132-.03687.0244l-1.32563 1.325c-.245.245-.245.6406 0 .8838.245.2456.63875.2443.885.0012l1.325-1.3256c.01125-.0113.01437-.0256.02437-.0369.69438.5413 1.53376.9031 2.45248 1.0163-.0006.0156-.0081.0281-.0081.0437l-.0006 1.8738c0 .3462.28.6262.625.625.3462 0 .625-.2794.6269-.625l-.0007-1.8738c0-.0156-.0075-.0281-.0087-.0431.9181-.1131 1.7575-.475 2.4525-1.0169.01.0119.0131.0263.0244.0375l1.3249 1.3256c.245.2457.6407.2444.8838 0 .245-.245.2444-.6393.0006-.885l-1.325-1.325c-.0112-.0112-.0256-.0143-.0375-.0243.5419-.6944.9038-1.5344 1.0169-2.4525.015.0012.0275.0087.0425.0087h1.875c.3463 0 .6256-.28.625-.625 0-.3462-.2794-.625-.6256-.6262zm-6.8744 4.375c-2.07062 0-3.75-1.6794-3.75-3.75 0-2.07067 1.67938-3.75005 3.75-3.75005 2.0706 0 3.75 1.67938 3.75 3.75005 0 2.0706-1.6794 3.75-3.75 3.75z" fill="#394240"/><path d="m37.5 1.25h-35c-.69 0-1.25.56-1.25 1.25v31.4812l8.2425-8.2425c.9769-.9768 2.5581-.9768 3.535 0l4.4694 4.4688 10.7319-10.7319c.9768-.9769 2.5581-.9769 3.5349 0l6.9863 6.9857v-23.9613c0-.69-.56-1.25-1.25-1.25zm-19.375 10.6263-1.8744-.0007c-.015 0-.0275-.0075-.0425-.0087-.1131.9181-.475 1.7575-1.0169 2.4525.0119.01.0263.0131.0375.0244l1.3251 1.3249c.2437.2457.2443.6401-.0007.8851-.2431.2443-.6387.2456-.8837 0l-1.325-1.3257c-.0113-.0112-.0144-.0256-.0244-.0375-.6944.5419-1.5344.9038-2.4525 1.0169.0013.015.0088.0275.0088.0431v1.8744c-.0019.3456-.2807.625-.6269.625-.345.0013-.625-.2787-.625-.625l.0006-1.8737c0-.0157.0075-.0282.0087-.0432-.9187-.1131-1.75745-.475-2.45245-1.0162-.01.0112-.01313.0256-.02438.0368l-1.325 1.3257c-.24625.2431-.63999.2444-.88499-.0013-.245-.2431-.245-.6387 0-.8837l1.32562-1.325c.01125-.0113.025-.0144.03687-.0244-.54187-.6944-.90375-1.5344-1.01687-2.4531-.015.0006-.02812.0081-.0425.0081h-1.875c-.34562 0-.625-.2794-.625-.625s.27938-.625.625-.625h1.875c.01438 0 .0275.0075.04188.0087.11312-.91808.475-1.75808 1.01687-2.45308-.01125-.01-.02563-.01312-.03625-.02375l-1.325-1.32562c-.245-.245-.24438-.63937 0-.88437.24437-.24438.63938-.245.88375 0l1.32562 1.32562c.01125.01062.01375.025.02375.03625.69438-.54125 1.53438-.90313 2.45308-1.01625-.0012-.01438-.0087-.02812-.0087-.0425v-1.87375c.0006-.34688.28-.62562.6263-.62625.3443 0 .625.27938.625.625l-.0007 1.875c0 .01438-.0075.02813-.0087.04188.9187.11312 1.7575.475 2.4525 1.01687.01-.01187.0131-.02562.0244-.03687l1.3249-1.325c.2457-.24438.6401-.24438.8851 0 .2443.24437.245.63937 0 .88374l-1.3257 1.32563c-.0112.01125-.0256.01437-.0369.02437.5413.69438.9032 1.53438 1.0163 2.45248.0156-.0006.0281-.0081.0431-.0081h1.8738c.3462.0013.6256.28.6256.6263.0006.345-.2787.625-.625.625z" fill="#f9ebb2"/><path d="m11.25 15c2.0711 0 3.75-1.6789 3.75-3.75 0-2.07107-1.6789-3.75-3.75-3.75-2.07107 0-3.75 1.67893-3.75 3.75 0 2.0711 1.67893 3.75 3.75 3.75z" fill="#f76d57"/></g></svg>