<svg height="800" viewBox="0 0 512 512" width="800" xmlns="http://www.w3.org/2000/svg"><path d="m256.004 69.475c9.991 0 18.109 8.106 18.109 18.109 0 9.991-8.117 18.109-18.109 18.109-10.003 0-18.109-8.117-18.109-18.109 0-10.004 8.106-18.109 18.109-18.109z" fill="#2ba5f7"/><path d="m283.115 35.798c-7.37 6.071-16.821 9.715-27.123 9.715-10.29 0-19.741-3.645-27.111-9.704l-.011-.011c7.117-10.785 16.372-20.04 27.134-27.18 10.762 7.14 20.006 16.396 27.111 27.18z" fill="#f95428"/><path d="m283.115 35.798c9.98 15.108 15.786 33.193 15.786 52.647 0 33.331-17.051 62.673-42.897 79.816-25.858-17.143-42.909-46.484-42.909-79.816 0-19.454 5.806-37.539 15.775-52.647l.011.011c7.37 6.059 16.821 9.704 27.111 9.704 10.302.001 19.753-3.644 27.123-9.715zm-9.003 51.785c0-10.003-8.117-18.109-18.109-18.109-10.003 0-18.109 8.106-18.109 18.109 0 9.991 8.106 18.109 18.109 18.109 9.992-0 18.109-8.118 18.109-18.109z" fill="#f2f2f2"/><g fill="#f95428"><path d="m213.095 88.445c0 33.331 17.051 62.673 42.909 79.816 0 0-53.67-4.806-77.815 19.339-0-70.71 34.906-99.155 34.906-99.155z"/><path d="m298.901 88.445s34.906 28.445 34.906 99.154c-24.133-24.145-77.804-19.339-77.804-19.339 25.847-17.142 42.898-46.483 42.898-79.815z"/><path d="m455.52 253.975v249.404h-199.516v-27.353h167.346v-28.962-85.288-107.801z"/><path d="m256.004 476.026v27.353h-199.528v-249.404h32.182v167.335 25.754 28.962z"/></g><path d="m423.35 447.064v28.962h-167.346c0-16.005 12.969-28.962 28.962-28.962z" fill="#ccc"/><path d="m227.042 447.064c15.993 0 28.962 12.958 28.962 28.962h-167.346v-28.962z" fill="#ccc"/><path d="m284.966 447.064c-15.993 0-28.962 12.958-28.962 28.962v-109.295l2.001-1.069c4.829 3.323 10.67 5.254 16.97 5.254 5.818 0 11.233-1.656 15.832-4.519 5.438 7.623 14.349 12.59 24.432 12.59 10.267 0 19.327-5.151 24.731-13.015 5.024 3.794 11.291 6.048 18.074 6.048 16.568 0 30.008-13.429 30.008-29.997 0-16.579-13.441-30.009-30.008-30.009-2.001 0-3.955.195-5.841.575-.506-20.937-17.626-37.758-38.689-37.758-10.566 0-20.144 4.243-27.123 11.118v-70.595h136.959v38.62 107.801 85.288z" fill="#f2f2f2"/><path d="m256.004 366.731v109.295c0-16.005-12.969-28.962-28.962-28.962h-138.384v-25.754-167.335-38.62h136.958v70.595c-6.99-6.876-16.556-11.118-27.134-11.118-21.052 0-38.172 16.821-38.678 37.758-1.897-.379-3.852-.575-5.852-.575-16.568 0-29.997 13.429-29.997 30.009 0 16.568 13.429 29.997 29.997 29.997 6.795 0 13.05-2.254 18.074-6.048 5.415 7.864 14.475 13.015 24.731 13.015 10.083 0 18.994-4.967 24.432-12.59 4.599 2.863 10.026 4.519 15.844 4.519 7.197 0 13.797-2.529 18.971-6.761.644.529 1.311 1.035 2.001 1.506z" fill="#f2f2f2"/><path d="m286.392 285.95c6.979-6.876 16.556-11.118 27.123-11.118 21.063 0 38.183 16.821 38.689 37.758 1.886-.379 3.84-.575 5.841-.575 16.568 0 30.008 13.429 30.008 30.008 0 16.568-13.441 29.997-30.008 29.997-6.784 0-13.05-2.254-18.074-6.048-5.404 7.864-14.464 13.015-24.731 13.015-10.083 0-18.994-4.967-24.432-12.59-4.599 2.863-10.014 4.519-15.832 4.519-6.301 0-12.141-1.932-16.97-5.254-.69-.471-1.357-.977-2.001-1.506-5.174 4.231-11.773 6.761-18.971 6.761-5.818 0-11.245-1.656-15.844-4.519-5.438 7.623-14.349 12.59-24.432 12.59-10.256 0-19.316-5.151-24.731-13.015-5.024 3.794-11.279 6.048-18.074 6.048-16.568 0-29.997-13.429-29.997-29.997 0-16.579 13.429-30.008 29.997-30.008 2.001 0 3.955.195 5.852.575.506-20.937 17.626-37.758 38.678-37.758 10.578 0 20.144 4.243 27.134 11.118v-70.595-18.316h60.776v18.316z" fill="#2ba5f7"/><path d="m174.886 195.569c1.067.442 2.187.657 3.297.657 2.244 0 4.45-.876 6.101-2.526 20.977-20.976 70.456-16.894 70.948-16.851l.002-.021c.255.023.51.055.766.055.255 0 .51-.032.766-.055l.002.021c.125-.01 12.739-1.103 28.138.599 13.623 1.506 32.108 5.549 42.81 16.252 1.651 1.65 3.856 2.526 6.101 2.526 1.111 0 2.231-.215 3.298-.657 3.223-1.335 5.323-4.479 5.323-7.967 0-62.22-25.854-93.763-34.985-102.962-1.214-33.607-18.468-64.496-46.689-83.204-2.888-1.914-6.64-1.914-9.528 0-28.221 18.708-45.474 49.597-46.688 83.204-9.13 9.199-34.985 40.743-34.985 102.962-.001 3.489 2.1 6.632 5.323 7.967zm149.553-25.011c-14.363-7.245-31.412-9.986-45.008-10.907 13.038-13.936 21.995-31.166 25.89-49.869 1.297 2.036 2.627 4.276 3.957 6.762 5.981 11.177 12.907 28.99 15.161 54.014zm-68.44-151.357c5.525 4.214 10.464 9.023 14.762 14.301-4.576 2.197-9.622 3.385-14.764 3.385-5.137 0-10.181-1.188-14.759-3.385 4.297-5.277 9.237-10.086 14.761-14.301zm-24.326 28.789c7.432 3.994 15.801 6.143 24.324 6.143 8.529 0 16.898-2.149 24.328-6.143 6.448 12.285 9.956 26.112 9.956 40.452 0 27.317-12.713 52.787-34.281 69.24-21.569-16.453-34.281-41.923-34.281-69.24-.002-14.34 3.506-28.168 9.954-40.452zm-28.953 68.553c1.329-2.486 2.659-4.725 3.957-6.762 3.894 18.703 12.851 35.933 25.889 49.869-13.595.921-30.644 3.663-45.008 10.907 2.255-25.023 9.182-42.836 15.162-54.014z" fill="#333"/><path d="m282.73 87.578c0-14.74-11.992-26.731-26.731-26.731s-26.731 11.992-26.731 26.731 11.992 26.731 26.731 26.731 26.731-11.991 26.731-26.731zm-36.215 0c0-5.23 4.254-9.484 9.484-9.484s9.484 4.255 9.484 9.484-4.254 9.484-9.484 9.484-9.484-4.253-9.484-9.484z" fill="#333"/><path d="m455.524 245.347h-23.554v-29.991c0-4.762-3.86-8.623-8.623-8.623h-128.336v-9.689c0-4.762-3.86-8.623-8.623-8.623s-8.623 3.861-8.623 8.623v88.902 29.516c0 4.762 3.86 8.623 8.623 8.623s8.623-3.861 8.623-8.623v-25.626c5.269-4.136 11.722-6.386 18.504-6.386 16.186 0 29.673 13.163 30.061 29.344.062 2.542 1.242 4.929 3.226 6.519 1.986 1.59 4.569 2.225 7.066 1.733 1.379-.272 2.784-.41 4.175-.41 11.791 0 21.383 9.592 21.383 21.383s-9.592 21.383-21.383 21.383c-4.69 0-9.141-1.491-12.874-4.312-1.878-1.419-4.254-2.009-6.577-1.633-2.324.377-4.392 1.686-5.726 3.625-4 5.815-10.592 9.287-17.63 9.287-6.887 0-13.396-3.357-17.412-8.982-2.646-3.703-7.715-4.716-11.576-2.309-3.38 2.106-7.28 3.218-11.278 3.218-4.986 0-9.659-1.666-13.515-4.816-3.176-2.595-7.738-2.595-10.913 0-3.856 3.15-8.529 4.816-13.516 4.816-3.997 0-7.896-1.113-11.278-3.219-3.864-2.405-8.934-1.393-11.576 2.309-4.015 5.625-10.524 8.982-17.412 8.982-7.038 0-13.629-3.472-17.629-9.287-1.334-1.94-3.402-3.248-5.725-3.624-2.326-.378-4.7.213-6.578 1.632-3.733 2.822-8.185 4.312-12.874 4.312-11.791 0-21.383-9.592-21.383-21.383s9.592-21.383 21.383-21.383c1.39 0 2.795.138 4.174.41 2.498.492 5.081-.143 7.065-1.733 1.986-1.591 3.165-3.976 3.227-6.519.391-16.18 13.875-29.344 30.061-29.344 6.782 0 13.235 2.251 18.504 6.386v25.626c0 4.762 3.86 8.623 8.623 8.623s8.623-3.861 8.623-8.623v-29.516-88.902c0-4.762-3.86-8.623-8.623-8.623s-8.623 3.861-8.623 8.623v9.689h-128.331c-4.763 0-8.623 3.861-8.623 8.623v29.991h-23.555c-4.763 0-8.623 3.861-8.623 8.623v249.407c0 4.762 3.86 8.623 8.623 8.623h399.047c4.763 0 8.623-3.861 8.623-8.623v-249.406c.001-4.762-3.86-8.623-8.622-8.623zm-166.836 131.681c7.113 6.724 16.61 10.587 26.549 10.587 9.961 0 19.423-3.844 26.524-10.551 5.055 2.359 10.573 3.585 16.283 3.585 21.299 0 38.629-17.329 38.629-38.629 0-20.735-16.421-37.706-36.94-38.593-4.693-21.19-23.81-37.222-46.216-37.222-6.456 0-12.723 1.291-18.504 3.75v-45.975h119.711v214.463h-129.763c-7.491 0-14.471 2.212-20.338 6.004v-66.335c3.353.935 6.833 1.433 10.349 1.433 4.716-.002 9.358-.86 13.716-2.517zm126.036 78.66v11.716h-148.18c3.25-6.916 10.285-11.716 18.419-11.716zm-317.445 0h129.759c8.129 0 15.139 4.804 18.393 11.711h-148.152zm119.708-231.709v45.975c-5.78-2.459-12.048-3.75-18.504-3.75-22.406 0-41.524 16.03-46.215 37.222-20.521.886-36.94 17.858-36.94 38.593 0 21.3 17.329 38.629 38.629 38.629 5.71 0 11.226-1.224 16.283-3.585 7.102 6.708 16.562 10.551 26.522 10.551 9.938 0 19.435-3.863 26.55-10.587 4.358 1.657 9 2.516 13.715 2.516 3.516 0 6.997-.498 10.35-1.433v66.322c-5.867-3.79-12.852-5.991-20.339-5.991h-129.759l-.001-214.463h119.71v.001zm-151.888 38.615h14.932l.001 213.429c0 4.762 3.86 8.623 8.623 8.623h158.721v10.109h-182.277zm381.801 232.159h-182.278v-10.104h158.724c4.763 0 8.623-3.861 8.623-8.623v-213.432h14.931z" fill="#333"/><path d="m247.376 232.684v53.261c0 4.762 3.86 8.623 8.623 8.623s8.623-3.861 8.623-8.623v-53.261c0-4.762-3.86-8.623-8.623-8.623s-8.623 3.861-8.623 8.623z" fill="#333"/></svg>