<svg height="800" viewBox="0 0 512 512" width="800" xmlns="http://www.w3.org/2000/svg"><path d="m114.864 296.084v19.533 44.914c0 13.594 14.384 21.936 26.491 15.757 2.941-1.51 6.477-2.506 11.191-2.506 18.835 0 18.835 16.02 37.671 16.02s18.835-16.02 37.682-16.02c18.835 0 18.835 16.02 37.682 16.02 13.377 0 17.256-8.079 25.118-12.759 7.85-4.669 12.565-13.217 12.565-22.337v-21.719h17.359c9.601 0 17.371-7.781 17.371-17.371v-39.067c0-9.589-7.77-17.371-17.371-17.371h-188.388c-9.589 0-17.371 7.781-17.371 17.371zm94.543-93.902h162.87v218.083h-334.563v-218.083z" fill="#2ba5f7"/><path d="m136.594 488.535h-99.04c-15.997 0-28.974-12.977-28.974-28.974v-10.161h102.016v13.137c0 14.36 11.637 25.998 25.998 25.998z" fill="#ccc"/><path d="m209.407 202.182h-171.693v218.083h334.563v-218.083zm0-29.134h177.803c7.839 0 14.201 6.362 14.201 14.201v262.151h-290.815-102.016v-262.151c0-7.839 6.362-14.201 14.201-14.201z" fill="#f2f2f2"/><path d="m503.415 449.399v13.137c0 14.361-11.638 25.999-25.999 25.999h-76.005-264.817c-14.361 0-25.999-11.638-25.999-25.999v-13.137h290.816z" fill="#f2f2f2"/><path d="m229.295 23.463v124.513h-19.888-22.097v-124.513z" fill="#f7b239"/><path d="m132.235 259.18c9.589 0 17.371 7.781 17.371 17.371v39.067c0 4.795-1.945 9.143-5.092 12.278-3.147 3.147-7.484 5.092-12.278 5.092-9.589 0-17.371-7.781-17.371-17.371v-19.533-19.533c-.001-9.59 7.78-17.371 17.37-17.371z" fill="#ccc"/><path d="m303.264 332.988v21.719c0 9.12-4.715 17.668-12.565 22.337-7.861 4.68-11.741 12.759-25.118 12.759-18.847 0-18.847-16.02-37.682-16.02-18.847 0-18.847 16.02-37.682 16.02s-18.835-16.02-37.671-16.02c-4.715 0-8.251.996-11.191 2.506-12.107 6.179-26.491-2.163-26.491-15.757v-44.914c0 9.589 7.781 17.371 17.371 17.371h171.029z" fill="#f95428"/><path d="m337.993 276.551v39.067c0 9.589-7.77 17.371-17.371 17.371h-17.359-171.028c4.795 0 9.132-1.945 12.278-5.092 3.147-3.135 5.092-7.484 5.092-12.278v-39.067c0-9.589-7.781-17.371-17.371-17.371h188.388c9.602-.001 17.371 7.78 17.371 17.37z" fill="#f95428"/><path d="m503.418 440.817h-93.429v-253.572c0-12.56-10.218-22.778-22.776-22.778h-169.221v-7.911h11.298c4.741 0 8.582-3.843 8.582-8.582v-124.509c0-4.74-3.841-8.582-8.582-8.582h-41.98c-4.741 0-8.582 3.843-8.582 8.582v124.509c0 4.74 3.841 8.582 8.582 8.582h13.518v7.911h-178.052c-12.558.001-22.776 10.218-22.776 22.778v272.318c0 20.708 16.848 37.554 37.554 37.554h99.038 264.814 76.012c19.069 0 34.582-15.513 34.582-34.582v-13.136c0-4.74-3.843-8.582-8.582-8.582zm-307.525-408.769h24.816v107.345h-24.816zm-178.728 155.197c0-3.095 2.517-5.613 5.612-5.613h178.051v11.965h-163.116c-4.741 0-8.582 3.843-8.582 8.582v218.091c0 4.74 3.841 8.582 8.582 8.582h334.564c4.741 0 8.582-3.843 8.582-8.582v-218.092c0-4.74-3.841-8.582-8.582-8.582h-154.284v-11.965h169.22c3.094 0 5.612 2.517 5.612 5.613v253.572h-375.659zm79.487 117.422h9.631v55.867c0 9.251 4.688 17.644 12.539 22.453 8.049 4.931 17.93 5.282 26.435.943 1.316-.672 3.505-1.565 7.285-1.565 6.264 0 8.904 2.245 13.279 5.965 4.989 4.243 11.823 10.055 24.398 10.055 12.574 0 19.408-5.812 24.397-10.055 4.375-3.72 7.016-5.965 13.279-5.965 6.265 0 8.906 2.245 13.281 5.966 4.99 4.243 11.824 10.054 24.4 10.054s19.41-5.811 24.4-10.054c1.752-1.49 3.408-2.897 5.115-3.914 10.33-6.148 16.748-17.533 16.748-29.71v-13.137h8.787c14.31 0 25.951-11.641 25.951-25.951v-39.068c0-14.308-11.641-25.951-25.951-25.951h-188.393c-14.31 0-25.951 11.641-25.951 25.951v10.952h-9.631c-3.208 0-5.817-2.609-5.817-5.817v-33.852c0-3.208 2.609-5.817 5.817-5.817h98.358c12.672 0 22.981-10.309 22.981-22.98v-8.277h145.702v200.926h-317.398v-200.925h154.533v8.277c0 3.206-2.609 5.815-5.817 5.815h-98.358c-12.672 0-22.981 10.309-22.981 22.981v33.852c0 12.673 10.309 22.981 22.981 22.981zm29.656-17.165h-2.861v-10.952c0-4.844 3.941-8.786 8.786-8.786s8.786 3.941 8.786 8.786v39.068c0 4.844-3.941 8.786-8.786 8.786s-8.786-3.941-8.786-8.786v-10.951h2.861c4.741 0 8.582-3.843 8.582-8.582s-3.842-8.583-8.582-8.583zm-2.861 52.533c2.745.991 5.703 1.533 8.786 1.533h162.442v13.137c0 6.158-3.204 11.891-8.363 14.96-2.948 1.755-5.343 3.791-7.455 5.588-4.376 3.72-7.017 5.965-13.281 5.965s-8.906-2.245-13.281-5.966c-4.99-4.243-11.824-10.054-24.4-10.054-12.575 0-19.409 5.812-24.398 10.055-4.375 3.72-7.016 5.965-13.279 5.965-6.264 0-8.904-2.245-13.279-5.965-4.989-4.243-11.823-10.055-24.398-10.055-5.614 0-10.549 1.125-15.088 3.441-3.138 1.603-6.753 1.494-9.668-.292-2.757-1.689-4.338-4.536-4.338-7.815zm33.203-15.631c.991-2.745 1.533-5.703 1.533-8.786v-39.068c0-3.083-.544-6.041-1.533-8.786h163.977c4.844 0 8.786 3.941 8.786 8.786v39.068c0 4.844-3.941 8.786-8.786 8.786zm-139.485 135.158v-1.58h84.846v4.553c0 6.349 1.727 12.298 4.725 17.418h-69.182c-11.243-.001-20.389-9.148-20.389-20.391zm477.67 2.973c0 9.604-7.813 17.418-17.418 17.418h-76.012-264.813c-9.604 0-17.416-7.813-17.416-17.418v-4.553h282.23 93.429z" fill="#333"/></svg>