<svg fill="none" height="30" viewBox="0 0 30 30" width="30" xmlns="http://www.w3.org/2000/svg" xmlns:xlink="http://www.w3.org/1999/xlink"><clipPath id="a"><path d="m0 0h30v30h-30z"/></clipPath><g clip-path="url(#a)"><path d="m29.7586 13.6408c-.228-.6341-.5992-1.1846-1.0675-1.644-.0073-.0066-.0157-.0143-.023-.0209-.0934-.0912-.1893-.1791-.2936-.2593-.0352-.0319-.0691-.056-.1079-.0846-.0777-.0626-.159-.1231-.2402-.1747-.0583-.0418-.1201-.077-.1783-.1154-.0692-.0418-.1359-.0802-.2051-.1187-.0351-.0209-.0655-.0418-.1043-.0593l-20.207-10.57147c-.17832-.094505-.36028-.171429-.54224-.241758h-.00728c-.14314-.056044-.28992-.105495-.43306-.147253-.01577-.003297-.03154-.006593-.04609-.010989-.13586-.038462-.27415-.07033-.41001-.0945055-.03882-.0065934-.074-.0142857-.1116-.0175824-.1201-.0208791-.23655-.0384615-.35543-.0527472-.05823-.0032967-.11645-.0065934-.17468-.010989-.10068-.0065935-.20136-.01428576-.29841-.01428576-.02305 0-.04246-.0032967-.06186-.0032967-.05823 0-.11282.0065934-.16619.01098896-.08128 0-.16255.0032968-.24383.0109891-.0934.0065934-.17831.0175824-.26687.0285714-.0655.0065934-.13586.0175824-.20136.0285714-.08856.0142857-.17832.0318677-.26688.0527477-.06914.014285-.1395.031868-.20864.04945l-.22078.062637c-.08491.027473-.16982.056044-.25595.087913-.04974.017582-.09705.035164-.14314.052747-.11282.045055-.22442.094505-.33238.147253-.01577.006593-.02668.014285-.04245.020879-.75088.368132-1.40472.918679-1.868105 1.626369-.007279.01099-.01577.02418-.023048.03517-.189236.3011-.336016.61648-.44519.93626-.038818.12967-.077636.25934-.104323.38901 0 .0066-.0036391.01759-.0036391.02857-.0315394.12638-.0497352.25605-.0655048.38572-.0072783.04615-.0072783.08791-.0121306.12967-.0036391.05934-.0072783.11868-.01213048.17912-.00363916.03846-.00363916.07692-.00363916.11539 0 .01758-.00363916.03846-.00363916.05604v21.14061c0 .0176.00363916.0385.00363916.0561 0 .0385 0 .0769.00363916.1154.00363918.0593.00727828.1187.01213048.1791.0036392.0418.0036392.0846.0121306.1297.0157696.1296.0351785.2593.0655048.3857 0 .011.0036391.0209.0036391.0286.026687.1296.065505.2593.104323.389.107961.3186.255954.634.44519.9362.007278.011.015769.0242.023048.0352.464595.7077 1.118435 1.2582 1.868105 1.6264.01577.0066.02668.0143.04245.0208.10796.0528.22078.1022.33238.1473.04609.0176.0934.0352.14314.0527.08491.0319.16983.0594.25595.088.074.0208.14678.045.22078.0626.06914.0176.1395.0352.20864.0494.08856.0209.17468.0385.26324.0528.06914.011.1395.0209.205.0286.08856.011.17832.0208.26687.0285.08128.0066.16255.011.24383.0143.05458 0 .10796.0066.16619.0066.0194 0 .03881-.0033.06186-.0033.09705 0 .19773-.0066.29841-.0143.05823-.0033.11645-.0066.17468-.011.12009-.0142.23655-.0318.35543-.0494.03881-.0066.07399-.011.1116-.0176.13586-.0286.27415-.0593.41001-.0978.01577-.0033.03154-.0066.04609-.011.14314-.0417.28992-.0912.43306-.1439 0 0 .00243-.0011.00728-.0033.18196-.0704.36392-.1473.54224-.2418l19.8201-10.367c2.2247-.9286 3.3856-3.2385 2.608-5.4011zm-19.97896 4.2571v-5.7967l5.53996 2.8989-5.53996 2.8989z" fill="#ff5c35"/></g></svg>